<?xml version="1.0" standalone="no"?>
<!DOCTYPE svg PUBLIC "-//W3C//DTD SVG 1.1//EN" "http://www.w3.org/Graphics/SVG/1.1/DTD/svg11.dtd" >
<svg>
<metadata>
Created by FontForge 20090914 at Fri Mar 14 15:40:41 2014
 By www-data
2006 Dziedzic Lukasz published by FSI Fonts und Software GmbH
</metadata>
<defs>
<font id="Clan-NarrowBold" horiz-adv-x="383" >
  <font-face 
    font-family="Clan"
    font-weight="700"
    font-stretch="condensed"
    units-per-em="1000"
    panose-1="2 0 8 6 0 0 0 0 0 0"
    ascent="800"
    descent="-200"
    x-height="607"
    cap-height="750"
    bbox="-124 -231 974 945"
    underline-thickness="39"
    underline-position="-81"
    unicode-range="U+0020-U+FFFD"
  />
<missing-glyph horiz-adv-x="578" 
d="M57 0v750h464v-750h-464zM146 89h286v572h-286v-572z" />
    <glyph glyph-name=".notdef" unicode="&#xfffd;" horiz-adv-x="578" 
d="M57 0v750h464v-750h-464zM146 89h286v572h-286v-572z" />
    <glyph glyph-name=".null" horiz-adv-x="0" 
 />
    <glyph glyph-name=".null" horiz-adv-x="0" 
 />
    <glyph glyph-name="space" unicode=" " horiz-adv-x="244" 
 />
    <glyph glyph-name="exclam" unicode="!" horiz-adv-x="279" 
d="M196 215h-113l-23 535h159zM225 64c0 -50 -27.667 -75.001 -83 -75.001c-28.667 0 -49.5 5.83301 -62.5 17.5s-19.5 30.834 -19.5 57.501c0 50.667 27.333 76 82 76c55.333 0 83 -25.333 83 -76z" />
    <glyph glyph-name="quotedbl" unicode="&#x22;" horiz-adv-x="400" 
d="M232 768h140l-25 -267h-94zM42 768h140l-25 -267h-94z" />
    <glyph glyph-name="numbersign" unicode="#" horiz-adv-x="578" 
d="M33 303h92l20 139h-111v113h125l26 195h115l-26 -195h78l25 195h113l-26 -195h80v-113h-94l-19 -139h113v-116h-127l-25 -187h-113l25 187h-79l-25 -187h-114l25 187h-78v116zM260 442l-21 -139h79l19 139h-77z" />
    <glyph glyph-name="dollar" unicode="$" horiz-adv-x="542" 
d="M255 -80l-79.0049 5.99902l8 66c-62.667 8 -111 22.333 -145 43c2 14 4.83301 35.833 8.5 65.5s6.83398 53.834 9.50098 72.501c42.667 -24.667 90.667 -42.334 144 -53.001l26 195c-27.333 11.333 -50.5 22.5 -69.5 33.5s-38.667 25.333 -59 43
s-35.666 39.167 -45.999 64.5s-15.5 54.333 -15.5 87c0 141.333 83 214 249 218l9 63l87 -6l-9 -63c41.333 -5.33301 74.333 -13.666 99 -24.999l-9 -133c-35.333 10.667 -71.666 18 -108.999 22l-25 -174c25.333 -10 47.333 -20.5 66 -31.5s37.334 -25.167 56.001 -42.5
s32.834 -38.833 42.501 -64.5s14.5 -55.167 14.5 -88.5c0 -77.333 -19.667 -134.833 -59 -172.5s-101 -57.167 -185 -58.5zM389.995 197.999c0 18.667 -7 34.5 -21 47.5s-35 25.833 -63 38.5l-24 -170c72 2.66699 108 30.667 108 84zM167.995 549.999
c0 -17.333 6.83301 -31.666 20.5 -42.999s33.5 -22 59.5 -32l20 149c-66.667 -2.66699 -100 -27.334 -100 -74.001z" />
    <glyph glyph-name="percent" unicode="%" horiz-adv-x="687" 
d="M320 587c0 -115.333 -48.666 -173 -145.999 -173s-146 57.667 -146 173c0 60 11.667 103.667 35 131s60.666 41 111.999 41c48.667 0 85 -13.333 109 -40s36 -70.667 36 -132zM222.001 587c0 30.667 -3.66699 51.5 -11 62.5s-19.333 16.5 -36 16.5
c-17.333 0 -29.833 -5.5 -37.5 -16.5s-11.5 -31.833 -11.5 -62.5c0 -30 3.83301 -50.667 11.5 -62s20.167 -17 37.5 -17c16.667 0 28.667 5.5 36 16.5s11 31.833 11 62.5zM491.001 710l84 -68l-392 -608l-83 68zM659.001 163c0 -115.333 -49.001 -173 -147.001 -173
c-97.333 0 -146 57.667 -146 173c0 60.667 11.833 105 35.5 133s60.834 42 111.501 42c48.667 0 85.167 -13.833 109.5 -41.5s36.5 -72.167 36.5 -133.5zM561 163c0 29.333 -3.83301 49.5 -11.5 60.5s-19.834 16.5 -36.501 16.5c-17.333 0 -29.666 -5.33301 -36.999 -16
s-11 -31 -11 -61s3.66699 -50.333 11 -61s19.333 -16 36 -16c17.333 0 29.833 5.33301 37.5 16s11.5 31 11.5 61z" />
    <glyph glyph-name="ampersand" unicode="&#x26;" horiz-adv-x="669" 
d="M662 128l-53.999 -137c-44.667 20.667 -93.334 51 -146.001 91c-65.333 -63.333 -140.333 -95 -225 -95c-70.667 0 -123.5 19.833 -158.5 59.5s-52.5 89.5 -52.5 149.5c0 79.333 41.333 152.666 124 219.999c-40 66 -60 121 -60 165c0 54.667 16.167 98.5 48.5 131.5
s83.5 49.5 153.5 49.5c57.333 0 103.833 -13.667 139.5 -41s53.5 -64 53.5 -110c0 -21.333 -4.16699 -42 -12.5 -62s-21.5 -39.667 -39.5 -59s-33.833 -35 -47.5 -47s-33.5 -28 -59.5 -48c38 -46 78.667 -87.667 122 -125c20.667 38.667 36 80.667 46 126l125 -1
c-7.33301 -65.333 -31 -132.666 -71 -201.999c40.667 -27.333 78.667 -49 114 -65zM261.001 128c35.333 0 69.332 12 101.999 36c-49.333 45.333 -95.333 94 -138 146c-32 -34 -48 -67.667 -48 -101c0 -26 7.33301 -46 22 -60s35.334 -21 62.001 -21zM226 582
c0 -23.333 10 -53 30 -89c56 40.667 84.333 75.667 85 105c0 16 -4.83301 28.167 -14.5 36.5s-22.5 12.5 -38.5 12.5c-18.667 0 -33.667 -5.5 -45 -16.5s-17 -27.167 -17 -48.5z" />
    <glyph glyph-name="quotesingle" unicode="'" horiz-adv-x="210" 
d="M35 768h140l-25 -267h-94z" />
    <glyph glyph-name="parenleft" unicode="(" horiz-adv-x="337" 
d="M222 791l112 -9c-80 -127.333 -120 -278.666 -120 -453.999c0 -172.667 39.667 -324 119 -454l-111 -9c-48 57.333 -84.833 126.333 -110.5 207s-38.5 166 -38.5 256c0 187.333 49.667 341.666 149 462.999z" />
    <glyph glyph-name="parenright" unicode=")" horiz-adv-x="337" 
d="M4 782l112 9c98.667 -122 148 -276.333 148 -463c0 -90 -12.833 -175.333 -38.5 -256s-62.167 -149.667 -109.5 -207l-112 9c79.333 130 119 281.333 119 454c0 174.667 -39.667 326 -119 454z" />
    <glyph glyph-name="asterisk" unicode="*" horiz-adv-x="362" 
d="M149 783h69l9 -100l97 24l24 -71l-95 -40l57 -87l-53 -42l-73 78l-76 -79l-54 40l55 90l-94 40l25 71l97 -24z" />
    <glyph glyph-name="plus" unicode="+" horiz-adv-x="556" 
d="M499 267h-158v-158h-129v158h-156v135h156v159h129v-159h158v-135z" />
    <glyph glyph-name="comma" unicode="," horiz-adv-x="247" 
d="M122 151c56 0 83.999 -29.3311 83.999 -87.998c0 -24.667 -9 -57.834 -27 -99.501s-37.667 -76.834 -59 -105.501l-52 13l24 119c-13.333 6.66699 -25.166 17 -35.499 31s-15.5 29.333 -15.5 46c0 56 27 84 81 84z" />
    <glyph glyph-name="hyphen" unicode="-" horiz-adv-x="359" 
d="M47 397h265v-108h-265v108z" />
    <glyph glyph-name="period" unicode="." horiz-adv-x="251" 
d="M210 71c0 -54.667 -28 -82 -84 -82c-30 0 -51.667 6.33301 -65 19s-20 33.667 -20 63c0 55.333 28.333 83 85 83c56 0 84 -27.667 84 -83z" />
    <glyph glyph-name="slash" unicode="/" horiz-adv-x="423" 
d="M304 787h125l-313 -906h-122z" />
    <glyph glyph-name="zero" unicode="0" horiz-adv-x="589" 
d="M550 372c0 -135.333 -20.334 -232.833 -61.001 -292.5s-106 -89.5 -196 -89.5s-154.667 29.5 -194 88.5s-59 156.833 -59 293.5c0 142 19.5 241.833 58.5 299.5s104.5 86.5 196.5 86.5c90.667 0 155.834 -29 195.501 -87s59.5 -157.667 59.5 -299zM398.999 374
c0 69.333 -4.00098 122.001 -12.001 158.001s-18.833 59.5 -32.5 70.5s-33.5 16.5 -59.5 16.5s-46 -5.66699 -60 -17s-25 -35 -33 -71s-12 -88.333 -12 -157c0 -71.333 4 -125.333 12 -162s18.833 -60.334 32.5 -71.001s33.834 -16 60.501 -16c26 0 46 5.66699 60 17
s24.833 35.333 32.5 72s11.5 90 11.5 160z" />
    <glyph glyph-name="one" unicode="1" horiz-adv-x="589" 
d="M149 0v113h101v366l2 80l-2 2l-63 -39l-63 -37l-17 128l210 137h90v-637h100v-113h-358z" />
    <glyph glyph-name="two" unicode="2" horiz-adv-x="589" 
d="M531 544c0 -60 -21.834 -120.334 -65.501 -181.001s-110.5 -133.667 -200.5 -219l1 -3h264l-3 -141h-459v102l66.5 71.5l65.5 71.5l54 61.5c23.333 27 40.166 48.167 50.499 63.5s21.833 33.333 34.5 54s21.334 39.334 26.001 56.001s7 32.667 7 48
c0 58.667 -36 88 -108 88c-52.667 0 -107 -21 -163 -63l-37 128c64 51.333 140.667 77 230 77c76.667 0 135.334 -19 176.001 -57s61 -90.333 61 -157z" />
    <glyph glyph-name="three" unicode="3" horiz-adv-x="589" 
d="M539 225c0 -73.333 -22.5 -130.665 -67.5 -171.998s-112.833 -62 -203.5 -62c-78.667 0 -147.334 17.333 -206.001 52l28 124c55.333 -29.333 112.333 -44 171 -44c84.667 0 127 35.667 127 107c0 34 -13.333 59.5 -40 76.5s-74 25.5 -142 25.5v113
c65.333 0 110.5 8 135.5 24s37.5 40.667 37.5 74c0 52 -37 78 -111 78c-62.667 0 -120 -21 -172 -63l-35 124c60 50.667 133 76 219 76c76.667 0 136.334 -17.833 179.001 -53.5s64 -85.834 64 -150.501c0 -74.667 -32.333 -128 -97 -160v-2
c75.333 -28.667 113 -84.334 113 -167.001z" />
    <glyph glyph-name="four" unicode="4" horiz-adv-x="589" 
d="M559 144h-67v-144h-142v144h-303l-13 102l273 504h185v-473h70zM354 277l7 244l4 81l-2 1l-37 -73l-132 -253h160z" />
    <glyph glyph-name="five" unicode="5" horiz-adv-x="589" 
d="M537 259c0 -178.667 -86.334 -268.001 -259.001 -268.001c-82 0 -151.667 17.333 -209 52l26 125c54.667 -29.333 110 -44 166 -44c44.667 0 76.167 9.66699 94.5 29s27.5 50.333 27.5 93c0 36.667 -9.5 62.834 -28.5 78.501s-49.167 23.5 -90.5 23.5
c-48.667 0 -94 -8.33301 -136 -25l-52 60l28 367h393l6 -139h-276l-11 -145c31.333 7.33301 63.333 11 96 11c72.667 0 128.334 -18.333 167.001 -55s58 -91 58 -163z" />
    <glyph glyph-name="six" unicode="6" horiz-adv-x="589" 
d="M547 264c0 -182 -81.335 -273 -244.002 -273c-88 0 -153.5 27.833 -196.5 83.5s-64.5 149.834 -64.5 282.501c0 133.333 25.833 233.666 77.5 300.999s127.834 101 228.501 101c61.333 0 113.666 -9 156.999 -27l-11 -135c-41.333 14.667 -84.333 22 -129 22
c-55.333 0 -96.666 -13.5 -123.999 -40.5s-44 -70.167 -50 -129.5l2 -2c40.667 28 86.334 42 137.001 42c144.667 0 217 -75 217 -225zM396.998 267c0 34.667 -7.83398 60.167 -23.501 76.5s-40.167 24.5 -73.5 24.5c-18 0 -37.167 -4.33301 -57.5 -13
s-35.166 -20 -44.499 -34c0.666992 -76 8.66699 -127.833 24 -155.5s42 -41.5 80 -41.5c63.333 0 95 47.667 95 143z" />
    <glyph glyph-name="seven" unicode="7" horiz-adv-x="589" 
d="M545 749v-130l-256 -619h-171l278 600h-350l7 149h492z" />
    <glyph glyph-name="eight" unicode="8" horiz-adv-x="589" 
d="M42 219c0 34 8.5 66.332 25.5 96.999s40.833 56.334 71.5 77.001c-48.667 38.667 -73 94.667 -73 168c0 63.333 19 112.166 57 146.499s95.667 51.5 173 51.5c152.667 0 229 -66.333 229 -199c0 -67.333 -26 -121.666 -78 -162.999c67.333 -37.333 101 -97.333 101 -180
c0 -151.333 -84 -227 -252 -227c-169.333 0 -254 76.333 -254 229zM401 204.999c0 14 -3 26.835 -9 38.502s-12.167 21.167 -18.5 28.5s-17.666 15.166 -33.999 23.499s-28.5 14.166 -36.5 17.499l-45 18c-46 -33.333 -69 -71.333 -69 -114
c0 -37.333 8.66699 -63.833 26 -79.5s45.666 -23.5 84.999 -23.5c67.333 0 101 30.333 101 91zM207 553.001c0 -29.333 10.167 -51.668 30.5 -67.001s50.5 -29.666 90.5 -42.999c41.333 28 62 63 62 105c0 29.333 -7.66699 50.833 -23 64.5s-39.333 20.5 -72 20.5
c-58.667 0 -88 -26.667 -88 -80z" />
    <glyph glyph-name="nine" unicode="9" horiz-adv-x="589" 
d="M545 404c0 -145.333 -24.167 -250.5 -72.5 -315.5s-122.166 -97.5 -221.499 -97.5c-65.333 0 -122.666 11.333 -171.999 34l21 128c45.333 -18.667 90.666 -28 135.999 -28c52.667 0 91.167 15 115.5 45s39.166 79 44.499 147l-2 2c-35.333 -24.667 -80 -37 -134 -37
c-72 0 -126.667 20 -164 60s-56 95.667 -56 167c0 80.667 20.5 142.5 61.5 185.5s102.5 64.5 184.5 64.5c172.667 0 259 -118.333 259 -355zM393 456c-0.666992 62.667 -9.99902 106.667 -27.999 132s-45 38 -81 38c-32.667 0 -57 -8.66699 -73 -26s-24 -45.333 -24 -84
c0 -37.333 8.16699 -64.833 24.5 -82.5s42.166 -26.5 77.499 -26.5c49.333 0 84 16.333 104 49z" />
    <glyph glyph-name="colon" unicode=":" horiz-adv-x="251" 
d="M210 484c0 -54.667 -28 -82 -84 -82c-30 0 -51.667 6.33301 -65 19s-20 33.667 -20 63c0 55.333 28.333 83 85 83c56 0 84 -27.667 84 -83zM210 71c0 -54.667 -28 -82 -84 -82c-30 0 -51.667 6.33301 -65 19s-20 33.667 -20 63c0 55.333 28.333 83 85 83
c56 0 84 -27.667 84 -83z" />
    <glyph glyph-name="semicolon" unicode=";" horiz-adv-x="252" 
d="M212 484c0 -54.667 -28 -82 -84 -82c-30 0 -51.667 6.33301 -65 19s-20 33.667 -20 63c0 55.333 28.333 83 85 83c56 0 84 -27.667 84 -83zM126 151c56 0 83.999 -29.3311 83.999 -87.998c0 -24.667 -9 -57.834 -27 -99.501s-37.667 -76.834 -59 -105.501l-52 13l24 119
c-13.333 6.66699 -25.166 17 -35.499 31s-15.5 29.333 -15.5 46c0 56 27 84 81 84z" />
    <glyph glyph-name="less" unicode="&#x3c;" horiz-adv-x="556" 
d="M477 442l-154 -76l-73 -34v-3l73 -34l155 -77v-145l-399 220v76l398 223v-150z" />
    <glyph glyph-name="equal" unicode="=" horiz-adv-x="556" 
d="M485 366h-415v115h415v-115zM485 171h-415v115h415v-115z" />
    <glyph glyph-name="greater" unicode="&#x3e;" horiz-adv-x="556" 
d="M79 73v145l153 76l74 35v3l-74 34l-153 76v150l399 -223v-76z" />
    <glyph glyph-name="question" unicode="?" horiz-adv-x="464" 
d="M437 575c0 -98.667 -51.668 -179.333 -155.001 -242l-6 -118h-112l-9 172c44.667 28 78 54.333 100 79s33 52.667 33 84c0 47.333 -28.667 71 -86 71c-52 0 -96.333 -17.333 -133 -52l-51 120c23.333 21.333 53.333 38.5 90 51.5s75.334 19.5 116.001 19.5
c70 0 123 -16.333 159 -49s54 -78 54 -136zM301.999 64.001c0 -50 -27.667 -75.001 -83 -75.001c-28.667 0 -49.5 5.83301 -62.5 17.5s-19.5 30.834 -19.5 57.501c0 50.667 27.333 76 82 76c55.333 0 83 -25.333 83 -76z" />
    <glyph glyph-name="at" unicode="@" horiz-adv-x="838" 
d="M425 586c37.333 0 65.6641 -12.668 84.9971 -38.001l15 33l78 -6l-41 -268c-2 -12 -3 -24 -3 -36c0 -44.667 17.667 -67 53 -67c32 0 57.667 16.667 77 50s29 85 29 155c0 90.667 -23.5 163.5 -70.5 218.5s-114.833 82.5 -203.5 82.5
c-105.333 0 -185.666 -34.333 -240.999 -103s-83 -156.667 -83 -264c0 -111.333 27.167 -200.666 81.5 -267.999s135.833 -101 244.5 -101c110.667 0 203.667 31.333 279 94l33 -75c-34.667 -30 -79 -54.5 -133 -73.5s-113.667 -28.5 -179 -28.5
c-129.333 0 -230.166 39.667 -302.499 119s-108.5 190.333 -108.5 333c0 127.333 36.333 234.333 109 321s173.334 130 302.001 130c108.667 0 195.334 -35.667 260.001 -107s97 -164 97 -278c0 -102 -19.5 -178.167 -58.5 -228.5s-87.167 -75.5 -144.5 -75.5
c-58.667 0 -98.334 22.667 -119.001 68c-34 -45.333 -79.333 -68 -136 -68c-40.667 0 -73.5 15.833 -98.5 47.5s-37.5 77.167 -37.5 136.5c0 80 21 149.5 63 208.5s93 88.5 153 88.5zM452.998 313.999l20.999 144c-6.66699 16 -20.334 24 -41.001 24
c-29.333 0 -54.166 -19.5 -74.499 -58.5s-30.5 -83.5 -30.5 -133.5c0 -51.333 16.667 -77 50 -77c18.667 0 34.834 9.16699 48.501 27.5s22.5 42.833 26.5 73.5z" />
    <glyph glyph-name="A" unicode="A" horiz-adv-x="666" 
d="M486 0l-37 148h-240l-37 -148h-166l230 750h192l233 -750h-175zM329 626l-19 -80l-66 -261h171l-66 261l-17 80h-3z" />
    <glyph glyph-name="B" unicode="B" horiz-adv-x="631" 
d="M593 218c0 -145.333 -83.667 -217.999 -251 -217.999h-277v750h275c75.333 0 132.333 -16.5 171 -49.5s58 -80.5 58 -142.5c0 -78.667 -31.333 -131.667 -94 -159v-2c78.667 -24.667 118 -84.334 118 -179.001zM435 230.001c0 33.333 -7.16602 57 -21.499 71
s-38.833 21 -73.5 21h-123v-188h128c31.333 0 54.166 7 68.499 21s21.5 39 21.5 75zM418.001 530.001c0 30.667 -6.49902 52.167 -19.499 64.5s-34.5 18.5 -64.5 18.5h-117v-168h120c29.333 0 50.166 6.5 62.499 19.5s18.5 34.833 18.5 65.5z" />
    <glyph glyph-name="C" unicode="C" horiz-adv-x="543" 
d="M514 733l-16 -139.001c-40 15.333 -83.333 23 -130 23c-61.333 0 -103.833 -16.667 -127.5 -50s-35.5 -95.666 -35.5 -186.999c0 -96.667 12 -162.667 36 -198s67.333 -53 130 -53c45.333 0 88.333 9.33301 129 28l16 -133c-49.333 -24.667 -105.333 -37 -168 -37
c-105.333 0 -183 31.5 -233 94.5s-75 162.5 -75 298.5c0 129.333 25.667 225.5 77 288.5s131.333 94.5 240 94.5c60 0 112.333 -10 157 -30z" />
    <glyph glyph-name="D" unicode="D" horiz-adv-x="668" 
d="M628 379c0 -135.333 -25 -232.333 -75 -291s-127.667 -88 -233 -88h-255v750h252c110.667 0 190.167 -28.667 238.5 -86s72.5 -152.333 72.5 -285zM463 380c0 62 -4.83105 109.167 -14.498 141.5s-24.5 54.333 -44.5 66s-48.667 17.5 -86 17.5h-96v-461h96
c37.333 0 65.666 5.5 84.999 16.5s34.166 33.667 44.499 68s15.5 84.833 15.5 151.5z" />
    <glyph glyph-name="E" unicode="E" horiz-adv-x="561" 
d="M222 142h309l-4 -142h-462v750h448l3 -144h-294v-154h247v-132h-247v-178z" />
    <glyph glyph-name="F" unicode="F" horiz-adv-x="536" 
d="M515 603h-293v-167h245l-2 -139h-243v-297h-157v750h448z" />
    <glyph glyph-name="G" unicode="G" horiz-adv-x="617" 
d="M572 406l-0.00195312 -379c-58 -27.333 -127.333 -41 -208 -41c-115.333 0 -198.166 31.333 -248.499 94s-75.5 160.667 -75.5 294c0 134.667 26.333 233.167 79 295.5s136.667 93.5 252 93.5c70 0 133 -11.333 189 -34l-16 -140c-51.333 20.667 -106 31 -164 31
c-67.333 0 -113.333 -16.833 -138 -50.5s-37 -98.167 -37 -193.5s11.167 -159.833 33.5 -193.5s62.833 -50.5 121.5 -50.5c28.667 0 52.334 2.66699 71.001 8v266h141z" />
    <glyph glyph-name="H" unicode="H" horiz-adv-x="676" 
d="M611 0h-157v311h-232v-311h-157v750h157v-293h232v293h157v-750z" />
    <glyph glyph-name="I" unicode="I" horiz-adv-x="310" 
d="M74 0v750h161v-750h-161z" />
    <glyph glyph-name="J" unicode="J" horiz-adv-x="497" 
d="M433 750v-488c0 -98 -23 -168.5 -69 -211.5s-112.667 -64.5 -200 -64.5c-52 0 -97.333 10 -136 30l9 137c26 -16 59.667 -24 101 -24c44.667 0 78.167 10.833 100.5 32.5s33.5 56.167 33.5 103.5v485h161z" />
    <glyph glyph-name="K" unicode="K" horiz-adv-x="655" 
d="M644 0h-187l-168 320h-67v-320h-157v750h157v-300h71l162 300h178l-199 -357z" />
    <glyph glyph-name="L" unicode="L" horiz-adv-x="515" 
d="M223 146h276l-4 -146h-430v750h158v-604z" />
    <glyph glyph-name="M" unicode="M" horiz-adv-x="842" 
d="M65 750h174l154 -433l26 -76h3l25 76l155 433h175v-750h-144v377l2 81l-3 1l-26 -77l-136 -382h-105l-135 381l-26 77l-2 -1l1 -81v-376h-138v750z" />
    <glyph glyph-name="N" unicode="N" horiz-adv-x="681" 
d="M616 0h-112l-257 406l-42 70l-2 -1l1 -81v-394h-139v750h135l278 -455l2 1l-2 80v374h138v-750z" />
    <glyph glyph-name="O" unicode="O" horiz-adv-x="682" 
d="M642 375c0 -140.667 -23.333 -240.5 -70 -299.5s-123.667 -88.5 -231 -88.5c-105.333 0 -181.833 30.333 -229.5 91s-71.5 159.667 -71.5 297c0 138 23.5 237 70.5 297s123.833 90 230.5 90s183.5 -30 230.5 -90s70.5 -159 70.5 -297zM477 375
c0 97.333 -9.5 161.831 -28.5 193.498s-54.833 47.5 -107.5 47.5c-52 0 -87.667 -16 -107 -48s-29 -96.333 -29 -193c0 -97.333 9.66699 -162.166 29 -194.499s55.333 -48.5 108 -48.5c52 0 87.5 16.333 106.5 49s28.5 97.334 28.5 194.001z" />
    <glyph glyph-name="P" unicode="P" horiz-adv-x="609" 
d="M580 497c0 -82 -21.333 -143.333 -64 -184s-111.667 -61 -207 -61h-87v-252h-157v750h244c96 0 165.167 -20 207.5 -60s63.5 -104.333 63.5 -193zM418 498c0 44.667 -8 75.167 -24 91.5s-44.667 24.5 -86 24.5h-86v-232h87c40 0 68.167 7.83301 84.5 23.5
s24.5 46.5 24.5 92.5z" />
    <glyph glyph-name="Q" unicode="Q" horiz-adv-x="682" 
d="M642 375c0 -110.667 -14.166 -195.332 -42.499 -253.999s-73.833 -97.334 -136.5 -116.001v-3l63 -49l66 -53l-172 -49l-98 136c-98.667 3.33301 -170.334 35.333 -215.001 96s-67 158 -67 292c0 138 23.5 237 70.5 297s123.833 90 230.5 90s183.5 -30 230.5 -90
s70.5 -159 70.5 -297zM477.001 375.002c0 97.333 -9.5 161.831 -28.5 193.498s-54.833 47.5 -107.5 47.5c-52 0 -87.667 -16 -107 -48s-29 -96.333 -29 -193c0 -97.333 9.66699 -162.166 29 -194.499s55.333 -48.5 108 -48.5c52 0 87.5 16.333 106.5 49
s28.5 97.334 28.5 194.001z" />
    <glyph glyph-name="R" unicode="R" horiz-adv-x="621" 
d="M571 519c0 -53.333 -9.83203 -97.333 -29.499 -132s-47.834 -58 -84.501 -70l158 -317h-182l-119 286h-92v-286h-157v750h246c88.667 0 154.167 -18.5 196.5 -55.5s63.5 -95.5 63.5 -175.5zM408.001 513c0 38.667 -7 65.167 -21 79.5s-38.667 21.5 -74 21.5h-91v-204h89
c36 0 61.167 7.16699 75.5 21.5s21.5 41.5 21.5 81.5z" />
    <glyph glyph-name="S" unicode="S" horiz-adv-x="527" 
d="M501 222c0 -74 -22.4932 -131.665 -67.4932 -172.998s-107.833 -62 -188.5 -62c-80 0 -150 17.667 -210 53l21 138c62.667 -33.333 124.667 -50 186 -50c72 0 108 28 108 84c0 22 -10.667 40.833 -32 56.5s-47.333 29.5 -78 41.5s-61.334 25.833 -92.001 41.5
s-56.667 39.167 -78 70.5s-32 69.666 -32 114.999c0 67.333 21 121.666 63 162.999s104.333 62 187 62c72.667 0 135.667 -12.333 189 -37l-18 -136c-56.667 19.333 -110.334 29 -161.001 29c-72.667 0 -109 -24.667 -109 -74c0 -16 5.66699 -30.167 17 -42.5
s26.166 -22.666 44.499 -30.999s38.666 -16.833 60.999 -25.5s44.666 -19 66.999 -31s42.666 -25.833 60.999 -41.5s33.166 -36.334 44.499 -62.001s17 -55.167 17 -88.5z" />
    <glyph glyph-name="T" unicode="T" horiz-adv-x="545" 
d="M534 603h-182v-603h-159v603h-182l4 147h516z" />
    <glyph glyph-name="U" unicode="U" horiz-adv-x="662" 
d="M607 750v-495c0 -178.667 -91.667 -268 -275 -268c-184.667 0 -277 89.333 -277 268v495h158v-493c0 -43.333 9.33301 -74.666 28 -93.999s49 -29 91 -29s72.167 9.66699 90.5 29s27.5 50.666 27.5 93.999v493h157z" />
    <glyph glyph-name="V" unicode="V" horiz-adv-x="646" 
d="M478 750h162l-227 -750h-181l-226 750h173l129 -513l18 -79h3l18 79z" />
    <glyph glyph-name="W" unicode="W" horiz-adv-x="944" 
d="M391 750h168l95 -513l14 -80h3l11 80l82 513h157l-158 -750h-189l-89 504l-12 81h-3l-13 -81l-86 -504h-189l-159 750h163l82 -514l12 -80h3l13 80z" />
    <glyph glyph-name="X" unicode="X" horiz-adv-x="647" 
d="M622 750l-186 -358l194 -392h-177l-96 216l-31 75h-3l-31 -75l-94 -216h-180l190 388l-186 362h184l86 -189l32 -74h3l31 74l86 189h178z" />
    <glyph glyph-name="Y" unicode="Y" horiz-adv-x="634" 
d="M6 750h176l110 -288l28 -76h3l26 76l108 288h171l-228 -514v-236h-161v236z" />
    <glyph glyph-name="Z" unicode="Z" horiz-adv-x="561" 
d="M523 0h-492v107l265 429l44 66l-2 2h-300l5 146h481v-118l-259 -419l-43 -65l1 -3h303z" />
    <glyph glyph-name="bracketleft" unicode="[" horiz-adv-x="329" 
d="M73 -131v918h252v-106h-119v-708h119v-104h-252z" />
    <glyph glyph-name="backslash" unicode="\" horiz-adv-x="347" 
d="M-12 787h117l270 -906h-117z" />
    <glyph glyph-name="bracketright" unicode="]" horiz-adv-x="329" 
d="M256 787v-918h-252v104h119v708h-119v106h252z" />
    <glyph glyph-name="asciicircum" unicode="^" horiz-adv-x="589" 
d="M426 472l-131 216l-130 -216h-119l200 333h99l197 -333h-116z" />
    <glyph glyph-name="underscore" unicode="_" horiz-adv-x="389" 
d="M13 -38h366v-89h-366v89z" />
    <glyph glyph-name="grave" unicode="`" 
d="M297 658h-110l-112 143h167z" />
    <glyph glyph-name="a" unicode="a" horiz-adv-x="536" 
d="M373 0l-10.999 57l-3 1c-35.333 -44.667 -85 -67 -149 -67c-54.667 0 -97.334 16.667 -128.001 50s-46 83.333 -46 150c0 58 17.667 104 53 138s84.333 51 147 51c36 0 70.667 -5.33301 104 -16v38c0 32 -8.16699 54.833 -24.5 68.5s-43.5 20.5 -81.5 20.5
c-52 0 -102.667 -10.667 -152 -32l-12 120c56 26 119.667 39 191 39c81.333 0 139 -18.667 173 -56s51 -98 51 -182v-380h-112zM340.001 181v82c-20 9.33301 -45.333 14 -76 14c-60.667 0 -91 -28 -91 -84c0 -55.333 25.667 -83 77 -83c24 0 45 6.83301 63 20.5
s27 30.5 27 50.5z" />
    <glyph glyph-name="b" unicode="b" horiz-adv-x="582" 
d="M550 306c0 -212 -75.333 -318 -226 -318c-59.333 0 -108.333 20.333 -147 61l-19 -49h-97v782l146 7v-140l-2 -80l3 -2c36 33.333 80.333 50 133 50c139.333 0 209 -103.667 209 -311zM400 303c0 51.333 -4 90.668 -12 118.001s-18.667 45.166 -32 53.499
s-32 12.5 -56 12.5c-41.333 0 -72.333 -16.667 -93 -50v-276c19.333 -34 50.333 -51 93 -51c34.667 0 60 13.167 76 39.5s24 77.5 24 153.5z" />
    <glyph glyph-name="c" unicode="c" horiz-adv-x="452" 
d="M420 591l-8.00098 -127.002c-32.667 12 -63.334 18 -92.001 18c-50.667 0 -86.167 -13.167 -106.5 -39.5s-30.5 -73.166 -30.5 -140.499c0 -65.333 11.167 -112.666 33.5 -141.999s55.833 -44 100.5 -44c36 0 68.667 7.33301 98 22l10 -117
c-33.333 -22 -79.666 -33 -138.999 -33c-169.333 0 -254 104.667 -254 314c0 104 20.833 182.333 62.5 235s106.5 79 194.5 79c50.667 0 94.334 -8.33301 131.001 -25z" />
    <glyph glyph-name="d" unicode="d" horiz-adv-x="581" 
d="M522 0l-113 0.000976562l-15 50l-3 1c-33.333 -42 -82 -63 -146 -63c-72 0 -125.5 25.667 -160.5 77s-52.5 131.666 -52.5 240.999c0 208 70 312 210 312c54 0 98.667 -17.333 134 -52l2 2l-2 80v134l146 7v-789zM376 161.001v278.999
c-19.333 29.333 -49.666 44 -90.999 44c-38 0 -64.5 -13.167 -79.5 -39.5s-22.5 -74.166 -22.5 -143.499c0 -74.667 7.16699 -125 21.5 -151s41.166 -39 80.499 -39c44.667 0 75 16.667 91 50z" />
    <glyph glyph-name="e" unicode="e" horiz-adv-x="540" 
d="M312 -11c-96.667 0 -167.501 26.499 -212.501 79.499s-67.5 134.167 -67.5 243.5c0 203.333 82 305 246 305c154 0 231 -93.333 231 -280c0 -29.333 -1.33301 -53.666 -4 -72.999h-322c2.66699 -53.333 15.5 -90.833 38.5 -112.5s59.167 -32.5 108.5 -32.5
c50 0 99 9.33301 147 28l16 -121c-51.333 -24.667 -111.666 -37 -180.999 -37zM179.999 364.999h195c-0.666992 46 -9.16699 78.667 -25.5 98s-39.833 29 -70.5 29c-33.333 0 -57.5 -9.5 -72.5 -28.5s-23.833 -51.833 -26.5 -98.5z" />
    <glyph glyph-name="f" unicode="f" horiz-adv-x="371" 
d="M234 0h-145.999v495h-69v112h69v29c0 48 16.167 87 48.5 117s80.166 45 143.499 45c35.333 0 65.333 -4.33301 90 -13l-8 -99c-18.667 4.66699 -36 7 -52 7c-50.667 0 -76 -20.667 -76 -62v-24h117v-112h-117v-495z" />
    <glyph glyph-name="g" unicode="g" horiz-adv-x="542" 
d="M264 247c-23.333 0 -45.999 2 -67.999 6c-12.667 -7.33301 -19 -17 -19 -29c0 -16 12.667 -25.333 38 -28l129 -10c64 -5.33301 110.333 -20.333 139 -45s43 -60.667 43 -108c0 -128 -85.333 -192 -256 -192c-77.333 0 -135 14 -173 42s-57 66 -57 114
c0 38 15.333 71.333 46 100c-30 20.667 -45 49.667 -45 87c0 45.333 23.333 80 70 104c-42 30.667 -63 78 -63 142c0 124.667 71.667 187 215 187c57.333 0 103.666 -10.667 138.999 -32l97 33l31 -71l-61 -50c6 -18.667 9 -41 9 -67c0 -122 -71.333 -183 -214 -183z
M318.001 60l-126 10c-18 -14.667 -27 -32 -27 -52c0 -42.667 33.667 -64 101 -64c48 0 81.333 4.83301 100 14.5s28 24.167 28 43.5c0 14.667 -5.33301 25.667 -16 33s-30.667 12.333 -60 15zM264.001 505c-26 0 -44.501 -6 -55.501 -18s-16.5 -31.667 -16.5 -59
c0 -29.333 5.83301 -49.5 17.5 -60.5s29.167 -16.5 52.5 -16.5c28.667 0 48.334 5.66699 59.001 17s16 31.333 16 60s-5.5 48.667 -16.5 60s-29.833 17 -56.5 17z" />
    <glyph glyph-name="h" unicode="h" horiz-adv-x="582" 
d="M530 0h-145v398c0 58.667 -29 88 -87 88c-42 0 -72.333 -15 -91 -45v-441h-146v781l146 8v-138l-2 -80l3 -2c37.333 32.667 83 49 137 49c58 0 103.333 -19.167 136 -57.5s49 -92.5 49 -162.5v-398z" />
    <glyph glyph-name="i" unicode="i" horiz-adv-x="295" 
d="M222 0h-149v603l149 7v-610zM230 736c0 -43.333 -27.333 -65 -82 -65c-28.667 0 -49.667 5 -63 15s-20 26.667 -20 50c0 44 27.667 66 83 66c54.667 0 82 -22 82 -66z" />
    <glyph glyph-name="j" unicode="j" horiz-adv-x="295" 
d="M222 610v-604c0 -110 -54.333 -165 -163 -165c-28.667 0 -55 4.33301 -79 13l8 103c12 -3.33301 23.333 -5 34 -5c36.667 0 55 19 55 57v594zM230 737c0 -43.333 -27.667 -65 -83 -65c-28.667 0 -49.667 5 -63 15s-20 26.667 -20 50c0 44 27.667 66 83 66s83 -22 83 -66z
" />
    <glyph glyph-name="k" unicode="k" horiz-adv-x="567" 
d="M207 789v-404h69l115 222h160l-148 -277l152 -330h-162l-116 264h-70v-264h-146v782z" />
    <glyph glyph-name="l" unicode="l" horiz-adv-x="282" 
d="M214 0h-147v782l147 7v-789z" />
    <glyph glyph-name="m" unicode="m" horiz-adv-x="865" 
d="M814 0h-146v399c0 57.333 -27 86 -81 86c-24 0 -43.167 -6.83301 -57.5 -20.5s-21.5 -34.167 -21.5 -61.5v-403h-145v403c0 54.667 -26.333 82 -79 82c-36.667 0 -63.667 -14.333 -81 -43v-442h-146v603l105 8l23 -55c39.333 40.667 86.666 61 141.999 61
c68.667 0 117.334 -25.667 146.001 -77c34.667 51.333 86.667 77 156 77c56 0 100.833 -18.5 134.5 -55.5s50.5 -90.5 50.5 -160.5v-401z" />
    <glyph glyph-name="n" unicode="n" horiz-adv-x="578" 
d="M526 0h-145v398c0 58.667 -29 88 -87 88c-18 0 -35.5 -4 -52.5 -12s-29.833 -18.667 -38.5 -32v-442h-146v604l105 7l21 -51c42.667 38.667 93.667 58 153 58s105.833 -19 139.5 -57s50.5 -92.333 50.5 -163v-398z" />
    <glyph glyph-name="o" unicode="o" horiz-adv-x="573" 
d="M541 301c0 -113.333 -19.834 -194 -59.501 -242s-104.5 -72 -194.5 -72c-89.333 0 -154.166 24 -194.499 72s-60.5 128.667 -60.5 242c0 112.667 20.5 193.5 61.5 242.5s105.833 73.5 194.5 73.5s153 -24.333 193 -73s60 -129.667 60 -243zM182.999 301
c0 -76 7.66699 -127.167 23 -153.5s42.666 -39.5 81.999 -39.5c38.667 0 65.334 13.167 80.001 39.5s22 77.5 22 153.5s-7.33301 127.167 -22 153.5s-41.334 39.5 -80.001 39.5c-39.333 0 -66.666 -13.167 -81.999 -39.5s-23 -77.5 -23 -153.5z" />
    <glyph glyph-name="p" unicode="p" horiz-adv-x="578" 
d="M546 304c0 -104.667 -18.834 -183 -56.501 -235s-90.5 -78 -158.5 -78c-53.333 0 -95.333 15 -126 45l-3 -1l2 -81v-103h-147v752l102 7l27 -51c40.667 38.667 90.334 58 149.001 58c70.667 0 123.5 -23.5 158.5 -70.5s52.5 -127.833 52.5 -242.5zM395.999 308
c0 69.333 -7.66699 116.167 -23 140.5s-41 36.5 -77 36.5c-42.667 0 -73.334 -16.333 -92.001 -49v-270c18.667 -34 48.334 -51 89.001 -51c34.667 0 60.5 13.333 77.5 40s25.5 77.667 25.5 153z" />
    <glyph glyph-name="q" unicode="q" horiz-adv-x="579" 
d="M521 -149l-146 -1v99l2 81l-2 1c-34 -26.667 -76 -40 -126 -40c-68 0 -121.167 25.333 -159.5 76s-57.5 129 -57.5 235c0 210 74.333 315 223 315c65.333 0 117 -21 155 -63l17 52h94v-755zM375 166l-0.000976562 274c-16.667 28.667 -46.667 43 -90 43
c-39.333 0 -66.166 -12 -80.499 -36s-21.5 -72.667 -21.5 -146c0 -69.333 7.83301 -117.333 23.5 -144s42.5 -40 80.5 -40c23.333 0 42.833 4.83301 58.5 14.5s25.5 21.167 29.5 34.5z" />
    <glyph glyph-name="r" unicode="r" horiz-adv-x="422" 
d="M203 0l-146.001 0.000976562v603l117 6l12 -97h3c34.667 69.333 85.334 104 152.001 104c24 0 44 -2.66699 60 -8l-9 -149c-16.667 6 -36.667 9 -60 9c-38 0 -69 -13.833 -93 -41.5s-36 -65.834 -36 -114.501v-312z" />
    <glyph glyph-name="s" unicode="s" horiz-adv-x="456" 
d="M427 188c0 -133.333 -71.668 -200.002 -215.001 -200.002c-69.333 0 -126.666 13.333 -171.999 40l15 124c43.333 -26.667 94.666 -40 153.999 -40c55.333 0 83 21 83 63c0 18 -8.83301 32.833 -26.5 44.5s-39 21.667 -64 30s-50 18.333 -75 30
s-46.333 30.334 -64 56.001s-26.5 57.834 -26.5 96.501c0 55.333 18.167 99.833 54.5 133.5s89.166 50.5 158.499 50.5c54.667 0 106.334 -10.333 155.001 -31l-11 -123c-44 18.667 -92 28 -144 28c-49.333 0 -74 -17.333 -74 -52c0 -16.667 8.66699 -30.5 26 -41.5
s38.333 -20.5 63 -28.5s49.334 -17.833 74.001 -29.5s45.667 -30.167 63 -55.5s26 -57 26 -95z" />
    <glyph glyph-name="t" unicode="t" horiz-adv-x="370" 
d="M350 494l-123 0.000976562v-321c0 -42 21.667 -63 65 -63c17.333 0 31.666 2.33301 42.999 7l8 -110c-22.667 -11.333 -54 -17 -94 -17c-55.333 0 -97.166 15.667 -125.499 47s-42.5 75.666 -42.5 132.999v324h-62v113h68l25 136l115 11v-147h123v-113z" />
    <glyph glyph-name="u" unicode="u" horiz-adv-x="572" 
d="M520 607v-400c0 -144.667 -78 -217 -234 -217c-156.667 0 -235 72.333 -235 217v400h146v-399c0 -57.333 29.667 -86 89 -86s89 28.667 89 86v399h145z" />
    <glyph glyph-name="v" unicode="v" horiz-adv-x="596" 
d="M422 607h159l-197 -607h-173l-196 607h159l104 -394l19 -78h3l18 78z" />
    <glyph glyph-name="w" unicode="w" horiz-adv-x="821" 
d="M336 607h154l73 -397l13 -80h3l10 80l61 397h143l-124 -607h-179l-62 368l-11 81h-3l-12 -81l-63 -368h-179l-132 607h146l65 -397l12 -80h3l12 80z" />
    <glyph glyph-name="x" unicode="x" horiz-adv-x="572" 
d="M385 0l-72 163l-31 75h-3l-30 -76l-69 -162h-160l164 307l-161 300h168l67 -154l31 -74h3l29 75l66 153h161l-154 -297l158 -310h-167z" />
    <glyph glyph-name="y" unicode="y" horiz-adv-x="598" 
d="M164 -52c42 0 70.334 19 85.001 57l3 8l-237 594h166l117 -370l23 -77h3l16 79l88 368h155l-190 -603c-19.333 -58.667 -45.5 -101 -78.5 -127s-74.5 -39 -124.5 -39c-36 0 -68 6 -96 18l12 105c19.333 -8.66699 38.666 -13 57.999 -13z" />
    <glyph glyph-name="z" unicode="z" horiz-adv-x="490" 
d="M448 502l-203 -311l-45 -64l1 -3h255l-4 -124h-415v106l202 308l45 65l-1 2h-238l5 126h398v-105z" />
    <glyph glyph-name="braceleft" unicode="{" horiz-adv-x="366" 
d="M261 437c0 -48.667 -17.667 -84.334 -53 -107.001c35.333 -23.333 53 -58.333 53 -105c0 -22 -1.83301 -50.5 -5.5 -85.5s-5.5 -61.5 -5.5 -79.5c0 -23.333 7 -42.666 21 -57.999s34.333 -23 61 -23h30v-111h-22c-80 0 -137 14.833 -171 44.5s-51 72.5 -51 128.5
c0 20.667 2.33301 51.667 7 93s7 71.666 7 90.999c0 18.667 -5.5 34.834 -16.5 48.501s-25.167 23.167 -42.5 28.5v57c17.333 5.33301 31.5 14.833 42.5 28.5s16.5 29.834 16.5 48.501c0 19.333 -2.33301 49.666 -7 90.999s-7 72.333 -7 93c0 56 17 98.833 51 128.5
s91 44.5 171 44.5h22v-111h-30c-26.667 0 -47 -7.5 -61 -22.5s-21 -34.167 -21 -57.5c0 -18.667 1.83301 -45.5 5.5 -80.5s5.5 -63.167 5.5 -84.5z" />
    <glyph glyph-name="bar" unicode="|" horiz-adv-x="276" 
d="M82 -175v985h113v-985h-113z" />
    <glyph glyph-name="braceright" unicode="}" horiz-adv-x="366" 
d="M104 225c0 46.667 17.667 81.6621 53 104.995c-35.333 23.333 -53 59 -53 107c0 21.333 1.83301 49.5 5.5 84.5s5.5 61.833 5.5 80.5c0 23.333 -6.83301 42.5 -20.5 57.5s-34.167 22.5 -61.5 22.5h-29v111h22c80 0 136.833 -14.833 170.5 -44.5s50.5 -72.5 50.5 -128.5
c0 -20.667 -2.33301 -51.667 -7 -93s-7 -71.666 -7 -90.999s5.5 -35.666 16.5 -48.999s25.5 -22.666 43.5 -27.999v-57c-18 -5.33301 -32.5 -14.666 -43.5 -27.999s-16.5 -29.666 -16.5 -48.999s2.33301 -49.666 7 -90.999s7 -72.333 7 -93
c0 -56 -16.833 -98.833 -50.5 -128.5s-90.5 -44.5 -170.5 -44.5h-22v111h29c27.333 0 47.833 7.66699 61.5 23s20.5 34.666 20.5 57.999c0 18 -1.83301 44.5 -5.5 79.5s-5.5 63.5 -5.5 85.5z" />
    <glyph glyph-name="asciitilde" unicode="~" horiz-adv-x="589" 
d="M146 602l-83 -1c6 122 51.333 183 136 183c26.667 0 60.667 -10.5 102 -31.5s70.333 -31.5 87 -31.5c15.333 0 27.666 4.66699 36.999 14s15.333 21 18 35l83 1c-5.33301 -122 -50.666 -183 -135.999 -183c-26.667 0 -60.334 10.5 -101.001 31.5s-69 31.5 -85 31.5
c-31.333 0 -50.666 -16.333 -57.999 -49z" />
    <glyph glyph-name="uni00A0" unicode="&#xa0;" horiz-adv-x="244" 
 />
    <glyph glyph-name="exclamdown" unicode="&#xa1;" horiz-adv-x="278" 
d="M81 446h116l18 -578h-152zM55 589c0 49.333 27.333 74 82 74c28.667 0 49.5 -5.83301 62.5 -17.5s19.5 -30.5 19.5 -56.5c0 -51.333 -27.333 -77 -82 -77s-82 25.667 -82 77z" />
    <glyph glyph-name="cent" unicode="&#xa2;" horiz-adv-x="461" 
d="M424 591l-7.99902 -127.002c-32.667 12 -63.334 18 -92.001 18c-50.667 0 -86.167 -13.167 -106.5 -39.5s-30.5 -73.166 -30.5 -140.499c0 -65.333 11.167 -112.666 33.5 -141.999s55.833 -44 100.5 -44c36 0 68.667 7.33301 98 22l10 -117
c-24 -15.333 -57 -25.666 -99 -30.999l-7 -117h-111l7 122c-122 25.333 -183 127.666 -183 306.999c0 189.333 69.333 293 208 311l9 113h111l-9 -116c25.333 -4 48.333 -10.333 69 -19z" />
    <glyph glyph-name="sterling" unicode="&#xa3;" horiz-adv-x="576" 
d="M49 311l-6 120.001h47c-15.333 46 -23 84 -23 114c0 64 22.167 116.333 66.5 157s114.833 61 211.5 61c60 0 117 -10 171 -30l-18 -139c-41.333 16 -86 24 -134 24c-89.333 0 -134 -31.333 -134 -94c0 -26.667 5.66699 -57.667 17 -93h226v-120h-198
c2 -14 3 -28.667 3 -44c0 -58.667 -21.667 -102.334 -65 -131.001l2 -3c48 12 104.333 18 169 18c57.333 0 112.333 -4 165 -12c0 -0.666992 -1 -24.667 -3 -72s-3.33301 -72 -4 -74c-82.667 9.33301 -159.667 14 -231 14c-86 0 -175.333 -4 -268 -12l-8 143
c27.333 5.33301 49.333 19.5 66 42.5s25 49.5 25 79.5c0 12.667 -1.33301 29.667 -4 51h-73z" />
    <glyph glyph-name="currency" unicode="&#xa4;" horiz-adv-x="559" 
d="M97 358c0 30 6.99902 59 20.999 87l-66 68l78 83l69 -71c26.667 12.667 53.667 19 81 19c28 0 54.667 -6.33301 80 -19l71 72l77 -83l-67 -69c14 -28 21 -57 21 -87c0 -28 -5.66699 -54 -17 -78l63 -65l-78 -83l-62 64c-26.667 -15.333 -56 -23 -88 -23
c-31.333 0 -60.666 7.33301 -87.999 22l-63 -63l-78 83l63 64c-11.333 24.667 -17 51 -17 79zM192.999 360c0 -23.333 8.33301 -43 25 -59s37 -24 61 -24s44.5 8.16699 61.5 24.5s25.5 35.833 25.5 58.5c0 23.333 -8.5 43.166 -25.5 59.499s-37.5 24.5 -61.5 24.5
s-44.333 -8.16699 -61 -24.5s-25 -36.166 -25 -59.499z" />
    <glyph glyph-name="yen" unicode="&#xa5;" horiz-adv-x="657" 
d="M122 358h87l-176 392h177l98 -319l22 -78h3l21 78l96 319h174l-171 -392h92v-84h-127v-43h127v-84h-127v-147h-173v147h-123v84h123v43h-123v84z" />
    <glyph glyph-name="brokenbar" unicode="&#xa6;" horiz-adv-x="276" 
d="M82 379v431h113v-431h-113zM82 -158v428h113v-428h-113z" />
    <glyph glyph-name="section" unicode="&#xa7;" horiz-adv-x="521" 
d="M40 333c0 64 26.334 113.999 79.001 149.999c-43.333 35.333 -65 75.666 -65 120.999c0 56.667 19.5 100.334 58.5 131.001s94.167 46 165.5 46c74 0 134 -13 180 -39l-11 -113c-54 22.667 -107.333 34 -160 34c-55.333 0 -83 -17.667 -83 -53
c0 -15.333 9.83301 -30 29.5 -44s43.667 -27.833 72 -41.5s56.666 -29 84.999 -46s52.333 -40.167 72 -69.5s29.5 -63 29.5 -101c0 -63.333 -26.667 -113.666 -80 -150.999c43.333 -36.667 65 -77 65 -121c0 -56.667 -19.167 -100.167 -57.5 -130.5
s-93.5 -45.5 -165.5 -45.5c-74 0 -134 13 -180 39l11 113c52 -22.667 105 -34 159 -34c55.333 0 83 17.667 83 53c0 15.333 -9.83301 30 -29.5 44s-43.5 27.667 -71.5 41s-56.167 28.5 -84.5 45.5s-52.333 40.333 -72 70s-29.5 63.5 -29.5 101.5zM352.001 292.999
c0 12 -3 23.333 -9 34s-16.167 21.334 -30.5 32.001s-27 19.5 -38 26.5s-27.167 16.5 -48.5 28.5c-30.667 -14.667 -46 -37 -46 -67c0 -12 3 -23.333 9 -34s16 -21.334 30 -32.001s26.5 -19.5 37.5 -26.5s27.167 -16.5 48.5 -28.5c31.333 14.667 47 37 47 67z" />
    <glyph glyph-name="dieresis" unicode="&#xa8;" 
d="M169 737c0 -42 -21 -63 -63 -63c-21.333 0 -37 5 -47 15s-15 26 -15 48c0 43.333 20.667 65 62 65c42 0 63 -21.667 63 -65zM341 737c0 -42 -20.667 -63 -62 -63c-42 0 -63 21 -63 63c0 43.333 21 65 63 65c41.333 0 62 -21.667 62 -65z" />
    <glyph glyph-name="copyright" unicode="&#xa9;" horiz-adv-x="865" 
d="M40 378c0 108 38.333 200.333 115 277s169.334 115 278.001 115c108 0 200.167 -38.333 276.5 -115s114.5 -169 114.5 -277s-38.167 -200.167 -114.5 -276.5s-168.5 -114.5 -276.5 -114.5c-108.667 0 -201.334 38.167 -278.001 114.5s-115 168.5 -115 276.5zM117 378
c0 -86 30.5 -159.833 91.5 -221.5s135.5 -92.5 223.5 -92.5s162.833 30.667 224.5 92s92.5 135.333 92.5 222c0 84.667 -31 157.334 -93 218.001s-136.667 91 -224 91c-88 0 -162.5 -30.333 -223.5 -91s-91.5 -133.334 -91.5 -218.001zM599 579l-11.999 -107.999
c-32.667 18 -70 27 -112 27c-46 0 -81.333 -11.167 -106 -33.5s-37 -51.5 -37 -87.5c0 -38.667 12.667 -68.834 38 -90.501s61.333 -32.5 108 -32.5c43.333 0 81.666 9.66699 114.999 29c7.33301 -49.333 12 -84 14 -104c-20 -17.333 -45.333 -32 -76 -44s-62 -18 -94 -18
c-74 0 -135 24.833 -183 74.5s-72 111.5 -72 185.5c0 70 23.5 129.833 70.5 179.5s108.833 74.5 185.5 74.5c64 0 117.667 -17.333 161 -52z" />
    <glyph glyph-name="ordfeminine" unicode="&#xaa;" horiz-adv-x="412" 
d="M277 336l-10 39.999l-3 1c-24 -31.333 -58.333 -47 -103 -47c-41.333 0 -73.666 13.167 -96.999 39.5s-35 65.833 -35 118.5c0 45.333 13.5 81.833 40.5 109.5s63.5 41.5 109.5 41.5c27.333 0 51 -4 71 -12v24c0 20.667 -5.83301 35.5 -17.5 44.5s-31.5 13.5 -59.5 13.5
c-36.667 0 -72.667 -7.66699 -108 -23l-9 105c45.333 19.333 93 29 143 29c63.333 0 108.166 -14.667 134.499 -44s39.5 -77.666 39.5 -144.999v-295h-96zM250 480.999v59c-14 4.66699 -29.667 7 -47 7c-38 0 -57 -19 -57 -57c0 -36.667 16.333 -55 49 -55
c14.667 0 27.5 4.33301 38.5 13s16.5 19.667 16.5 33z" />
    <glyph glyph-name="guillemotleft" unicode="&#xab;" horiz-adv-x="610" 
d="M552 416l-153 -99l153 -98v-114l-297 207v11l297 207v-114zM317 416l-153 -99l153 -98v-114l-297 207v11l297 207v-114z" />
    <glyph glyph-name="logicalnot" unicode="&#xac;" horiz-adv-x="589" 
d="M385 274h-298v125h416v-266h-118v141z" />
    <glyph glyph-name="uni00AD" unicode="&#xad;" horiz-adv-x="359" 
d="M47 397h265v-108h-265v108z" />
    <glyph glyph-name="registered" unicode="&#xae;" horiz-adv-x="422" 
d="M27 645c0 51.333 18.167 95.333 54.5 132s79.833 55 130.5 55s94 -18.333 130 -55s54 -80.667 54 -132s-18 -95.166 -54 -131.499s-79.333 -54.5 -130 -54.5s-94.167 18.167 -130.5 54.5s-54.5 80.166 -54.5 131.499zM68 645c0 -39.333 14.167 -73 42.5 -101
s62.166 -42 101.499 -42c38.667 0 72.167 14 100.5 42s42.5 61.667 42.5 101c0 40 -14 74 -42 102s-61.667 42 -101 42s-73.166 -14 -101.499 -42s-42.5 -62 -42.5 -102zM303 682c0 -26 -10.667 -44 -32 -54l35 -79h-64l-26 70h-26v-70h-60v199h88c56.667 0 85 -22 85 -66z
M244 678c0 14 -8.33301 21 -25 21h-29v-42h31c15.333 1.33301 23 8.33301 23 21z" />
    <glyph glyph-name="macron" unicode="&#xaf;" 
d="M343 777v-91h-299v91h299z" />
    <glyph glyph-name="degree" unicode="&#xb0;" horiz-adv-x="332" 
d="M30 679c0 38.667 13.167 71.5 39.5 98.5s58.5 40.5 96.5 40.5s70.167 -13.5 96.5 -40.5s39.5 -59.833 39.5 -98.5s-13.167 -71.334 -39.5 -98.001s-58.5 -40 -96.5 -40s-70.167 13.333 -96.5 40s-39.5 59.334 -39.5 98.001zM96 679c0 -19.333 6.5 -35.5 19.5 -48.5
s29.833 -19.5 50.5 -19.5s37.667 6.33301 51 19s20 29 20 49s-6.66699 36.5 -20 49.5s-30.333 19.5 -51 19.5s-37.5 -6.5 -50.5 -19.5s-19.5 -29.5 -19.5 -49.5z" />
    <glyph glyph-name="plusminus" unicode="&#xb1;" horiz-adv-x="589" 
d="M511 326h-153v-141h-129v141h-150v125h150v147h129v-147h153v-125zM509 40h-430v111h430v-111z" />
    <glyph glyph-name="twosuperior" unicode="&#xb2;" horiz-adv-x="345" 
d="M316 767c0 -32 -11.998 -62 -35.998 -90s-61.333 -61 -112 -99v-3h147l-2 -87h-277v66l40 37.5l37.5 35l31 30c11.667 11.667 20.667 21.334 27 29.001s12.666 16 18.999 25s10.833 17.333 13.5 25s4 15.167 4 22.5c0 26.667 -18.333 40 -55 40
c-29.333 0 -62 -11.333 -98 -34l-25 82c40.667 27.333 88 41 142 41c47.333 0 83.166 -10.833 107.499 -32.5s36.5 -50.834 36.5 -87.501z" />
    <glyph glyph-name="threesuperior" unicode="&#xb3;" horiz-adv-x="345" 
d="M320 606c0 -82.667 -53.999 -124 -161.999 -124c-48.667 0 -91.334 10.333 -128.001 31l21 79c34 -18 69 -27 105 -27c42 0 63 15 63 45c0 15.333 -6.83301 26.666 -20.5 33.999s-40.167 11 -79.5 11v71c37.333 0 62.666 3.33301 75.999 10s20 17.334 20 32.001
c0 22 -19 33 -57 33c-39.333 0 -74.666 -10.667 -105.999 -32l-23 77c36 27.333 80.667 41 134 41c46.667 0 83.167 -9.83301 109.5 -29.5s39.5 -47.167 39.5 -82.5c0 -38 -18 -65.333 -54 -82v-2c41.333 -16 62 -44.333 62 -85z" />
    <glyph glyph-name="acute" unicode="&#xb4;" 
d="M191 801h167l-113 -143h-109z" />
    <glyph glyph-name="uni00B5" unicode="&#xb5;" horiz-adv-x="577" 
d="M299 -9c-51.333 0 -89.667 20.667 -115 62l-2 -1c5.33301 -88.667 10 -154.667 14 -198l-139 -10v763h146v-401c0 -26 8.33301 -46.333 25 -61s38.667 -22 66 -22c26.667 0 47.834 6.5 63.501 19.5s23.5 32.167 23.5 57.5v407h145v-604l-102 -8l-18 41
c-26.667 -30 -62.334 -45 -107.001 -45z" />
    <glyph glyph-name="paragraph" unicode="&#xb6;" horiz-adv-x="649" 
d="M293 -154l-125.999 0.000976562v632c-44 1.33301 -79.667 14.166 -107 38.499s-41 58.5 -41 102.5c0 38.667 13.667 70.167 41 94.5s64.666 36.5 111.999 36.5h444l-5 -118h-69v-786h-127v786h-123z" />
    <glyph glyph-name="periodcentered" unicode="&#xb7;" horiz-adv-x="275" 
d="M222 345c0 -54.667 -28 -82 -84 -82c-30 0 -51.667 6.33301 -65 19s-20 33.667 -20 63c0 55.333 28.333 83 85 83c56 0 84 -27.667 84 -83z" />
    <glyph glyph-name="cedilla" unicode="&#xb8;" 
d="M102 -186l68 200l96 1l-33 -201h-131z" />
    <glyph glyph-name="onesuperior" unicode="&#xb9;" horiz-adv-x="264" 
d="M215 882v-394h-104v273l-72 -41l-9 84l121 78h64z" />
    <glyph glyph-name="ordmasculine" unicode="&#xba;" horiz-adv-x="448" 
d="M416 575c0 -88.667 -15.002 -151.502 -45.002 -188.502s-79 -55.5 -147 -55.5c-67.333 0 -116.166 18.5 -146.499 55.5s-45.5 99.833 -45.5 188.5s15.333 151.834 46 189.501s79.334 56.5 146.001 56.5c68 0 117 -18.667 147 -56s45 -100.666 45 -189.999z
M160.998 574.998c0 -56 4.5 -93.166 13.5 -111.499s25.833 -27.5 50.5 -27.5c24 0 40.667 9.33301 50 28s14 55.667 14 111c0 56 -4.66699 93 -14 111s-26.333 27 -51 27c-24 0 -40.5 -8.83301 -49.5 -26.5s-13.5 -54.834 -13.5 -111.501z" />
    <glyph glyph-name="guillemotright" unicode="&#xbb;" horiz-adv-x="610" 
d="M286 105v114l153 98l-153 99v114l297 -207v-11zM50 105v114l153 98l-153 99v114l297 -207v-11z" />
    <glyph glyph-name="onequarter" unicode="&#xbc;" horiz-adv-x="826" 
d="M273 751v-395h-104v274l-72 -41l-9 83l121 79h64zM785 71h-35v-71h-96v71h-185l-9 61l166 262h124v-240h38zM658 154l2 66l5 80h-3l-47 -78l-43 -65l1 -3h85zM602 750h104l-467 -750h-103z" />
    <glyph glyph-name="onehalf" unicode="&#xbd;" horiz-adv-x="826" 
d="M584 750h104l-467 -750h-103zM780 279c0 -32 -11.9961 -61.999 -35.9961 -89.999s-61 -60.667 -111 -98v-3h146l-2 -88h-277v67l40 37.5l37.5 35l31 30c11.667 11.667 20.667 21.167 27 28.5s12.666 15.5 18.999 24.5s10.833 17.333 13.5 25s4 15.167 4 22.5
c0 26.667 -18.333 40 -55 40c-30.667 0 -63.334 -11.333 -98.001 -34l-25 83c41.333 26.667 88.666 40 141.999 40c47.333 0 83.166 -10.833 107.499 -32.5s36.5 -50.834 36.5 -87.501zM273.004 751.001v-395h-104v274l-72 -41l-9 83l121 79h64z" />
    <glyph glyph-name="threequarters" unicode="&#xbe;" horiz-adv-x="826" 
d="M750 71h-35v-71h-96v71h-185l-9 61l166 262h124v-240h38zM623 154l2 66l5 80h-3l-47 -78l-43 -65l1 -3h85zM595 750h104l-467 -750h-103zM340 474c0 -82 -53.999 -123.001 -161.999 -123.001c-50.667 0 -93.334 10.333 -128.001 31l21 78
c32.667 -17.333 67.667 -26 105 -26c42 0 63 15 63 45c0 14.667 -6.83301 25.667 -20.5 33s-40.167 11 -79.5 11v71c37.333 0 62.666 3.33301 75.999 10s20 17.334 20 32.001c0 22.667 -19 34 -57 34c-38.667 0 -74 -11 -106 -33l-23 78c36.667 26.667 81.334 40 134.001 40
c46.667 0 83.167 -9.66699 109.5 -29s39.5 -46.666 39.5 -81.999c0 -38.667 -18 -66.334 -54 -83.001v-2c41.333 -14.667 62 -43 62 -85z" />
    <glyph glyph-name="questiondown" unicode="&#xbf;" horiz-adv-x="446" 
d="M25 85c0 98.667 51.668 178.999 155.001 240.999l6 119h113l8 -172c-44.667 -28.667 -78 -55.167 -100 -79.5s-33 -52.166 -33 -83.499c0 -47.333 28.667 -71 86 -71c52.667 0 97 17 133 51l52 -119c-24 -21.333 -54.333 -38.5 -91 -51.5s-75.334 -19.5 -116.001 -19.5
c-70 0 -123 16.333 -159 49s-54 78 -54 136zM161.001 595.999c0 50 27.333 75 82 75c28 0 48.667 -6 62 -18s20 -31 20 -57c0 -50.667 -27.333 -76 -82 -76s-82 25.333 -82 76z" />
    <glyph glyph-name="Agrave" unicode="&#xc0;" horiz-adv-x="666" 
d="M486 0l-37 148h-240l-37 -148h-166l230 750h192l233 -750h-175zM329 626l-19 -80l-66 -261h171l-66 261l-17 80h-3zM404 793h-118l-122 116h174z" />
    <glyph glyph-name="Aacute" unicode="&#xc1;" horiz-adv-x="666" 
d="M486 0l-37 148h-240l-37 -148h-166l230 750h192l233 -750h-175zM329 626l-19 -80l-66 -261h171l-66 261l-17 80h-3zM317 908h186l-129 -116h-117z" />
    <glyph glyph-name="Acircumflex" unicode="&#xc2;" horiz-adv-x="666" 
d="M486 0l-37 148h-240l-37 -148h-166l230 750h192l233 -750h-175zM329 626l-19 -80l-66 -261h171l-66 261l-17 80h-3zM252 908h155l100 -116h-129l-46 64h-2l-47 -64h-127z" />
    <glyph glyph-name="Atilde" unicode="&#xc3;" horiz-adv-x="666" 
d="M486 0l-37 148h-240l-37 -148h-166l230 750h192l233 -750h-175zM329 626l-19 -80l-66 -261h171l-66 261l-17 80h-3zM238 796h-69.001c1.33301 34.667 10.833 62.667 28.5 84s41.167 32 70.5 32c24 0 50 -6.66699 78 -20s46 -20 54 -20
c8.66699 0 15.334 2.16699 20.001 6.5s8 11.833 10 22.5h65c-1.33301 -35.333 -11 -63.5 -29 -84.5s-41.333 -31.5 -70 -31.5c-23.333 0 -48.333 6.66699 -75 20s-44 20 -52 20c-16 0 -26.333 -9.66699 -31 -29z" />
    <glyph glyph-name="Adieresis" unicode="&#xc4;" horiz-adv-x="666" 
d="M486 0l-37 148h-240l-37 -148h-166l230 750h192l233 -750h-175zM329 626l-19 -80l-66 -261h171l-66 261l-17 80h-3zM300 851c0 -40 -20.667 -60 -62 -60s-62 20 -62 60s20.667 60 62 60s62 -20 62 -60zM485 851c0 -40 -20.667 -60 -62 -60s-62 20 -62 60s20.667 60 62 60
s62 -20 62 -60z" />
    <glyph glyph-name="Aring" unicode="&#xc5;" horiz-adv-x="666" 
d="M205 800c0 31.333 9.5 55.333 28.5 72s50.5 25 94.5 25c84.667 0 127 -32 127 -96c0 -30 -7.33301 -52.667 -22 -68l228 -733h-175l-37 148h-240l-37 -148h-166l223 729c-16 15.333 -24 39 -24 71zM329 626l-19 -80l-66 -261h171l-66 261l-17 80h-3zM282 796
c0 -11.333 3.5 -19.667 10.5 -25s20.167 -8 39.5 -8c17.333 0 29.5 2.5 36.5 7.5s10.5 13.5 10.5 25.5c0 22.667 -15.667 34 -47 34c-19.333 0 -32.5 -2.66699 -39.5 -8s-10.5 -14 -10.5 -26z" />
    <glyph glyph-name="AE" unicode="&#xc6;" horiz-adv-x="961" 
d="M920 606h-297l8 -154h238v-132h-231l10 -178h282l-3 -142h-430l-8 149h-227l-62 -149h-183l357 750h543zM464 639l-30 -76l-116 -279h164l-13 273l-2 81z" />
    <glyph glyph-name="Ccedilla" unicode="&#xc7;" horiz-adv-x="543" 
d="M231 -186l60.001 175.998c-85.333 10.667 -148.5 47.5 -189.5 110.5s-61.5 156.167 -61.5 279.5c0 129.333 25.667 225.5 77 288.5s131.333 94.5 240 94.5c60 0 112.333 -10 157 -30l-16 -139c-40 15.333 -83.333 23 -130 23c-61.333 0 -103.833 -16.667 -127.5 -50
s-35.5 -95.666 -35.5 -186.999c0 -96.667 12 -162.667 36 -198s67.333 -53 130 -53c45.333 0 88.333 9.33301 129 28l16 -133c-34.667 -17.333 -76.334 -28.666 -125.001 -33.999l-29 -176h-131z" />
    <glyph glyph-name="Egrave" unicode="&#xc8;" horiz-adv-x="561" 
d="M222 142h309l-4 -142h-462v750h448l3 -144h-294v-154h247v-132h-247v-178zM370 793h-118l-122 116h174z" />
    <glyph glyph-name="Eacute" unicode="&#xc9;" horiz-adv-x="561" 
d="M222 142h309l-4 -142h-462v750h448l3 -144h-294v-154h247v-132h-247v-178zM284 908h186l-129 -116h-117z" />
    <glyph glyph-name="Ecircumflex" unicode="&#xca;" horiz-adv-x="561" 
d="M222 142h309l-4 -142h-462v750h448l3 -144h-294v-154h247v-132h-247v-178zM218 908h155l100 -116h-129l-46 64h-2l-47 -64h-127z" />
    <glyph glyph-name="Edieresis" unicode="&#xcb;" horiz-adv-x="561" 
d="M222 142h309l-4 -142h-462v750h448l3 -144h-294v-154h247v-132h-247v-178zM266 851c0 -40 -20.667 -60 -62 -60s-62 20 -62 60s20.667 60 62 60s62 -20 62 -60zM451 851c0 -40 -20.667 -60 -62 -60s-62 20 -62 60s20.667 60 62 60s62 -20 62 -60z" />
    <glyph glyph-name="Igrave" unicode="&#xcc;" horiz-adv-x="310" 
d="M74 0v750h161v-750h-161zM228 793h-118l-122 116h174z" />
    <glyph glyph-name="Iacute" unicode="&#xcd;" horiz-adv-x="310" 
d="M74 0v750h161v-750h-161zM141 908h186l-129 -116h-117z" />
    <glyph glyph-name="Icircumflex" unicode="&#xce;" horiz-adv-x="310" 
d="M74 0v750h161v-750h-161zM76 908h155l100 -116h-129l-46 64h-2l-47 -64h-127z" />
    <glyph glyph-name="Idieresis" unicode="&#xcf;" horiz-adv-x="310" 
d="M74 0v750h161v-750h-161zM124 851c0 -40 -20.667 -60 -62 -60s-62 20 -62 60s20.667 60 62 60s62 -20 62 -60zM309 851c0 -40 -20.667 -60 -62 -60s-62 20 -62 60s20.667 60 62 60s62 -20 62 -60z" />
    <glyph glyph-name="Eth" unicode="&#xd0;" horiz-adv-x="679" 
d="M639 379c0 -135.333 -25 -232.333 -75 -291s-127.667 -88 -233 -88h-255v342h-56v96h56v312h252c110.667 0 190.167 -28.667 238.5 -86s72.5 -152.333 72.5 -285zM474 380c0 62 -4.83105 109.167 -14.498 141.5s-24.5 54.333 -44.5 66s-48.667 17.5 -86 17.5h-96v-167h76
v-96h-76v-198h96c37.333 0 65.666 5.5 84.999 16.5s34.166 33.667 44.499 68s15.5 84.833 15.5 151.5z" />
    <glyph glyph-name="Ntilde" unicode="&#xd1;" horiz-adv-x="681" 
d="M616 0h-112l-257 406l-42 70l-2 -1l1 -81v-394h-139v750h135l278 -455l2 1l-2 80v374h138v-750zM251 796h-69.001c1.33301 34.667 10.833 62.667 28.5 84s41.167 32 70.5 32c23.333 0 49.333 -6.66699 78 -20s46.667 -20 54 -20c8.66699 0 15.334 2.16699 20.001 6.5
s8 11.833 10 22.5h65c-1.33301 -35.333 -11 -63.5 -29 -84.5s-41.333 -31.5 -70 -31.5c-23.333 0 -48.333 6.66699 -75 20s-44 20 -52 20c-16 0 -26.333 -9.66699 -31 -29z" />
    <glyph glyph-name="Ograve" unicode="&#xd2;" horiz-adv-x="682" 
d="M642 375c0 -140.667 -23.333 -240.5 -70 -299.5s-123.667 -88.5 -231 -88.5c-105.333 0 -181.833 30.333 -229.5 91s-71.5 159.667 -71.5 297c0 138 23.5 237 70.5 297s123.833 90 230.5 90s183.5 -30 230.5 -90s70.5 -159 70.5 -297zM477 375
c0 97.333 -9.5 161.831 -28.5 193.498s-54.833 47.5 -107.5 47.5c-52 0 -87.667 -16 -107 -48s-29 -96.333 -29 -193c0 -97.333 9.66699 -162.166 29 -194.499s55.333 -48.5 108 -48.5c52 0 87.5 16.333 106.5 49s28.5 97.334 28.5 194.001zM427 792.998h-118l-122 116h174z
" />
    <glyph glyph-name="Oacute" unicode="&#xd3;" horiz-adv-x="682" 
d="M642 375c0 -140.667 -23.333 -240.5 -70 -299.5s-123.667 -88.5 -231 -88.5c-105.333 0 -181.833 30.333 -229.5 91s-71.5 159.667 -71.5 297c0 138 23.5 237 70.5 297s123.833 90 230.5 90s183.5 -30 230.5 -90s70.5 -159 70.5 -297zM477 375
c0 97.333 -9.5 161.831 -28.5 193.498s-54.833 47.5 -107.5 47.5c-52 0 -87.667 -16 -107 -48s-29 -96.333 -29 -193c0 -97.333 9.66699 -162.166 29 -194.499s55.333 -48.5 108 -48.5c52 0 87.5 16.333 106.5 49s28.5 97.334 28.5 194.001zM329 907.998h186l-129 -116h-117
z" />
    <glyph glyph-name="Ocircumflex" unicode="&#xd4;" horiz-adv-x="682" 
d="M642 375c0 -140.667 -23.333 -240.5 -70 -299.5s-123.667 -88.5 -231 -88.5c-105.333 0 -181.833 30.333 -229.5 91s-71.5 159.667 -71.5 297c0 138 23.5 237 70.5 297s123.833 90 230.5 90s183.5 -30 230.5 -90s70.5 -159 70.5 -297zM477 375
c0 97.333 -9.5 161.831 -28.5 193.498s-54.833 47.5 -107.5 47.5c-52 0 -87.667 -16 -107 -48s-29 -96.333 -29 -193c0 -97.333 9.66699 -162.166 29 -194.499s55.333 -48.5 108 -48.5c52 0 87.5 16.333 106.5 49s28.5 97.334 28.5 194.001zM263 907.998h155l100 -116h-129
l-46 64h-2l-47 -64h-127z" />
    <glyph glyph-name="Otilde" unicode="&#xd5;" horiz-adv-x="682" 
d="M642 375c0 -140.667 -23.333 -240.5 -70 -299.5s-123.667 -88.5 -231 -88.5c-105.333 0 -181.833 30.333 -229.5 91s-71.5 159.667 -71.5 297c0 138 23.5 237 70.5 297s123.833 90 230.5 90s183.5 -30 230.5 -90s70.5 -159 70.5 -297zM477 375
c0 97.333 -9.5 161.831 -28.5 193.498s-54.833 47.5 -107.5 47.5c-52 0 -87.667 -16 -107 -48s-29 -96.333 -29 -193c0 -97.333 9.66699 -162.166 29 -194.499s55.333 -48.5 108 -48.5c52 0 87.5 16.333 106.5 49s28.5 97.334 28.5 194.001zM250 795.998h-69
c1.33301 34.667 10.833 62.667 28.5 84s41.167 32 70.5 32c24 0 50.167 -6.66699 78.5 -20s46.166 -20 53.499 -20c8.66699 0 15.334 2.16699 20.001 6.5s8 11.833 10 22.5h65c-1.33301 -35.333 -11 -63.5 -29 -84.5s-41.333 -31.5 -70 -31.5
c-23.333 0 -48.333 6.66699 -75 20s-44 20 -52 20c-16 0 -26.333 -9.66699 -31 -29z" />
    <glyph glyph-name="Odieresis" unicode="&#xd6;" horiz-adv-x="682" 
d="M642 375c0 -140.667 -23.333 -240.5 -70 -299.5s-123.667 -88.5 -231 -88.5c-105.333 0 -181.833 30.333 -229.5 91s-71.5 159.667 -71.5 297c0 138 23.5 237 70.5 297s123.833 90 230.5 90s183.5 -30 230.5 -90s70.5 -159 70.5 -297zM477 375
c0 97.333 -9.5 161.831 -28.5 193.498s-54.833 47.5 -107.5 47.5c-52 0 -87.667 -16 -107 -48s-29 -96.333 -29 -193c0 -97.333 9.66699 -162.166 29 -194.499s55.333 -48.5 108 -48.5c52 0 87.5 16.333 106.5 49s28.5 97.334 28.5 194.001zM311 850.998
c0 -40 -20.667 -60 -62 -60s-62 20 -62 60s20.667 60 62 60s62 -20 62 -60zM496 850.998c0 -40 -20.667 -60 -62 -60s-62 20 -62 60s20.667 60 62 60s62 -20 62 -60z" />
    <glyph glyph-name="multiply" unicode="&#xd7;" horiz-adv-x="556" 
d="M487 206l-84 -91l-125 122l-124 -123l-84 91l124 123l-127 123l85 92l127 -125l126 125l85 -91l-127 -124z" />
    <glyph glyph-name="Oslash" unicode="&#xd8;" horiz-adv-x="682" 
d="M103 -16l-76 65l55 77c-28 60 -42 143 -42 249c0 138 23.5 237 70.5 297s123.833 90 230.5 90c86 0 152.667 -19.667 200 -59l46 59l75 -66l-59 -78c26 -58 39 -139 39 -243c0 -140.667 -23.167 -240.5 -69.5 -299.5s-123.5 -88.5 -231.5 -88.5
c-84 0 -149 18.667 -195 56zM205 375c0 -43.333 1.33105 -77.999 3.99805 -103.999l2 -1l49 64l187 236c-18.667 30.667 -54 46 -106 46c-35.333 0 -62.166 -6.33301 -80.499 -19s-32.166 -36.334 -41.499 -71.001s-14 -85 -14 -151zM477.998 375.001
c0 28.667 -0.666992 61.666 -2 98.999l-2 1l-50 -65l-186 -235c18 -28.667 52.667 -43 104 -43c52 0 87.667 16.333 107 49s29 97.334 29 194.001z" />
    <glyph glyph-name="Ugrave" unicode="&#xd9;" horiz-adv-x="662" 
d="M607 750v-495c0 -178.667 -91.667 -268 -275 -268c-184.667 0 -277 89.333 -277 268v495h158v-493c0 -43.333 9.33301 -74.666 28 -93.999s49 -29 91 -29s72.167 9.66699 90.5 29s27.5 50.666 27.5 93.999v493h157zM405 793h-118l-122 116h174z" />
    <glyph glyph-name="Uacute" unicode="&#xda;" horiz-adv-x="662" 
d="M607 750v-495c0 -178.667 -91.667 -268 -275 -268c-184.667 0 -277 89.333 -277 268v495h158v-493c0 -43.333 9.33301 -74.666 28 -93.999s49 -29 91 -29s72.167 9.66699 90.5 29s27.5 50.666 27.5 93.999v493h157zM319 908h186l-129 -116h-117z" />
    <glyph glyph-name="Ucircumflex" unicode="&#xdb;" horiz-adv-x="662" 
d="M607 750v-495c0 -178.667 -91.667 -268 -275 -268c-184.667 0 -277 89.333 -277 268v495h158v-493c0 -43.333 9.33301 -74.666 28 -93.999s49 -29 91 -29s72.167 9.66699 90.5 29s27.5 50.666 27.5 93.999v493h157zM253 908h155l100 -116h-129l-46 64h-2l-47 -64h-127z
" />
    <glyph glyph-name="Udieresis" unicode="&#xdc;" horiz-adv-x="662" 
d="M607 750v-495c0 -178.667 -91.667 -268 -275 -268c-184.667 0 -277 89.333 -277 268v495h158v-493c0 -43.333 9.33301 -74.666 28 -93.999s49 -29 91 -29s72.167 9.66699 90.5 29s27.5 50.666 27.5 93.999v493h157zM302 851c0 -40 -20.667 -60 -62 -60s-62 20 -62 60
s20.667 60 62 60s62 -20 62 -60zM487 851c0 -40 -20.667 -60 -62 -60s-62 20 -62 60s20.667 60 62 60s62 -20 62 -60z" />
    <glyph glyph-name="Yacute" unicode="&#xdd;" horiz-adv-x="634" 
d="M6 750h176l110 -288l28 -76h3l26 76l108 288h171l-228 -514v-236h-161v236zM307 908h186l-129 -116h-117z" />
    <glyph glyph-name="Thorn" unicode="&#xde;" horiz-adv-x="609" 
d="M580 378c0 -82.667 -21.833 -144.167 -65.5 -184.5s-115.167 -60.5 -214.5 -60.5h-78v-133h-157v750h157v-119h78c99.333 0 170.833 -20 214.5 -60s65.5 -104.333 65.5 -193zM418 379c0 44.667 -8.5 75 -25.5 91s-47.833 24 -92.5 24h-78v-231h78
c44 0 74.667 7.83301 92 23.5s26 46.5 26 92.5z" />
    <glyph glyph-name="germandbls" unicode="&#xdf;" horiz-adv-x="608" 
d="M61 0v495.998c0 178 79.333 267 238 267c59.333 0 107.666 -15.667 144.999 -47s56 -71 56 -119c0 -23.333 -7.16699 -46 -21.5 -68s-28.666 -41.167 -42.999 -57.5s-21.5 -29.166 -21.5 -38.499c0 -8 5.66699 -16.667 17 -26s25.166 -19.666 41.499 -30.999
s32.833 -24.5 49.5 -39.5s30.667 -34.5 42 -58.5s17 -50.333 17 -79c0 -64.667 -20.167 -115.5 -60.5 -152.5s-93.166 -55.5 -158.499 -55.5c-54.667 0 -97.667 10.333 -129 31l8 127c23.333 -16 55 -24 95 -24c64 0 96 23 96 69c0 17.333 -6 34 -18 50s-26.5 30 -43.5 42
l-51 36c-17 12 -31.5 25.833 -43.5 41.5s-18 32.167 -18 49.5c0 15.333 5.33301 31.833 16 49.5s22.167 33 34.5 46s23.833 27.167 34.5 42.5s16 29.333 16 42c0 14 -5.5 25.167 -16.5 33.5s-26.5 12.5 -46.5 12.5c-31.333 0 -54 -10 -68 -30s-21 -53.333 -21 -100v-509
h-146z" />
    <glyph glyph-name="agrave" unicode="&#xe0;" horiz-adv-x="536" 
d="M373 0l-10.999 57l-3 1c-35.333 -44.667 -85 -67 -149 -67c-54.667 0 -97.334 16.667 -128.001 50s-46 83.333 -46 150c0 58 17.667 104 53 138s84.333 51 147 51c36 0 70.667 -5.33301 104 -16v38c0 32 -8.16699 54.833 -24.5 68.5s-43.5 20.5 -81.5 20.5
c-52 0 -102.667 -10.667 -152 -32l-12 120c56 26 119.667 39 191 39c81.333 0 139 -18.667 173 -56s51 -98 51 -182v-380h-112zM340.001 181v82c-20 9.33301 -45.333 14 -76 14c-60.667 0 -91 -28 -91 -84c0 -55.333 25.667 -83 77 -83c24 0 45 6.83301 63 20.5
s27 30.5 27 50.5zM337.001 658h-110l-112 143h167z" />
    <glyph glyph-name="aacute" unicode="&#xe1;" horiz-adv-x="536" 
d="M373 0l-10.999 57l-3 1c-35.333 -44.667 -85 -67 -149 -67c-54.667 0 -97.334 16.667 -128.001 50s-46 83.333 -46 150c0 58 17.667 104 53 138s84.333 51 147 51c36 0 70.667 -5.33301 104 -16v38c0 32 -8.16699 54.833 -24.5 68.5s-43.5 20.5 -81.5 20.5
c-52 0 -102.667 -10.667 -152 -32l-12 120c56 26 119.667 39 191 39c81.333 0 139 -18.667 173 -56s51 -98 51 -182v-380h-112zM340.001 181v82c-20 9.33301 -45.333 14 -76 14c-60.667 0 -91 -28 -91 -84c0 -55.333 25.667 -83 77 -83c24 0 45 6.83301 63 20.5
s27 30.5 27 50.5zM245.001 801h167l-113 -143h-109z" />
    <glyph glyph-name="acircumflex" unicode="&#xe2;" horiz-adv-x="536" 
d="M373 0l-10.999 57l-3 1c-35.333 -44.667 -85 -67 -149 -67c-54.667 0 -97.334 16.667 -128.001 50s-46 83.333 -46 150c0 58 17.667 104 53 138s84.333 51 147 51c36 0 70.667 -5.33301 104 -16v38c0 32 -8.16699 54.833 -24.5 68.5s-43.5 20.5 -81.5 20.5
c-52 0 -102.667 -10.667 -152 -32l-12 120c56 26 119.667 39 191 39c81.333 0 139 -18.667 173 -56s51 -98 51 -182v-380h-112zM340.001 181v82c-20 9.33301 -45.333 14 -76 14c-60.667 0 -91 -28 -91 -84c0 -55.333 25.667 -83 77 -83c24 0 45 6.83301 63 20.5
s27 30.5 27 50.5zM203.001 801h123l95 -143h-108l-48 79l-47 -79h-108z" />
    <glyph glyph-name="atilde" unicode="&#xe3;" horiz-adv-x="536" 
d="M373 0l-10.999 57l-3 1c-35.333 -44.667 -85 -67 -149 -67c-54.667 0 -97.334 16.667 -128.001 50s-46 83.333 -46 150c0 58 17.667 104 53 138s84.333 51 147 51c36 0 70.667 -5.33301 104 -16v38c0 32 -8.16699 54.833 -24.5 68.5s-43.5 20.5 -81.5 20.5
c-52 0 -102.667 -10.667 -152 -32l-12 120c56 26 119.667 39 191 39c81.333 0 139 -18.667 173 -56s51 -98 51 -182v-380h-112zM340.001 181v82c-20 9.33301 -45.333 14 -76 14c-60.667 0 -91 -28 -91 -84c0 -55.333 25.667 -83 77 -83c24 0 45 6.83301 63 20.5
s27 30.5 27 50.5zM175.001 671l-66.001 0.000976562c2 38.667 11.667 70.167 29 94.5s40 36.5 68 36.5c22.667 0 46.334 -8.5 71.001 -25.5s43 -25.5 55 -25.5c15.333 0 26.333 13.333 33 40l66 -1c-1.33301 -38.667 -11 -69.834 -29 -93.501s-41 -35.5 -69 -35.5
c-22 0 -45.5 8.5 -70.5 25.5s-42.833 25.5 -53.5 25.5c-16.667 0 -28 -13.667 -34 -41z" />
    <glyph glyph-name="adieresis" unicode="&#xe4;" horiz-adv-x="536" 
d="M373 0l-10.999 57l-3 1c-35.333 -44.667 -85 -67 -149 -67c-54.667 0 -97.334 16.667 -128.001 50s-46 83.333 -46 150c0 58 17.667 104 53 138s84.333 51 147 51c36 0 70.667 -5.33301 104 -16v38c0 32 -8.16699 54.833 -24.5 68.5s-43.5 20.5 -81.5 20.5
c-52 0 -102.667 -10.667 -152 -32l-12 120c56 26 119.667 39 191 39c81.333 0 139 -18.667 173 -56s51 -98 51 -182v-380h-112zM340.001 181v82c-20 9.33301 -45.333 14 -76 14c-60.667 0 -91 -28 -91 -84c0 -55.333 25.667 -83 77 -83c24 0 45 6.83301 63 20.5
s27 30.5 27 50.5zM246.001 737c0 -42 -21 -63 -63 -63c-21.333 0 -37 5 -47 15s-15 26 -15 48c0 43.333 20.667 65 62 65c42 0 63 -21.667 63 -65zM418.001 737c0 -42 -20.667 -63 -62 -63c-42 0 -63 21 -63 63c0 43.333 21 65 63 65c41.333 0 62 -21.667 62 -65z" />
    <glyph glyph-name="aring" unicode="&#xe5;" horiz-adv-x="536" 
d="M373 0l-10.999 57l-3 1c-35.333 -44.667 -85 -67 -149 -67c-54.667 0 -97.334 16.667 -128.001 50s-46 83.333 -46 150c0 58 17.667 104 53 138s84.333 51 147 51c36 0 70.667 -5.33301 104 -16v38c0 32 -8.16699 54.833 -24.5 68.5s-43.5 20.5 -81.5 20.5
c-52 0 -102.667 -10.667 -152 -32l-12 120c56 26 119.667 39 191 39c81.333 0 139 -18.667 173 -56s51 -98 51 -182v-380h-112zM340.001 181v82c-20 9.33301 -45.333 14 -76 14c-60.667 0 -91 -28 -91 -84c0 -55.333 25.667 -83 77 -83c24 0 45 6.83301 63 20.5
s27 30.5 27 50.5zM149.001 742c0 58 39.333 87.001 118 87.001c39.333 0 69 -7.83301 89 -23.5s30 -36.834 30 -63.501c0 -58 -39.667 -87 -119 -87c-78.667 0 -118 29 -118 87zM220.001 741.001c0 -20 16.333 -30 49 -30c32 0 48 10 48 30c0 21.333 -16 32 -48 32
c-32.667 0 -49 -10.667 -49 -32z" />
    <glyph glyph-name="ae" unicode="&#xe6;" horiz-adv-x="836" 
d="M261 616c79.333 0 133.666 -20.668 162.999 -62.001c40 42 93.333 63 160 63c68.667 0 122.667 -23.167 162 -69.5s59 -116.5 59 -210.5c0 -19.333 -1.33301 -43.666 -4 -72.999h-322c2.66699 -53.333 15.5 -90.833 38.5 -112.5s59.167 -32.5 108.5 -32.5
c51.333 0 100.333 10.333 147 31l16 -124c-51.333 -24.667 -111.666 -37 -180.999 -37c-94.667 0 -163.334 28 -206.001 84c-40 -55.333 -99 -83 -177 -83c-126 0 -189 66.667 -189 200c0 58 17.667 104 53 138s84.333 51 147 51c34.667 0 69.334 -5.33301 104.001 -16v38
c0 32 -8.16699 54.833 -24.5 68.5s-43.5 20.5 -81.5 20.5c-52 0 -102.667 -10.667 -152 -32l-12 120c58 25.333 121.667 38 191 38zM340 187.999v74c-20 9.33301 -45.333 14 -76 14c-61.333 0 -92 -28 -92 -84c0 -55.333 26 -83 78 -83c26 0 47.5 7.33301 64.5 22
s25.5 33.667 25.5 57zM477 364.999h193.002c-0.666992 84.667 -32.334 127 -95.001 127c-33.333 0 -57.333 -9.5 -72 -28.5s-23.334 -51.833 -26.001 -98.5z" />
    <glyph glyph-name="ccedilla" unicode="&#xe7;" horiz-adv-x="452" 
d="M168 -186l60 178.997c-130.667 21.333 -196 124.333 -196 309c0 104 20.833 182.333 62.5 235s106.5 79 194.5 79c50.667 0 94.334 -8.33301 131.001 -25l-8 -127c-32.667 12 -63.334 18 -92.001 18c-50.667 0 -86.167 -13.167 -106.5 -39.5
s-30.5 -73.166 -30.5 -140.499c0 -65.333 11.167 -112.666 33.5 -141.999s55.833 -44 100.5 -44c36 0 68.667 7.33301 98 22l10 -117c-22.667 -15.333 -55 -25.666 -97 -30.999l-29 -176h-131z" />
    <glyph glyph-name="egrave" unicode="&#xe8;" horiz-adv-x="540" 
d="M312 -11c-96.667 0 -167.501 26.499 -212.501 79.499s-67.5 134.167 -67.5 243.5c0 203.333 82 305 246 305c154 0 231 -93.333 231 -280c0 -29.333 -1.33301 -53.666 -4 -72.999h-322c2.66699 -53.333 15.5 -90.833 38.5 -112.5s59.167 -32.5 108.5 -32.5
c50 0 99 9.33301 147 28l16 -121c-51.333 -24.667 -111.666 -37 -180.999 -37zM179.999 364.999h195c-0.666992 46 -9.16699 78.667 -25.5 98s-39.833 29 -70.5 29c-33.333 0 -57.5 -9.5 -72.5 -28.5s-23.833 -51.833 -26.5 -98.5zM349.999 657.999h-110l-112 143h167z" />
    <glyph glyph-name="eacute" unicode="&#xe9;" horiz-adv-x="540" 
d="M312 -11c-96.667 0 -167.501 26.499 -212.501 79.499s-67.5 134.167 -67.5 243.5c0 203.333 82 305 246 305c154 0 231 -93.333 231 -280c0 -29.333 -1.33301 -53.666 -4 -72.999h-322c2.66699 -53.333 15.5 -90.833 38.5 -112.5s59.167 -32.5 108.5 -32.5
c50 0 99 9.33301 147 28l16 -121c-51.333 -24.667 -111.666 -37 -180.999 -37zM179.999 364.999h195c-0.666992 46 -9.16699 78.667 -25.5 98s-39.833 29 -70.5 29c-33.333 0 -57.5 -9.5 -72.5 -28.5s-23.833 -51.833 -26.5 -98.5zM257.999 800.999h167l-113 -143h-109z" />
    <glyph glyph-name="ecircumflex" unicode="&#xea;" horiz-adv-x="540" 
d="M312 -11c-96.667 0 -167.501 26.499 -212.501 79.499s-67.5 134.167 -67.5 243.5c0 203.333 82 305 246 305c154 0 231 -93.333 231 -280c0 -29.333 -1.33301 -53.666 -4 -72.999h-322c2.66699 -53.333 15.5 -90.833 38.5 -112.5s59.167 -32.5 108.5 -32.5
c50 0 99 9.33301 147 28l16 -121c-51.333 -24.667 -111.666 -37 -180.999 -37zM179.999 364.999h195c-0.666992 46 -9.16699 78.667 -25.5 98s-39.833 29 -70.5 29c-33.333 0 -57.5 -9.5 -72.5 -28.5s-23.833 -51.833 -26.5 -98.5zM215.999 800.999h123l95 -143h-108l-48 79
l-47 -79h-108z" />
    <glyph glyph-name="edieresis" unicode="&#xeb;" horiz-adv-x="540" 
d="M312 -11c-96.667 0 -167.501 26.499 -212.501 79.499s-67.5 134.167 -67.5 243.5c0 203.333 82 305 246 305c154 0 231 -93.333 231 -280c0 -29.333 -1.33301 -53.666 -4 -72.999h-322c2.66699 -53.333 15.5 -90.833 38.5 -112.5s59.167 -32.5 108.5 -32.5
c50 0 99 9.33301 147 28l16 -121c-51.333 -24.667 -111.666 -37 -180.999 -37zM179.999 364.999h195c-0.666992 46 -9.16699 78.667 -25.5 98s-39.833 29 -70.5 29c-33.333 0 -57.5 -9.5 -72.5 -28.5s-23.833 -51.833 -26.5 -98.5zM246.999 736.999c0 -42 -21 -63 -63 -63
c-21.333 0 -37 5 -47 15s-15 26 -15 48c0 43.333 20.667 65 62 65c42 0 63 -21.667 63 -65zM418.999 736.999c0 -42 -20.667 -63 -62 -63c-42 0 -63 21 -63 63c0 43.333 21 65 63 65c41.333 0 62 -21.667 62 -65z" />
    <glyph glyph-name="igrave" unicode="&#xec;" horiz-adv-x="295" 
d="M222 0h-149v603l149 7v-610zM209 658h-110l-112 143h167z" />
    <glyph glyph-name="iacute" unicode="&#xed;" horiz-adv-x="295" 
d="M222 0h-149v603l149 7v-610zM117 801h167l-113 -143h-109z" />
    <glyph glyph-name="icircumflex" unicode="&#xee;" horiz-adv-x="295" 
d="M222 0h-149v603l149 7v-610zM75 801h123l95 -143h-108l-48 79l-47 -79h-108z" />
    <glyph glyph-name="idieresis" unicode="&#xef;" horiz-adv-x="295" 
d="M222 0h-149v603l149 7v-610zM116 737c0 -42 -21 -63 -63 -63c-21.333 0 -37 5 -47 15s-15 26 -15 48c0 43.333 20.667 65 62 65c42 0 63 -21.667 63 -65zM288 737c0 -42 -20.667 -63 -62 -63c-42 0 -63 21 -63 63c0 43.333 21 65 63 65c41.333 0 62 -21.667 62 -65z" />
    <glyph glyph-name="eth" unicode="&#xf0;" horiz-adv-x="575" 
d="M454 731l-67.001 -42.998c46.667 -50.667 84.167 -106.834 112.5 -168.501s42.5 -122.5 42.5 -182.5c0 -124.667 -20 -213.667 -60 -267s-104 -80 -192 -80c-84 0 -148 22 -192 66s-66 121.333 -66 232c0 176.667 72.667 265 218 265c44 0 80.333 -8.33301 109 -25l2 2
c-20.667 34 -45 65.667 -73 95l-81 -51l-51 59l70 46c-25.333 20 -51.333 38 -78 54l105 66c24.667 -14.667 49.334 -32.334 74.001 -53.001l77 51zM182.999 280.002c0 -66 7.99902 -110.168 23.999 -132.501s41.667 -33.5 77 -33.5c37.333 0 64.5 14.333 81.5 43
s25.5 77.334 25.5 146.001c0 44.667 -8.66699 76.667 -26 96s-44 29 -80 29c-37.333 0 -63.666 -10.667 -78.999 -32s-23 -60 -23 -116z" />
    <glyph glyph-name="ntilde" unicode="&#xf1;" horiz-adv-x="578" 
d="M526 0h-145v398c0 58.667 -29 88 -87 88c-18 0 -35.5 -4 -52.5 -12s-29.833 -18.667 -38.5 -32v-442h-146v604l105 7l21 -51c42.667 38.667 93.667 58 153 58s105.833 -19 139.5 -57s50.5 -92.333 50.5 -163v-398zM204 671l-66.001 0.000976562
c2 38.667 11.667 70.167 29 94.5s40 36.5 68 36.5c22.667 0 46.334 -8.5 71.001 -25.5s43 -25.5 55 -25.5c15.333 0 26.333 13.333 33 40l66 -1c-1.33301 -38.667 -11 -69.834 -29 -93.501s-41 -35.5 -69 -35.5c-22 0 -45.5 8.5 -70.5 25.5s-42.833 25.5 -53.5 25.5
c-16.667 0 -28 -13.667 -34 -41z" />
    <glyph glyph-name="ograve" unicode="&#xf2;" horiz-adv-x="573" 
d="M541 301c0 -113.333 -19.834 -194 -59.501 -242s-104.5 -72 -194.5 -72c-89.333 0 -154.166 24 -194.499 72s-60.5 128.667 -60.5 242c0 112.667 20.5 193.5 61.5 242.5s105.833 73.5 194.5 73.5s153 -24.333 193 -73s60 -129.667 60 -243zM182.999 301
c0 -76 7.66699 -127.167 23 -153.5s42.666 -39.5 81.999 -39.5c38.667 0 65.334 13.167 80.001 39.5s22 77.5 22 153.5s-7.33301 127.167 -22 153.5s-41.334 39.5 -80.001 39.5c-39.333 0 -66.666 -13.167 -81.999 -39.5s-23 -77.5 -23 -153.5zM358.999 658h-110l-112 143
h167z" />
    <glyph glyph-name="oacute" unicode="&#xf3;" horiz-adv-x="573" 
d="M541 301c0 -113.333 -19.834 -194 -59.501 -242s-104.5 -72 -194.5 -72c-89.333 0 -154.166 24 -194.499 72s-60.5 128.667 -60.5 242c0 112.667 20.5 193.5 61.5 242.5s105.833 73.5 194.5 73.5s153 -24.333 193 -73s60 -129.667 60 -243zM182.999 301
c0 -76 7.66699 -127.167 23 -153.5s42.666 -39.5 81.999 -39.5c38.667 0 65.334 13.167 80.001 39.5s22 77.5 22 153.5s-7.33301 127.167 -22 153.5s-41.334 39.5 -80.001 39.5c-39.333 0 -66.666 -13.167 -81.999 -39.5s-23 -77.5 -23 -153.5zM266.999 801h167l-113 -143
h-109z" />
    <glyph glyph-name="ocircumflex" unicode="&#xf4;" horiz-adv-x="573" 
d="M541 301c0 -113.333 -19.834 -194 -59.501 -242s-104.5 -72 -194.5 -72c-89.333 0 -154.166 24 -194.499 72s-60.5 128.667 -60.5 242c0 112.667 20.5 193.5 61.5 242.5s105.833 73.5 194.5 73.5s153 -24.333 193 -73s60 -129.667 60 -243zM182.999 301
c0 -76 7.66699 -127.167 23 -153.5s42.666 -39.5 81.999 -39.5c38.667 0 65.334 13.167 80.001 39.5s22 77.5 22 153.5s-7.33301 127.167 -22 153.5s-41.334 39.5 -80.001 39.5c-39.333 0 -66.666 -13.167 -81.999 -39.5s-23 -77.5 -23 -153.5zM224.999 801h123l95 -143
h-108l-48 79l-47 -79h-108z" />
    <glyph glyph-name="otilde" unicode="&#xf5;" horiz-adv-x="573" 
d="M541 301c0 -113.333 -19.834 -194 -59.501 -242s-104.5 -72 -194.5 -72c-89.333 0 -154.166 24 -194.499 72s-60.5 128.667 -60.5 242c0 112.667 20.5 193.5 61.5 242.5s105.833 73.5 194.5 73.5s153 -24.333 193 -73s60 -129.667 60 -243zM182.999 301
c0 -76 7.66699 -127.167 23 -153.5s42.666 -39.5 81.999 -39.5c38.667 0 65.334 13.167 80.001 39.5s22 77.5 22 153.5s-7.33301 127.167 -22 153.5s-41.334 39.5 -80.001 39.5c-39.333 0 -66.666 -13.167 -81.999 -39.5s-23 -77.5 -23 -153.5zM196.999 671
l-66.001 0.000976562c2 38.667 11.667 70.167 29 94.5s40 36.5 68 36.5c22.667 0 46.334 -8.5 71.001 -25.5s43 -25.5 55 -25.5c15.333 0 26.333 13.333 33 40l66 -1c-1.33301 -38.667 -11 -69.834 -29 -93.501s-41 -35.5 -69 -35.5c-22 0 -45.5 8.5 -70.5 25.5
s-42.833 25.5 -53.5 25.5c-16.667 0 -28 -13.667 -34 -41z" />
    <glyph glyph-name="odieresis" unicode="&#xf6;" horiz-adv-x="573" 
d="M541 301c0 -113.333 -19.834 -194 -59.501 -242s-104.5 -72 -194.5 -72c-89.333 0 -154.166 24 -194.499 72s-60.5 128.667 -60.5 242c0 112.667 20.5 193.5 61.5 242.5s105.833 73.5 194.5 73.5s153 -24.333 193 -73s60 -129.667 60 -243zM182.999 301
c0 -76 7.66699 -127.167 23 -153.5s42.666 -39.5 81.999 -39.5c38.667 0 65.334 13.167 80.001 39.5s22 77.5 22 153.5s-7.33301 127.167 -22 153.5s-41.334 39.5 -80.001 39.5c-39.333 0 -66.666 -13.167 -81.999 -39.5s-23 -77.5 -23 -153.5zM262.999 737
c0 -42 -21 -63 -63 -63c-21.333 0 -37 5 -47 15s-15 26 -15 48c0 43.333 20.667 65 62 65c42 0 63 -21.667 63 -65zM434.999 737c0 -42 -20.667 -63 -62 -63c-42 0 -63 21 -63 63c0 43.333 21 65 63 65c41.333 0 62 -21.667 62 -65z" />
    <glyph glyph-name="divide" unicode="&#xf7;" horiz-adv-x="556" 
d="M369 520c0 -50 -30 -75 -90 -75c-30 0 -52.5 5.5 -67.5 16.5s-22.5 30.5 -22.5 58.5c0 50 30 75 90 75s90 -25 90 -75zM369 149c0 -50 -30 -75 -90 -75c-30 0 -52.5 5.5 -67.5 16.5s-22.5 30.5 -22.5 58.5c0 50.667 30 76 90 76s90 -25.333 90 -76zM503 267h-450v135h450
v-135z" />
    <glyph glyph-name="oslash" unicode="&#xf8;" horiz-adv-x="573" 
d="M88 -13l-61 54.001l41 55c-24 49.333 -36 117.666 -36 204.999c0 112.667 20.5 193.5 61.5 242.5s105.833 73.5 194.5 73.5c66.667 0 118.667 -13 156 -39l33 43l61 -54l-38 -52c27.333 -50.667 41 -122 41 -214c0 -113.333 -19.833 -194 -59.5 -242
s-104.167 -72 -193.5 -72c-72.667 0 -128 14.667 -166 44zM391 301.001c0 10 -0.167969 23.667 -0.500977 41s-0.5 29.333 -0.5 36l-2 1l-51 -63l-135 -161c14.667 -31.333 43.334 -47 86.001 -47c38.667 0 65.5 13.333 80.5 40s22.5 77.667 22.5 153zM182.999 301.001
c0 -28.667 0.332031 -49 0.999023 -61l2 -1l50 63l130 156c-15.333 24 -41.333 36 -78 36c-39.333 0 -66.666 -13.167 -81.999 -39.5s-23 -77.5 -23 -153.5z" />
    <glyph glyph-name="ugrave" unicode="&#xf9;" horiz-adv-x="572" 
d="M521 607v-400c0 -144.667 -78 -217 -234 -217c-156.667 0 -235 72.333 -235 217v400h146v-399c0 -57.333 29.667 -86 89 -86s89 28.667 89 86v399h145zM359 658h-110l-112 143h167z" />
    <glyph glyph-name="uacute" unicode="&#xfa;" horiz-adv-x="572" 
d="M521 607v-400c0 -144.667 -78 -217 -234 -217c-156.667 0 -235 72.333 -235 217v400h146v-399c0 -57.333 29.667 -86 89 -86s89 28.667 89 86v399h145zM267 801h167l-113 -143h-109z" />
    <glyph glyph-name="ucircumflex" unicode="&#xfb;" horiz-adv-x="572" 
d="M521 607v-400c0 -144.667 -78 -217 -234 -217c-156.667 0 -235 72.333 -235 217v400h146v-399c0 -57.333 29.667 -86 89 -86s89 28.667 89 86v399h145zM225 801h123l95 -143h-108l-48 79l-47 -79h-108z" />
    <glyph glyph-name="udieresis" unicode="&#xfc;" horiz-adv-x="572" 
d="M521 607v-400c0 -144.667 -78 -217 -234 -217c-156.667 0 -235 72.333 -235 217v400h146v-399c0 -57.333 29.667 -86 89 -86s89 28.667 89 86v399h145zM263 737c0 -42 -21 -63 -63 -63c-21.333 0 -37 5 -47 15s-15 26 -15 48c0 43.333 20.667 65 62 65
c42 0 63 -21.667 63 -65zM435 737c0 -42 -20.667 -63 -62 -63c-42 0 -63 21 -63 63c0 43.333 21 65 63 65c41.333 0 62 -21.667 62 -65z" />
    <glyph glyph-name="yacute" unicode="&#xfd;" horiz-adv-x="598" 
d="M164 -52c42 0 70.334 19 85.001 57l3 8l-237 594h166l117 -370l23 -77h3l16 79l88 368h155l-190 -603c-19.333 -58.667 -45.5 -101 -78.5 -127s-74.5 -39 -124.5 -39c-36 0 -68 6 -96 18l12 105c19.333 -8.66699 38.666 -13 57.999 -13zM284.001 801h167l-113 -143h-109z
" />
    <glyph glyph-name="thorn" unicode="&#xfe;" horiz-adv-x="582" 
d="M550 304c0 -104.667 -18.668 -183 -56.001 -235s-90 -78 -158 -78c-52 0 -94.333 14 -127 42l-3 -1l2 -81v-100h-147v931l146 7v-146l-2 -80l3 -2c38.667 37.333 85.334 56 140.001 56c66.667 0 117 -23.667 151 -71s51 -128 51 -242zM397.999 308
c0 69.333 -7.33301 116.167 -22 140.5s-40 36.5 -76 36.5c-42.667 0 -73.334 -16.333 -92.001 -49v-270c18.667 -34 48.334 -51 89.001 -51c34 0 59.333 13.333 76 40s25 77.667 25 153z" />
    <glyph glyph-name="ydieresis" unicode="&#xff;" horiz-adv-x="598" 
d="M164 -52c42 0 70.334 19 85.001 57l3 8l-237 594h166l117 -370l23 -77h3l16 79l88 368h155l-190 -603c-19.333 -58.667 -45.5 -101 -78.5 -127s-74.5 -39 -124.5 -39c-36 0 -68 6 -96 18l12 105c19.333 -8.66699 38.666 -13 57.999 -13zM277.001 737
c0 -42 -21 -63 -63 -63c-21.333 0 -37 5 -47 15s-15 26 -15 48c0 43.333 20.667 65 62 65c42 0 63 -21.667 63 -65zM449.001 737c0 -42 -20.667 -63 -62 -63c-42 0 -63 21 -63 63c0 43.333 21 65 63 65c41.333 0 62 -21.667 62 -65z" />
    <glyph glyph-name="dotlessi" unicode="&#x131;" horiz-adv-x="295" 
d="M222 0h-149v603l149 7v-610z" />
    <glyph glyph-name="IJ" unicode="&#x132;" horiz-adv-x="797" 
d="M75 0v750h161v-750h-161zM733 750v-488c0 -98 -23 -168.5 -69 -211.5s-112.667 -64.5 -200 -64.5c-52 0 -97.333 10 -136 30l9 137c26 -16 59.667 -24 101 -24c44.667 0 78.167 10.833 100.5 32.5s33.5 56.167 33.5 103.5v485h161z" />
    <glyph glyph-name="ij" unicode="&#x133;" horiz-adv-x="583" 
d="M225 0h-149v603l149 7v-610zM233 736c0 -43.333 -27.333 -65 -82 -65c-28.667 0 -49.667 5 -63 15s-20 26.667 -20 50c0 44 27.667 66 83 66c54.667 0 82 -22 82 -66zM517 610v-604c0 -110 -54.333 -165 -163 -165c-28.667 0 -55 4.33301 -79 13l8 103
c12 -3.33301 23.333 -5 34 -5c36.667 0 55 19 55 57v594zM525 737c0 -43.333 -27.667 -65 -83 -65c-28.667 0 -49.667 5 -63 15s-20 26.667 -20 50c0 44 27.667 66 83 66s83 -22 83 -66z" />
    <glyph glyph-name="Lslash" unicode="&#x141;" horiz-adv-x="547" 
d="M254 146h276l-4 -146h-430v283l-63 -28l-11 129l74 34v332h158v-267l164 74l14 -135l-178 -77v-199z" />
    <glyph glyph-name="lslash" unicode="&#x142;" horiz-adv-x="345" 
d="M27 327l-1 129l71 35v291l147 7v-236l76 39v-125l-76 -40v-427h-147v364z" />
    <glyph glyph-name="OE" unicode="&#x152;" horiz-adv-x="969" 
d="M936 0l-447.998 -0.000976562v58l-2 1c-38.667 -48 -97.334 -72 -176.001 -72c-90.667 0 -158.334 30.667 -203.001 92s-67 160 -67 296c0 136.667 22 235.334 66 296.001s112.667 91 206 91c75.333 0 133.333 -21.333 174 -64l2 1v51h434l3 -144h-295v-154h247v-132
h-247v-178h309zM476.002 374.999c0 97.333 -9.33105 161.831 -27.998 193.498s-54.334 47.5 -107.001 47.5c-52 0 -87.667 -16 -107 -48s-29 -96.333 -29 -193c0 -97.333 9.66699 -162.166 29 -194.499s55.333 -48.5 108 -48.5c35.333 0 62.166 6.5 80.499 19.5
s31.833 36.833 40.5 71.5s13 85.334 13 152.001z" />
    <glyph glyph-name="oe" unicode="&#x153;" horiz-adv-x="900" 
d="M677 -11c-98 0 -166.333 27.666 -205 82.999c-35.333 -56.667 -99.666 -85 -192.999 -85c-84 0 -145.667 24.167 -185 72.5s-59 128.833 -59 241.5c0 112 19.833 192.667 59.5 242s101.167 74 184.5 74c90 0 153 -26 189 -78c37.333 52 95.666 78 174.999 78
c72 0 127.667 -23 167 -69s59 -116.333 59 -211c0 -29.333 -1.33301 -53.666 -4 -72.999h-321c2.66699 -53.333 15.5 -90.833 38.5 -112.5s59.167 -32.5 108.5 -32.5c52 0 100.667 10.333 146 31l16 -124c-51.333 -24.667 -110 -37 -176 -37zM186 300.999
c0 -76 7.66699 -127.167 23 -153.5s42.666 -39.5 81.999 -39.5c38.667 0 65.334 13.167 80.001 39.5s22 77.5 22 153.5s-7.33301 127.167 -22 153.5s-41.334 39.5 -80.001 39.5c-39.333 0 -66.666 -13.167 -81.999 -39.5s-23 -77.5 -23 -153.5zM541 364.999h194.001
c-0.666992 45.333 -9.16699 77.833 -25.5 97.5s-39.833 29.5 -70.5 29.5c-33.333 0 -57.333 -9.5 -72 -28.5s-23.334 -51.833 -26.001 -98.5z" />
    <glyph glyph-name="Scaron" unicode="&#x160;" horiz-adv-x="527" 
d="M501 222c0 -74 -22.4932 -131.665 -67.4932 -172.998s-107.833 -62 -188.5 -62c-80 0 -150 17.667 -210 53l21 138c62.667 -33.333 124.667 -50 186 -50c72 0 108 28 108 84c0 22 -10.667 40.833 -32 56.5s-47.333 29.5 -78 41.5s-61.334 25.833 -92.001 41.5
s-56.667 39.167 -78 70.5s-32 69.666 -32 114.999c0 67.333 21 121.666 63 162.999s104.333 62 187 62c72.667 0 135.667 -12.333 189 -37l-18 -136c-56.667 19.333 -110.334 29 -161.001 29c-72.667 0 -109 -24.667 -109 -74c0 -16 5.66699 -30.167 17 -42.5
s26.166 -22.666 44.499 -30.999s38.666 -16.833 60.999 -25.5s44.666 -19 66.999 -31s42.666 -25.833 60.999 -41.5s33.166 -36.334 44.499 -62.001s17 -55.167 17 -88.5zM363.007 792.002h-154l-98 116h129l46 -67h2l47 67h128z" />
    <glyph glyph-name="scaron" unicode="&#x161;" horiz-adv-x="456" 
d="M427 188c0 -133.333 -71.668 -200.002 -215.001 -200.002c-69.333 0 -126.666 13.333 -171.999 40l15 124c43.333 -26.667 94.666 -40 153.999 -40c55.333 0 83 21 83 63c0 18 -8.83301 32.833 -26.5 44.5s-39 21.667 -64 30s-50 18.333 -75 30
s-46.333 30.334 -64 56.001s-26.5 57.834 -26.5 96.501c0 55.333 18.167 99.833 54.5 133.5s89.166 50.5 158.499 50.5c54.667 0 106.334 -10.333 155.001 -31l-11 -123c-44 18.667 -92 28 -144 28c-49.333 0 -74 -17.333 -74 -52c0 -16.667 8.66699 -30.5 26 -41.5
s38.333 -20.5 63 -28.5s49.334 -17.833 74.001 -29.5s45.667 -30.167 63 -55.5s26 -57 26 -95zM299.999 657.998h-125l-92 143h108l44 -85h6l43 85h110z" />
    <glyph glyph-name="Ydieresis" unicode="&#x178;" horiz-adv-x="634" 
d="M6 750h176l110 -288l28 -76h3l26 76l108 288h171l-228 -514v-236h-161v236zM290 851c0 -40 -20.667 -60 -62 -60s-62 20 -62 60s20.667 60 62 60s62 -20 62 -60zM475 851c0 -40 -20.667 -60 -62 -60s-62 20 -62 60s20.667 60 62 60s62 -20 62 -60z" />
    <glyph glyph-name="Zcaron" unicode="&#x17d;" horiz-adv-x="561" 
d="M523 0h-492v107l265 429l44 66l-2 2h-300l5 146h481v-118l-259 -419l-43 -65l1 -3h303zM364 792h-154l-98 116h129l46 -67h2l47 67h128z" />
    <glyph glyph-name="zcaron" unicode="&#x17e;" horiz-adv-x="490" 
d="M448 502l-203 -311l-45 -64l1 -3h255l-4 -124h-415v106l202 308l45 65l-1 2h-238l5 126h398v-105zM311 658h-125l-92 143h108l44 -85h6l43 85h110z" />
    <glyph glyph-name="florin" unicode="&#x192;" horiz-adv-x="395" 
d="M120 -149h-145.001l132 641h-57l23 114h56l8 41c8.66699 43.333 30.334 78.333 65.001 105s80 40 136 40c33.333 0 62 -4 86 -12l-28 -100c-13.333 4.66699 -29 7 -47 7c-38 0 -60 -14.667 -66 -44l-8 -37h112l-23 -114h-111z" />
    <glyph glyph-name="circumflex" unicode="&#x2c6;" 
d="M130 801h123l95 -143h-108l-48 79l-47 -79h-108z" />
    <glyph glyph-name="caron" unicode="&#x2c7;" 
d="M255 658h-125l-92 143h108l44 -85h6l43 85h110z" />
    <glyph glyph-name="breve" unicode="&#x2d8;" 
d="M241 801h98c0 -101.333 -49.333 -152 -148 -152c-52 0 -89.5 12.833 -112.5 38.5s-34.5 63.5 -34.5 113.5h96c0 -49.333 17 -74 51 -74c33.333 0 50 24.667 50 74z" />
    <glyph glyph-name="dotaccent" unicode="&#x2d9;" 
d="M275 737c0 -43.333 -27.667 -65 -83 -65c-28.667 0 -49.667 5 -63 15s-20 26.667 -20 50c0 44 27.667 66 83 66s83 -22 83 -66z" />
    <glyph glyph-name="ring" unicode="&#x2da;" 
d="M75 742c0 58 39.333 87.001 118 87.001c39.333 0 69 -7.83301 89 -23.5s30 -36.834 30 -63.501c0 -58 -39.667 -87 -119 -87c-78.667 0 -118 29 -118 87zM146 741.001c0 -20 16.333 -30 49 -30c32 0 48 10 48 30c0 21.333 -16 32 -48 32c-32.667 0 -49 -10.667 -49 -32z
" />
    <glyph glyph-name="ogonek" unicode="&#x2db;" 
d="M252 -182c-38.667 0 -67.667 8.00098 -87 24.001s-29 37.333 -29 64c0 55.333 33.667 93.333 101 114l57 -20c-32.667 -10.667 -49 -29.334 -49 -56.001c0 -23.333 15.667 -35 47 -35c17.333 0 32.666 3.33301 45.999 10l11 -78c-29.333 -15.333 -61.666 -23 -96.999 -23
z" />
    <glyph glyph-name="tilde" unicode="&#x2dc;" 
d="M104 671l-66.001 0.000976562c2 38.667 11.667 70.167 29 94.5s40 36.5 68 36.5c22.667 0 46.334 -8.5 71.001 -25.5s43 -25.5 55 -25.5c15.333 0 26.333 13.333 33 40l66 -1c-1.33301 -38.667 -11 -69.834 -29 -93.501s-41 -35.5 -69 -35.5c-22 0 -45.5 8.5 -70.5 25.5
s-42.833 25.5 -53.5 25.5c-16.667 0 -28 -13.667 -34 -41z" />
    <glyph glyph-name="hungarumlaut" unicode="&#x2dd;" 
d="M113 801h147l-101 -143h-94zM297 801h150l-116 -143h-104z" />
    <glyph glyph-name="Delta" unicode="&#x394;" horiz-adv-x="675" 
d="M389 754l259 -754h-622l259 754h104zM336 554l-24 -78l-113 -346h272l-110 346l-22 78h-3z" />
    <glyph glyph-name="Omega" unicode="&#x3a9;" horiz-adv-x="680" 
d="M340 761c197.333 0 296 -106.001 296 -318.001c0 -129.333 -46.667 -232 -140 -308v-3h142v-132h-273v195c71.333 68 107 148.667 107 242c0 66 -10.5 112.5 -31.5 139.5s-54.5 40.5 -100.5 40.5s-79.5 -13.5 -100.5 -40.5s-31.5 -73.5 -31.5 -139.5
c0 -94 35.333 -174.667 106 -242v-195h-273v132h142l1 3c-93.333 75.333 -140 178 -140 308c0 106.667 25.667 186.334 77 239.001s124.333 79 219 79z" />
    <glyph glyph-name="mu" unicode="&#x3bc;" horiz-adv-x="577" 
d="M299 -9c-51.333 0 -89.667 20.667 -115 62l-2 -1c5.33301 -88.667 10 -154.667 14 -198l-139 -10v763h146v-401c0 -26 8.33301 -46.333 25 -61s38.667 -22 66 -22c26.667 0 47.834 6.5 63.501 19.5s23.5 32.167 23.5 57.5v407h145v-604l-102 -8l-18 41
c-26.667 -30 -62.334 -45 -107.001 -45z" />
    <glyph glyph-name="pi" unicode="&#x3c0;" horiz-adv-x="626" 
d="M378 163l0.00195312 315.999h-127v-479h-145v477c-27.333 -2 -49 -7.33301 -65 -16l-31 116c29.333 20 79.666 30 150.999 30h430v-128h-67v-316c0 -21.333 3.66699 -36 11 -44s21 -12 41 -12v-112c-76.667 0 -128.834 12.333 -156.501 37s-41.5 68.334 -41.5 131.001z
" />
    <glyph glyph-name="endash" unicode="&#x2013;" horiz-adv-x="477" 
d="M48 397h380v-108h-380v108z" />
    <glyph glyph-name="emdash" unicode="&#x2014;" horiz-adv-x="650" 
d="M48 397h554v-108h-554v108z" />
    <glyph glyph-name="quoteleft" unicode="&#x2018;" horiz-adv-x="237" 
d="M120 528c-56 0 -83.999 29.3311 -83.999 87.998c0 24.667 9 57.834 27 99.501s37.667 76.834 59 105.501l52 -13l-24 -119c13.333 -6.66699 25.166 -17 35.499 -31s15.5 -29.333 15.5 -46c0 -56 -27 -84 -81 -84z" />
    <glyph glyph-name="quoteright" unicode="&#x2019;" horiz-adv-x="237" 
d="M117 782c56 0 83.999 -29.3311 83.999 -87.998c0 -24.667 -9 -57.834 -27 -99.501s-37.667 -76.834 -59 -105.501l-52 13l24 119c-13.333 6.66699 -25.166 17 -35.499 31s-15.5 29.333 -15.5 46c0 56 27 84 81 84z" />
    <glyph glyph-name="quotesinglbase" unicode="&#x201a;" horiz-adv-x="237" 
d="M117 151c56 0 83.999 -29.3311 83.999 -87.998c0 -24.667 -9 -57.834 -27 -99.501s-37.667 -76.834 -59 -105.501l-52 13l24 119c-13.333 6.66699 -25.166 17 -35.499 31s-15.5 29.333 -15.5 46c0 56 27 84 81 84z" />
    <glyph glyph-name="quotedblleft" unicode="&#x201c;" horiz-adv-x="440" 
d="M323 529c-56 0 -83.999 29.3311 -83.999 87.998c0 24.667 9 57.834 27 99.501s37.667 76.834 59 105.501l52 -13l-24 -119c13.333 -6.66699 25.166 -17 35.499 -31s15.5 -29.333 15.5 -46c0 -56 -27 -84 -81 -84zM120.001 527.998c-56 0 -83.999 29.3311 -83.999 87.998
c0 24.667 9 57.834 27 99.501s37.667 76.834 59 105.501l52 -13l-24 -119c13.333 -6.66699 25.166 -17 35.499 -31s15.5 -29.333 15.5 -46c0 -56 -27 -84 -81 -84z" />
    <glyph glyph-name="quotedblright" unicode="&#x201d;" horiz-adv-x="440" 
d="M117 780c56 0 83.999 -29.3311 83.999 -87.998c0 -24.667 -9 -57.834 -27 -99.501s-37.667 -76.834 -59 -105.501l-52 13l24 119c-13.333 6.66699 -25.166 17 -35.499 31s-15.5 29.333 -15.5 46c0 56 27 84 81 84zM319.999 781.002c56 0 83.999 -29.3311 83.999 -87.998
c0 -24.667 -9 -57.834 -27 -99.501s-37.667 -76.834 -59 -105.501l-52 13l24 119c-13.333 6.66699 -25.166 17 -35.499 31s-15.5 29.333 -15.5 46c0 56 27 84 81 84z" />
    <glyph glyph-name="quotedblbase" unicode="&#x201e;" horiz-adv-x="440" 
d="M117 151c56 0 83.999 -29.3311 83.999 -87.998c0 -24.667 -9 -57.834 -27 -99.501s-37.667 -76.834 -59 -105.501l-52 13l24 119c-13.333 6.66699 -25.166 17 -35.499 31s-15.5 29.333 -15.5 46c0 56 27 84 81 84zM319.999 152.002c56 0 83.999 -29.3311 83.999 -87.998
c0 -24.667 -9 -57.834 -27 -99.501s-37.667 -76.834 -59 -105.501l-52 13l24 119c-13.333 6.66699 -25.166 17 -35.499 31s-15.5 29.333 -15.5 46c0 56 27 84 81 84z" />
    <glyph glyph-name="dagger" unicode="&#x2020;" horiz-adv-x="463" 
d="M27 615l142 -11l-13 179h148l-11 -179l143 11v-140l-143 10l11 -625h-148l13 625l-142 -10v140z" />
    <glyph glyph-name="daggerdbl" unicode="&#x2021;" horiz-adv-x="463" 
d="M436 173v-140l-144 12l12 -185h-148l13 185l-142 -12v140l144 -10l-2 322l-142 -10v140l142 -11l-13 179h148l-11 -179l143 11v-140l-143 10v-322z" />
    <glyph glyph-name="bullet" unicode="&#x2022;" horiz-adv-x="393" 
d="M43 323c0 102.667 50.333 154 151 154c102 0 153 -51.333 153 -154c0 -104 -51 -156 -153 -156c-100.667 0 -151 52 -151 156z" />
    <glyph glyph-name="ellipsis" unicode="&#x2026;" horiz-adv-x="688" 
d="M648 71c0 -54.667 -28 -82 -84 -82c-30 0 -51.667 6.33301 -65 19s-20 33.667 -20 63c0 55.333 28.333 83 85 83c56 0 84 -27.667 84 -83zM432 71c0 -54.667 -28 -82 -84 -82c-30 0 -51.667 6.33301 -65 19s-20 33.667 -20 63c0 55.333 28.333 83 85 83
c56 0 84 -27.667 84 -83zM210 71c0 -54.667 -28 -82 -84 -82c-30 0 -51.667 6.33301 -65 19s-20 33.667 -20 63c0 55.333 28.333 83 85 83c56 0 84 -27.667 84 -83z" />
    <glyph glyph-name="perthousand" unicode="&#x2030;" horiz-adv-x="1002" 
d="M321 587c0 -115.333 -48.999 -173 -146.999 -173c-97.333 0 -146 57.667 -146 173c0 60 11.667 103.667 35 131s60.666 41 111.999 41c48.667 0 85.167 -13.333 109.5 -40s36.5 -70.667 36.5 -132zM223.001 587c0 30.667 -3.83301 51.5 -11.5 62.5
s-19.834 16.5 -36.501 16.5c-17.333 0 -29.833 -5.5 -37.5 -16.5s-11.5 -31.833 -11.5 -62.5c0 -30 3.83301 -50.667 11.5 -62s20.167 -17 37.5 -17c16.667 0 28.834 5.5 36.501 16.5s11.5 31.833 11.5 62.5zM491.001 710l84 -68l-391 -608l-84 68zM659.001 163
c0 -115.333 -49.001 -173 -147.001 -173c-97.333 0 -146 57.667 -146 173c0 60.667 11.833 105 35.5 133s60.834 42 111.501 42c48.667 0 85.167 -13.833 109.5 -41.5s36.5 -72.167 36.5 -133.5zM561 163c0 29.333 -3.83301 49.5 -11.5 60.5s-19.834 16.5 -36.501 16.5
c-17.333 0 -29.833 -5.33301 -37.5 -16s-11.5 -31 -11.5 -61s3.83301 -50.333 11.5 -61s19.834 -16 36.501 -16c17.333 0 29.833 5.33301 37.5 16s11.5 31 11.5 61zM974 163c0 -115.333 -49.332 -173 -147.999 -173c-96.667 0 -145 57.667 -145 173
c0 60.667 11.667 105 35 133s60.333 42 111 42c49.333 0 86.166 -13.833 110.499 -41.5s36.5 -72.167 36.5 -133.5zM876.001 163c0 29.333 -3.83496 49.5 -11.502 60.5s-20.167 16.5 -37.5 16.5s-29.666 -5.33301 -36.999 -16s-11 -31 -11 -61s3.83301 -50.333 11.5 -61
s19.834 -16 36.501 -16c17.333 0 29.833 5.33301 37.5 16s11.5 31 11.5 61z" />
    <glyph glyph-name="guilsinglleft" unicode="&#x2039;" horiz-adv-x="372" 
d="M325 416l-153 -99l153 -98v-114l-297 207v11l297 207v-114z" />
    <glyph glyph-name="guilsinglright" unicode="&#x203a;" horiz-adv-x="372" 
d="M46 105v114l153 98l-153 99v114l297 -207v-11z" />
    <glyph glyph-name="fraction" unicode="&#x2044;" horiz-adv-x="288" 
d="M342 750h104l-467 -750h-103z" />
    <glyph glyph-name="uni2070" unicode="&#x2070;" horiz-adv-x="355" 
d="M334 683c0 -69.333 -12.499 -120.166 -37.499 -152.499s-64.5 -48.5 -118.5 -48.5c-54.667 0 -94.334 16.167 -119.001 48.5s-37 83.166 -37 152.499c0 72.667 12.167 124.834 36.5 156.501s64.166 47.5 119.499 47.5c54.667 0 94.334 -15.833 119.001 -47.5
s37 -83.834 37 -156.501zM232.001 684c0 46.667 -4.16797 77.667 -12.501 93s-22.166 23 -41.499 23c-20 0 -34.167 -7.66699 -42.5 -23s-12.5 -46.333 -12.5 -93c0 -47.333 4.16699 -78.666 12.5 -93.999s22.5 -23 42.5 -23s34 7.66699 42 23s12 46.666 12 93.999z" />
    <glyph glyph-name="uni2074" unicode="&#x2074;" horiz-adv-x="355" 
d="M341 558h-35v-70h-96v70h-185l-9 62l166 262h124v-240h38zM214 642l2 65l5 80h-3l-47 -77l-43 -65l1 -3h85z" />
    <glyph glyph-name="uni2075" unicode="&#x2075;" horiz-adv-x="355" 
d="M327 624c0 -94 -51.666 -141 -154.999 -141c-52 0 -95.333 8.66699 -130 26l15 80c36.667 -15.333 72 -23 106 -23c23.333 0 39.5 4 48.5 12s13.5 20.667 13.5 38c0 28 -20.333 42 -61 42c-28 0 -54.667 -3.33301 -80 -10l-38 36l19 198h239l4 -89h-162l-4 -57
c20 2.66699 36.667 4 50 4c43.333 0 76.666 -9.83301 99.999 -29.5s35 -48.5 35 -86.5z" />
    <glyph glyph-name="uni2076" unicode="&#x2076;" horiz-adv-x="355" 
d="M333 626c0 -48 -12.834 -84 -38.501 -108s-62.5 -36 -110.5 -36c-107.333 0 -161 65 -161 195c0 68 16 120 48 156s78 54 138 54c39.333 0 72.333 -5 99 -15l-6 -84c-26 8 -52.667 12 -80 12c-29.333 0 -51.5 -5.66699 -66.5 -17s-25.167 -29.333 -30.5 -54l2 -2
c20.667 12 45.334 18 74.001 18c88 0 132 -39.667 132 -119zM230.999 627c0 14.667 -3.83398 25.499 -11.501 32.499s-20.167 10.5 -37.5 10.5c-25.333 0 -42.666 -6.66699 -51.999 -20c0 -31.333 4 -53.166 12 -65.499s22 -18.5 42 -18.5c31.333 0 47 20.333 47 61z" />
    <glyph glyph-name="uni2077" unicode="&#x2077;" horiz-adv-x="355" 
d="M330 881v-86l-147 -307h-119l155 299h-195l5 94h301z" />
    <glyph glyph-name="uni2078" unicode="&#x2078;" horiz-adv-x="355" 
d="M22 605c0 36.667 17 66.333 51 89c-24 20.667 -36 49 -36 85c0 72 47 108 141 108s141 -36 141 -108c0 -32.667 -13 -59.667 -39 -81c35.333 -20 53 -51 53 -93c0 -82 -51.667 -123 -155 -123c-104 0 -156 41 -156 123zM233 596.999
c0 3.33301 -0.331055 6.5 -0.998047 9.5s-2.16699 6 -4.5 9l-6 7.5c-1.66699 2 -4.5 4.16699 -8.5 6.5s-7 4 -9 5s-5.83301 2.66699 -11.5 5l-12 5c-2.33301 1 -6.83301 2.66699 -13.5 5s-11.334 3.83301 -14.001 4.5c-21.333 -15.333 -32 -32 -32 -50
c0 -16 4.66699 -27.333 14 -34s24.666 -10 45.999 -10c34.667 0 52 12.333 52 37zM133.002 774.999c0 -12 5.5 -21.332 16.5 -27.999s27.833 -13.334 50.5 -20.001c17.333 12.667 26 27 26 43c0 26 -16 39 -48 39c-30 0 -45 -11.333 -45 -34z" />
    <glyph glyph-name="uni2079" unicode="&#x2079;" horiz-adv-x="355" 
d="M330 699c0 -74.667 -14.668 -129.499 -44.001 -164.499s-73.666 -52.5 -132.999 -52.5c-37.333 0 -73.333 6.33301 -108 19l15 82c27.333 -10.667 55.666 -16 84.999 -16c56.667 0 87.334 28.667 92.001 86l-2 2c-19.333 -14.667 -44.333 -22 -75 -22
c-46.667 0 -81.167 10.667 -103.5 32s-33.5 50.666 -33.5 87.999c0 41.333 12.5 74 37.5 98s62.167 36 111.5 36c54 0 93.833 -15.333 119.5 -46s38.5 -78 38.5 -142zM227.999 730.001c0 28 -4.33301 47.334 -13 58.001s-23.667 16 -45 16c-32 0 -48 -15.667 -48 -47
c0 -16.667 4 -28.834 12 -36.501s21.333 -11.5 40 -11.5c26.667 0 44.667 7 54 21z" />
    <glyph glyph-name="uni207A" unicode="&#x207a;" horiz-adv-x="356" 
d="M320 643h-99v-101h-87v101h-99v90h99v101h87v-101h99v-90z" />
    <glyph glyph-name="uni207B" unicode="&#x207b;" horiz-adv-x="356" 
d="M313 649h-273v87h273v-87z" />
    <glyph glyph-name="uni207C" unicode="&#x207c;" horiz-adv-x="356" 
d="M310 715h-263v76h263v-76zM310 587h-263v77h263v-77z" />
    <glyph glyph-name="uni207D" unicode="&#x207d;" horiz-adv-x="207" 
d="M137 912l69 -7c-42 -67.333 -63 -146 -63 -236s21 -168.667 63 -236l-69 -7c-58.667 60.667 -88 141.667 -88 243c0 100.667 29.333 181.667 88 243z" />
    <glyph glyph-name="uni207E" unicode="&#x207e;" horiz-adv-x="207" 
d="M0 905l70 7c57.333 -60 86 -141 86 -243c0 -102.667 -28.667 -183.667 -86 -243l-70 7c42 67.333 63 146 63 236c0 92 -21 170.667 -63 236z" />
    <glyph glyph-name="uni2080" unicode="&#x2080;" horiz-adv-x="355" 
d="M334 46c0 -69.333 -12.499 -119.998 -37.499 -151.998s-64.5 -48 -118.5 -48c-54.667 0 -94.334 16 -119.001 48s-37 82.667 -37 152c0 73.333 12.167 125.666 36.5 156.999s64.166 47 119.499 47c54.667 0 94.334 -15.833 119.001 -47.5s37 -83.834 37 -156.501z
M232.001 47.002c0 46.667 -4.16797 77.832 -12.501 93.499s-22.166 23.5 -41.499 23.5c-20 0 -34.167 -7.66699 -42.5 -23s-12.5 -46.666 -12.5 -93.999s4.16699 -78.5 12.5 -93.5s22.5 -22.5 42.5 -22.5s34 7.66699 42 23s12 46.333 12 93z" />
    <glyph glyph-name="uni2081" unicode="&#x2081;" horiz-adv-x="264" 
d="M215 246v-395h-104v274l-72 -41l-9 84l121 78h64z" />
    <glyph glyph-name="uni2082" unicode="&#x2082;" horiz-adv-x="345" 
d="M316 130c0 -32 -11.9961 -61.999 -35.9961 -89.999s-61 -60.667 -111 -98v-3h146l-2 -88h-277v67l40 37.5l37.5 35l31 30c11.667 11.667 20.667 21.167 27 28.5s12.666 15.5 18.999 24.5s10.833 17.333 13.5 25s4 15.167 4 22.5c0 26.667 -18.333 40 -55 40
c-30.667 0 -63.334 -11.333 -98.001 -34l-25 83c41.333 26.667 88.666 40 141.999 40c47.333 0 83.166 -10.833 107.499 -32.5s36.5 -50.834 36.5 -87.501z" />
    <glyph glyph-name="uni2083" unicode="&#x2083;" horiz-adv-x="345" 
d="M320 -31c0 -82 -53.999 -123.002 -161.999 -123.002c-50.667 0 -93.334 10.333 -128.001 31l21 78c34.667 -17.333 69.667 -26 105 -26c42 0 63 15 63 45c0 14.667 -6.83301 25.667 -20.5 33s-40.167 11 -79.5 11v71c37.333 0 62.666 3.33301 75.999 10
s20 17.334 20 32.001c0 22.667 -19 34 -57 34c-38.667 0 -74 -11 -106 -33l-23 78c36.667 26.667 81.334 40 134.001 40c46.667 0 83.167 -9.66699 109.5 -29s39.5 -46.666 39.5 -81.999c0 -38 -18.333 -65.333 -55 -82v-2c42 -16 63 -44.667 63 -86z" />
    <glyph glyph-name="uni2084" unicode="&#x2084;" horiz-adv-x="355" 
d="M341 -78h-35v-71h-96v71h-185l-9 61l166 262h124v-240h38zM214 5l2 66l5 80h-3l-47 -78l-43 -65l1 -3h85z" />
    <glyph glyph-name="uni2085" unicode="&#x2085;" horiz-adv-x="355" 
d="M327 -12c0 -94.667 -51.665 -142 -154.998 -142c-50 0 -93.333 8.66699 -130 26l15 80c35.333 -14.667 70.666 -22 105.999 -22c23.333 0 39.5 4 48.5 12s13.5 20.667 13.5 38c0 27.333 -20.333 41 -61 41c-28 0 -54.667 -3.33301 -80 -10l-38 36l19 198h239l4 -88h-162
l-4 -58c20 2.66699 36.667 4 50 4c43.333 0 76.666 -9.83301 99.999 -29.5s35 -48.167 35 -85.5z" />
    <glyph glyph-name="uni2086" unicode="&#x2086;" horiz-adv-x="355" 
d="M333 -10c0 -96 -49.668 -144 -149.001 -144c-107.333 0 -161 64.667 -161 194c0 68 16 120.167 48 156.5s78 54.5 138 54.5c38 0 71 -5.33301 99 -16l-6 -84c-23.333 8 -50 12 -80 12c-29.333 0 -51.5 -5.66699 -66.5 -17s-25.167 -29 -30.5 -53l2 -2
c20.667 12 45.334 18 74.001 18c88 0 132 -39.667 132 -119zM230.999 -10c0 14.667 -3.83301 25.499 -11.5 32.499s-20.167 10.5 -37.5 10.5c-26 0 -43.333 -6.33301 -52 -19c0 -31.333 4 -53.166 12 -65.499s22 -18.5 42 -18.5c31.333 0 47 20 47 60z" />
    <glyph glyph-name="uni2087" unicode="&#x2087;" horiz-adv-x="355" 
d="M330 245v-87l-147 -307h-119l155 299h-195l5 95h301z" />
    <glyph glyph-name="uni2088" unicode="&#x2088;" horiz-adv-x="355" 
d="M22 -31c0 36 17.333 65.333 52 88c-24.667 20 -37 48.667 -37 86c0 72 47 108 141 108s141 -36 141 -108c0 -33.333 -13 -60.333 -39 -81c35.333 -20 53 -51 53 -93c0 -82.667 -51.667 -124 -155 -124c-104 0 -156 41.333 -156 124zM233 -39
c0 20 -24.332 37.667 -72.999 53c-3.33301 1.33301 -6 2.33301 -8 3c-20.667 -14 -31 -30.667 -31 -50c0 -16 4.66699 -27.167 14 -33.5s24.666 -9.5 45.999 -9.5c34.667 0 52 12.333 52 37zM133.001 138c0 -12 5.5 -21.333 16.5 -28s27.833 -13 50.5 -19
c17.333 11.333 26 25.333 26 42c0 26 -16 39 -48 39c-30 0 -45 -11.333 -45 -34z" />
    <glyph glyph-name="uni2089" unicode="&#x2089;" horiz-adv-x="355" 
d="M330 62c0 -74 -14.668 -128.498 -44.001 -163.498s-73.666 -52.5 -132.999 -52.5c-40.667 0 -76.667 6.33301 -108 19l15 82c28.667 -11.333 57 -17 85 -17c56 0 86.333 28.667 91 86l-2 2c-19.333 -14.667 -44 -22 -74 -22c-46.667 0 -81.167 10.667 -103.5 32
s-33.5 50.666 -33.5 87.999c0 41.333 12.667 74.166 38 98.499s62.333 36.5 111 36.5c54 0 93.833 -15.5 119.5 -46.5s38.5 -78.5 38.5 -142.5zM227.999 93.002c0 28 -4.33301 47.333 -13 58s-23.667 16 -45 16c-32 0 -48 -15.333 -48 -46c0 -16.667 4 -29 12 -37
s21.333 -12 40 -12c26.667 0 44.667 7 54 21z" />
    <glyph glyph-name="uni208A" unicode="&#x208a;" horiz-adv-x="356" 
d="M320 7h-99v-101h-87v101h-99v90h99v101h87v-101h99v-90z" />
    <glyph glyph-name="uni208B" unicode="&#x208b;" horiz-adv-x="356" 
d="M313 12h-273v87h273v-87z" />
    <glyph glyph-name="uni208C" unicode="&#x208c;" horiz-adv-x="356" 
d="M310 78h-263v77h263v-77zM310 -50h-263v77h263v-77z" />
    <glyph glyph-name="uni208D" unicode="&#x208d;" horiz-adv-x="207" 
d="M137 278l69 -7c-42 -67.333 -63 -146 -63 -236s21 -168.667 63 -236l-69 -7c-58.667 60.667 -88 141.667 -88 243c0 100.667 29.333 181.667 88 243z" />
    <glyph glyph-name="uni208E" unicode="&#x208e;" horiz-adv-x="207" 
d="M0 271l70 7c57.333 -60 86 -141 86 -243c0 -102.667 -28.667 -183.667 -86 -243l-70 7c42 67.333 63 146 63 236c0 92 -21 170.667 -63 236z" />
    <glyph glyph-name="franc" unicode="&#x20a3;" horiz-adv-x="561" 
d="M13 199h62v551h448l2 -147h-293v-158h221l-1 -140h-220v-106h69v-109h-69v-90h-157v90h-62v109z" />
    <glyph glyph-name="lira" unicode="&#x20a4;" horiz-adv-x="591" 
d="M56 393l-6.00195 84h29c-6 20.667 -9 43.334 -9 68.001c0 64 22 116.333 66 157s114.333 61 211 61c60.667 0 118 -10 172 -30l-19 -139c-41.333 16 -86 24 -134 24c-46 0 -79.833 -9.33301 -101.5 -28s-32.5 -43 -32.5 -73c0 -15.333 1.33301 -28.666 4 -39.999h245v-84
h-221l11 -44h210v-83h-201c-1.33301 -58 -23 -101.333 -65 -130l2 -3c44.667 12 101.334 18 170.001 18c56.667 0 111.334 -4 164.001 -12c0 -0.666992 -1 -24.667 -3 -72s-3.33301 -72 -4 -74c-82 9.33301 -158.667 14 -230 14c-86.667 0 -176.334 -4 -269.001 -12l-8 143
c27.333 5.33301 49.5 19.666 66.5 42.999s25.5 49.666 25.5 78.999v6h-67l-5 83h62c-5.33301 20 -9.66602 34.667 -12.999 44h-50z" />
    <glyph glyph-name="peseta" unicode="&#x20a7;" horiz-adv-x="781" 
d="M365 516c0 -84.667 -13.5 -144.501 -40.5 -179.501s-73.167 -52.5 -138.5 -52.5h-31v-284h-107v750h138c64 0 109.833 -17.167 137.5 -51.5s41.5 -95.166 41.5 -182.499zM545 368.999h-46v-252c0 -18.667 8 -28 24 -28l15 3l2 -91c-9.33301 -6.66699 -24 -10 -44 -10
c-62 0 -93 41.333 -93 124v254h-22v89h26l17 99l75 10v-109h46v-89zM756 135.999c0 -98.667 -38.334 -148.001 -115.001 -148.001c-28.667 0 -52 7 -70 21l3 99c18 -11.333 38 -17 60 -17c24.667 0 37 14 37 42c0 14 -5.66699 26.667 -17 38s-23.666 21 -36.999 29
s-25.666 22.667 -36.999 44s-17 48 -17 80c0 38 9.83301 70.667 29.5 98s47.167 41 82.5 41c28 0 50.333 -6.66699 67 -20l-6 -96c-17.333 8.66699 -35.333 13 -54 13c-20 0 -30 -11.333 -30 -34c0 -11.333 3.5 -21.166 10.5 -29.499s15.667 -16.166 26 -23.499
s20.666 -16 30.999 -26s19 -24.333 26 -43s10.5 -41.334 10.5 -68.001zM250.999 514.998c0 47.333 -4.33301 78.5 -13 93.5s-26 22.5 -52 22.5h-31v-234h31c24.667 0 41.667 7.33301 51 22s14 46.667 14 96z" />
    <glyph glyph-name="Euro" unicode="&#x20ac;" horiz-adv-x="574" 
d="M448 349l-16.9971 -82h-184c9.33301 -54 27.833 -92.333 55.5 -115s65.167 -34 112.5 -34c38.667 0 77.667 9.33301 117 28l11 -117c-45.333 -25.333 -100 -38 -164 -38c-84 0 -149.333 22.333 -196 67s-76.334 114.334 -89.001 209.001h-75l1 82h67v45h-67l-1 85h75
c13.333 87.333 45.166 155.166 95.499 203.499s115.5 72.5 195.5 72.5c59.333 0 110.666 -10 153.999 -30l-27 -125c-26.667 11.333 -58.334 17 -95.001 17c-48.667 0 -86.667 -11 -114 -33s-45.666 -57 -54.999 -105h231l-17 -85h-223v-45h209z" />
    <glyph glyph-name="trademark" unicode="&#x2122;" horiz-adv-x="652" 
d="M621 479h-77l-1 97l2 81l-3 1l-25 -78l-36 -101h-62l-36 100l-26 77l-2 -1l1 -81v-95h-76v282h109l36 -99l26 -76h3l25 76l35 99h107v-282zM251 682h-71v-203h-90v203h-73v79h234v-79z" />
    <glyph glyph-name="uni2126" unicode="&#x2126;" horiz-adv-x="680" 
d="M340 761c197.333 0 296 -106.001 296 -318.001c0 -129.333 -46.667 -232 -140 -308v-3h142v-132h-273v195c71.333 68 107 148.667 107 242c0 66 -10.5 112.5 -31.5 139.5s-54.5 40.5 -100.5 40.5s-79.5 -13.5 -100.5 -40.5s-31.5 -73.5 -31.5 -139.5
c0 -94 35.333 -174.667 106 -242v-195h-273v132h142l1 3c-93.333 75.333 -140 178 -140 308c0 106.667 25.667 186.334 77 239.001s124.333 79 219 79z" />
    <glyph glyph-name="onethird" unicode="&#x2153;" horiz-adv-x="826" 
d="M578 750h104l-467 -750h-103zM776 118c0 -82 -54 -123.002 -162 -123.002c-50.667 0 -93 10.333 -127 31l21 78c34.667 -17.333 69.667 -26 105 -26c42 0 63 15 63 45c0 14.667 -7 25.667 -21 33s-40.667 11 -80 11v71c38 0 63.667 3.33301 77 10s20 17.334 20 32.001
c0 22.667 -19.333 34 -58 34s-73.667 -11 -105 -33l-24 78c38 26.667 83 40 135 40c46.667 0 83 -9.66699 109 -29s39 -46.666 39 -81.999c0 -38 -18 -65.333 -54 -82v-2c41.333 -15.333 62 -44 62 -86zM263 750.998v-395h-104v274l-72 -41l-9 83l121 79h64z" />
    <glyph glyph-name="twothirds" unicode="&#x2154;" horiz-adv-x="826" 
d="M323 635c0 -32 -11.9961 -61.999 -35.9961 -89.999s-61 -60.667 -111 -98v-3h146l-2 -88h-277v67l40 37.5l37.5 35l31 30c11.667 11.667 20.667 21.167 27 28.5s12.666 15.5 18.999 24.5s10.833 17.333 13.5 25s4 15.167 4 22.5c0 26.667 -18.333 40 -55 40
c-30.667 0 -63.334 -11.333 -98.001 -34l-25 83c41.333 26.667 88.666 40 141.999 40c47.333 0 83.166 -10.833 107.499 -32.5s36.5 -50.834 36.5 -87.501zM597.004 750.001h104l-467 -750h-103zM787.004 118.001c0 -82 -54 -123.002 -162 -123.002
c-50.667 0 -93 10.333 -127 31l21 78c34.667 -17.333 69.667 -26 105 -26c42 0 63 15 63 45c0 14.667 -7 25.667 -21 33s-40.667 11 -80 11v71c38 0 63.667 3.33301 77 10s20 17.334 20 32.001c0 22.667 -19.333 34 -58 34c-39.333 0 -74.333 -11 -105 -33l-24 78
c38 26.667 83 40 135 40c46.667 0 83 -9.66699 109 -29s39 -46.666 39 -81.999c0 -38 -18 -65.333 -54 -82v-2c41.333 -15.333 62 -44 62 -86z" />
    <glyph glyph-name="oneeighth" unicode="&#x215b;" horiz-adv-x="826" 
d="M266 751v-395h-104v274l-72 -41l-9 83l121 79h64zM574 750h104l-467 -750h-103zM458 118c0 36 17.333 65.333 52 88c-24.667 20 -37 48.667 -37 86c0 72 47 108 141 108s141 -36 141 -108c0 -33.333 -13 -60.333 -39 -81c35.333 -20 53 -51 53 -93
c0 -82.667 -51.667 -124 -155 -124c-104 0 -156 41.333 -156 124zM669 110c0 10 -4.49902 18.667 -13.499 26s-17.5 12.5 -25.5 15.5s-22 7.83301 -42 14.5c-20.667 -14 -31 -30.667 -31 -50c0 -16 4.66699 -27.167 14 -33.5s24.666 -9.5 45.999 -9.5
c34.667 0 52 12.333 52 37zM569.001 287c0 -12 5.5 -21.333 16.5 -28s27.833 -13 50.5 -19c17.333 11.333 26 25.333 26 42c0 26 -16 39 -48 39c-30 0 -45 -11.333 -45 -34z" />
    <glyph glyph-name="threeeighths" unicode="&#x215c;" horiz-adv-x="826" 
d="M339 474c0 -82 -53.999 -123.001 -161.999 -123.001c-50.667 0 -93.334 10.333 -128.001 31l21 78c32.667 -17.333 67.667 -26 105 -26c42 0 63 15 63 45c0 14.667 -6.83301 25.667 -20.5 33s-40.167 11 -79.5 11v71c37.333 0 62.666 3.33301 75.999 10
s20 17.334 20 32.001c0 22.667 -19 34 -57 34c-38.667 0 -74 -11 -106 -33l-23 78c36.667 26.667 81.334 40 134.001 40c46.667 0 83.167 -9.66699 109.5 -29s39.5 -46.666 39.5 -81.999c0 -38.667 -18 -66.334 -54 -83.001v-2c41.333 -14.667 62 -43 62 -85z
M592.001 749.999h104l-467 -750h-103zM472.001 117.999c0 36 17.333 65.333 52 88c-24.667 20 -37 48.667 -37 86c0 72 47 108 141 108s141 -36 141 -108c0 -33.333 -13 -60.333 -39 -81c35.333 -20 53 -51 53 -93c0 -82.667 -51.667 -124 -155 -124
c-104 0 -156 41.333 -156 124zM683.001 109.999c0 10 -4.49902 18.667 -13.499 26s-17.5 12.5 -25.5 15.5s-22 7.83301 -42 14.5c-20.667 -14 -31 -30.667 -31 -50c0 -16 4.66699 -27.167 14 -33.5s24.666 -9.5 45.999 -9.5c34.667 0 52 12.333 52 37zM583.002 286.999
c0 -12 5.5 -21.333 16.5 -28s27.833 -13 50.5 -19c17.333 11.333 26 25.333 26 42c0 26 -16 39 -48 39c-30 0 -45 -11.333 -45 -34z" />
    <glyph glyph-name="fiveeighths" unicode="&#x215d;" horiz-adv-x="826" 
d="M351 493c0 -94.667 -51.665 -142 -154.998 -142c-52 0 -95.333 8.66699 -130 26l15 80c35.333 -14.667 70.666 -22 105.999 -22c23.333 0 39.5 4 48.5 12s13.5 20.667 13.5 38c0 27.333 -20.333 41 -61 41c-28 0 -54.667 -3.33301 -80 -10l-38 36l19 198h239l4 -88h-162
l-4 -58c20 2.66699 36.667 4 50 4c43.333 0 76.666 -9.83301 99.999 -29.5s35 -48.167 35 -85.5zM586.002 750h104l-467 -750h-103zM469.002 118c0 36 17.333 65.333 52 88c-24.667 20 -37 48.667 -37 86c0 72 47 108 141 108s141 -36 141 -108
c0 -33.333 -13 -60.333 -39 -81c35.333 -20 53 -51 53 -93c0 -82.667 -51.667 -124 -155 -124c-104 0 -156 41.333 -156 124zM680.002 110c0 10 -4.49902 18.667 -13.499 26s-17.5 12.5 -25.5 15.5s-22 7.83301 -42 14.5c-20.667 -14 -31 -30.667 -31 -50
c0 -16 4.66699 -27.167 14 -33.5s24.666 -9.5 45.999 -9.5c34.667 0 52 12.333 52 37zM580.003 287c0 -12 5.5 -21.333 16.5 -28s27.833 -13 50.5 -19c17.333 11.333 26 25.333 26 42c0 26 -16 39 -48 39c-30 0 -45 -11.333 -45 -34z" />
    <glyph glyph-name="seveneighths" unicode="&#x215e;" horiz-adv-x="826" 
d="M386 750v-87l-147 -307h-119l155 299h-195l5 95h301zM576 750h104l-467 -750h-103zM460 118c0 36 17.333 65.333 52 88c-24.667 20 -37 48.667 -37 86c0 72 47 108 141 108s141 -36 141 -108c0 -33.333 -13 -60.333 -39 -81c35.333 -20 53 -51 53 -93
c0 -82.667 -51.667 -124 -155 -124c-104 0 -156 41.333 -156 124zM671 110c0 10 -4.49902 18.667 -13.499 26s-17.5 12.5 -25.5 15.5s-22 7.83301 -42 14.5c-20.667 -14 -31 -30.667 -31 -50c0 -16 4.66699 -27.167 14 -33.5s24.666 -9.5 45.999 -9.5
c34.667 0 52 12.333 52 37zM571.001 287c0 -12 5.5 -21.333 16.5 -28s27.833 -13 50.5 -19c17.333 11.333 26 25.333 26 42c0 26 -16 39 -48 39c-30 0 -45 -11.333 -45 -34z" />
    <glyph glyph-name="partialdiff" unicode="&#x2202;" horiz-adv-x="590" 
d="M292 550c44 0 83 -12.332 117 -36.999l2 2c-16.667 76.667 -65.667 115 -147 115c-62 0 -117.667 -16.667 -167 -50l-36 104c34 24.667 68.333 43 103 55s76.667 18 126 18c34.667 0 67.5 -6.5 98.5 -19.5s59.333 -32.667 85 -59s46 -62.5 61 -108.5
s22.5 -99.333 22.5 -160c0 -128 -26.333 -230.5 -79 -307.5s-129 -115.5 -229 -115.5c-144.667 0 -217 79.667 -217 239c0 103.333 23.5 183.166 70.5 239.499s110.167 84.5 189.5 84.5zM402 353.001c0 23.333 -7.66699 42.833 -23 58.5s-37.333 23.5 -66 23.5
c-41.333 0 -73.5 -18.5 -96.5 -55.5s-34.5 -93.167 -34.5 -168.5c0 -70 30 -105 90 -105c40.667 0 72.5 22.5 95.5 67.5s34.5 104.833 34.5 179.5z" />
    <glyph glyph-name="uni2206" unicode="&#x2206;" horiz-adv-x="675" 
d="M389 754l259 -754h-622l259 754h104zM336 554l-24 -78l-113 -346h272l-110 346l-22 78h-3z" />
    <glyph glyph-name="product" unicode="&#x220f;" horiz-adv-x="689" 
d="M260 -154h-138v793l-81 9l-4 102h616l-3 -102l-80 -9v-793h-138v782h-172v-782z" />
    <glyph glyph-name="summation" unicode="&#x2211;" horiz-adv-x="626" 
d="M487 292l-196 -257l-50 -63l2 -3l80 2l270 1l-3 -126h-529v83l274 379l-274 350v92h515l3 -128h-327l-1 -2l50 -61l186 -236v-31z" />
    <glyph glyph-name="minus" unicode="&#x2212;" horiz-adv-x="556" 
d="M491 267h-426v135h426v-135z" />
    <glyph glyph-name="uni2219" unicode="&#x2219;" horiz-adv-x="275" 
d="M222 345c0 -54.667 -28 -82 -84 -82c-30 0 -51.667 6.33301 -65 19s-20 33.667 -20 63c0 55.333 28.333 83 85 83c56 0 84 -27.667 84 -83z" />
    <glyph glyph-name="radical" unicode="&#x221a;" horiz-adv-x="569" 
d="M6 368l-1 137h178l72 -260l20 -78h3l16 79l128 541h155l-209 -787h-177l-115 368h-70z" />
    <glyph glyph-name="infinity" unicode="&#x221e;" horiz-adv-x="705" 
d="M497 156c-60.667 0 -108.667 21.334 -144 64.001c-34.667 -42.667 -82.667 -64 -144 -64c-51.333 0 -93.166 16.667 -125.499 50s-48.5 79 -48.5 137c0 56 14.833 101 44.5 135s72.167 51 127.5 51c60 0 108 -21.667 144 -65c35.333 43.333 83.666 65 144.999 65
c50.667 0 92.167 -16.667 124.5 -50s48.5 -79 48.5 -137c0 -56.667 -14.833 -101.834 -44.5 -135.501s-72.167 -50.5 -127.5 -50.5zM490 407.001c-20 0 -36 -7.66797 -48 -23.001s-24.667 -38.666 -38 -69.999c22 -29.333 49.667 -44 83 -44c20 0 35.333 6.33301 46 19
s16 29.667 16 51s-5.5 37.833 -16.5 49.5s-25.167 17.5 -42.5 17.5zM214 278c10.667 0 20.168 2.16699 28.501 6.5s16.166 11.5 23.499 21.5s13 19.167 17 27.5l17 36.5c-23.333 30 -51 45 -83 45c-19.333 0 -34.5 -6.33301 -45.5 -19s-16.5 -29.667 -16.5 -51
s5.5 -37.833 16.5 -49.5s25.167 -17.5 42.5 -17.5z" />
    <glyph glyph-name="uni2224" unicode="&#x2224;" horiz-adv-x="275" 
d="M222 345c0 -54.667 -28 -82 -84 -82c-30 0 -51.667 6.33301 -65 19s-20 33.667 -20 63c0 55.333 28.333 83 85 83c56 0 84 -27.667 84 -83z" />
    <glyph glyph-name="logicaland" unicode="&#x2227;" horiz-adv-x="275" 
d="M222 345c0 -54.667 -28 -82 -84 -82c-30 0 -51.667 6.33301 -65 19s-20 33.667 -20 63c0 55.333 28.333 83 85 83c56 0 84 -27.667 84 -83z" />
    <glyph glyph-name="integral" unicode="&#x222b;" horiz-adv-x="305" 
d="M227 607l-0.999023 -567.001c0 -70 -17.667 -121 -53 -153s-91 -48 -167 -48l-3 95c25.333 0 44.166 7.83301 56.499 23.5s18.5 41.167 18.5 76.5v573c0 64.667 18 112.667 54 144s91.667 47.333 167 48l3 -95c-50 -1.33301 -75 -33.666 -75 -96.999z" />
    <glyph glyph-name="approxequal" unicode="&#x2248;" horiz-adv-x="589" 
d="M395 344c-26.667 0 -61.999 7 -105.999 21s-75.667 21 -95 21c-38 0 -73.667 -9.66699 -107 -29v115c34.667 19.333 70.334 29 107.001 29c26 0 61.167 -7 105.5 -21s76.166 -21 95.499 -21c36 0 71.667 9.66699 107 29v-115c-34.667 -19.333 -70.334 -29 -107.001 -29z
M395.001 151c-26.667 0 -61.9971 7.16699 -105.997 21.5s-75.667 21.5 -95 21.5c-36.667 0 -72.334 -10 -107.001 -30v115c35.333 20 71 30 107 30c26 0 61.167 -7.16699 105.5 -21.5s76.166 -21.5 95.499 -21.5c36 0 71.667 9.66699 107 29v-115
c-34.667 -19.333 -70.334 -29 -107.001 -29z" />
    <glyph glyph-name="notequal" unicode="&#x2260;" horiz-adv-x="589" 
d="M363 595l93 -44l-32 -70h78v-115h-131l-37 -80h168v-115h-221l-54 -117l-93 45l33 72h-80v115h133l37 80h-170v115h223z" />
    <glyph glyph-name="lessequal" unicode="&#x2264;" horiz-adv-x="589" 
d="M506 495l-241 -64l-78 -18v-3l79 -18l240 -60v-142l-429 153v141l428 156zM507 40h-427v121h427v-121z" />
    <glyph glyph-name="greaterequal" unicode="&#x2265;" horiz-adv-x="589" 
d="M77 190v142l241 60l80 18v3l-79 18l-241 64v145l428 -156v-141zM503 40h-426v121h426v-121z" />
    <glyph glyph-name="dotmath" unicode="&#x22c5;" horiz-adv-x="275" 
d="M222 345c0 -54.667 -28 -82 -84 -82c-30 0 -51.667 6.33301 -65 19s-20 33.667 -20 63c0 55.333 28.333 83 85 83c56 0 84 -27.667 84 -83z" />
    <glyph glyph-name="lozenge" unicode="&#x25ca;" horiz-adv-x="573" 
d="M22 341l264 337l265 -337l-265 -337zM170 342l116 -147l117 146l-117 149z" />
    <glyph glyph-name="fi" unicode="&#xfb01;" horiz-adv-x="654" 
d="M234 0h-144.999v495h-70v112h69v29c0 48 16.167 87 48.5 117s80.166 45 143.499 45c34 0 61 -3.33301 81 -10l-4 -100c-14.667 3.33301 -29.667 5 -45 5c-52 0 -78 -20.667 -78 -62v-24h345v-607h-149v495h-196v-495zM589.001 737c0 -43.333 -27.667 -65 -83 -65
c-28.667 0 -49.667 5 -63 15s-20 26.667 -20 50c0 44 27.667 66 83 66s83 -22 83 -66z" />
    <glyph glyph-name="fl" unicode="&#xfb02;" horiz-adv-x="625" 
d="M557 0h-147v692c-30.667 4.66699 -55.334 7 -74.001 7c-37.333 0 -63.666 -6.16699 -78.999 -18.5s-23 -30.833 -23 -55.5v-18h89v-112h-89v-495h-146v495h-69v112h69v25c0 112 83.333 168 250 168c29.333 0 67.833 -2.5 115.5 -7.5s82.167 -8.16699 103.5 -9.5v-783z
" />
    <glyph glyph-name="nonmarkingreturn" horiz-adv-x="333" 
 />
    <glyph glyph-name="CR" horiz-adv-x="244" 
 />
    <glyph glyph-name="parenleft.case" horiz-adv-x="337" 
d="M222 838l112 -9c-80 -127.333 -120 -278.666 -120 -453.999c0 -172.667 39.667 -324 119 -454l-111 -9c-48 57.333 -84.833 126.333 -110.5 207s-38.5 166 -38.5 256c0 187.333 49.667 341.666 149 462.999z" />
    <glyph glyph-name="parenright.case" horiz-adv-x="337" 
d="M4 829l112 9c98.667 -122 148 -276.333 148 -463c0 -90 -12.833 -175.333 -38.5 -256s-62.167 -149.667 -109.5 -207l-112 9c79.333 130 119 281.333 119 454c0 174.667 -39.667 326 -119 454z" />
    <glyph glyph-name="hyphen.case" horiz-adv-x="359" 
d="M47 429h265v-108h-265v108z" />
    <glyph glyph-name="bracketleft.case" horiz-adv-x="329" 
d="M73 -84v918h252v-106h-119v-708h119v-104h-252z" />
    <glyph glyph-name="bracketright.case" horiz-adv-x="329" 
d="M256 834v-918h-252v104h119v708h-119v106h252z" />
    <glyph glyph-name="grave.case" 
d="M287 793h-118l-122 116h174z" />
    <glyph glyph-name="braceleft.case" horiz-adv-x="366" 
d="M261 481c0 -48.667 -17.667 -84.334 -53 -107.001c35.333 -23.333 53 -58.333 53 -105c0 -22 -1.83301 -50.5 -5.5 -85.5s-5.5 -61.5 -5.5 -79.5c0 -23.333 7 -42.666 21 -57.999s34.333 -23 61 -23h30v-111h-22c-80 0 -137 14.833 -171 44.5s-51 72.5 -51 128.5
c0 20.667 2.33301 51.667 7 93s7 71.666 7 90.999c0 18.667 -5.5 34.834 -16.5 48.501s-25.167 23.167 -42.5 28.5v57c17.333 5.33301 31.5 14.833 42.5 28.5s16.5 29.834 16.5 48.501c0 19.333 -2.33301 49.666 -7 90.999s-7 72.333 -7 93c0 56 17 98.833 51 128.5
s91 44.5 171 44.5h22v-111h-30c-26.667 0 -47 -7.5 -61 -22.5s-21 -34.167 -21 -57.5c0 -18.667 1.83301 -45.5 5.5 -80.5s5.5 -63.167 5.5 -84.5z" />
    <glyph glyph-name="braceright.case" horiz-adv-x="366" 
d="M104 269c0 46.667 17.667 81.6621 53 104.995c-35.333 23.333 -53 59 -53 107c0 21.333 1.83301 49.5 5.5 84.5s5.5 61.833 5.5 80.5c0 23.333 -6.83301 42.5 -20.5 57.5s-34.167 22.5 -61.5 22.5h-29v111h22c80 0 136.833 -14.833 170.5 -44.5s50.5 -72.5 50.5 -128.5
c0 -20.667 -2.33301 -51.667 -7 -93s-7 -71.666 -7 -90.999s5.5 -35.666 16.5 -48.999s25.5 -22.666 43.5 -27.999v-57c-18 -5.33301 -32.5 -14.666 -43.5 -27.999s-16.5 -29.666 -16.5 -48.999s2.33301 -49.666 7 -90.999s7 -72.333 7 -93
c0 -56 -16.833 -98.833 -50.5 -128.5s-90.5 -44.5 -170.5 -44.5h-22v111h29c27.333 0 47.833 7.66699 61.5 23s20.5 34.666 20.5 57.999c0 18 -1.83301 44.5 -5.5 79.5s-5.5 63.5 -5.5 85.5z" />
    <glyph glyph-name="dieresis.case" 
d="M162 851c0 -40 -20.667 -60 -62 -60s-62 20 -62 60s20.667 60 62 60s62 -20 62 -60zM347 851c0 -40 -20.667 -60 -62 -60s-62 20 -62 60s20.667 60 62 60s62 -20 62 -60z" />
    <glyph glyph-name="guillemotleft.case" horiz-adv-x="610" 
d="M552 473l-153 -99l153 -98v-114l-297 207v11l297 207v-114zM317 473l-153 -99l153 -98v-114l-297 207v11l297 207v-114z" />
    <glyph glyph-name="uni00AD.case" horiz-adv-x="359" 
d="M47 429h265v-108h-265v108z" />
    <glyph glyph-name="macron.case" 
d="M341 879v-75h-299v75h299z" />
    <glyph glyph-name="acute.case" 
d="M167 908h186l-129 -116h-117z" />
    <glyph glyph-name="guillemotright.case" horiz-adv-x="610" 
d="M286 162v114l153 98l-153 99v114l297 -207v-11zM50 162v114l153 98l-153 99v114l297 -207v-11z" />
    <glyph glyph-name="circumflex.case" 
d="M112 908h155l100 -116h-129l-46 64h-2l-47 -64h-127z" />
    <glyph glyph-name="caron.case" 
d="M267 792h-154l-98 116h129l46 -67h2l47 67h128z" />
    <glyph glyph-name="breve.case" 
d="M245 908h108c0 -81.333 -53.333 -122 -160 -122s-160 40.667 -160 122h107c0 -30.667 17.667 -46 53 -46c34.667 0 52 15.333 52 46z" />
    <glyph glyph-name="dotaccent.case" 
d="M278 846c0 -20 -6.49902 -34.667 -19.499 -44s-35.167 -14 -66.5 -14c-32 0 -54.5 4.33301 -67.5 13s-19.5 23.667 -19.5 45c0 20 6.66699 34.833 20 44.5s35.666 14.5 66.999 14.5s53.5 -4.83301 66.5 -14.5s19.5 -24.5 19.5 -44.5z" />
    <glyph glyph-name="ring.case" 
d="M65 810c0 31.333 9.49902 55.333 28.499 72s50.5 25 94.5 25c84.667 0 127 -32 127 -96c0 -34 -10 -58.833 -30 -74.5s-52.333 -23.5 -97 -23.5c-43.333 0 -74.666 7.5 -93.999 22.5s-29 39.833 -29 74.5zM141.999 806c0 -11.333 3.5 -19.667 10.5 -25s20.167 -8 39.5 -8
c17.333 0 29.5 2.5 36.5 7.5s10.5 13.5 10.5 25.5c0 22.667 -15.667 34 -47 34c-19.333 0 -32.5 -2.66699 -39.5 -8s-10.5 -14 -10.5 -26z" />
    <glyph glyph-name="ogonek.case" 
d="M238 23l63 -22.999c-16 0 -29.5 -5.5 -40.5 -16.5s-16.5 -23.5 -16.5 -37.5c0 -24.667 16 -37 48 -37c16 0 31 3.33301 45 10l12 -78c-28.667 -16 -61.334 -24 -98.001 -24c-38.667 0 -68 8.16699 -88 24.5s-30 38.166 -30 65.499c0 30 9.33301 54.833 28 74.5
s44.334 33.5 77.001 41.5z" />
    <glyph glyph-name="tilde.case" 
d="M98 796h-69.001c1.33301 34.667 10.833 62.667 28.5 84s41.167 32 70.5 32c24 0 50 -6.66699 78 -20s46 -20 54 -20c8.66699 0 15.334 2.16699 20.001 6.5s8 11.833 10 22.5h65c-1.33301 -35.333 -11 -63.5 -29 -84.5s-41.333 -31.5 -70 -31.5
c-23.333 0 -48.333 6.66699 -75 20s-44 20 -52 20c-16 0 -26.333 -9.66699 -31 -29z" />
    <glyph glyph-name="hungarumlaut.case" 
d="M67 908h147l-86 -117h-92zM251 908h150l-110 -117h-104z" />
    <glyph glyph-name="endash.case" horiz-adv-x="477" 
d="M48 429h380v-108h-380v108z" />
    <glyph glyph-name="emdash.case" horiz-adv-x="650" 
d="M48 429h554v-108h-554v108z" />
    <glyph glyph-name="guilsinglleft.case" horiz-adv-x="372" 
d="M325 473l-153 -99l153 -98v-114l-297 207v11l297 207v-114z" />
    <glyph glyph-name="guilsinglright.case" horiz-adv-x="372" 
d="M46 162v114l153 98l-153 99v114l297 -207v-11z" />
    <glyph glyph-name="dollar.dnom" horiz-adv-x="309" 
d="M148 458h77l-6 -71c25.333 -4.66699 46.666 -10 63.999 -16l-12 -83c-34 10 -63.333 15 -88 15c-36 0 -54 -9 -54 -27c0 -8.66699 5.66699 -15.834 17 -21.501s25.333 -10.834 42 -15.501s33.167 -10.5 49.5 -17.5s30.166 -18.5 41.499 -34.5s17 -36 17 -60
c0 -65.333 -33 -104.666 -99 -117.999l-4 -64h-77l4 63c-31.333 2.66699 -60.333 11 -87 25l13 86c34.667 -18.667 68.334 -28 101.001 -28c36 0 54 9.66699 54 29c0 8.66699 -5.66699 15.834 -17 21.501s-25.166 11 -41.499 16s-32.833 11.167 -49.5 18.5
s-30.667 19 -42 35s-17 36 -17 60c0 30 8.83301 55.5 26.5 76.5s44.5 34.167 80.5 39.5z" />
    <glyph glyph-name="parenleft.dnom" horiz-adv-x="207" 
d="M137 424l69 -7c-42 -67.333 -63 -146 -63 -236s21 -168.667 63 -236l-69 -7c-58.667 62 -88 143 -88 243c0 100.667 29.333 181.667 88 243z" />
    <glyph glyph-name="parenright.dnom" horiz-adv-x="207" 
d="M0 417l70 7c57.333 -60 86 -141 86 -243s-28.667 -183 -86 -243l-70 7c42 67.333 63 146 63 236c0 92 -21 170.667 -63 236z" />
    <glyph glyph-name="plus.dnom" horiz-adv-x="356" 
d="M320 156h-99v-101h-87v101h-99v90h99v101h87v-101h99v-90z" />
    <glyph glyph-name="comma.dnom" horiz-adv-x="161" 
d="M78 94c37.333 0 55.999 -19.333 55.999 -58c-0.666992 -15.333 -6.66699 -35 -18 -59s-23.666 -43.667 -36.999 -59l-36 7l15 67c-22.667 10 -34 26 -34 48c0 36 18 54 54 54z" />
    <glyph glyph-name="period.dnom" horiz-adv-x="161" 
d="M137 44c0 -34.667 -18.667 -52 -56 -52c-20 0 -34.5 4 -43.5 12s-13.5 21.333 -13.5 40c0 35.333 19 53 57 53c37.333 0 56 -17.667 56 -53z" />
    <glyph glyph-name="zero.dnom" horiz-adv-x="355" 
d="M334 195c0 -69.333 -12.499 -119.998 -37.499 -151.998s-64.5 -48 -118.5 -48c-54.667 0 -94.334 16 -119.001 48s-37 82.667 -37 152c0 73.333 12.167 125.666 36.5 156.999s64.166 47 119.499 47c54.667 0 94.334 -15.833 119.001 -47.5s37 -83.834 37 -156.501z
M232.001 196.002c0 46.667 -4.16797 77.832 -12.501 93.499s-22.166 23.5 -41.499 23.5c-20 0 -34.167 -7.66699 -42.5 -23s-12.5 -46.666 -12.5 -93.999s4.16699 -78.5 12.5 -93.5s22.5 -22.5 42.5 -22.5s34 7.66699 42 23s12 46.333 12 93z" />
    <glyph glyph-name="one.dnom" horiz-adv-x="264" 
d="M215 395v-395h-104v274l-72 -41l-9 84l121 78h64z" />
    <glyph glyph-name="two.dnom" horiz-adv-x="345" 
d="M316 279c0 -32 -11.9961 -61.999 -35.9961 -89.999s-61 -60.667 -111 -98v-3h146l-2 -88h-277v67l40 37.5l37.5 35l31 30c11.667 11.667 20.667 21.167 27 28.5s12.666 15.5 18.999 24.5s10.833 17.333 13.5 25s4 15.167 4 22.5c0 26.667 -18.333 40 -55 40
c-30.667 0 -63.334 -11.333 -98.001 -34l-25 83c41.333 26.667 88.666 40 141.999 40c47.333 0 83.166 -10.833 107.499 -32.5s36.5 -50.834 36.5 -87.501z" />
    <glyph glyph-name="three.dnom" horiz-adv-x="345" 
d="M324 118c0 -82 -54 -123.002 -162 -123.002c-50.667 0 -93 10.333 -127 31l21 78c34.667 -17.333 69.667 -26 105 -26c42 0 63 15 63 45c0 14.667 -7 25.667 -21 33s-40.667 11 -80 11v71c38 0 63.667 3.33301 77 10s20 17.334 20 32.001c0 22.667 -19.333 34 -58 34
s-73.667 -11 -105 -33l-24 78c38 26.667 83 40 135 40c46.667 0 83 -9.66699 109 -29s39 -46.666 39 -81.999c0 -38 -18 -65.333 -54 -82v-2c41.333 -15.333 62 -44 62 -86z" />
    <glyph glyph-name="four.dnom" horiz-adv-x="355" 
d="M341 71h-35v-71h-96v71h-185l-9 61l166 262h124v-240h38zM214 154l2 66l5 80h-3l-47 -78l-43 -65l1 -3h85z" />
    <glyph glyph-name="five.dnom" horiz-adv-x="355" 
d="M327 137c0 -94.667 -51.665 -142 -154.998 -142c-50 0 -93.333 8.66699 -130 26l15 80c35.333 -14.667 70.666 -22 105.999 -22c23.333 0 39.5 4 48.5 12s13.5 20.667 13.5 38c0 27.333 -20.333 41 -61 41c-28 0 -54.667 -3.33301 -80 -10l-38 36l19 198h239l4 -88h-162
l-4 -58c20 2.66699 36.667 4 50 4c43.333 0 76.666 -9.83301 99.999 -29.5s35 -48.167 35 -85.5z" />
    <glyph glyph-name="six.dnom" horiz-adv-x="355" 
d="M333 139c0 -96 -49.667 -144 -149 -144c-107.333 0 -161 64.667 -161 194c0 68 16 120.167 48 156.5s78 54.5 138 54.5c38 0 71 -5.33301 99 -16l-6 -84c-23.333 8 -50 12 -80 12c-29.333 0 -51.5 -5.66699 -66.5 -17s-25.167 -29 -30.5 -53l2 -2c21.333 12 46 18 74 18
c88 0 132 -39.667 132 -119zM231 139c0 14.667 -3.83301 25.499 -11.5 32.499s-20.167 10.5 -37.5 10.5c-26 0 -43.333 -6.33301 -52 -19c0 -31.333 4 -53.166 12 -65.499s22 -18.5 42 -18.5c31.333 0 47 20 47 60z" />
    <glyph glyph-name="seven.dnom" horiz-adv-x="355" 
d="M330 394v-87l-147 -307h-119l155 299h-195l5 95h301z" />
    <glyph glyph-name="eight.dnom" horiz-adv-x="355" 
d="M22 118c0 36 17.333 65.333 52 88c-24.667 20 -37 48.667 -37 86c0 72 47 108 141 108s141 -36 141 -108c0 -33.333 -13 -60.333 -39 -81c35.333 -20 53 -51 53 -93c0 -82.667 -51.667 -124 -155 -124c-104 0 -156 41.333 -156 124zM233 110
c0 10 -4.49902 18.667 -13.499 26s-17.5 12.5 -25.5 15.5s-22 7.83301 -42 14.5c-20.667 -14 -31 -30.667 -31 -50c0 -16 4.66699 -27.167 14 -33.5s24.666 -9.5 45.999 -9.5c34.667 0 52 12.333 52 37zM133.001 287c0 -12 5.5 -21.333 16.5 -28s27.833 -13 50.5 -19
c17.333 11.333 26 25.333 26 42c0 26 -16 39 -48 39c-30 0 -45 -11.333 -45 -34z" />
    <glyph glyph-name="nine.dnom" horiz-adv-x="355" 
d="M330 211c0 -74 -14.668 -128.498 -44.001 -163.498s-73.666 -52.5 -132.999 -52.5c-40.667 0 -76.667 6.33301 -108 19l15 82c28.667 -11.333 57 -17 85 -17c56 0 86.333 28.667 91 86l-2 2c-19.333 -14.667 -44 -22 -74 -22c-46.667 0 -81.167 10.667 -103.5 32
s-33.5 50.666 -33.5 87.999c0 41.333 12.667 74.166 38 98.499s62.333 36.5 111 36.5c54 0 93.833 -15.5 119.5 -46.5s38.5 -78.5 38.5 -142.5zM227.999 242.002c0 28 -4.33301 47.333 -13 58s-23.667 16 -45 16c-32 0 -48 -15.333 -48 -46c0 -17.333 4 -29.833 12 -37.5
s21.333 -11.5 40 -11.5c26.667 0 44.667 7 54 21z" />
    <glyph glyph-name="equal.dnom" horiz-adv-x="356" 
d="M310 227h-263v77h263v-77zM310 99h-263v77h263v-77z" />
    <glyph glyph-name="cent.dnom" horiz-adv-x="309" 
d="M288 372l-5 -81c-21.333 6.66699 -42.333 10 -63 10c-34 0 -57.333 -7.33301 -70 -22s-19 -40.667 -19 -78c0 -68.667 29 -103 87 -103c22.667 0 45 4.33301 67 13l7 -75c-18 -12 -40.667 -19.333 -68 -22l-4 -69h-79l5 73c-80.667 16.667 -121 78 -121 184
c0 112 46.333 173.667 139 185l6 71h79l-6 -73c16 -2.66699 31 -7 45 -13z" />
    <glyph glyph-name="minus.dnom" horiz-adv-x="356" 
d="M313 161h-273v87h273v-87z" />
    <glyph glyph-name="zero.lf" horiz-adv-x="574" 
d="M542 372c0 -135.333 -20.333 -232.833 -61 -292.5s-105.667 -89.5 -195 -89.5c-90 0 -154.833 29.667 -194.5 89s-59.5 157 -59.5 293c0 142 19.667 241.833 59 299.5s105 86.5 197 86.5c90 0 154.833 -29 194.5 -87s59.5 -157.667 59.5 -299zM391 374
c0 69.333 -4 122.001 -12 158.001s-18.667 59.5 -32 70.5s-33 16.5 -59 16.5c-26.667 0 -47 -5.66699 -61 -17s-25 -35 -33 -71s-12 -88.333 -12 -157c0 -71.333 4 -125.333 12 -162s19 -60.334 33 -71.001s34.333 -16 61 -16c25.333 0 45 5.66699 59 17
s24.833 35.333 32.5 72s11.5 90 11.5 160z" />
    <glyph glyph-name="one.lf" horiz-adv-x="432" 
d="M350 750v-750h-158v476l2 80l-2 2l-62 -40l-61 -37l-17 128l207 141h91z" />
    <glyph glyph-name="two.lf" horiz-adv-x="562" 
d="M514 544c0 -60 -21.835 -120.333 -65.502 -181s-110.5 -133.667 -200.5 -219l1 -3h265l-4 -141h-458v102l66 72l65 71l54.5 62c22.333 26 39 47 50 63s22.667 34.167 35 54.5s21 38.833 26 55.5s7.5 32.667 7.5 48c0 58.667 -36.333 88 -109 88
c-51.333 0 -105.666 -21 -162.999 -63l-37 128c64 51.333 140.667 77 230 77c76.667 0 135.334 -19 176.001 -57s61 -90.333 61 -157z" />
    <glyph glyph-name="three.lf" horiz-adv-x="562" 
d="M524 225c0 -73.333 -22.666 -130.667 -67.999 -172s-113.333 -62 -204 -62c-78.667 0 -147 17.333 -205 52l27 124c55.333 -29.333 112.666 -44 171.999 -44c84.667 0 127 35.667 127 107c0 34 -13.5 59.5 -40.5 76.5s-74.5 25.5 -142.5 25.5v113
c65.333 0 110.666 8 135.999 24s38 40.667 38 74c0 52 -37 78 -111 78c-62.667 0 -120 -21 -172 -63l-36 124c61.333 50.667 134.333 76 219 76c76.667 0 136.334 -17.833 179.001 -53.5s64 -85.834 64 -150.501c0 -73.333 -32 -126.666 -96 -159.999v-2
c75.333 -28 113 -83.667 113 -167z" />
    <glyph glyph-name="four.lf" horiz-adv-x="586" 
d="M556 144h-67v-144h-142v144h-303l-13 102l273 504h185v-473h70zM351 277l7 244l4 81l-2 1l-37 -73l-132 -253h160z" />
    <glyph glyph-name="five.lf" horiz-adv-x="546" 
d="M514 259c0 -178.667 -86.333 -268.001 -259 -268.001c-80.667 0 -150.334 17.333 -209.001 52l27 125c53.333 -29.333 108.333 -44 165 -44c44.667 0 76.334 9.66699 95.001 29s28 50.333 28 93c0 36.667 -9.66699 62.834 -29 78.501s-49.666 23.5 -90.999 23.5
c-48.667 0 -94 -8.33301 -136 -25l-51 60l27 367h393l6 -139h-277l-10 -145c31.333 7.33301 63.666 11 96.999 11c72.667 0 128.167 -18.333 166.5 -55s57.5 -91 57.5 -163z" />
    <glyph glyph-name="six.lf" horiz-adv-x="567" 
d="M537 264c0 -182 -81.335 -273 -244.002 -273c-88 0 -153.5 27.833 -196.5 83.5s-64.5 149.834 -64.5 282.501c0 133.333 25.833 233.666 77.5 300.999s127.834 101 228.501 101c61.333 0 113.666 -9 156.999 -27l-11 -135c-41.333 14.667 -84.333 22 -129 22
c-55.333 0 -96.666 -13.5 -123.999 -40.5s-44 -70.167 -50 -129.5l2 -2c40.667 28 86.334 42 137.001 42c144.667 0 217 -75 217 -225zM386.998 267c0 34.667 -7.83398 60.167 -23.501 76.5s-40.167 24.5 -73.5 24.5c-18 0 -37.167 -4.33301 -57.5 -13
s-35.166 -20 -44.499 -34c0.666992 -76 8.66699 -127.833 24 -155.5s42 -41.5 80 -41.5c63.333 0 95 47.667 95 143z" />
    <glyph glyph-name="seven.lf" horiz-adv-x="563" 
d="M529 750v-131l-252 -619h-172l276 603h-346l7 147h487z" />
    <glyph glyph-name="eight.lf" horiz-adv-x="570" 
d="M32 219c0 34 8.5 66.332 25.5 96.999s40.833 56.334 71.5 77.001c-48.667 38.667 -73 94.667 -73 168c0 63.333 19 112.166 57 146.499s95.667 51.5 173 51.5c152.667 0 229 -66.333 229 -199c0 -67.333 -26 -121.666 -78 -162.999c67.333 -36.667 101 -96.667 101 -180
c0 -151.333 -84 -227 -252 -227c-169.333 0 -254 76.333 -254 229zM391 204.999c0 14 -3 26.835 -9 38.502s-12.167 21.167 -18.5 28.5s-17.666 15.166 -33.999 23.499s-28.5 14.166 -36.5 17.499l-45 18c-46 -33.333 -69 -71.333 -69 -114
c0 -37.333 8.66699 -63.833 26 -79.5s45.666 -23.5 84.999 -23.5c67.333 0 101 30.333 101 91zM198 553.001c0 -29.333 10 -51.668 30 -67.001s50 -29.666 90 -42.999c41.333 28 62 63 62 105c0 29.333 -7.5 50.833 -22.5 64.5s-38.833 20.5 -71.5 20.5
c-30 0 -52.167 -6.33301 -66.5 -19s-21.5 -33 -21.5 -61z" />
    <glyph glyph-name="nine.lf" horiz-adv-x="569" 
d="M537 404c0 -145.333 -24.168 -250.501 -72.501 -315.501s-122.166 -97.5 -221.499 -97.5c-65.333 0 -122.666 11.333 -171.999 34l21 128c44.667 -18.667 90 -28 136 -28c53.333 0 92.166 14.833 116.499 44.5s38.833 78.834 43.5 147.501l-2 2
c-35.333 -24.667 -80 -37 -134 -37c-72 0 -126.667 20 -164 60s-56 95.667 -56 167c0 80.667 20.5 142.5 61.5 185.5s102.5 64.5 184.5 64.5c172.667 0 259 -118.333 259 -355zM384.999 455.999c-0.666992 62.667 -9.99902 106.667 -27.999 132s-45 38 -81 38
c-32.667 0 -57 -8.66699 -73 -26s-24 -45.333 -24 -84c0 -37.333 8.16699 -64.833 24.5 -82.5s42.166 -26.5 77.499 -26.5c49.333 0 84 16.333 104 49z" />
    <glyph glyph-name="dollar.numr" horiz-adv-x="309" 
d="M148 814h77l-6 -71c25.333 -4.66699 46.666 -10 63.999 -16l-12 -83c-34 10 -63.333 15 -88 15c-36 0 -54 -9 -54 -27c0 -8.66699 5.66699 -15.834 17 -21.501s25.333 -10.834 42 -15.501s33.167 -10.5 49.5 -17.5s30.166 -18.5 41.499 -34.5s17 -36 17 -60
c0 -65.333 -33 -104.666 -99 -117.999l-4 -64h-77l4 63c-31.333 2.66699 -60.333 11 -87 25l13 86c34.667 -18.667 68.334 -28 101.001 -28c36 0 54 9.66699 54 29c0 8.66699 -5.66699 15.834 -17 21.501s-25.166 11 -41.499 16s-32.833 11.167 -49.5 18.5
s-30.667 19 -42 35s-17 36 -17 60c0 29.333 8.83301 54.5 26.5 75.5s44.5 34.5 80.5 40.5z" />
    <glyph glyph-name="parenleft.numr" horiz-adv-x="207" 
d="M137 780l69 -7c-42 -67.333 -63 -146 -63 -236s21 -168.667 63 -236l-69 -7c-58.667 62 -88 143 -88 243c0 100.667 29.333 181.667 88 243z" />
    <glyph glyph-name="parenright.numr" horiz-adv-x="207" 
d="M0 773l70 7c57.333 -60 86 -141 86 -243s-28.667 -183 -86 -243l-70 7c42 67.333 63 146 63 236c0 92 -21 170.667 -63 236z" />
    <glyph glyph-name="plus.numr" horiz-adv-x="356" 
d="M320 511h-99v-100h-87v100h-99v91h99v101h87v-101h99v-91z" />
    <glyph glyph-name="comma.numr" horiz-adv-x="161" 
d="M78 450c37.333 0 56 -19.333 56 -58c0 -15.333 -5.66699 -34.833 -17 -58.5s-24 -43.5 -38 -59.5l-36 7l15 67c-22.667 10 -34 25.667 -34 47c0 36.667 18 55 54 55z" />
    <glyph glyph-name="period.numr" horiz-adv-x="161" 
d="M137 400c0 -34.667 -18.667 -52 -56 -52c-20 0 -34.5 4 -43.5 12s-13.5 21.333 -13.5 40c0 35.333 19 53 57 53c37.333 0 56 -17.667 56 -53z" />
    <glyph glyph-name="zero.numr" horiz-adv-x="355" 
d="M334 551c0 -69.333 -12.499 -119.998 -37.499 -151.998s-64.5 -48 -118.5 -48c-54.667 0 -94.334 16 -119.001 48s-37 82.667 -37 152c0 73.333 12.167 125.666 36.5 156.999s64.166 47 119.499 47c54.667 0 94.334 -15.833 119.001 -47.5s37 -83.834 37 -156.501z
M232.001 552.002c0 46.667 -4.16797 77.832 -12.501 93.499s-22.166 23.5 -41.499 23.5c-20 0 -34.167 -7.66699 -42.5 -23s-12.5 -46.666 -12.5 -93.999s4.16699 -78.5 12.5 -93.5s22.5 -22.5 42.5 -22.5s34 7.5 42 22.5s12 46.167 12 93.5z" />
    <glyph glyph-name="one.numr" horiz-adv-x="264" 
d="M215 751v-395h-104v274l-72 -41l-9 83l121 79h64z" />
    <glyph glyph-name="two.numr" horiz-adv-x="345" 
d="M316 635c0 -32 -11.9961 -61.999 -35.9961 -89.999s-61 -60.667 -111 -98v-3h146l-2 -88h-277v67l40 37.5l37.5 35l31 30c11.667 11.667 20.667 21.167 27 28.5s12.666 15.5 18.999 24.5s10.833 17.333 13.5 25s4 15.167 4 22.5c0 26.667 -18.333 40 -55 40
c-30.667 0 -63.334 -11.333 -98.001 -34l-25 83c41.333 26.667 88.666 40 141.999 40c47.333 0 83.166 -10.833 107.499 -32.5s36.5 -50.834 36.5 -87.501z" />
    <glyph glyph-name="three.numr" horiz-adv-x="345" 
d="M320 474c0 -82 -53.999 -123.001 -161.999 -123.001c-50.667 0 -93.334 10.333 -128.001 31l21 78c32.667 -17.333 67.667 -26 105 -26c42 0 63 15 63 45c0 14.667 -6.83301 25.667 -20.5 33s-40.167 11 -79.5 11v71c37.333 0 62.666 3.33301 75.999 10
s20 17.334 20 32.001c0 22.667 -19 34 -57 34c-38.667 0 -74 -11 -106 -33l-23 78c36.667 26.667 81.334 40 134.001 40c46.667 0 83.167 -9.66699 109.5 -29s39.5 -46.666 39.5 -81.999c0 -38.667 -18 -66.334 -54 -83.001v-2c41.333 -14.667 62 -43 62 -85z" />
    <glyph glyph-name="four.numr" horiz-adv-x="355" 
d="M341 426h-35v-70h-96v70h-185l-9 62l166 262h124v-240h38zM214 510l2 66l5 80h-3l-47 -78l-43 -65l1 -3h85z" />
    <glyph glyph-name="five.numr" horiz-adv-x="355" 
d="M327 493c0 -94.667 -51.665 -142 -154.998 -142c-52 0 -95.333 8.66699 -130 26l15 80c35.333 -14.667 70.666 -22 105.999 -22c23.333 0 39.5 4 48.5 12s13.5 20.667 13.5 38c0 27.333 -20.333 41 -61 41c-28 0 -54.667 -3.33301 -80 -10l-38 36l19 198h239l4 -88h-162
l-4 -58c20 2.66699 36.667 4 50 4c43.333 0 76.666 -9.83301 99.999 -29.5s35 -48.167 35 -85.5z" />
    <glyph glyph-name="six.numr" horiz-adv-x="355" 
d="M333 495c0 -96 -49.668 -144 -149.001 -144c-107.333 0 -161 64.667 -161 194c0 68 16 120.167 48 156.5s78 54.5 138 54.5c38 0 71 -5.33301 99 -16l-6 -84c-23.333 8 -50 12 -80 12c-29.333 0 -51.5 -5.66699 -66.5 -17s-25.167 -29 -30.5 -53l2 -2
c20.667 12 45.334 18 74.001 18c88 0 132 -39.667 132 -119zM230.999 495c0 14.667 -3.83398 25.499 -11.501 32.499s-20.167 10.5 -37.5 10.5c-25.333 0 -42.666 -6.33301 -51.999 -19c0 -31.333 4 -53.166 12 -65.499s22 -18.5 42 -18.5c31.333 0 47 20 47 60z" />
    <glyph glyph-name="seven.numr" horiz-adv-x="355" 
d="M330 750v-87l-147 -307h-119l155 299h-195l5 95h301z" />
    <glyph glyph-name="eight.numr" horiz-adv-x="355" 
d="M22 474c0 36 17.333 65.332 52 87.999c-24.667 20 -37 48.667 -37 86c0 72 47 108 141 108s141 -36 141 -108c0 -33.333 -13 -60.333 -39 -81c35.333 -21.333 53 -52.666 53 -93.999c0 -82 -51.667 -123 -155 -123c-104 0 -156 41.333 -156 124zM233 465.999
c0 10 -4.49902 18.667 -13.499 26s-17.5 12.5 -25.5 15.5s-22 7.83301 -42 14.5c-20.667 -14 -31 -30.667 -31 -50c0 -16 4.66699 -27.167 14 -33.5s24.666 -9.5 45.999 -9.5c34.667 0 52 12.333 52 37zM133.001 642.999c0 -12 5.5 -21.333 16.5 -28s27.833 -13 50.5 -19
c17.333 13.333 26 27.333 26 42c0 26 -16 39 -48 39c-30 0 -45 -11.333 -45 -34z" />
    <glyph glyph-name="nine.numr" horiz-adv-x="355" 
d="M330 567c0 -74 -14.668 -128.498 -44.001 -163.498s-73.666 -52.5 -132.999 -52.5c-39.333 0 -75.333 6 -108 18l15 82c30 -10.667 58.333 -16 85 -16c56 0 86.333 28.667 91 86l-2 2c-19.333 -14.667 -44 -22 -74 -22c-46.667 0 -81.167 10.667 -103.5 32
s-33.5 50.666 -33.5 87.999c0 41.333 12.667 74.166 38 98.499s62.333 36.5 111 36.5c54 0 93.833 -15.5 119.5 -46.5s38.5 -78.5 38.5 -142.5zM227.999 598.002c0 28 -4.33301 47.333 -13 58s-23.667 16 -45 16c-32 0 -48 -15.333 -48 -46c0 -17.333 4 -29.833 12 -37.5
s21.333 -11.5 40 -11.5c26.667 0 44.667 7 54 21z" />
    <glyph glyph-name="equal.numr" horiz-adv-x="356" 
d="M310 583h-263v77h263v-77zM310 455h-263v77h263v-77z" />
    <glyph glyph-name="cent.numr" horiz-adv-x="309" 
d="M288 728l-4.99902 -80.999c-25.333 6.66699 -46.333 10 -63 10c-34 0 -57.333 -7.33301 -70 -22s-19 -40.667 -19 -78c0 -69.333 29 -104 87 -104c21.333 0 43.666 4.66699 66.999 14l7 -75c-18 -12 -40.667 -19.333 -68 -22l-4 -70h-79l5 73
c-80.667 17.333 -121 78.666 -121 183.999c0 112.667 46.333 174.667 139 186l6 71h79l-6 -73c16 -2.66699 31 -7 45 -13z" />
    <glyph glyph-name="minus.numr" horiz-adv-x="356" 
d="M313 517h-273v87h273v-87z" />
    <glyph glyph-name="numbersign.osf" horiz-adv-x="556" 
d="M33 268h79l17 114h-96v104h108l22 163h112l-22 -163h93l21 163h110l-22 -163h68v-104h-81l-16 -114h97v-107h-110l-21 -161h-110l21 161h-93l-22 -161h-111l22 161h-66v107zM240 382l-17 -114h94l16 114h-93z" />
    <glyph glyph-name="dollar.osf" horiz-adv-x="456" 
d="M428 188c0 -111.333 -50.333 -176 -151 -194l-7 -121h-111l7 118c-51.333 5.33301 -93 17.666 -125 36.999l15 124c43.333 -26.667 94.666 -40 153.999 -40c55.333 0 83 21 83 63c0 18 -8.83301 32.833 -26.5 44.5s-39 21.667 -64 30s-50 18.333 -75 30
s-46.333 30.334 -64 56.001s-26.5 57.834 -26.5 96.501c0 48 13.833 88 41.5 120s68.167 52 121.5 60l9 114h110l-9 -115c33.333 -4.66699 65 -13.334 95 -26.001l-11 -123c-44 18.667 -92 28 -144 28c-49.333 0 -74 -17.333 -74 -52c0 -16.667 8.66699 -30.5 26 -41.5
s38.333 -20.5 63 -28.5s49.334 -17.833 74.001 -29.5s45.667 -30.167 63 -55.5s26 -57 26 -95z" />
    <glyph glyph-name="zero.osf" horiz-adv-x="568" 
d="M533 319c0 -114 -20.001 -197.333 -60.001 -250s-103.333 -79 -190 -79c-87.333 0 -150.5 26.167 -189.5 78.5s-58.5 135.833 -58.5 250.5c0 119.333 19.333 204.666 58 255.999s102.334 77 191.001 77c88 0 151.5 -25.667 190.5 -77s58.5 -136.666 58.5 -255.999z
M384.999 321c0 79.333 -7.66895 132.332 -23.002 158.999s-41.333 40 -78 40c-37.333 0 -63.833 -13.333 -79.5 -40s-23.5 -79.667 -23.5 -159c0 -82 7.66699 -136 23 -162s42 -39 80 -39c24.667 0 43.834 4.83301 57.501 14.5s24.334 29.334 32.001 59.001
s11.5 72.167 11.5 127.5z" />
    <glyph glyph-name="one.osf" horiz-adv-x="421" 
d="M336 644v-644h-150v385l2 80l-2 2l-117 -70l-15 121l193 126h89z" />
    <glyph glyph-name="two.osf" horiz-adv-x="528" 
d="M488 461c0 -54.667 -19.6641 -106.334 -58.9971 -155.001s-101.333 -107 -186 -175v-3h245l-4 -128h-436v97l64.5 61l62.5 59.5l51.5 51c21 21 36.667 37.833 47 50.5s21.166 27.167 32.499 43.5s19.166 31.333 23.499 45s6.5 26.834 6.5 39.501
c0 49.333 -33.667 74 -101 74c-51.333 0 -104 -18.667 -158 -56l-36 118c63.333 45.333 136.666 68 219.999 68c74.667 0 131.167 -17 169.5 -51s57.5 -80.333 57.5 -139z" />
    <glyph glyph-name="three.osf" horiz-adv-x="523" 
d="M484 178c0 -90 -33.501 -159.17 -100.501 -207.503s-161.5 -74.166 -283.5 -77.499l-13 121c88.667 2.66699 153.334 18.334 194.001 47.001s61 66.334 61 113.001c0 58 -36.667 87.333 -110 88c-20 0 -39.333 -2 -58 -6l-8 103c62 7.33301 104.5 18 127.5 32
s34.5 34.667 34.5 62c0 46.667 -34.667 70 -104 70c-58 0 -111.333 -17.333 -160 -52l-32 119c54.667 42 122.667 63 204 63c72 0 127.667 -16.333 167 -49s59 -76.334 59 -131.001c0 -65.333 -24 -112.666 -72 -141.999v-2c62.667 -26.667 94 -77 94 -151z" />
    <glyph glyph-name="four.osf" horiz-adv-x="562" 
d="M539 60h-63v-160l-136 -7v167h-307l-12 99l286 493l169 -11v-460h67zM345 181l8 260l5 81l-2 1l-188 -342h177z" />
    <glyph glyph-name="five.osf" horiz-adv-x="518" 
d="M485 186c0 -91.333 -33.333 -162.668 -100 -214.001s-162 -77.666 -286 -78.999l-15 127c84 1.33301 147.5 15.333 190.5 42s64.5 63 64.5 109c0 54 -38.333 81 -115 81c-48 0 -91 -8.66699 -129 -26l-48 60l27 358h376l6 -140h-264l-9 -135
c29.333 7.33301 59.333 11 90 11c66.667 0 118.667 -16.667 156 -50s56 -81.333 56 -144z" />
    <glyph glyph-name="six.osf" horiz-adv-x="548" 
d="M516 262c0 -180.667 -78 -270.997 -234 -270.997c-166.667 0 -250 110.333 -250 331c0 69.333 10.5 131.666 31.5 186.999s49.333 100.166 85 134.499s76 60.5 121 78.5s92.833 27.667 143.5 29l21 -129c-72 -1.33301 -129.333 -18.333 -172 -51
s-69.667 -77.334 -81 -134.001l2 -2c37.333 26.667 79.333 40 126 40c138 0 207 -71 207 -213zM372 261.003c0 33.333 -7.33203 57.668 -21.999 73.001s-38.334 23 -71.001 23c-17.333 0 -35.333 -4 -54 -12s-32.667 -18.667 -42 -32
c0.666992 -72.667 8.66699 -122.334 24 -149.001s40.333 -40 75 -40c60 0 90 45.667 90 137z" />
    <glyph glyph-name="seven.osf" horiz-adv-x="526" 
d="M492 642v-123l-247 -614h-163l255 596h-305l9 141h451z" />
    <glyph glyph-name="eight.osf" horiz-adv-x="562" 
d="M32 188c0 29.333 7.83203 56.998 23.499 82.998s37.834 47.667 66.501 65c-43.333 34 -65 81.333 -65 142c0 115.333 75 173 225 173c149.333 0 224 -58 224 -174c0 -55.333 -23 -100.666 -69 -135.999c62 -33.333 93 -84.666 93 -153.999c0 -132 -82.667 -198 -248 -198
c-166.667 0 -250 66.333 -250 199zM382.999 177.998c0 17.333 -7.00098 32.5 -21.001 45.5s-27.167 22 -39.5 27s-34.166 12.833 -65.499 23.5c-7.33301 2.66699 -13 4.66699 -17 6c-42 -26.667 -63 -57 -63 -91c0 -30 8.5 -51.333 25.5 -64s44.5 -19 82.5 -19
c65.333 0 98 24 98 72zM195.998 470.998c0 -12.667 2.83301 -23.501 8.5 -32.501s15.167 -17 28.5 -24s25.666 -12.5 36.999 -16.5s27.333 -9 48 -15c36.667 23.333 55 50.333 55 81c0 24.667 -7.16699 42.834 -21.5 54.501s-38.166 17.5 -71.499 17.5
c-56 0 -84 -21.667 -84 -65z" />
    <glyph glyph-name="nine.osf" horiz-adv-x="543" 
d="M511 342c0 -78 -9.83398 -146.001 -29.501 -204.001s-47.167 -104.333 -82.5 -139s-75.666 -60.5 -120.999 -77.5s-95.666 -25.833 -150.999 -26.5l-15 125c66.667 2 121.667 19.333 165 52s70.333 80.334 81 143.001l-2 2c-30 -23.333 -69.333 -35 -118 -35
c-63.333 0 -113.5 19 -150.5 57s-55.5 94.667 -55.5 170c0 78 20.167 138 60.5 180s99.166 63 176.499 63c161.333 0 242 -103.333 242 -310zM362.999 359.999c-0.666992 60 -8.50098 101.334 -23.501 124.001s-39.5 34 -73.5 34c-29.333 0 -51.166 -8.33301 -65.499 -25
s-21.5 -43.334 -21.5 -80.001c0 -36 7.16699 -62.167 21.5 -78.5s37.5 -24.5 69.5 -24.5c47.333 0 78.333 16.667 93 50z" />
    <glyph glyph-name="cent.osf" horiz-adv-x="455" 
d="M420 591l-7.99902 -127.002c-32.667 12 -63.334 18 -92.001 18c-50.667 0 -86.167 -13.167 -106.5 -39.5s-30.5 -73.166 -30.5 -140.499c0 -65.333 11.167 -112.666 33.5 -141.999s55.833 -44 100.5 -44c36 0 68.667 7.33301 98 22l10 -117
c-26 -16.667 -59.667 -27 -101 -31l-7 -117h-111l8 122c-121.333 26 -182 128.333 -182 307c0 188.667 68.667 292 206 310l9 114h111l-9 -115c28 -5.33301 51.667 -12 71 -20z" />
    <glyph glyph-name="sterling.osf" horiz-adv-x="531" 
d="M47 267l-6 108h41c-11.333 36.667 -17 67 -17 91c0 56.667 20.167 103 60.5 139s105.166 54 194.499 54c57.333 0 109.666 -8.66699 156.999 -26l-18 -123c-38.667 14 -80 21 -124 21c-80 0 -120 -27 -120 -81c0 -19.333 4.33301 -44.333 13 -75h207v-108h-182
c1.33301 -16 2 -28 2 -36c0 -50.667 -18.333 -87.667 -55 -111l2 -3c42.667 10.667 94.334 16 155.001 16c50 0 99.667 -3.66699 149 -11l-8 -128c-72 8 -142.667 12 -212 12c-83.333 0 -164.666 -3.33301 -243.999 -10l-6 126c24 4.66699 43 16.5 57 35.5
s21 40.833 21 65.5c0 15.333 -1 30 -3 44h-64z" />
    <glyph glyph-name="currency.osf" horiz-adv-x="556" 
d="M100 326c0 30.667 6.66699 58.668 20 84.001l-64 66l76 81l67 -69c26 12 52.333 18 79 18s52.667 -6.33301 78 -19l68 70l76 -81l-65 -67c13.333 -25.333 20 -53 20 -83c0 -26.667 -5.33301 -52.334 -16 -77.001l61 -63l-76 -80l-60 61c-27.333 -14.667 -56 -22 -86 -22
c-31.333 0 -60 7.33301 -86 22l-61 -62l-75 81l60 62c-10.667 22 -16 48 -16 78zM194 327.001c0 -22.667 8 -41.667 24 -57s35.667 -23 59 -23s43 7.66699 59 23s24 34.333 24 57c0 22 -8 40.833 -24 56.5s-35.667 23.5 -59 23.5c-22.667 0 -42.167 -7.83301 -58.5 -23.5
s-24.5 -34.5 -24.5 -56.5z" />
    <glyph glyph-name="yen.osf" horiz-adv-x="556" 
d="M89 304h79l-158 345h158l85 -253l24 -77h3l23 77l84 253h156l-154 -345h83v-74h-115v-40h115v-74h-115v-116h-156v116h-112v74h112v40h-112v74z" />
    <glyph glyph-name="franc.osf" horiz-adv-x="556" 
d="M30 174h59v475h425l3 -132h-283v-130h213l-1 -125h-212v-88h65v-97h-65v-77h-145v77h-59v97z" />
    <glyph glyph-name="lira.osf" horiz-adv-x="556" 
d="M54 340l-6.00098 71.001h28c-4.66699 20 -7 38 -7 54c0 56.667 20.333 103.167 61 139.5s106.667 54.5 198 54.5c58 0 112 -8.66699 162 -26l-18 -124c-38.667 14.667 -81.667 22 -129 22c-82.667 0 -124 -27.667 -124 -83c0 -12.667 1 -25 3 -37h228v-71h-208l10 -39
h198v-71h-191c-1.33301 -50.667 -19.666 -87.334 -54.999 -110.001l2 -3c43.333 10.667 96.333 16 159 16c58 0 109.333 -3.66699 154 -11l-8 -128c-74 8 -146.333 12 -217 12c-85.333 0 -168.333 -3.33301 -249 -10l-6 126c24.667 4.66699 44.167 16.5 58.5 35.5
s21.5 40.833 21.5 65.5v7h-59l-5 71h54l-11 39h-44z" />
    <glyph glyph-name="peseta.osf" horiz-adv-x="556" 
d="M252 451c0 -79.333 -8.16699 -132.001 -24.5 -158.001s-48.5 -39 -96.5 -39h-24v-254h-81v649h105c46 0 77.667 -13.167 95 -39.5s26 -79.166 26 -158.499zM389 328.999h-37.001v-235c0 -14.667 6.33301 -22 19 -22c4.66699 0 8.33398 1 11.001 3l2 -74
c-8 -5.33301 -19.333 -8 -34 -8c-46 0 -69 33.333 -69 100v236h-17v74h20l13 88l53 9v-97h39v-74zM538.999 117.999c0 -84 -29.001 -126.003 -87.001 -126.003c-19.333 0 -35.666 4.33301 -48.999 13l1 78c11.333 -6.66699 24.666 -10 39.999 -10c19.333 0 29 14.667 29 44
c0 12.667 -3.83301 24.167 -11.5 34.5s-16.167 19.333 -25.5 27s-17.833 20.834 -25.5 39.501s-11.5 41.334 -11.5 68.001c0 32.667 7.33301 61 22 85s35.667 36 63 36c18.667 0 34.334 -4.66699 47.001 -14l-4 -81c-11.333 6 -23.333 9 -36 9
c-16.667 0 -25 -11.333 -25 -34c0 -12.667 3.83301 -24.167 11.5 -34.5s16 -19.333 25 -27s17.333 -20.667 25 -39s11.5 -41.166 11.5 -68.499zM170.998 449.996c0 43.333 -2.66699 71 -8 83s-16 18 -32 18h-24v-205h24c15.333 0 25.833 6.16699 31.5 18.5
s8.5 40.833 8.5 85.5z" />
    <glyph glyph-name="Euro.osf" horiz-adv-x="556" 
d="M528 626l-34.998 -118.999c-28 12 -61 18 -99 18c-46 0 -81.5 -7.83301 -106.5 -23.5s-42.167 -40.834 -51.5 -75.501h233l-23 -77h-220v-46h207l-23 -74h-173c20.667 -74.667 72 -112 154 -112c44 0 83.667 9.33301 119 28l5 -118c-41.333 -26 -96 -39 -164 -39
c-164 0 -259 80.333 -285 241h-41v74h34v46h-34v77h42c27.333 155.333 123.666 233 288.999 233c67.333 0 124.666 -11 171.999 -33z" />
    <glyph glyph-name="exclam.sc" horiz-adv-x="267" 
d="M187 190h-107l-21 459h148zM212 58c0 -45.333 -25.333 -68 -76 -68c-26.667 0 -46 5.33301 -58 16s-18 28 -18 52c0 46.667 25.333 70 76 70s76 -23.333 76 -70z" />
    <glyph glyph-name="ampersand.sc" horiz-adv-x="622" 
d="M615 118l-49.998 -125.999c-41.333 18 -86 43.667 -134 77c-59.333 -54 -127.333 -81 -204 -81c-65.333 0 -114 17.667 -146 53s-48 78.666 -48 129.999c0 70 37 132.667 111 188c-34.667 54.667 -52 101.667 -52 141c0 48 14.667 86.5 44 115.5
s75.666 43.5 138.999 43.5c52.667 0 96 -12.167 130 -36.5s51 -56.5 51 -96.5c0 -19.333 -3.83301 -37.5 -11.5 -54.5s-20 -33.833 -37 -50.5s-31.667 -30 -44 -40s-30.5 -23.667 -54.5 -41c33.333 -36.667 69.666 -70.334 108.999 -101.001c20 35.333 34 71 42 107h116
c-6 -57.333 -27 -115.666 -63 -174.999c35.333 -22 69.333 -39.667 102 -53zM250.002 117.001c30 0 58.332 9 84.999 27c-43.333 37.333 -83.666 77.333 -120.999 120c-25.333 -26.667 -38 -53.667 -38 -81c0 -44 24.667 -66 74 -66zM219.001 500.001
c0 -19.333 8.33203 -43.667 24.999 -73c24.667 17.333 43.334 32.5 56.001 45.5s19 26.5 19 40.5c0 26.667 -15.667 40 -47 40c-35.333 0 -53 -17.667 -53 -53z" />
    <glyph glyph-name="question.sc" horiz-adv-x="439" 
d="M410 493c0 -85.333 -47.668 -154.333 -143.001 -207l-6 -96h-106l-8 147c40.667 22 71 43.167 91 63.5s30 43.5 30 69.5c0 39.333 -25.667 59 -77 59c-47.333 0 -88 -15 -122 -45l-49 110c48 42 112 63 192 63c64.667 0 113.834 -14.5 147.501 -43.5
s50.5 -69.167 50.5 -120.5zM283.999 58c0 -45.333 -25.333 -68 -76 -68c-26.667 0 -46 5.33301 -58 16s-18 28 -18 52c0 46.667 25.333 70 76 70s76 -23.333 76 -70z" />
    <glyph glyph-name="grave.sc" 
d="M279 685h-107l-116 126h163z" />
    <glyph glyph-name="a.sc" horiz-adv-x="622" 
d="M450 0l-34 125h-220l-34 -125h-156l214 649h178l218 -649h-166zM306 528l-20 -79l-55 -200h151l-54 200l-19 79h-3z" />
    <glyph glyph-name="b.sc" horiz-adv-x="576" 
d="M549 190c0 -126.667 -76.333 -190 -229 -190h-260v649h257c68.667 0 120.667 -14.667 156 -44s53 -70.333 53 -123c0 -68 -28 -113.667 -84 -137v-2c71.333 -22 107 -73 107 -153zM401 200c0 26.667 -6.33301 46 -19 58s-34 18 -64 18h-117v-153h121
c28.667 0 49 5.5 61 16.5s18 31.167 18 60.5zM385 456c0 24.667 -5.66699 42 -17 52s-30 15 -56 15h-110v-137h113c24.667 0 42.5 5.33301 53.5 16s16.5 28.667 16.5 54z" />
    <glyph glyph-name="c.sc" horiz-adv-x="499" 
d="M469 634l-15.001 -128.999c-36 14.667 -76.667 22 -122 22c-56 0 -94.667 -14.167 -116 -42.5s-32 -80.5 -32 -156.5c0 -80 10.833 -134.833 32.5 -164.5s61.167 -44.5 118.5 -44.5c42.667 0 83 8.33301 121 25l15 -122c-46 -22 -98.333 -33 -157 -33
c-96 0 -167.5 27.667 -214.5 83s-70.5 140.666 -70.5 255.999c0 110.667 23.833 193.667 71.5 249s121.834 83 222.501 83c51.333 0 100 -8.66699 146 -26z" />
    <glyph glyph-name="d.sc" horiz-adv-x="610" 
d="M581 327c0 -115.333 -23.001 -198.667 -69.001 -250s-117.333 -77 -214 -77h-238v649h236c100.667 0 173.334 -25.333 218.001 -76s67 -132.667 67 -246zM426.999 328.999c0 74.667 -9.33301 124.5 -28 149.5s-53 37.5 -103 37.5h-89v-384h89c50 0 84.333 12.667 103 38
s28 78.333 28 159z" />
    <glyph glyph-name="e.sc" horiz-adv-x="520" 
d="M207 130h286l-3 -130h-430v649h417l3 -132h-273v-125h229v-118h-229v-144z" />
    <glyph glyph-name="f.sc" horiz-adv-x="504" 
d="M480 514h-273v-135h233l-1 -128h-232v-251h-147v649h417z" />
    <glyph glyph-name="g.sc" horiz-adv-x="563" 
d="M520 350l-0.00195312 -326.001c-51.333 -24 -114.666 -36 -189.999 -36c-106.667 0 -183.5 27.5 -230.5 82.5s-70.5 139.5 -70.5 253.5c0 114.667 24.5 199.334 73.5 254.001s126.5 82 232.5 82c66 0 124.333 -9.66699 175 -29l-14 -129c-47.333 18 -98.333 27 -153 27
c-61.333 0 -103.166 -14.333 -125.499 -43s-33.5 -82 -33.5 -160c0 -80 10.167 -134 30.5 -162s57.5 -42 111.5 -42c24 0 45 2.33301 63 7v221h131z" />
    <glyph glyph-name="h.sc" horiz-adv-x="626" 
d="M566 0h-148v264h-211v-264h-147v649h147v-251h211v251h148v-649z" />
    <glyph glyph-name="i.sc" horiz-adv-x="286" 
d="M67 0v649h151v-649h-151z" />
    <glyph glyph-name="j.sc" horiz-adv-x="414" 
d="M361 649v-425c0 -82.667 -18.5 -142.667 -55.5 -180s-90.5 -56 -160.5 -56c-49.333 0 -90.333 8.66699 -123 26l9 125c22 -14 50.333 -21 85 -21c35.333 0 59.833 8 73.5 24s20.5 43.333 20.5 82v425h151z" />
    <glyph glyph-name="k.sc" horiz-adv-x="608" 
d="M598 0h-177l-152 272h-62v-272h-147v649h146v-256h67l148 256h167l-183 -309z" />
    <glyph glyph-name="l.sc" horiz-adv-x="480" 
d="M208 134h255l-3 -134h-400v649h148v-515z" />
    <glyph glyph-name="m.sc" horiz-adv-x="779" 
d="M60 649h162l138 -359l28 -76h3l27 76l139 359h163v-649h-135v337l2 81l-3 1l-26 -77l-123 -342h-96l-122 335l-26 77l-2 -1l1 -81v-330h-130v649z" />
    <glyph glyph-name="n.sc" horiz-adv-x="631" 
d="M571 0h-118l-220 348l-42 70l-2 -1l1 -81v-336h-130v649h124l256 -401l2 1l-2 80v320h131v-649z" />
    <glyph glyph-name="o.sc" horiz-adv-x="617" 
d="M588 324c0 -118.667 -21.832 -204.167 -65.499 -256.5s-114.834 -78.5 -213.501 -78.5c-97.333 0 -168.333 26.667 -213 80s-67 138.333 -67 255c0 117.333 22 202.5 66 255.5s115.333 79.5 214 79.5c98 0 169 -26.5 213 -79.5s66 -138.167 66 -255.5zM433.001 324
c0 80.667 -8.66797 134.5 -26.001 161.5s-50 40.5 -98 40.5s-80.833 -13.667 -98.5 -41s-26.5 -81 -26.5 -161s9 -133.833 27 -161.5s51 -41.5 99 -41.5c46.667 0 78.834 14 96.501 42s26.5 81.667 26.5 161z" />
    <glyph glyph-name="p.sc" horiz-adv-x="564" 
d="M537 426c0 -71.333 -19.833 -125.167 -59.5 -161.5s-103.167 -54.5 -190.5 -54.5h-80v-210h-147v649h227c88 0 151.667 -17.833 191 -53.5s59 -92.167 59 -169.5zM384 426.999c0 37.333 -7 62.833 -21 76.5s-39.667 20.5 -77 20.5h-80v-194h81c36 0 61.167 6.5 75.5 19.5
s21.5 38.833 21.5 77.5z" />
    <glyph glyph-name="q.sc" horiz-adv-x="624" 
d="M592 324c0 -89.333 -12.167 -159.499 -36.5 -210.499s-62.5 -86.167 -114.5 -105.5l111 -101l-164 -29l-96 112c-90 3.33301 -155.667 31.666 -197 84.999s-62 136.333 -62 249c0 117.333 22 202.5 66 255.5s115.333 79.5 214 79.5c98 0 169 -26.5 213 -79.5
s66 -138.167 66 -255.5zM437 324.001c0 80.667 -8.66797 134.5 -26.001 161.5s-50 40.5 -98 40.5s-80.833 -13.667 -98.5 -41s-26.5 -81 -26.5 -161s9 -133.833 27 -161.5s51 -41.5 99 -41.5c46.667 0 78.834 14 96.501 42s26.5 81.667 26.5 161z" />
    <glyph glyph-name="r.sc" horiz-adv-x="582" 
d="M530 446c0 -44.667 -9.00098 -82.333 -27.001 -113s-43.333 -51.667 -76 -63l144 -270h-172l-108 241h-84v-241h-147v649h230c80.667 0 140.834 -16.5 180.501 -49.5s59.5 -84.167 59.5 -153.5zM375.999 440.001c0 32 -6.16699 54.167 -18.5 66.5s-34.5 18.5 -66.5 18.5
h-84v-172h83c32 0 54.333 6 67 18s19 35 19 69z" />
    <glyph glyph-name="s.sc" horiz-adv-x="491" 
d="M466 194c0 -64 -20.832 -114.166 -62.499 -150.499s-99.5 -54.5 -173.5 -54.5c-75.333 0 -140.666 15.667 -195.999 47l20 127c56 -30.667 114 -46 174 -46c64 0 96 22.667 96 68c0 15.333 -7.16699 28.666 -21.5 39.999s-32 20.5 -53 27.5s-44 16 -69 27s-48 23 -69 36
s-38.667 32 -53 57s-21.5 54.5 -21.5 88.5c0 58.667 19.167 106.334 57.5 143.001s95.833 55 172.5 55c68.667 0 127.667 -11 177 -33l-17 -125c-56 18 -106.667 27 -152 27c-64.667 0 -97 -20 -97 -60c0 -15.333 7.16699 -28.5 21.5 -39.5s32.166 -19.833 53.499 -26.5
s44.333 -15.334 69 -26.001s47.667 -22.5 69 -35.5s39.166 -32.167 53.499 -57.5s21.5 -55 21.5 -89z" />
    <glyph glyph-name="t.sc" horiz-adv-x="505" 
d="M494 516h-167v-516h-150v516h-167l3 133h478z" />
    <glyph glyph-name="u.sc" horiz-adv-x="617" 
d="M564 649v-421c0 -160 -85 -240 -255 -240c-170.667 0 -256 80 -256 240v421h147v-419c0 -37.333 8.66699 -64.5 26 -81.5s45 -25.5 83 -25.5s65.5 8.5 82.5 25.5s25.5 44.167 25.5 81.5v419h147z" />
    <glyph glyph-name="v.sc" horiz-adv-x="604" 
d="M444 649h153l-212 -649h-166l-212 649h163l115 -429l20 -78h3l19 78z" />
    <glyph glyph-name="w.sc" horiz-adv-x="879" 
d="M363 649h159l87 -433l15 -79h3l11 80l72 432h147l-147 -649h-177l-79 417l-13 81h-3l-14 -81l-77 -417h-177l-147 649h154l71 -434l12 -80h3l14 79z" />
    <glyph glyph-name="x.sc" horiz-adv-x="605" 
d="M581 649l-173 -310l180 -339h-168l-82 172l-33 74h-3l-33 -74l-80 -172h-171l176 336l-172 313h175l72 -146l34 -73h3l34 73l72 146h169z" />
    <glyph glyph-name="y.sc" horiz-adv-x="594" 
d="M7 649h166l98 -242l29 -75h3l27 75l96 242h161l-212 -444v-205h-152v205z" />
    <glyph glyph-name="z.sc" horiz-adv-x="526" 
d="M490 0h-458v97l235 351l45 64l-1 2h-272l5 135h445v-108l-228 -341l-46 -63l1 -3h276z" />
    <glyph glyph-name="exclamdown.sc" horiz-adv-x="278" 
d="M81 441h116l18 -532h-152zM55 593c0 49.333 27.333 74 82 74c28.667 0 49.5 -5.83301 62.5 -17.5s19.5 -30.5 19.5 -56.5c0 -51.333 -27.333 -77 -82 -77s-82 25.667 -82 77z" />
    <glyph glyph-name="dieresis.sc" 
d="M166 751c0 -36.667 -20 -55 -60 -55c-20.667 0 -36 4.33301 -46 13s-15 22.667 -15 42c0 37.333 20.333 56 61 56c40 0 60 -18.667 60 -56zM341 751c0 -36.667 -20 -55 -60 -55c-20.667 0 -36 4.33301 -46 13s-15 22.667 -15 42c0 37.333 20.333 56 61 56
c40 0 60 -18.667 60 -56z" />
    <glyph glyph-name="macron.sc" 
d="M342 785v-82h-298v82h298z" />
    <glyph glyph-name="acute.sc" 
d="M201 811h175l-136 -126h-118z" />
    <glyph glyph-name="cedilla.sc" 
d="M102 -186l68 200l96 1l-33 -201h-131z" />
    <glyph glyph-name="questiondown.sc" horiz-adv-x="467" 
d="M29 85c0 98.667 52.001 179.002 156.001 241.002l6 115h112l8 -168c-44.667 -28.667 -78 -55.334 -100 -80.001s-33 -52.334 -33 -83.001c0 -47.333 29 -71 87 -71c51.333 0 95.666 17 132.999 51l51 -119c-23.333 -21.333 -53.333 -38.5 -90 -51.5
s-75.667 -19.5 -117 -19.5c-70 0 -123 16.333 -159 49s-54 78 -54 136zM165.001 593.002c0 23.333 6.83301 41.667 20.5 55s34.167 20 61.5 20c28.667 0 49.667 -6 63 -18s20 -31 20 -57c0 -51.333 -27.667 -77 -83 -77c-54.667 0 -82 25.667 -82 77z" />
    <glyph glyph-name="germandbls.sc" horiz-adv-x="700" 
d="M563 395l-216 -215l-215 215l215 216zM552 395l-205 205l-51 -51l51 -51l-102 -103l51 -51l103 103l51 -52l-103 -102l52 -51z" />
    <glyph glyph-name="agrave.sc" horiz-adv-x="622" 
d="M450 0l-34 125h-220l-34 -125h-156l214 649h178l218 -649h-166zM306 528l-20 -79l-55 -200h151l-54 200l-19 79h-3zM388 685h-107l-116 126h163z" />
    <glyph glyph-name="aacute.sc" horiz-adv-x="622" 
d="M450 0l-34 125h-220l-34 -125h-156l214 649h178l218 -649h-166zM306 528l-20 -79l-55 -200h151l-54 200l-19 79h-3zM315 811h175l-136 -126h-118z" />
    <glyph glyph-name="acircumflex.sc" horiz-adv-x="622" 
d="M450 0l-34 125h-220l-34 -125h-156l214 649h178l218 -649h-166zM306 528l-20 -79l-55 -200h151l-54 200l-19 79h-3zM244 811h123l95 -126h-109l-46 72l-47 -72h-108z" />
    <glyph glyph-name="atilde.sc" horiz-adv-x="622" 
d="M450 0l-34 125h-220l-34 -125h-156l214 649h178l218 -649h-166zM306 528l-20 -79l-55 -200h151l-54 200l-19 79h-3zM219 709l-66.001 0.998047c2 32.667 11.5 59.334 28.5 80.001s39.5 31 67.5 31c22.667 0 46 -7.16699 70 -21.5s41.667 -21.5 53 -21.5
c15.333 0 26.333 10.667 33 32h65c-1.33301 -33.333 -10.666 -60.166 -27.999 -80.499s-40 -30.5 -68 -30.5c-22 0 -45.167 7.16699 -69.5 21.5s-41.833 21.5 -52.5 21.5c-16.667 0 -27.667 -11 -33 -33z" />
    <glyph glyph-name="adieresis.sc" horiz-adv-x="622" 
d="M450 0l-34 125h-220l-34 -125h-156l214 649h178l218 -649h-166zM306 528l-20 -79l-55 -200h151l-54 200l-19 79h-3zM280 751c0 -36.667 -20 -55 -60 -55c-20.667 0 -36 4.33301 -46 13s-15 22.667 -15 42c0 37.333 20.333 56 61 56c40 0 60 -18.667 60 -56zM455 751
c0 -36.667 -20 -55 -60 -55c-20.667 0 -36 4.33301 -46 13s-15 22.667 -15 42c0 37.333 20.333 56 61 56c40 0 60 -18.667 60 -56z" />
    <glyph glyph-name="aring.sc" horiz-adv-x="622" 
d="M182 709c0 62.667 42 94 126 94c42 0 73.667 -8.33301 95 -25s32 -39.667 32 -69c0 -32.667 -11 -56.667 -33 -72l214 -637h-166l-34 125h-220l-34 -125h-156l209 636c-22 14.667 -33 39 -33 73zM306 528l-20 -79l-55 -200h151l-54 200l-19 79h-3zM259 709
c0 -22 17 -33 51 -33c33.333 0 50 11 50 33s-16.667 33 -50 33c-34 0 -51 -11 -51 -33z" />
    <glyph glyph-name="ae.sc" horiz-adv-x="880" 
d="M843 517h-273l7 -125h219v-118h-212l8 -144h261l-3 -130h-401l-7 125h-209l-56 -125h-175l334 649h504zM418 537l-32 -75l-97 -214h146l-12 207l-2 81z" />
    <glyph glyph-name="ccedilla.sc" horiz-adv-x="499" 
d="M179 -186l60.999 181.999c-140.667 24.667 -211 135.334 -211 332.001c0 110.667 23.833 193.667 71.5 249s121.834 83 222.501 83c51.333 0 100 -8.66699 146 -26l-15 -129c-36 14.667 -76.667 22 -122 22c-56 0 -94.667 -14.167 -116 -42.5s-32 -80.5 -32 -156.5
c0 -80 10.833 -134.833 32.5 -164.5s61.167 -44.5 118.5 -44.5c42.667 0 83 8.33301 121 25l15 -122c-38.667 -18 -82.667 -28.667 -132 -32l-29 -176h-131z" />
    <glyph glyph-name="egrave.sc" horiz-adv-x="520" 
d="M207 130h286l-3 -130h-430v649h417l3 -132h-273v-125h229v-118h-229v-144zM359 685h-107l-116 126h163z" />
    <glyph glyph-name="eacute.sc" horiz-adv-x="520" 
d="M207 130h286l-3 -130h-430v649h417l3 -132h-273v-125h229v-118h-229v-144zM286 811h175l-136 -126h-118z" />
    <glyph glyph-name="ecircumflex.sc" horiz-adv-x="520" 
d="M207 130h286l-3 -130h-430v649h417l3 -132h-273v-125h229v-118h-229v-144zM215 811h123l95 -126h-109l-46 72l-47 -72h-108z" />
    <glyph glyph-name="edieresis.sc" horiz-adv-x="520" 
d="M207 130h286l-3 -130h-430v649h417l3 -132h-273v-125h229v-118h-229v-144zM252 751c0 -36.667 -20 -55 -60 -55c-20.667 0 -36 4.33301 -46 13s-15 22.667 -15 42c0 37.333 20.333 56 61 56c40 0 60 -18.667 60 -56zM427 751c0 -36.667 -20 -55 -60 -55
c-20.667 0 -36 4.33301 -46 13s-15 22.667 -15 42c0 37.333 20.333 56 61 56c40 0 60 -18.667 60 -56z" />
    <glyph glyph-name="igrave.sc" horiz-adv-x="286" 
d="M67 0v649h151v-649h-151zM222 685h-107l-116 126h163z" />
    <glyph glyph-name="iacute.sc" horiz-adv-x="286" 
d="M67 0v649h151v-649h-151zM148 811h175l-136 -126h-118z" />
    <glyph glyph-name="icircumflex.sc" horiz-adv-x="286" 
d="M67 0v649h151v-649h-151zM78 811h123l95 -126h-109l-46 72l-47 -72h-108z" />
    <glyph glyph-name="idieresis.sc" horiz-adv-x="286" 
d="M67 0v649h151v-649h-151zM114 751c0 -36.667 -20 -55 -60 -55c-20.667 0 -36 4.33301 -46 13s-15 22.667 -15 42c0 37.333 20.333 56 61 56c40 0 60 -18.667 60 -56zM289 751c0 -36.667 -20 -55 -60 -55c-20.667 0 -36 4.33301 -46 13s-15 22.667 -15 42
c0 37.333 20.333 56 61 56c40 0 60 -18.667 60 -56z" />
    <glyph glyph-name="eth.sc" horiz-adv-x="620" 
d="M591 327c0 -115.333 -23.001 -198.667 -69.001 -250s-117.333 -77 -214 -77h-238v286h-59v104h59v259h236c100.667 0 173.334 -25.333 218.001 -76s67 -132.667 67 -246zM436.999 328.999c0 74.667 -9.33301 124.5 -28 149.5s-53 37.5 -103 37.5h-89v-126h90v-104h-90
v-154h89c50 0 84.333 12.667 103 38s28 78.333 28 159z" />
    <glyph glyph-name="ntilde.sc" horiz-adv-x="631" 
d="M571 0h-118l-220 348l-42 70l-2 -1l1 -81v-336h-130v649h124l256 -401l2 1l-2 80v320h131v-649zM223 709l-66.001 0.998047c2 32.667 11.5 59.334 28.5 80.001s39.5 31 67.5 31c22.667 0 46 -7.16699 70 -21.5s41.667 -21.5 53 -21.5c15.333 0 26.333 10.667 33 32h65
c-1.33301 -33.333 -10.666 -60.166 -27.999 -80.499s-40 -30.5 -68 -30.5c-22 0 -45.167 7.16699 -69.5 21.5s-41.833 21.5 -52.5 21.5c-16.667 0 -27.667 -11 -33 -33z" />
    <glyph glyph-name="ograve.sc" horiz-adv-x="617" 
d="M588 324c0 -118.667 -21.832 -204.167 -65.499 -256.5s-114.834 -78.5 -213.501 -78.5c-97.333 0 -168.333 26.667 -213 80s-67 138.333 -67 255c0 117.333 22 202.5 66 255.5s115.333 79.5 214 79.5c98 0 169 -26.5 213 -79.5s66 -138.167 66 -255.5zM433.001 324
c0 80.667 -8.66797 134.5 -26.001 161.5s-50 40.5 -98 40.5s-80.833 -13.667 -98.5 -41s-26.5 -81 -26.5 -161s9 -133.833 27 -161.5s51 -41.5 99 -41.5c46.667 0 78.834 14 96.501 42s26.5 81.667 26.5 161zM389 685h-107l-116 126h163z" />
    <glyph glyph-name="oacute.sc" horiz-adv-x="617" 
d="M588 324c0 -118.667 -21.832 -204.167 -65.499 -256.5s-114.834 -78.5 -213.501 -78.5c-97.333 0 -168.333 26.667 -213 80s-67 138.333 -67 255c0 117.333 22 202.5 66 255.5s115.333 79.5 214 79.5c98 0 169 -26.5 213 -79.5s66 -138.167 66 -255.5zM433.001 324
c0 80.667 -8.66797 134.5 -26.001 161.5s-50 40.5 -98 40.5s-80.833 -13.667 -98.5 -41s-26.5 -81 -26.5 -161s9 -133.833 27 -161.5s51 -41.5 99 -41.5c46.667 0 78.834 14 96.501 42s26.5 81.667 26.5 161zM316 811h175l-136 -126h-118z" />
    <glyph glyph-name="ocircumflex.sc" horiz-adv-x="617" 
d="M588 324c0 -118.667 -21.832 -204.167 -65.499 -256.5s-114.834 -78.5 -213.501 -78.5c-97.333 0 -168.333 26.667 -213 80s-67 138.333 -67 255c0 117.333 22 202.5 66 255.5s115.333 79.5 214 79.5c98 0 169 -26.5 213 -79.5s66 -138.167 66 -255.5zM433.001 324
c0 80.667 -8.66797 134.5 -26.001 161.5s-50 40.5 -98 40.5s-80.833 -13.667 -98.5 -41s-26.5 -81 -26.5 -161s9 -133.833 27 -161.5s51 -41.5 99 -41.5c46.667 0 78.834 14 96.501 42s26.5 81.667 26.5 161zM245 811h123l95 -126h-109l-46 72l-47 -72h-108z" />
    <glyph glyph-name="otilde.sc" horiz-adv-x="617" 
d="M588 324c0 -118.667 -21.832 -204.167 -65.499 -256.5s-114.834 -78.5 -213.501 -78.5c-97.333 0 -168.333 26.667 -213 80s-67 138.333 -67 255c0 117.333 22 202.5 66 255.5s115.333 79.5 214 79.5c98 0 169 -26.5 213 -79.5s66 -138.167 66 -255.5zM433.001 324
c0 80.667 -8.66797 134.5 -26.001 161.5s-50 40.5 -98 40.5s-80.833 -13.667 -98.5 -41s-26.5 -81 -26.5 -161s9 -133.833 27 -161.5s51 -41.5 99 -41.5c46.667 0 78.834 14 96.501 42s26.5 81.667 26.5 161zM220 709l-66.001 0.998047c2 32.667 11.5 59.334 28.5 80.001
s39.5 31 67.5 31c22.667 0 46 -7.16699 70 -21.5s41.667 -21.5 53 -21.5c15.333 0 26.333 10.667 33 32h65c-1.33301 -33.333 -10.666 -60.166 -27.999 -80.499s-40 -30.5 -68 -30.5c-22 0 -45.167 7.16699 -69.5 21.5s-41.833 21.5 -52.5 21.5
c-16.667 0 -27.667 -11 -33 -33z" />
    <glyph glyph-name="odieresis.sc" horiz-adv-x="617" 
d="M588 324c0 -118.667 -21.832 -204.167 -65.499 -256.5s-114.834 -78.5 -213.501 -78.5c-97.333 0 -168.333 26.667 -213 80s-67 138.333 -67 255c0 117.333 22 202.5 66 255.5s115.333 79.5 214 79.5c98 0 169 -26.5 213 -79.5s66 -138.167 66 -255.5zM433.001 324
c0 80.667 -8.66797 134.5 -26.001 161.5s-50 40.5 -98 40.5s-80.833 -13.667 -98.5 -41s-26.5 -81 -26.5 -161s9 -133.833 27 -161.5s51 -41.5 99 -41.5c46.667 0 78.834 14 96.501 42s26.5 81.667 26.5 161zM282 751c0 -36.667 -20 -55 -60 -55
c-20.667 0 -36 4.33301 -46 13s-15 22.667 -15 42c0 37.333 20.333 56 61 56c40 0 60 -18.667 60 -56zM457 751c0 -36.667 -20 -55 -60 -55c-20.667 0 -36 4.33301 -46 13s-15 22.667 -15 42c0 37.333 20.333 56 61 56c40 0 60 -18.667 60 -56z" />
    <glyph glyph-name="oslash.sc" horiz-adv-x="617" 
d="M99 -16l-67 57.001l43 59c-30 54 -45 128.667 -45 224c0 117.333 22 202.5 66 255.5s115.333 79.5 214 79.5c74 0 132.667 -15.333 176 -46l41 53l65 -59l-46 -62c28.667 -52.667 43 -126.334 43 -221.001c0 -118.667 -21.833 -204.167 -65.5 -256.5
s-114.834 -78.5 -213.501 -78.5c-73.333 0 -131.666 14.667 -174.999 44zM185 324.001c0 -44 1.66602 -77 4.99902 -99l2 -1l49 63l163 204c-17.333 23.333 -48.666 35 -93.999 35c-48 0 -80.833 -13.667 -98.5 -41s-26.5 -81 -26.5 -161zM433.999 324.001
c0 29.333 -1.33398 62 -4.00098 98l-2 1l-50 -64l-162 -202c18 -24 49.667 -36 95 -36c46.667 0 78.834 14 96.501 42s26.5 81.667 26.5 161z" />
    <glyph glyph-name="ugrave.sc" horiz-adv-x="617" 
d="M564 649v-421c0 -160 -85 -240 -255 -240c-170.667 0 -256 80 -256 240v421h147v-419c0 -37.333 8.66699 -64.5 26 -81.5s45 -25.5 83 -25.5s65.5 8.5 82.5 25.5s25.5 44.167 25.5 81.5v419h147zM390 685h-107l-116 126h163z" />
    <glyph glyph-name="uacute.sc" horiz-adv-x="617" 
d="M564 649v-421c0 -160 -85 -240 -255 -240c-170.667 0 -256 80 -256 240v421h147v-419c0 -37.333 8.66699 -64.5 26 -81.5s45 -25.5 83 -25.5s65.5 8.5 82.5 25.5s25.5 44.167 25.5 81.5v419h147zM316 811h175l-136 -126h-118z" />
    <glyph glyph-name="ucircumflex.sc" horiz-adv-x="617" 
d="M564 649v-421c0 -160 -85 -240 -255 -240c-170.667 0 -256 80 -256 240v421h147v-419c0 -37.333 8.66699 -64.5 26 -81.5s45 -25.5 83 -25.5s65.5 8.5 82.5 25.5s25.5 44.167 25.5 81.5v419h147zM246 811h123l95 -126h-109l-46 72l-47 -72h-108z" />
    <glyph glyph-name="udieresis.sc" horiz-adv-x="617" 
d="M564 649v-421c0 -160 -85 -240 -255 -240c-170.667 0 -256 80 -256 240v421h147v-419c0 -37.333 8.66699 -64.5 26 -81.5s45 -25.5 83 -25.5s65.5 8.5 82.5 25.5s25.5 44.167 25.5 81.5v419h147zM282 751c0 -36.667 -20 -55 -60 -55c-20.667 0 -36 4.33301 -46 13
s-15 22.667 -15 42c0 37.333 20.333 56 61 56c40 0 60 -18.667 60 -56zM457 751c0 -36.667 -20 -55 -60 -55c-20.667 0 -36 4.33301 -46 13s-15 22.667 -15 42c0 37.333 20.333 56 61 56c40 0 60 -18.667 60 -56z" />
    <glyph glyph-name="yacute.sc" horiz-adv-x="594" 
d="M7 649h166l98 -242l29 -75h3l27 75l96 242h161l-212 -444v-205h-152v205zM307 811h175l-136 -126h-118z" />
    <glyph glyph-name="thorn.sc" horiz-adv-x="567" 
d="M537 327c0 -72 -20.5 -126.166 -61.5 -162.499s-106.833 -54.5 -197.5 -54.5h-71v-110h-147v649h147v-100h71c92 0 158.167 -17.833 198.5 -53.5s60.5 -91.834 60.5 -168.501zM384 327.001c0 37.333 -7.5 62.833 -22.5 76.5s-42.833 20.5 -83.5 20.5h-72v-194h72
c40 0 67.667 6.5 83 19.5s23 38.833 23 77.5z" />
    <glyph glyph-name="ydieresis.sc" horiz-adv-x="594" 
d="M7 649h166l98 -242l29 -75h3l27 75l96 242h161l-212 -444v-205h-152v205zM273 751c0 -36.667 -20 -55 -60 -55c-20.667 0 -36 4.33301 -46 13s-15 22.667 -15 42c0 37.333 20.333 56 61 56c40 0 60 -18.667 60 -56zM448 751c0 -36.667 -20 -55 -60 -55
c-20.667 0 -36 4.33301 -46 13s-15 22.667 -15 42c0 37.333 20.333 56 61 56c40 0 60 -18.667 60 -56z" />
    <glyph glyph-name="dotlessi.sc" horiz-adv-x="286" 
d="M67 0v649h151v-649h-151z" />
    <glyph glyph-name="ij.sc" horiz-adv-x="701" 
d="M648 649v-425c0 -82.667 -18.5 -142.667 -55.5 -180s-90.5 -56 -160.5 -56c-49.333 0 -90.333 8.66699 -123 26l9 125c22 -14 50.333 -21 85 -21c35.333 0 59.833 8 73.5 24s20.5 43.333 20.5 82v425h151zM67 0v649h151v-649h-151z" />
    <glyph glyph-name="lslash.sc" horiz-adv-x="505" 
d="M233 134h255l-3 -134h-400v252l-63 -27l-8 121l71 31v272h148v-216l160 69l9 -125l-169 -70v-173z" />
    <glyph glyph-name="oe.sc" horiz-adv-x="872" 
d="M842 0h-408.001v51l-2 1c-36 -42 -88.667 -63 -158 -63c-82 0 -143.333 26.833 -184 80.5s-61 138.5 -61 254.5c0 117.333 20.167 202.5 60.5 255.5s102.833 79.5 187.5 79.5c66.667 0 118.334 -18 155.001 -54l2 1v43h396l2 -134h-265v-121h222v-121h-222v-141h278z
M423.999 324c0 80 -8.5 133.334 -25.5 160.001s-48.833 40 -95.5 40c-46 0 -77.5 -13.5 -94.5 -40.5s-25.5 -80.167 -25.5 -159.5c0 -80 8.66699 -133.5 26 -160.5s49 -40.5 95 -40.5s77.5 13.667 94.5 41s25.5 80.666 25.5 159.999z" />
    <glyph glyph-name="scaron.sc" horiz-adv-x="491" 
d="M466 194c0 -64 -20.832 -114.166 -62.499 -150.499s-99.5 -54.5 -173.5 -54.5c-75.333 0 -140.666 15.667 -195.999 47l20 127c56 -30.667 114 -46 174 -46c64 0 96 22.667 96 68c0 15.333 -7.16699 28.666 -21.5 39.999s-32 20.5 -53 27.5s-44 16 -69 27s-48 23 -69 36
s-38.667 32 -53 57s-21.5 54.5 -21.5 88.5c0 58.667 19.167 106.334 57.5 143.001s95.833 55 172.5 55c68.667 0 127.667 -11 177 -33l-17 -125c-56 18 -106.667 27 -152 27c-64.667 0 -97 -20 -97 -60c0 -15.333 7.16699 -28.5 21.5 -39.5s32.166 -19.833 53.499 -26.5
s44.333 -15.334 69 -26.001s47.667 -22.5 69 -35.5s39.166 -32.167 53.499 -57.5s21.5 -55 21.5 -89zM320.001 685.001h-125l-92 126h109l46 -77l46 77h110z" />
    <glyph glyph-name="zcaron.sc" horiz-adv-x="526" 
d="M490 0h-458v97l235 351l45 64l-1 2h-272l5 135h445v-108l-228 -341l-46 -63l1 -3h276zM329 685h-125l-92 126h109l46 -77l46 77h110z" />
    <glyph glyph-name="circumflex.sc" 
d="M129 811h123l95 -126h-109l-46 72l-47 -72h-108z" />
    <glyph glyph-name="caron.sc" 
d="M255 685h-125l-92 126h109l46 -77l46 77h110z" />
    <glyph glyph-name="breve.sc" 
d="M241 811h97c0 -87.333 -49 -131 -147 -131s-147 43.667 -147 131h96c0 -42 17 -63 51 -63c33.333 0 50 21 50 63z" />
    <glyph glyph-name="dotaccent.sc" 
d="M269 749c0 -38 -25.333 -57 -76 -57c-50 0 -75 19 -75 57s25 57 75 57c50.667 0 76 -19 76 -57z" />
    <glyph glyph-name="ring.sc" 
d="M67 739c0 62.667 42 94 126 94c42 0 73.667 -8.33301 95 -25s32 -39.667 32 -69c0 -62.667 -42.333 -94 -127 -94c-84 0 -126 31.333 -126 94zM144 739c0 -22 17 -33 51 -33c33.333 0 50 11 50 33s-16.667 33 -50 33c-34 0 -51 -11 -51 -33z" />
    <glyph glyph-name="ogonek.sc" 
d="M246 20l55.001 -20c-16 0 -29.5 -5.5 -40.5 -16.5s-16.5 -23.5 -16.5 -37.5c0 -24.667 16 -37 48 -37c16 0 31 3.33301 45 10l12 -78c-28.667 -16 -61.334 -24 -98.001 -24c-38 0 -67.167 8 -87.5 24s-30.5 36.667 -30.5 62c0 60 37.667 99 113 117z" />
    <glyph glyph-name="tilde.sc" 
d="M104 709l-66.001 0.998047c2 32.667 11.5 59.334 28.5 80.001s39.5 31 67.5 31c22.667 0 46 -7.16699 70 -21.5s41.667 -21.5 53 -21.5c15.333 0 26.333 10.667 33 32h65c-1.33301 -33.333 -10.666 -60.166 -27.999 -80.499s-40 -30.5 -68 -30.5
c-22 0 -45.167 7.16699 -69.5 21.5s-41.833 21.5 -52.5 21.5c-16.667 0 -27.667 -11 -33 -33z" />
    <glyph glyph-name="hungarumlaut.sc" 
d="M119 811h144l-103 -126h-91zM301 811h147l-117 -126h-102z" />
    <glyph glyph-name="fi.sc" horiz-adv-x="700" 
d="M563 395l-216 -215l-215 215l215 216zM552 395l-205 205l-51 -51l51 -51l-102 -103l51 -51l103 103l51 -52l-103 -102l52 -51z" />
    <glyph glyph-name="fl.sc" horiz-adv-x="700" 
d="M563 395l-216 -215l-215 215l215 216zM552 395l-205 205l-51 -51l51 -51l-102 -103l51 -51l103 103l51 -52l-103 -102l52 -51z" />
    <glyph glyph-name="dollar.subs" horiz-adv-x="309" 
d="M148 308h77l-6 -70c24 -4 45.333 -9.33301 64 -16l-12 -83c-32 9.33301 -61.333 14 -88 14c-36 0 -54 -8.66699 -54 -26c0 -10 8.66699 -18.667 26 -26s36.5 -13.666 57.5 -18.999s40.167 -16.833 57.5 -34.5s26 -41.167 26 -70.5c0 -30.667 -8.5 -56.334 -25.5 -77.001
s-41.5 -34 -73.5 -40l-4 -64h-77l4 62c-34.667 4.66699 -63.667 13.334 -87 26.001l13 86c35.333 -19.333 69 -29 101 -29c36 0 54 10 54 30c0 10 -8.66699 18.667 -26 26s-36.5 13.666 -57.5 18.999s-40.167 17 -57.5 35s-26 41.333 -26 70c0 30 8.83301 55.5 26.5 76.5
s44.5 34.5 80.5 40.5z" />
    <glyph glyph-name="comma.subs" horiz-adv-x="161" 
d="M78 -55c37.333 0 56 -19.333 56 -58c0 -15.333 -5.66699 -34.833 -17 -58.5s-24 -43.5 -38 -59.5l-36 7l15 67c-22.667 10 -34 26 -34 48c0 36 18 54 54 54z" />
    <glyph glyph-name="period.subs" horiz-adv-x="161" 
d="M137 -105c0 -34.667 -18.667 -52 -56 -52c-20 0 -34.5 4 -43.5 12s-13.5 21.333 -13.5 40c0 35.333 19 53 57 53c37.333 0 56 -17.667 56 -53z" />
    <glyph glyph-name="cent.subs" horiz-adv-x="309" 
d="M288 223l-6 -81c-20 6.66699 -41 10 -63 10c-33.333 0 -56.333 -7.33301 -69 -22s-19 -40.667 -19 -78c0 -68.667 28.667 -103 86 -103c23.333 0 46 4.33301 68 13l7 -75c-19.333 -11.333 -42 -18.333 -68 -21l-4 -70h-79l5 73c-80.667 16 -121 77.333 -121 184
c0 112 46.333 173.667 139 185l6 71h79l-6 -73c14.667 -2.66699 29.667 -7 45 -13z" />
    <glyph glyph-name="dollar.sups" horiz-adv-x="309" 
d="M148 945l77 -0.000976562l-6 -71c19.333 -2.66699 40.666 -8 63.999 -16l-12 -83c-34 10 -63.333 15 -88 15c-36 0 -54 -9 -54 -27c0 -10 8.66699 -18.5 26 -25.5s36.5 -13.167 57.5 -18.5s40.167 -16.833 57.5 -34.5s26 -41.167 26 -70.5
c0 -65.333 -33 -104.666 -99 -117.999l-4 -64h-77l4 63c-32.667 3.33301 -61.667 12 -87 26l13 85c34.667 -18.667 68.334 -28 101.001 -28c36 0 54 9.66699 54 29c0 10 -8.66699 18.667 -26 26s-36.5 13.833 -57.5 19.5s-40.167 17.5 -57.5 35.5s-26 41.333 -26 70
c0 30 8.83301 55.5 26.5 76.5s44.5 34.167 80.5 39.5z" />
    <glyph glyph-name="comma.sups" horiz-adv-x="161" 
d="M78 582c37.333 0 56 -19.667 56 -59c0 -14.667 -5.83301 -34 -17.5 -58s-24.167 -44 -37.5 -60l-36 8l15 66c-22.667 11.333 -34 27.333 -34 48c0 36.667 18 55 54 55z" />
    <glyph glyph-name="period.sups" horiz-adv-x="161" 
d="M137 531c0 -34 -18.667 -51.001 -56 -51.001c-20 0 -34.5 3.83301 -43.5 11.5s-13.5 20.834 -13.5 39.501c0 35.333 19 53 57 53c37.333 0 56 -17.667 56 -53z" />
    <glyph glyph-name="cent.sups" horiz-adv-x="309" 
d="M288 860l-6.00098 -82c-22 7.33301 -43 11 -63 11c-33.333 0 -56.333 -7.33301 -69 -22s-19 -40.667 -19 -78c0 -69.333 28.667 -104 86 -104c20.667 0 43.334 4.33301 68.001 13l7 -75c-17.333 -11.333 -40 -18.333 -68 -21l-4 -70h-79l5 73
c-80.667 16 -121 77.333 -121 184c0 112 46.333 173.667 139 185l6 71h79l-6 -73c18 -3.33301 33 -7.33301 45 -12z" />
    <glyph glyph-name="numbersign.tf" horiz-adv-x="589" 
d="M49 303h87l18 139h-104v113h115l22 195h115l-22 -195h78l21 195h114l-23 -195h72v-113h-84l-16 -139h100v-116h-112l-21 -187h-113l21 187h-79l-21 -187h-114l21 187h-75v116zM268 442l-18 -139h79l17 139h-78z" />
    <glyph glyph-name="dollar.tf" horiz-adv-x="589" 
d="M282 -80l-79.0029 5.99902l8 66c-62.667 8 -111.334 22.333 -146.001 43c1.33301 8.66699 4 28.834 8 60.501s7.66699 57.5 11 77.5c41.333 -24.667 89.333 -42.334 144 -53.001l26 195c-27.333 11.333 -50.5 22.5 -69.5 33.5s-38.667 25.333 -59 43
s-35.666 39.167 -45.999 64.5s-15.5 54.333 -15.5 87c0 70 21 123.5 63 160.5s104 56.167 186 57.5l9 63l87 -6l-9 -63c40 -5.33301 73 -13.666 99 -24.999l-9 -133c-35.333 10.667 -71.666 18 -108.999 22l-25 -174c25.333 -10 47.333 -20.5 66 -31.5
s37.334 -25.167 56.001 -42.5s32.834 -38.833 42.501 -64.5s14.5 -55.167 14.5 -88.5c0 -77.333 -19.667 -134.833 -59 -172.5s-101 -57.167 -185 -58.5zM416.997 197.999c0 18.667 -7 34.5 -21 47.5s-35 25.833 -63 38.5l-24 -170c72 2.66699 108 30.667 108 84z
M194.997 549.999c0 -17.333 6.83301 -31.666 20.5 -42.999s33.5 -22 59.5 -32l20 149c-66.667 -2.66699 -100 -27.334 -100 -74.001z" />
    <glyph glyph-name="cent.tf" horiz-adv-x="589" 
d="M470 591l-7.99902 -127.002c-32.667 12 -63.334 18 -92.001 18c-50.667 0 -86.167 -13.167 -106.5 -39.5s-30.5 -73.166 -30.5 -140.499c0 -65.333 11.167 -112.666 33.5 -141.999s55.833 -44 100.5 -44c36 0 68.667 7.33301 98 22l10 -117
c-25.333 -16.667 -60 -27 -104 -31l-7 -117h-111l7 123c-118.667 27.333 -178 129.333 -178 306c0 186.667 67.667 290 203 310l9 114h110l-9 -115c30 -4 55 -10.667 75 -20z" />
    <glyph glyph-name="sterling.tf" horiz-adv-x="589" 
d="M66 312l-5.99805 117h48c-16.667 48.667 -25 88.667 -25 120c0 62.667 21.5 114 64.5 154s110.833 60 203.5 60c58.667 0 113.667 -10 165 -30l-18 -136c-42 16 -84.667 24 -128 24c-87.333 0 -131 -31.667 -131 -95c0 -26 6 -58.333 18 -97h218v-117h-190
c2 -14 3 -29 3 -45c0 -60 -22.333 -104.333 -67 -133l2 -3c46 12 101 18 165 18c51.333 0 104.666 -3.66699 159.999 -11c0 -0.666992 -1 -24.5 -3 -71.5s-3.33301 -71.5 -4 -73.5c-80 9.33301 -153.667 14 -221 14c-84.667 0 -171.334 -4 -260.001 -12l-9 140
c27.333 6 49.5 21 66.5 45s25.5 51 25.5 81c0 18 -1 35 -3 51h-74z" />
    <glyph glyph-name="currency.tf" horiz-adv-x="589" 
d="M114 356c0 31.333 7 60 21 86l-64 66l75 81l68 -70c25.333 12.667 52 19 80 19s54.667 -6.33301 80 -19l69 70l75 -81l-66 -67c14 -28 21 -56.333 21 -85c0 -27.333 -5.66699 -53.333 -17 -78l61 -63l-75 -81l-62 62c-26 -14.667 -54.667 -22 -86 -22
c-30.667 0 -59.667 7.33301 -87 22l-62 -62l-75 81l61 62c-11.333 24.667 -17 51 -17 79zM208 358c0 -22.667 8.33301 -42 25 -58s36.667 -24 60 -24c24 0 44.333 8 61 24s25 35.333 25 58s-8.33301 42 -25 58s-37 24 -61 24c-23.333 0 -43.333 -8 -60 -24
s-25 -35.333 -25 -58z" />
    <glyph glyph-name="yen.tf" horiz-adv-x="589" 
d="M97 354h81l-160 396h171l86 -323l19 -78h3l18 78l86 323h169l-156 -396h86v-92h-120v-40h120v-91h-120v-131h-166v131h-117v91h117v40h-117v92z" />
    <glyph glyph-name="franc.tf" horiz-adv-x="589" 
d="M24 199h63v551h448l3 -147h-294v-158h225l-1 -140h-224v-106h69v-109h-69v-90h-157v90h-63v109z" />
    <glyph glyph-name="lira.tf" horiz-adv-x="589" 
d="M71 393l-4.99805 84.001h29c-6.66699 24.667 -10 48.667 -10 72c0 62.667 21.5 114 64.5 154s110.833 60 203.5 60c59.333 0 114 -10 164 -30l-17 -136c-42 16 -85 24 -129 24s-76.667 -9.5 -98 -28.5s-32 -43.833 -32 -74.5c0 -16 1.33301 -29.667 4 -41h238v-84h-214
c5.33301 -18.667 9 -33.334 11 -44.001h203v-83h-194c-1.33301 -60 -23.333 -104 -66 -132l2 -3c46 12 101 18 165 18c51.333 0 104.666 -3.66699 159.999 -11c0 -0.666992 -1 -24.5 -3 -71.5s-3.33301 -71.5 -4 -73.5c-80 9.33301 -153.667 14 -221 14
c-84.667 0 -171.334 -4 -260.001 -12l-9 140c27.333 6 49.5 21 66.5 45s25.5 51 25.5 81v5h-68l-4 83h62l-12 44h-52z" />
    <glyph glyph-name="peseta.tf" horiz-adv-x="609" 
d="M580 457h-43.002c-5.33301 -71.333 -27.666 -123.833 -66.999 -157.5s-100.333 -50.5 -183 -50.5h-78v-249h-146v457h-42v78h42v215h224c83.333 0 144.833 -16.833 184.5 -50.5s61.834 -88.5 66.501 -164.5h43zM208.998 618l-0.000976562 -83h177
c-3.33301 31.333 -12.666 53 -27.999 65s-39.333 18 -72 18h-77zM286.997 375c32 0 55.5 5.66699 70.5 17s24.5 33 28.5 65h-177v-82h78z" />
    <glyph glyph-name="Euro.tf" horiz-adv-x="589" 
d="M468 349l-16.998 -82h-187c9.33301 -53.333 28.166 -91.166 56.499 -113.499s66.5 -33.5 114.5 -33.5c38 0 78 9.66699 120 29l11 -119c-46 -26 -103 -39 -171 -39c-84.667 0 -151 22.5 -199 67.5s-78.333 114.5 -91 208.5h-77l1 82h69v45h-69l-1 84h77
c13.333 87.333 45.833 155.166 97.5 203.499s118.5 72.5 200.5 72.5c63.333 0 116.333 -9.66699 159 -29l-29 -128c-28.667 11.333 -60.667 17 -96 17c-48.667 0 -86.834 -10.833 -114.501 -32.5s-46.5 -56.167 -56.5 -103.5h234l-17 -84h-227v-45h212z" />
    <glyph glyph-name="numbersign.tosf" horiz-adv-x="556" 
d="M33 268h79l17 114h-96v104h108l22 163h112l-22 -163h93l21 163h110l-22 -163h68v-104h-81l-16 -114h97v-107h-110l-21 -161h-110l21 161h-93l-22 -161h-111l22 161h-66v107zM240 382l-17 -114h94l16 114h-93z" />
    <glyph glyph-name="dollar.tosf" horiz-adv-x="556" 
d="M504 192c0 -116 -60.6699 -182.665 -182.003 -199.998l-9 -123h-121l9 122c-57.333 6.66699 -105.333 20 -144 40l19 130c54.667 -30.667 117.334 -46 188.001 -46c57.333 0 86 20.667 86 62c0 14.667 -7.33301 26.834 -22 36.501s-33 17 -55 22s-45.667 12.167 -71 21.5
s-49 19.666 -71 30.999s-40.333 29.166 -55 53.499s-22 53.5 -22 87.5c0 50 15.333 91.167 46 123.5s76.334 52.5 137.001 60.5l10 121h122l-11 -121c44.667 -6 85.667 -16 123 -30l-14 -130c-53.333 20.667 -109.666 31 -168.999 31c-57.333 0 -86 -16.333 -86 -49
c0 -14 7.16699 -25.667 21.5 -35s32.333 -16.333 54 -21s45.167 -11.334 70.5 -20.001s48.833 -18.5 70.5 -29.5s39.667 -28.333 54 -52s21.5 -52.167 21.5 -85.5z" />
    <glyph glyph-name="zero.tosf" horiz-adv-x="556" 
d="M527 319c0 -114 -20.001 -197.333 -60.001 -250s-103.333 -79 -190 -79c-87.333 0 -150.5 26.167 -189.5 78.5s-58.5 135.833 -58.5 250.5c0 119.333 19.333 204.666 58 255.999s102.334 77 191.001 77c88 0 151.5 -25.667 190.5 -77s58.5 -136.666 58.5 -255.999z
M378.999 321c0 79.333 -7.66895 132.332 -23.002 158.999s-41.333 40 -78 40c-37.333 0 -63.833 -13.333 -79.5 -40s-23.5 -79.667 -23.5 -159c0 -82 7.66699 -136 23 -162s42 -39 80 -39c24.667 0 43.834 4.83301 57.501 14.5s24.334 29.334 32.001 59.001
s11.5 72.167 11.5 127.5z" />
    <glyph glyph-name="one.tosf" horiz-adv-x="556" 
d="M108 0v91h125v378l-142 -79l-15 121l218 133h89v-553h121v-91h-396z" />
    <glyph glyph-name="two.tosf" horiz-adv-x="556" 
d="M501 461c0 -54.667 -19.5 -106.333 -58.5 -155s-100.833 -107 -185.5 -175v-3h245l-4 -128h-436v97l64.5 61.5l62 59l52 51c20.333 20.333 35.833 37.166 46.5 50.499s21.5 28 32.5 44s18.833 30.833 23.5 44.5s7 26.834 7 39.501c0 49.333 -33.667 74 -101 74
c-51.333 0 -104 -18.667 -158 -56l-36 118c62 45.333 135.333 68 220 68c74 0 130.167 -17 168.5 -51s57.5 -80.333 57.5 -139z" />
    <glyph glyph-name="three.tosf" horiz-adv-x="556" 
d="M504 178c0 -90 -33.5 -159.17 -100.5 -207.503s-161.5 -74.166 -283.5 -77.499l-14 121c88.667 2.66699 153.5 18.334 194.5 47.001s61.5 66.334 61.5 113.001c0 58 -37 87.333 -111 88c-19.333 0 -38.666 -2 -57.999 -6l-8 103c62.667 7.33301 105.5 18 128.5 32
s34.5 34.667 34.5 62c0 46.667 -34.667 70 -104 70c-58.667 0 -112 -17.333 -160 -52l-33 119c55.333 42 123.666 63 204.999 63c72 0 127.667 -16.333 167 -49s59 -76.334 59 -131.001c0 -65.333 -24 -112.666 -72 -141.999v-2c62.667 -28 94 -78.333 94 -151z" />
    <glyph glyph-name="four.tosf" horiz-adv-x="556" 
d="M536 60h-63v-160l-137 -7v167h-306l-13 99l286 493l170 -11v-460h66zM341 181l8 260l5 81l-2 1l-188 -342h177z" />
    <glyph glyph-name="five.tosf" horiz-adv-x="556" 
d="M504 186c0 -91.333 -33.5 -162.668 -100.5 -214.001s-162.5 -77.666 -286.5 -78.999l-15 127c84.667 1.33301 148.334 15.333 191.001 42s64 63 64 109c0 54 -38.333 81 -115 81c-48 0 -91 -8.66699 -129 -26l-48 60l27 358h376l6 -140h-264l-9 -135
c29.333 7.33301 59.666 11 90.999 11c66 0 117.833 -16.833 155.5 -50.5s56.5 -81.5 56.5 -143.5z" />
    <glyph glyph-name="six.tosf" horiz-adv-x="556" 
d="M521 262c0 -180.667 -78.0029 -270.998 -234.003 -270.998c-81.333 0 -143.166 26.333 -185.499 79s-63.5 136.667 -63.5 252c0 69.333 10.5 131.666 31.5 186.999s49.333 100.166 85 134.499s75.834 60.5 120.501 78.5s92.334 27.667 143.001 29l22 -129
c-72 -1.33301 -129.333 -18.333 -172 -51s-69.667 -77 -81 -133l2 -2c38 26 80 39 126 39c137.333 0 206 -71 206 -213zM376.997 261.002c0 33.333 -7.33203 57.666 -21.999 72.999s-38 23 -70 23c-17.333 0 -35.333 -4 -54 -12s-33 -18.667 -43 -32
c0.666992 -73.333 8.66699 -123.166 24 -149.499s40.666 -39.5 75.999 -39.5c59.333 0 89 45.667 89 137z" />
    <glyph glyph-name="seven.tosf" horiz-adv-x="556" 
d="M508 642v-123l-247 -614h-162l254 596h-305l9 141h451z" />
    <glyph glyph-name="eight.tosf" horiz-adv-x="556" 
d="M30 188c0 62 29.667 111.333 89 148c-43.333 34 -65 81.333 -65 142c0 115.333 75.333 173 226 173c148.667 0 223 -58 223 -174c0 -56 -23 -101.667 -69 -137c62 -32.667 93 -83.667 93 -153c0 -132 -82.333 -198 -247 -198c-166.667 0 -250 66.333 -250 199zM380 178
c0 24.667 -10.333 43.5 -31 56.5s-52.334 26.5 -95.001 40.5c-7.33301 2 -12.666 3.66699 -15.999 5c-42.667 -26 -64 -56.333 -64 -91c0 -30 8.5 -51.333 25.5 -64s44.833 -19 83.5 -19c64.667 0 97 24 97 72zM194 471c0 -12.667 2.83398 -23.501 8.50098 -32.501
s15.167 -17 28.5 -24s25.666 -12.5 36.999 -16.5s27.333 -9 48 -15c36 22.667 54 49.667 54 81c0 24.667 -7.16699 42.834 -21.5 54.501s-37.833 17.5 -70.5 17.5c-56 0 -84 -21.667 -84 -65z" />
    <glyph glyph-name="nine.tosf" horiz-adv-x="556" 
d="M515 342c0 -78 -9.83398 -146.001 -29.501 -204.001s-47.167 -104.333 -82.5 -139s-75.666 -60.5 -120.999 -77.5s-95.666 -25.833 -150.999 -26.5l-15 125c66.667 2 121.667 19.333 165 52s70.333 80.334 81 143.001l-2 2c-30 -23.333 -69.333 -35 -118 -35
c-63.333 0 -113.5 19 -150.5 57s-55.5 94.667 -55.5 170c0 78 20.167 138 60.5 180s99.166 63 176.499 63c161.333 0 242 -103.333 242 -310zM366.999 359.999c-0.666992 60 -8.50098 101.334 -23.501 124.001s-39.5 34 -73.5 34c-29.333 0 -51.166 -8.33301 -65.499 -25
s-21.5 -43.334 -21.5 -80.001c0 -36 7.16699 -62.167 21.5 -78.5s37.5 -24.5 69.5 -24.5c47.333 0 78.333 16.667 93 50z" />
    <glyph glyph-name="cent.tosf" horiz-adv-x="556" 
d="M501 589l-8.00098 -132c-38 14 -76.667 21 -116 21c-60 0 -102 -12.833 -126 -38.5s-36 -70.834 -36 -135.501c0 -65.333 13.833 -112.166 41.5 -140.499s67.834 -42.5 120.501 -42.5c41.333 0 81 8.33301 119 25l11 -120c-28.667 -20 -70.667 -32 -126 -36l-8 -123h-118
l10 128c-138.667 25.333 -208 128.333 -208 309c0 187.333 79 290 237 308l10 123h118l-11 -125c36.667 -5.33301 66.667 -12.333 90 -21z" />
    <glyph glyph-name="sterling.tosf" horiz-adv-x="556" 
d="M50 267l-5 107.999h41c-11.333 36.667 -17 66.667 -17 90c0 56.667 20.333 103.167 61 139.5s106.667 54.5 198 54.5c58 0 112 -8.66699 162 -26l-18 -124c-38.667 14.667 -81.667 22 -129 22c-82.667 0 -124 -27.667 -124 -83c0 -21.333 4 -45.666 12 -72.999h215v-108
h-188c1.33301 -16 2 -28 2 -36c0 -50 -18.333 -87 -55 -111l2 -3c43.333 10.667 96 16 158 16c58 0 109.333 -3.66699 154 -11l-8 -128c-74 8 -146 12 -216 12c-86 0 -169.333 -3.33301 -250 -10l-6 126c24.667 4.66699 44.167 16.5 58.5 35.5s21.5 40.833 21.5 65.5
c0 15.333 -1 30 -3 44h-66z" />
    <glyph glyph-name="currency.tosf" horiz-adv-x="556" 
d="M100 326c0 30.667 6.66699 58.668 20 84.001l-64 66l76 81l67 -69c26 12 52.333 18 79 18s52.667 -6.33301 78 -19l68 70l76 -81l-65 -67c13.333 -25.333 20 -53 20 -83c0 -26.667 -5.33301 -52.334 -16 -77.001l61 -63l-76 -80l-60 61c-27.333 -14.667 -56 -22 -86 -22
c-31.333 0 -60 7.33301 -86 22l-61 -62l-75 81l60 62c-10.667 22 -16 48 -16 78zM194 327.001c0 -22.667 8 -41.667 24 -57s35.667 -23 59 -23s43 7.66699 59 23s24 34.333 24 57c0 22 -8 40.833 -24 56.5s-35.667 23.5 -59 23.5c-22.667 0 -42.167 -7.83301 -58.5 -23.5
s-24.5 -34.5 -24.5 -56.5z" />
    <glyph glyph-name="yen.tosf" horiz-adv-x="556" 
d="M89 304h79l-158 345h158l85 -253l24 -77h3l23 77l84 253h156l-154 -345h83v-74h-115v-40h115v-74h-115v-116h-156v116h-112v74h112v40h-112v74z" />
    <glyph glyph-name="franc.tosf" horiz-adv-x="556" 
d="M30 174h59v475h425l3 -132h-283v-130h213l-1 -125h-212v-88h65v-97h-65v-77h-145v77h-59v97z" />
    <glyph glyph-name="lira.tosf" horiz-adv-x="556" 
d="M54 340l-6.00098 71.001h28c-4.66699 20 -7 38 -7 54c0 56.667 20.333 103.167 61 139.5s106.667 54.5 198 54.5c58 0 112 -8.66699 162 -26l-18 -124c-38.667 14.667 -81.667 22 -129 22c-82.667 0 -124 -27.667 -124 -83c0 -12.667 1 -25 3 -37h228v-71h-208l10 -39
h198v-71h-191c-1.33301 -50.667 -19.666 -87.334 -54.999 -110.001l2 -3c43.333 10.667 96.333 16 159 16c58 0 109.333 -3.66699 154 -11l-8 -128c-74 8 -146.333 12 -217 12c-85.333 0 -168.333 -3.33301 -249 -10l-6 126c24.667 4.66699 44.167 16.5 58.5 35.5
s21.5 40.833 21.5 65.5v7h-59l-5 71h54l-11 39h-44z" />
    <glyph glyph-name="peseta.tosf" horiz-adv-x="556" 
d="M544 393h-45c-5.33301 -60 -26.333 -104.5 -63 -133.5s-92.667 -43.5 -168 -43.5h-73v-216h-138v393h-38v69h38v187h211c76 0 132.333 -14.833 169 -44.5s57.667 -77.167 63 -142.5h44v-69zM195 527v-65h162c-3.33301 24.667 -11.833 41.667 -25.5 51
s-35.167 14 -64.5 14h-72zM268 333c28 0 48.667 4 62 12s22 24 26 48h-161v-60h73z" />
    <glyph glyph-name="Euro.tosf" horiz-adv-x="556" 
d="M528 626l-34.998 -118.999c-28 12 -61 18 -99 18c-46 0 -81.5 -7.83301 -106.5 -23.5s-42.167 -40.834 -51.5 -75.501h233l-23 -77h-220v-46h207l-23 -74h-173c20.667 -74.667 72 -112 154 -112c44 0 83.667 9.33301 119 28l5 -118c-41.333 -26 -96 -39 -164 -39
c-164 0 -259 80.333 -285 241h-41v74h34v46h-34v77h42c27.333 155.333 123.666 233 288.999 233c67.333 0 124.666 -11 171.999 -33z" />
    <glyph glyph-name="zero.zero" horiz-adv-x="568" 
d="M533 319c0 -114 -20.001 -197.333 -60.001 -250s-103.333 -79 -190 -79c-87.333 0 -150.5 26.167 -189.5 78.5s-58.5 135.833 -58.5 250.5c0 119.333 19.333 204.666 58 255.999s102.334 77 191.001 77c88 0 151.5 -25.667 190.5 -77s58.5 -136.666 58.5 -255.999z
M390.999 321c0 53.333 -4.16699 94.168 -12.5 122.501s-19.666 47.166 -33.999 56.499s-34.833 14 -61.5 14c-38.667 0 -66.167 -13 -82.5 -39s-24.5 -77.333 -24.5 -154c0 -78 8.16699 -130 24.5 -156s43.833 -39 82.5 -39c26.667 0 47.167 4.66699 61.5 14
s25.666 28.333 33.999 57s12.5 70 12.5 124zM334.999 321.002c0 -22 -4.16797 -37.501 -12.501 -46.501s-21.5 -13.5 -39.5 -13.5c-17.333 0 -30.166 4.33301 -38.499 13s-12.5 24.334 -12.5 47.001c0 41.333 17 62 51 62c18 0 31.167 -4.66699 39.5 -14
s12.5 -25.333 12.5 -48z" />
    <glyph glyph-name="commaaccent" 
d="M195 783c43.333 0 65 -20 65 -60c0 -30.667 -26 -68 -78 -112l-35 15l20 58c-24 6.66699 -36 23 -36 49c0 14.667 5.16699 26.667 15.5 36s26.5 14 48.5 14z" />
    <glyph glyph-name="commaccentturn" 
d="M196 666c-43.333 0 -65 20 -65 60c0 30.667 26 68 78 112l34 -15l-21 -58c24.667 -8 37 -24.333 37 -49c0 -33.333 -21 -50 -63 -50z" />
    <glyph glyph-name="f_j" horiz-adv-x="654" 
d="M234 0h-144.999v495h-70v112h69v29c0 48 16.167 87 48.5 117s80.166 45 143.499 45c34 0 61 -3.33301 81 -10l-4 -100c-14.667 3.33301 -29.667 5 -45 5c-52 0 -78 -20.667 -78 -62v-24h344v-601c0 -110 -54.667 -165 -164 -165c-28.667 0 -55 4.33301 -79 13l8 103
c12 -3.33301 23.333 -5 34 -5c36.667 0 55 19 55 57v486h-198v-495zM589.001 737c0 -43.333 -27.667 -65 -83 -65c-28.667 0 -49.667 5 -63 15s-20 26.667 -20 50c0 44 27.667 66 83 66s83 -22 83 -66z" />
    <glyph glyph-name="orn001" horiz-adv-x="651" 
d="M326 -14c-16 0 -33.5 6.83203 -52.5 20.499s-34.833 27.834 -47.5 42.501s-27 32.834 -43 54.501s-26 34.5 -30 38.5c-29.333 34 -55.166 83.833 -77.499 149.5s-33.5 131.167 -33.5 196.5c0 84 22.5 151.333 67.5 202s117.167 76 216.5 76
c98.667 0 170.5 -25.333 215.5 -76s67.5 -118 67.5 -202c0 -66 -11 -131.667 -33 -197s-48 -115 -78 -149c-4 -4.66699 -14 -17.667 -30 -39s-30.333 -39.333 -43 -54s-28.334 -28.834 -47.001 -42.501s-36 -20.5 -52 -20.5zM326 51.999c14 0 29.1689 7.50098 45.502 22.501
s33 33.833 50 56.5s27.5 36 31.5 40c20.667 23.333 40 60.666 58 111.999s27 102 27 152c0 44.667 -14.5 75.334 -43.5 92.001s-84.833 25 -167.5 25c-84.667 0 -141.334 -8 -170.001 -24s-43 -47 -43 -93c0 -50 9.16699 -100.667 27.5 -152s38.166 -88.333 59.499 -111
c2.66699 -3.33301 12.667 -16.833 30 -40.5s34 -42.834 50 -57.501s31 -22 45 -22zM419.002 191c-31.333 6.66699 -61.333 10 -90 10c-29.333 0 -60 -3.33301 -92 -10c-24.667 28 -40.334 65 -47.001 111c42 -15.333 87 -23 135 -23c46.667 0 92.334 7.66699 137.001 23
c-4.66699 -48 -19 -85 -43 -111zM312.002 378l-26 -45c-46 5.33301 -87 17.333 -123 36v13c0 44 10.333 74.667 31 92c28 -36.667 67.333 -68.667 118 -96zM369.002 333l-26 44.999c52 28 91.667 60 119 96c20 -17.333 30 -47.666 30 -90.999v-14
c-34.667 -18.667 -75.667 -30.667 -123 -36z" />
    <glyph glyph-name="undercommaaccent" 
d="M193 -33c54.667 0 82 -19.334 82 -58.001c0 -30 -32.333 -66.333 -97 -109l-45 14l25 57c-30.667 6.66699 -46 22.334 -46 47.001c0 32.667 27 49 81 49z" />
  </font>
</defs>
</svg>
