<?xml version="1.0" standalone="no"?>
<!DOCTYPE svg PUBLIC "-//W3C//DTD SVG 1.1//EN" "http://www.w3.org/Graphics/SVG/1.1/DTD/svg11.dtd" >
<svg>
<metadata>
Created by FontForge 20090914 at Sat Feb  1 08:33:46 2014
 By www-data
2006 Dziedzic Lukasz published by FSI Fonts und Software GmbH
</metadata>
<defs>
<font id="Clan-NarrowMedium" horiz-adv-x="378" >
  <font-face 
    font-family="Clan"
    font-weight="500"
    font-stretch="condensed"
    units-per-em="1000"
    panose-1="2 0 6 6 0 0 0 0 0 0"
    ascent="800"
    descent="-200"
    x-height="603"
    cap-height="750"
    bbox="-122 -230 942 950.002"
    underline-thickness="39"
    underline-position="-81"
    unicode-range="U+0020-U+FFFD"
  />
<missing-glyph horiz-adv-x="571" 
d="M66 0v750h439v-750h-439zM142 76h287v598h-287v-598z" />
    <glyph glyph-name=".notdef" unicode="&#xfffd;" horiz-adv-x="571" 
d="M66 0v750h439v-750h-439zM142 76h287v598h-287v-598z" />
    <glyph glyph-name=".null" horiz-adv-x="0" 
 />
    <glyph glyph-name=".null" horiz-adv-x="0" 
 />
    <glyph glyph-name="space" unicode=" " horiz-adv-x="258" 
 />
    <glyph glyph-name="exclam" unicode="!" horiz-adv-x="278" 
d="M184 207h-92l-19 543h130zM212 55c0 -44 -23.667 -65.999 -71 -65.999c-24 0 -41.833 5.16699 -53.5 15.5s-17.5 27.166 -17.5 50.499c0 44.667 23.667 67 71 67s71 -22.333 71 -67z" />
    <glyph glyph-name="quotedbl" unicode="&#x22;" horiz-adv-x="379" 
d="M226 770h116l-22 -254h-77zM47 770h116l-22 -254h-77z" />
    <glyph glyph-name="numbersign" unicode="#" horiz-adv-x="579" 
d="M40 299h99l22 151h-120v95h132l27 205h94l-27 -205h89l27 205h93l-27 -205h90v-95h-101l-22 -151h122v-97h-134l-26 -202h-92l26 202h-90l-27 -202h-93l26 202h-88v97zM255 450l-22 -151h91l21 151h-90z" />
    <glyph glyph-name="dollar" unicode="$" horiz-adv-x="543" 
d="M256 -82l-65.998 6.00195l7 66c-66 8 -117 23.333 -153 46c1.33301 9.33301 3.66602 26.833 6.99902 52.5s6.33301 46.834 9 63.501c46.667 -27.333 96.667 -45.333 150 -54l26 231c-28.667 12 -52.334 23.167 -71.001 33.5s-38.334 24.166 -59.001 41.499
s-36.167 38.166 -46.5 62.499s-15.5 52.5 -15.5 84.5c0 66.667 20.667 118 62 154s101.333 54.667 180 56l8 64l72 -6l-8 -62c47.333 -6.66699 83.666 -16 108.999 -28l-8 -112c-37.333 12 -75.666 20.333 -114.999 25l-25 -204
c26.667 -10.667 49.334 -21.334 68.001 -32.001s37.667 -24.667 57 -42s34 -38.833 44 -64.5s15 -54.834 15 -87.501c0 -76 -19.333 -132.167 -58 -168.5s-99 -55.166 -181 -56.499zM405.002 195.002c0 24.667 -8.83203 45.167 -26.499 61.5s-42.834 31.5 -75.501 45.5
l-26 -208c85.333 2 128 35.667 128 101zM152.003 557.002c0 -22 8.5 -39.999 25.5 -53.999s41.833 -27.333 74.5 -40l21 183c-80.667 -2.66699 -121 -32.334 -121 -89.001z" />
    <glyph glyph-name="percent" unicode="%" horiz-adv-x="671" 
d="M314 588c0 -115.333 -46.667 -173 -140 -173c-47.333 0 -82.333 14 -105 42s-34 71.667 -34 131c0 60.667 11 104.667 33 132s57.667 41 107 41c46.667 0 81.5 -13.333 104.5 -40s34.5 -71 34.5 -133zM233 589c0 36 -4.5 60.667 -13.5 74s-23.833 20 -44.5 20
s-35.667 -6.66699 -45 -20s-14 -38 -14 -74s4.66699 -60.667 14 -74s24.333 -20 45 -20s35.5 6.5 44.5 19.5s13.5 37.833 13.5 74.5zM484 719l70 -56l-380 -636l-70 56zM636 164c0 -115.333 -46.667 -173 -140 -173c-48 0 -83.167 14 -105.5 42s-33.5 71.667 -33.5 131
c0 61.333 11 105.833 33 133.5s57.333 41.5 106 41.5c46.667 0 81.667 -13.667 105 -41s35 -72 35 -134zM555 164c0 35.333 -4.66699 59.5 -14 72.5s-24.333 19.5 -45 19.5s-35.5 -6.33301 -44.5 -19s-13.5 -37 -13.5 -73s4.5 -60.333 13.5 -73s23.833 -19 44.5 -19
c21.333 0 36.5 6.33301 45.5 19s13.5 37 13.5 73z" />
    <glyph glyph-name="ampersand" unicode="&#x26;" horiz-adv-x="656" 
d="M647 105l-44.002 -114c-49.333 26.667 -98 59.334 -146 98.001c-64 -67.333 -137.667 -101 -221 -101c-68 0 -118.667 19.167 -152 57.5s-50 86.833 -50 145.5c0 80 42.333 155.333 127 226c-40.667 67.333 -61 124 -61 170c0 52.667 15.333 95 46 127s78 48 142 48
c54 0 97.167 -13 129.5 -39s48.5 -61 48.5 -105c0 -22 -4.16699 -42.833 -12.5 -62.5s-21.833 -39.5 -40.5 -59.5s-34.667 -35.833 -48 -47.5s-33.666 -28.167 -60.999 -49.5c40 -52 87.333 -102 142 -150c24.667 46 41.667 92.333 51 139h102
c-7.33301 -66.667 -31.666 -135.334 -72.999 -206.001c40 -30 80.333 -55.667 121 -77zM254.998 105c43.333 0 84.333 17.666 123 52.999c-61.333 58 -113.333 115 -156 171c-43.333 -43.333 -65 -85.666 -65 -126.999c0 -30.667 8.66699 -54.5 26 -71.5
s41.333 -25.5 72 -25.5zM210.998 586.999c0 -28 12 -63.002 36 -105.002c33.333 25.333 58.5 47.5 75.5 66.5s25.833 38.833 26.5 59.5c0 18.667 -5.83301 32.834 -17.5 42.501s-27.167 14.5 -46.5 14.5c-22 0 -39.833 -6.66699 -53.5 -20s-20.5 -32.666 -20.5 -57.999z" />
    <glyph glyph-name="quotesingle" unicode="'" horiz-adv-x="201" 
d="M42 770h116l-22 -254h-77z" />
    <glyph glyph-name="parenleft" unicode="(" horiz-adv-x="324" 
d="M226 794l94 -7c-83.333 -132 -125 -284 -125 -456c0 -170 41.333 -322 124 -456l-93 -8c-46.667 58 -82.667 127.5 -108 208.5s-38 166.167 -38 255.5c0 182.667 48.667 337 146 463z" />
    <glyph glyph-name="parenright" unicode=")" horiz-adv-x="323" 
d="M4 787l94 6.99902c97.333 -127.333 146 -281.666 146 -462.999c0 -89.333 -12.667 -174.5 -38 -255.5s-61.333 -150.5 -108 -208.5l-93 8c82 134 123 286 123 456c0 171.333 -41.333 323.333 -124 456z" />
    <glyph glyph-name="asterisk" unicode="*" horiz-adv-x="352" 
d="M149 787h58l7 -104l100 26l20 -61l-98 -38l60 -89l-45 -36l-72 82l-75 -83l-47 35l60 91l-98 38l21 61l100 -26z" />
    <glyph glyph-name="plus" unicode="+" horiz-adv-x="550" 
d="M490 281h-164v-163h-106v163h-160v112h160v165h106v-165h164v-112z" />
    <glyph glyph-name="comma" unicode="," horiz-adv-x="240" 
d="M119 131c24 0 42 -6.83203 54 -20.499s18 -32.5 18 -56.5c0 -22 -8.33301 -53 -25 -93s-34.667 -74 -54 -102l-42 11l24 120c-12 5.33301 -22.5 14.166 -31.5 26.499s-13.5 25.833 -13.5 40.5c0 49.333 23.333 74 70 74z" />
    <glyph glyph-name="hyphen" unicode="-" horiz-adv-x="364" 
d="M55 389h254v-92h-254v92z" />
    <glyph glyph-name="period" unicode="." horiz-adv-x="242" 
d="M194 61c0 -48 -24.334 -71.999 -73.001 -71.999c-25.333 0 -43.666 5.66699 -54.999 17s-17 29.666 -17 54.999c0 48 24 72 72 72c48.667 0 73 -24 73 -72z" />
    <glyph glyph-name="slash" unicode="/" horiz-adv-x="412" 
d="M312 790h102l-313 -912h-100z" />
    <glyph glyph-name="zero" unicode="0" horiz-adv-x="589" 
d="M544 373c0 -137.333 -19.668 -235.5 -59.001 -294.5s-103 -88.5 -191 -88.5c-88.667 0 -152.167 29.333 -190.5 88s-57.5 157 -57.5 295c0 142.667 19 242.5 57 299.5s102 85.5 192 85.5c88.667 0 152.334 -28.667 191.001 -86s58 -157 58 -299zM420.999 375
c0 74.667 -4.83203 131.667 -14.499 171s-22.834 65.166 -39.501 77.499s-40.667 18.5 -72 18.5s-55.5 -6.5 -72.5 -19.5s-30.333 -39.167 -40 -78.5s-14.5 -95.666 -14.5 -168.999c0 -76 4.83301 -134 14.5 -174s23 -66.333 40 -79s41.167 -19 72.5 -19
c30.667 0 54.5 6.5 71.5 19.5s30.333 39.5 40 79.5s14.5 97.667 14.5 173z" />
    <glyph glyph-name="one" unicode="1" horiz-adv-x="589" 
d="M156 0v95h109v413l2 80l-2 2l-67 -44l-67 -41l-14 108l203 138h74v-656h108v-95h-346z" />
    <glyph glyph-name="two" unicode="2" horiz-adv-x="589" 
d="M524 550c0 -64 -23.6689 -128.5 -71.002 -193.5s-119.666 -143.5 -216.999 -235.5l1 -3h288l-3 -118h-449v86l68 73l69 74l57 64.5c25.333 29 43.333 51.5 54 67.5l37 58c14 22.667 23.5 43 28.5 61s7.5 35.667 7.5 53c0 32 -10.167 57.167 -30.5 75.5
s-51.5 27.5 -93.5 27.5c-57.333 0 -113.333 -22.333 -168 -67l-31 107c62.667 52 136.667 78 222 78c74.667 0 131.834 -18.5 171.501 -55.5s59.5 -87.833 59.5 -152.5z" />
    <glyph glyph-name="three" unicode="3" horiz-adv-x="589" 
d="M533 225c0 -73.333 -21.832 -130.666 -65.499 -171.999s-109.167 -62 -196.5 -62c-77.333 0 -145.333 17.667 -204 53l24 105c54 -31.333 112.333 -47 175 -47c48 0 84 11.167 108 33.5s36 53.5 36 93.5s-14.833 69.333 -44.5 88s-80.834 28 -153.501 28v95
c68 0 116.167 9.16699 144.5 27.5s42.5 46.5 42.5 84.5c0 60.667 -42 91 -126 91c-63.333 0 -121.666 -21.667 -174.999 -65l-30 103c58.667 51.333 130 77 214 77c73.333 0 130.666 -17.167 171.999 -51.5s62 -82.833 62 -145.5c0 -77.333 -35 -132 -105 -164v-2
c81.333 -26.667 122 -83.334 122 -170.001z" />
    <glyph glyph-name="four" unicode="4" horiz-adv-x="589" 
d="M553 153h-75v-153h-116v153h-308l-10 85l283 512h151v-486h78zM366 264l5 286l4 81l-2 1l-38 -73l-158 -295h189z" />
    <glyph glyph-name="five" unicode="5" horiz-adv-x="589" 
d="M529 258c0 -178 -83.332 -267 -249.999 -267c-78.667 0 -146.334 17.667 -203.001 53l22 106c54.667 -32 110.667 -48 168 -48c48.667 0 83.834 11.667 105.501 35s32.5 60 32.5 110c0 42.667 -10.833 73.167 -32.5 91.5s-55.834 27.5 -102.501 27.5
c-54 0 -102 -9.66699 -144 -29l-43 50l27 363h382l5 -117h-287l-13 -173c38.667 10 76 15 112 15c147.333 0 221 -72.333 221 -217z" />
    <glyph glyph-name="six" unicode="6" horiz-adv-x="589" 
d="M539 262c0 -180.667 -79.332 -271 -237.999 -271c-84.667 0 -147.667 27.5 -189 82.5s-62 148.833 -62 281.5c0 269.333 98.667 404 296 404c56.667 0 107.667 -9 153 -27l-10 -113c-40 15.333 -83 23 -129 23c-60.667 0 -106 -16.5 -136 -49.5s-47.667 -85.5 -53 -157.5
l2 -2c43.333 34 93.666 51 150.999 51c143.333 0 215 -74 215 -222zM416.001 264c0 41.333 -9.33398 71.5 -28.001 90.5s-48 28.5 -88 28.5c-21.333 0 -44.166 -5.5 -68.499 -16.5s-42.833 -24.833 -55.5 -41.5c0.666992 -84.667 10.5 -143 29.5 -175s50.5 -48 94.5 -48
c77.333 0 116 54 116 162z" />
    <glyph glyph-name="seven" unicode="7" horiz-adv-x="589" 
d="M540 749v-108l-269 -641h-140l286 625h-363l6 124h480z" />
    <glyph glyph-name="eight" unicode="8" horiz-adv-x="589" 
d="M49 213c0 37.333 9.5 71.8311 28.5 103.498s45.5 57.834 79.5 78.501c-55.333 38 -83 94.333 -83 169c0 130 74 195 222 195s222 -65 222 -195c0 -71.333 -29.667 -127.666 -89 -168.999c74.667 -37.333 112 -98.333 112 -183c0 -147.333 -81.667 -221 -245 -221
c-164.667 0 -247 74 -247 222zM421 201.998c0 19.333 -3.16602 35.834 -9.49902 49.501s-18.833 26.5 -37.5 38.5s-32.334 20 -41.001 24s-28 11.667 -58 23c-7.33301 3.33301 -13 5.66602 -17 6.99902c-59.333 -36 -89 -80 -89 -132c0 -42 10.167 -72.167 30.5 -90.5
s53.5 -27.5 99.5 -27.5c81.333 0 122 36 122 108zM189.001 558.999c0 -18 3.33301 -33.832 10 -47.499s17.667 -25.334 33 -35.001s29.333 -17.167 42 -22.5s30.667 -12 54 -20c52.667 32 79 72 79 120c0 34 -9 59 -27 75s-46.333 24 -85 24
c-70.667 0 -106 -31.333 -106 -94z" />
    <glyph glyph-name="nine" unicode="9" horiz-adv-x="589" 
d="M537 408c0 -148 -23.166 -254.5 -69.499 -319.5s-117.833 -97.5 -214.5 -97.5c-63.333 0 -118.333 11 -165 33l17 108c43.333 -18.667 88.666 -28 135.999 -28c58.667 0 101.667 18 129 54s42.666 95.333 45.999 178l-2 1c-38.667 -30 -87.667 -45 -147 -45
c-72 0 -126.5 19.667 -163.5 59s-55.5 94.333 -55.5 165c0 78 19.833 138 59.5 180s98.834 63 177.501 63c168 0 252 -117 252 -351zM413.001 453c-0.666992 70 -11.832 119.833 -33.499 149.5s-53.834 44.5 -96.501 44.5c-38.667 0 -67.5 -10 -86.5 -30
s-28.5 -51.667 -28.5 -95c0 -42 9.83301 -73.5 29.5 -94.5s50.5 -31.5 92.5 -31.5c56.667 0 97.667 19 123 57z" />
    <glyph glyph-name="colon" unicode=":" horiz-adv-x="242" 
d="M194 493c0 -48 -24.334 -71.999 -73.001 -71.999c-25.333 0 -43.666 5.66699 -54.999 17s-17 29.666 -17 54.999c0 48 24 72 72 72c48.667 0 73 -24 73 -72zM193.999 61.001c0 -48 -24.334 -71.999 -73.001 -71.999c-25.333 0 -43.666 5.66699 -54.999 17
s-17 29.666 -17 54.999c0 48 24 72 72 72c48.667 0 73 -24 73 -72z" />
    <glyph glyph-name="semicolon" unicode=";" horiz-adv-x="245" 
d="M196 493c0 -48 -24.334 -71.999 -73.001 -71.999c-25.333 0 -43.666 5.66699 -54.999 17s-17 29.666 -17 54.999c0 48 24 72 72 72c48.667 0 73 -24 73 -72zM121.999 131.001c24 0 42 -6.83203 54 -20.499s18 -32.5 18 -56.5c0 -22 -8.33301 -53 -25 -93
s-34.667 -74 -54 -102l-42 11l24 120c-12 5.33301 -22.5 14.166 -31.5 26.499s-13.5 25.833 -13.5 40.5c0 49.333 23.333 74 70 74z" />
    <glyph glyph-name="less" unicode="&#x3c;" horiz-adv-x="550" 
d="M470 459l-176 -89l-72 -34v-3l72 -35l177 -89v-121l-391 214v63l390 220v-126z" />
    <glyph glyph-name="equal" unicode="=" horiz-adv-x="550" 
d="M480 375h-410v97h410v-97zM480 189h-410v97h410v-97z" />
    <glyph glyph-name="greater" unicode="&#x3e;" horiz-adv-x="550" 
d="M80 88v121l176 88l73 35v3l-73 34l-176 90v126l391 -220v-63z" />
    <glyph glyph-name="question" unicode="?" horiz-adv-x="463" 
d="M430 581c0 -98 -52.667 -179.669 -158 -245.002l-6 -129h-92l-7 173c48 32.667 83.5 62.334 106.5 89.001s34.5 57.334 34.5 92.001c0 56 -33 84 -99 84c-55.333 0 -103 -19 -143 -57l-42 99c50 48.667 117.667 73 203 73c66.667 0 117.167 -15.667 151.5 -47
s51.5 -75.333 51.5 -132zM291 54.998c0 -44 -23.667 -65.999 -71 -65.999c-24 0 -41.833 5.16699 -53.5 15.5s-17.5 27.166 -17.5 50.499c0 44.667 23.667 67 71 67s71 -22.333 71 -67z" />
    <glyph glyph-name="at" unicode="@" horiz-adv-x="821" 
d="M422 577c38 0 65.3379 -13.3311 82.0049 -39.998h3l14 34l65 -4l-42 -265c-2 -12 -3 -23.667 -3 -35c0 -48 19.333 -72 58 -72c33.333 0 60.166 17.667 80.499 53s30.5 88.666 30.5 159.999c0 93.333 -23.667 168.333 -71 225s-115.333 85 -204 85
c-104.667 0 -184.667 -35.5 -240 -106.5s-83 -161.167 -83 -270.5c0 -112.667 27 -203.667 81 -273s135 -104 243 -104c114.667 0 206 31.667 274 95l28 -64c-76.667 -68 -177.334 -102 -302.001 -102c-126 0 -223.5 39.667 -292.5 119s-103.5 189 -103.5 329
c0 60.667 8.66699 118 26 172s42.166 101.667 74.499 143s73.833 74 124.5 98s107.667 36 171 36c105.333 0 189.166 -35.333 251.499 -106s93.5 -162.667 93.5 -276c0 -98.667 -18.333 -172.834 -55 -222.501s-82.334 -74.5 -137.001 -74.5c-58 0 -95.333 24 -112 72l-3 1
c-32 -48.667 -75.667 -73 -131 -73c-39.333 0 -70.833 15 -94.5 45s-35.5 73.667 -35.5 131c0 78 20.333 145.833 61 203.5s90 86.5 148 86.5zM454.005 310.002l23 150c-8.66699 19.333 -25.334 29 -50.001 29c-32 0 -59.333 -20.333 -82 -61s-34 -87 -34 -139
c0 -57.333 19.667 -86 59 -86c20.667 0 38.834 9.83301 54.501 29.5s25.5 45.5 29.5 77.5z" />
    <glyph glyph-name="A" unicode="A" horiz-adv-x="654" 
d="M499 0l-44 163h-264l-44 -163h-136l236 750h157l239 -750h-144zM324 651l-20 -79l-82 -295h203l-79 295l-19 79h-3z" />
    <glyph glyph-name="B" unicode="B" horiz-adv-x="626" 
d="M580 216c0 -144 -79.667 -216 -239 -216h-266v750h261c146 0 219 -63 219 -189c0 -81.333 -32 -135.333 -96 -162v-2c80.667 -24 121 -84.333 121 -181zM451 225c0 38.667 -8.83301 66.5 -26.5 83.5s-46.167 25.5 -85.5 25.5h-140v-221h145
c36.667 0 63.667 8.33301 81 25s26 45.667 26 87zM431 537c0 36 -7.66699 61.333 -23 76s-40.666 22 -75.999 22h-132v-198h135c33.333 0 57.666 8 72.999 24s23 41.333 23 76z" />
    <glyph glyph-name="C" unicode="C" horiz-adv-x="544" 
d="M510 732l-13 -117c-40.667 17.333 -85.667 26 -135 26c-66 0 -112.5 -18.667 -139.5 -56s-40.5 -105.333 -40.5 -204c0 -104.667 13.667 -176.667 41 -216s74.666 -59 141.999 -59c47.333 0 92 10 134 30l14 -111c-48.667 -25.333 -104 -38 -166 -38
c-103.333 0 -179.166 31.5 -227.499 94.5s-72.5 162.833 -72.5 299.5c0 130.667 24.833 227 74.5 289s127.167 93 232.5 93c59.333 0 111.333 -10.333 156 -31z" />
    <glyph glyph-name="D" unicode="D" horiz-adv-x="666" 
d="M620 379c0 -135.333 -24.333 -232.333 -73 -291s-124.667 -88 -228 -88h-244v750h241c108 0 185.667 -28.5 233 -85.5s71 -152.167 71 -285.5zM485 380c0 98.667 -12.333 164.668 -37 198.001s-68.667 50 -132 50h-112v-508h113c42 0 74.333 6.33301 97 19
s40.167 38.167 52.5 76.5s18.5 93.166 18.5 164.499z" />
    <glyph glyph-name="E" unicode="E" horiz-adv-x="560" 
d="M203 119h322l-3 -119h-447v750h433l2 -120h-307v-187h261v-110h-261v-214z" />
    <glyph glyph-name="F" unicode="F" horiz-adv-x="534" 
d="M510 627h-306v-197h255l-1 -117h-254v-313h-129v750h432z" />
    <glyph glyph-name="G" unicode="G" horiz-adv-x="616" 
d="M565 403l-0.000976562 -376c-55.333 -26.667 -123 -40 -203 -40c-111.333 0 -191.666 30.833 -240.999 92.5s-74 159.834 -74 294.501c0 135.333 25.5 233.833 76.5 295.5s132.167 92.5 243.5 92.5c70 0 131.333 -11.333 184 -34l-13 -117
c-50 21.333 -104.667 32 -164 32c-72 0 -122 -18.833 -150 -56.5s-42 -108.167 -42 -211.5c0 -102.667 13 -172.834 39 -210.501s72 -56.5 138 -56.5c34.667 0 65 4.33301 91 13v282h115z" />
    <glyph glyph-name="H" unicode="H" horiz-adv-x="677" 
d="M602 0h-129v326h-269v-326h-129v750h129v-303h269v303h129v-750z" />
    <glyph glyph-name="I" unicode="I" horiz-adv-x="303" 
d="M86 0v750h131v-750h-131z" />
    <glyph glyph-name="J" unicode="J" horiz-adv-x="495" 
d="M420 750v-499c0 -92 -21.667 -159 -65 -201s-106.333 -63 -189 -63c-54.667 0 -100 10.667 -136 32l8 115c28.667 -18.667 64.667 -28 108 -28c47.333 0 82.833 11.833 106.5 35.5s35.5 61.167 35.5 112.5v496h132z" />
    <glyph glyph-name="K" unicode="K" horiz-adv-x="645" 
d="M628 0h-155l-189 332h-80v-332h-129v750h128v-308h84l182 308h147l-213 -356z" />
    <glyph glyph-name="L" unicode="L" horiz-adv-x="515" 
d="M205 122h292l-4 -122h-418v750h130v-628z" />
    <glyph glyph-name="M" unicode="M" horiz-adv-x="834" 
d="M75 750h144l170 -476l26 -76h3l25 76l172 476h144v-750h-117v431l2 81l-3 1l-26 -77l-157 -436h-87l-156 432l-26 77l-2 -1l1 -81v-427h-113v750z" />
    <glyph glyph-name="N" unicode="N" horiz-adv-x="682" 
d="M607 0h-93l-283 455l-41 70l-2 -1l1 -81v-443h-114v750h113l264 -436l41 -69l2 1l-2 80v424h114v-750z" />
    <glyph glyph-name="O" unicode="O" horiz-adv-x="676" 
d="M629 375c0 -141.333 -22.3311 -241.333 -66.998 -300s-119.334 -88 -224.001 -88c-102.667 0 -176.834 30 -222.501 90s-68.5 159.333 -68.5 298c0 139.333 22.5 238.666 67.5 297.999s119.5 89 223.5 89s178.5 -29.667 223.5 -89s67.5 -158.666 67.5 -297.999z
M494.002 375c0 105.333 -11.167 175.832 -33.5 211.499s-63.166 53.5 -122.499 53.5c-40 0 -70.667 -7 -92 -21s-37.333 -40.167 -48 -78.5s-16 -93.5 -16 -165.5s5.33301 -127.167 16 -165.5s26.667 -64.666 48 -78.999s52 -21.5 92 -21.5c59.333 0 100.166 18 122.499 54
s33.5 106.667 33.5 212z" />
    <glyph glyph-name="P" unicode="P" horiz-adv-x="600" 
d="M566 506c0 -81.333 -20.167 -141.5 -60.5 -180.5s-105.833 -58.5 -196.5 -58.5h-105v-267h-129v750h234c90.667 0 156.167 -19.167 196.5 -57.5s60.5 -100.5 60.5 -186.5zM434 507c0 48.667 -9.33301 82.333 -28 101s-51 28 -97 28h-106v-260h106
c45.333 0 77.5 9.16699 96.5 27.5s28.5 52.833 28.5 103.5z" />
    <glyph glyph-name="Q" unicode="Q" horiz-adv-x="676" 
d="M629 375c0 -116 -14.832 -203.499 -44.499 -262.499s-77.834 -96.167 -144.501 -111.5v-3l64 -49l73 -58l-146 -41l-111 137c-96 3.33301 -165.5 35.166 -208.5 95.499s-64.5 157.833 -64.5 292.5c0 139.333 22.5 238.666 67.5 297.999s119.5 89 223.5 89
s178.5 -29.667 223.5 -89s67.5 -158.666 67.5 -297.999zM494.001 375.001c0 105.333 -11.167 175.832 -33.5 211.499s-63.166 53.5 -122.499 53.5c-40 0 -70.667 -7 -92 -21s-37.333 -40.167 -48 -78.5s-16 -93.5 -16 -165.5s5.33301 -127.167 16 -165.5
s26.667 -64.666 48 -78.999s52 -21.5 92 -21.5c59.333 0 100.166 18 122.499 54s33.5 106.667 33.5 212z" />
    <glyph glyph-name="R" unicode="R" horiz-adv-x="611" 
d="M554 527c0 -112.667 -41.001 -179.333 -123.001 -200l167 -327h-149l-135 302h-110v-302h-129v750h236c82.667 0 143.834 -18 183.501 -54s59.5 -92.333 59.5 -169zM420.999 522.001c0 42.667 -8.33203 72.332 -24.999 88.999s-44.334 25 -83.001 25h-109v-231h106
c40 0 68.5 8.33301 85.5 25s25.5 47.334 25.5 92.001z" />
    <glyph glyph-name="S" unicode="S" horiz-adv-x="520" 
d="M490 217c0 -72.667 -21.499 -129.166 -64.499 -169.499s-103.5 -60.5 -181.5 -60.5c-77.333 0 -145.333 17.667 -204 53l18 117c58.667 -34.667 119.667 -52 183 -52c83.333 0 125 34.667 125 104c0 19.333 -6 36.333 -18 51s-27.333 26.834 -46 36.501
s-39.5 19 -62.5 28s-46 19.5 -69 31.5s-43.833 25.5 -62.5 40.5s-34 35.167 -46 60.5s-18 54.666 -18 87.999c0 64.667 20 117 60 157s99.333 60 178 60c69.333 0 130.666 -12.333 183.999 -37l-16 -114c-58.667 20.667 -112 31 -160 31c-81.333 0 -122 -30.333 -122 -91
c0 -21.333 8 -40 24 -56s35.833 -28.333 59.5 -37s49.5 -19.5 77.5 -32.5s53.833 -27 77.5 -42s43.5 -36.833 59.5 -65.5s24 -62.334 24 -101.001z" />
    <glyph glyph-name="T" unicode="T" horiz-adv-x="537" 
d="M524 627h-191v-627h-130v627h-190l3 123h505z" />
    <glyph glyph-name="U" unicode="U" horiz-adv-x="662" 
d="M598 750v-496c0 -178 -88.667 -267 -266 -267c-178.667 0 -268 89 -268 267v496h129v-494c0 -50.667 11.167 -87.667 33.5 -111s57.5 -35 105.5 -35s83 11.5 105 34.5s33 60.167 33 111.5v494h128z" />
    <glyph glyph-name="V" unicode="V" horiz-adv-x="636" 
d="M490 750h133l-231 -750h-149l-231 750h142l146 -544l20 -78h3l19 78z" />
    <glyph glyph-name="W" unicode="W" horiz-adv-x="929" 
d="M397 750h139l107 -541l15 -79h3l12 80l95 540h128l-160 -750h-155l-102 537l-13 81h-3l-14 -81l-101 -537h-155l-160 750h133l94 -543l13 -80h3l14 79z" />
    <glyph glyph-name="X" unicode="X" horiz-adv-x="638" 
d="M603 750l-192 -359l202 -391h-146l-114 238l-32 74h-3l-33 -74l-111 -238h-149l199 388l-193 362h151l102 -210l34 -73h3l33 73l103 210h146z" />
    <glyph glyph-name="Y" unicode="Y" horiz-adv-x="620" 
d="M12 750h145l127 -310l29 -75h3l28 75l123 310h140l-229 -507v-243h-132v243z" />
    <glyph glyph-name="Z" unicode="Z" horiz-adv-x="558" 
d="M514 0h-478v89l286 471l44 66l-2 2h-320l5 122h467v-99l-280 -461l-43 -65l1 -3h323z" />
    <glyph glyph-name="bracketleft" unicode="[" horiz-adv-x="316" 
d="M80 -129v920h232v-90h-124v-742h124v-88h-232z" />
    <glyph glyph-name="backslash" unicode="\" horiz-adv-x="348" 
d="M-3 790h97l270 -912h-96z" />
    <glyph glyph-name="bracketright" unicode="]" horiz-adv-x="316" 
d="M237 791v-920h-233v88h124v742h-124v90h233z" />
    <glyph glyph-name="asciicircum" unicode="^" horiz-adv-x="589" 
d="M440 474l-145 234l-144 -234h-99l203 331h81l200 -331h-96z" />
    <glyph glyph-name="underscore" unicode="_" horiz-adv-x="393" 
d="M18 -41h360v-76h-360v76z" />
    <glyph glyph-name="grave" unicode="`" 
d="M283 661h-91l-106 142h138z" />
    <glyph glyph-name="a" unicode="a" horiz-adv-x="529" 
d="M380 0l-10 62.999l-3 1c-34.667 -48.667 -85.667 -73 -153 -73c-54 0 -96.167 16.167 -126.5 48.5s-45.5 81.5 -45.5 147.5c0 57.333 17.333 102.5 52 135.5s83.667 49.5 147 49.5c40.667 0 78 -6 112 -18v49c0 38 -9 65 -27 81s-47.333 24 -88 24
c-52 0 -102.667 -11.333 -152 -34l-10 101c52.667 25.333 113.667 38 183 38c76.667 0 131.167 -17.667 163.5 -53s48.5 -93.666 48.5 -174.999v-385h-91zM353 173.999v94c-20 11.333 -50 17 -90 17c-72 0 -108 -32.333 -108 -97s30.333 -97 91 -97
c28 0 52.833 8.33301 74.5 25s32.5 36 32.5 58z" />
    <glyph glyph-name="b" unicode="b" horiz-adv-x="577" 
d="M539 303c0 -110 -18.834 -190 -56.501 -240s-92.5 -75 -164.5 -75c-65.333 0 -115 22 -149 66l-3 -1l-17 -53h-79v786l119 7v-155l-2 -80l3 -2c38.667 37.333 86 56 142 56c66.667 0 117.834 -24 153.501 -72s53.5 -127 53.5 -237zM415.999 301
c0 80.667 -9.33496 134.667 -28.002 162s-48.667 41 -90 41c-49.333 0 -85.666 -19.333 -108.999 -58v-296c22.667 -40 59.334 -60 110.001 -60c40 0 69.5 14.667 88.5 44s28.5 85 28.5 167z" />
    <glyph glyph-name="c" unicode="c" horiz-adv-x="451" 
d="M415 586l-7.00098 -107.001c-32 13.333 -65 20 -99 20c-54.667 0 -93 -14.5 -115 -43.5s-33 -79.833 -33 -152.5c0 -74 12 -127.167 36 -159.5s60.333 -48.5 109 -48.5c39.333 0 74.333 8.66699 105 26l9 -98c-34 -23.333 -80 -35 -138 -35
c-82 0 -143.167 25.333 -183.5 76s-60.5 130.334 -60.5 239.001c0 104 19.833 181.5 59.5 232.5s101.834 76.5 186.501 76.5c48 0 91.667 -8.66699 131 -26z" />
    <glyph glyph-name="d" unicode="d" horiz-adv-x="575" 
d="M507 0h-91.999l-13 54l-3 1c-34 -44.667 -84.333 -67 -151 -67c-72 0 -125 25.167 -159 75.5s-51 130.5 -51 240.5c0 206 69.333 309 208 309c57.333 0 104.666 -19 141.999 -57l2 1l-2 80v149l119 7v-793zM388.001 150l0.00195312 298
c-20.667 35.333 -56.334 53 -107.001 53c-44.667 0 -75.834 -14.667 -93.501 -44s-26.5 -82 -26.5 -158c0 -80 8.5 -134.667 25.5 -164s48.167 -44 93.5 -44c52 0 88 19.667 108 59z" />
    <glyph glyph-name="e" unicode="e" horiz-adv-x="533" 
d="M305 -11c-92.667 0 -160.333 26.168 -203 78.501s-64 134.166 -64 245.499c0 199.333 78.667 299 236 299c148.667 0 223 -92.333 223 -277c0 -16.667 -1.33301 -37 -4 -61h-332c2.66699 -65.333 16.167 -111 40.5 -137s63.833 -39 118.5 -39c50 0 98.667 10.333 146 31
l13 -101c-48.667 -26 -106.667 -39 -174 -39zM159.001 358.001h227.001c-0.666992 100 -37.667 150 -111 150c-39.333 0 -67.833 -11.5 -85.5 -34.5s-27.834 -61.5 -30.501 -115.5z" />
    <glyph glyph-name="f" unicode="f" horiz-adv-x="368" 
d="M217 0h-118.999v509h-74v94h73v30c0 49.333 15.667 89 47 119s77.666 45 138.999 45c32 0 60.667 -4 86 -12l-7 -83c-20 4.66699 -38.333 7 -55 7c-60 0 -90 -26.667 -90 -80v-26h126v-94h-126v-509z" />
    <glyph glyph-name="g" unicode="g" horiz-adv-x="532" 
d="M261 251c-26.667 0 -50.667 2.33398 -72 7.00098c-18.667 -8 -28 -20 -28 -36c0 -19.333 14.333 -30.333 43 -33l129 -12c63.333 -6 108.833 -20.833 136.5 -44.5s41.5 -58.5 41.5 -104.5c0 -123.333 -81.667 -185 -245 -185c-74 0 -129.167 14 -165.5 42
s-54.5 66 -54.5 114c0 42 16.667 77 50 105c-31.333 20 -47 48.333 -47 85c0 43.333 23.333 76.333 70 99c-42.667 29.333 -64 76.666 -64 141.999c0 121.333 68.333 182 205 182c56.667 0 101.667 -11 135 -33l95 36l27 -60l-64 -51c7.33301 -22 11 -46.667 11 -74
c0 -60 -16.167 -104.833 -48.5 -134.5s-83.833 -44.5 -154.5 -44.5zM311 71.001l-127 12c-23.333 -18.667 -35 -41 -35 -67c0 -52 38.333 -78 115 -78c52 0 88 6.16699 108 18.5s30 30.5 30 54.5c0 18.667 -6.33301 32.5 -19 41.5s-36.667 15.167 -72 18.5zM261 518.001
c-32 0 -54.667 -7.16797 -68 -21.501s-20 -37.166 -20 -68.499c0 -34 7.33301 -57.5 22 -70.5s36 -19.5 64 -19.5c34 0 57.5 6.83301 70.5 20.5s19.5 36.834 19.5 69.501c0 33.333 -6.83301 56.666 -20.5 69.999s-36.167 20 -67.5 20z" />
    <glyph glyph-name="h" unicode="h" horiz-adv-x="575" 
d="M516 0h-119.002v403c0 66.667 -33.667 100 -101 100c-23.333 0 -44.666 -5 -63.999 -15s-33.666 -23 -42.999 -39v-449h-119v786l119 7v-152l-2 -80l3 -2c37.333 36.667 85 55 143 55s103 -18.333 135 -55s48 -88.667 48 -156v-403z" />
    <glyph glyph-name="i" unicode="i" horiz-adv-x="291" 
d="M206 0h-122v599l122 6v-605zM216 740c0 -38 -23.332 -57.001 -69.999 -57.001c-24.667 0 -42.834 4.33301 -54.501 13s-17.5 23.334 -17.5 44.001c0 39.333 24 59 72 59c46.667 0 70 -19.667 70 -59z" />
    <glyph glyph-name="j" unicode="j" horiz-adv-x="290" 
d="M206 605v-606c0 -104 -50 -156 -150 -156c-26.667 0 -50.667 4.33301 -72 13l6 87c14 -4.66699 26.333 -7 37 -7c40 0 60 22 60 66v597zM215 742c0 -39.333 -23.667 -59 -71 -59c-24.667 0 -42.667 4.5 -54 13.5s-17 24.167 -17 45.5c0 39.333 23.667 59 71 59
s71 -19.667 71 -59z" />
    <glyph glyph-name="k" unicode="k" horiz-adv-x="551" 
d="M189 793v-418h76l133 228h133l-162 -275l168 -328h-134l-137 272h-77v-272h-119v786z" />
    <glyph glyph-name="l" unicode="l" horiz-adv-x="278" 
d="M199 0h-120v786l120 7v-793z" />
    <glyph glyph-name="m" unicode="m" horiz-adv-x="852" 
d="M794 0h-118.999v404c0 65.333 -31.667 98 -95 98c-26.667 0 -48.5 -7.83301 -65.5 -23.5s-25.5 -38.5 -25.5 -68.5v-410h-119v410c0 61.333 -30 92 -90 92c-19.333 0 -37.833 -4.66699 -55.5 -14s-30.834 -22 -39.501 -38v-450h-119v600l86 6l19 -57
c38.667 42.667 86 64 142 64c70 0 118.333 -27.333 145 -82h2c32 54.667 83 82 153 82c55.333 0 99.333 -17.667 132 -53s49 -87 49 -155v-405z" />
    <glyph glyph-name="n" unicode="n" horiz-adv-x="571" 
d="M512 0h-119v402c0 67.333 -34 101 -102 101c-20.667 0 -41 -4.83301 -61 -14.5s-35 -22.5 -45 -38.5v-450h-119v600l86 6l18 -54c42 40.667 93.667 61 155 61c58.667 0 104.5 -18 137.5 -54s49.5 -88 49.5 -156v-403z" />
    <glyph glyph-name="o" unicode="o" horiz-adv-x="566" 
d="M528 299c0 -113.333 -19.167 -193.668 -57.5 -241.001s-100.5 -71 -186.5 -71s-148.5 23.833 -187.5 71.5s-58.5 127.834 -58.5 240.501s19.5 193.167 58.5 241.5s101.5 72.5 187.5 72.5s148.167 -24 186.5 -72s57.5 -128.667 57.5 -242zM161 298.998
c0 -80.667 9.16699 -135.832 27.5 -165.499s50.166 -44.5 95.499 -44.5c44.667 0 75.834 14.667 93.501 44s26.5 84.666 26.5 165.999s-8.83301 136.666 -26.5 165.999s-48.834 44 -93.501 44c-45.333 0 -77.166 -14.667 -95.499 -44s-27.5 -84.666 -27.5 -165.999z" />
    <glyph glyph-name="p" unicode="p" horiz-adv-x="572" 
d="M534 302c0 -105.333 -18.5 -183.667 -55.5 -235s-89.5 -77 -157.5 -77c-57.333 0 -102 17.333 -134 52l-2 -1l1 -81v-107h-120v747l84 5l22 -54c40.667 40.667 92 61 154 61c70 0 122.167 -23.167 156.5 -69.5s51.5 -126.5 51.5 -240.5zM411 304.999
c0 76 -9 127.833 -27 155.5s-47.667 41.5 -89 41.5c-48.667 0 -85 -19 -109 -57v-291c22 -40 57 -60 105 -60c40 0 70 14.833 90 44.5s30 85.167 30 166.5z" />
    <glyph glyph-name="q" unicode="q" horiz-adv-x="573" 
d="M506 -147l-119.001 -1v105l2 81l-2 1c-35.333 -32 -80.333 -48 -135 -48c-142.667 0 -214 103 -214 309c0 106 18 184.5 54 235.5s91 76.5 165 76.5c68.667 0 120.334 -22 155.001 -66h3l14 56h77v-749zM386.999 158l-0.00195312 289c-8.66699 15.333 -22.5 28 -41.5 38
s-40.5 15 -64.5 15c-45.333 0 -76.666 -13.667 -93.999 -41s-26 -80.333 -26 -159c0 -76 9.33301 -128.833 28 -158.5s49.667 -44.5 93 -44.5c28.667 0 52.334 6 71.001 18s30 26.333 34 43z" />
    <glyph glyph-name="r" unicode="r" horiz-adv-x="414" 
d="M185 0h-119.001v599l95 5l10 -108h3c34.667 77.333 87.334 116 158.001 116c22 0 41 -2.66699 57 -8l-8 -124c-18 5.33301 -36.667 8 -56 8c-40.667 0 -74.167 -15.833 -100.5 -47.5s-39.5 -74.5 -39.5 -128.5v-312z" />
    <glyph glyph-name="s" unicode="s" horiz-adv-x="451" 
d="M417 181c0 -128.667 -68 -193.002 -204 -193.002c-68 0 -124 14 -168 42l12 105c44 -28.667 95.333 -43 154 -43c64 0 96 26.333 96 79c0 20.667 -9.16699 37.834 -27.5 51.501s-40.5 25 -66.5 34s-51.833 19.333 -77.5 31s-47.667 29.834 -66 54.501s-27.5 56 -27.5 94
c0 53.333 17.333 96 52 128s85 48 151 48c54.667 0 104.667 -10.333 150 -31l-9 -103c-46 19.333 -93 29 -141 29c-28 0 -49.833 -5.83301 -65.5 -17.5s-23.5 -27.5 -23.5 -47.5s9 -36.333 27 -49s39.667 -23.167 65 -31.5s50.833 -18.333 76.5 -30s47.5 -30.167 65.5 -55.5
s27 -57 27 -95z" />
    <glyph glyph-name="t" unicode="t" horiz-adv-x="363" 
d="M339 508h-128.999v-345c0 -48 24 -72 72 -72c18 0 32.667 2.33301 44 7l7 -92c-18.667 -10 -47.334 -15 -86.001 -15c-104 0 -156 56.333 -156 169v348h-67v95h72l21 140l93 10v-150h129v-95z" />
    <glyph glyph-name="u" unicode="u" horiz-adv-x="564" 
d="M505 603v-405c0 -139.333 -74.333 -209 -223 -209s-223 69.667 -223 209v405h119v-403c0 -66.667 34.667 -100 104 -100s104 33.333 104 100v403h119z" />
    <glyph glyph-name="v" unicode="v" horiz-adv-x="587" 
d="M434 603h130l-200 -603h-142l-200 603h131l118 -415l21 -78h3l20 78z" />
    <glyph glyph-name="w" unicode="w" horiz-adv-x="807" 
d="M343 603h126l84 -420l15 -79h3l11 80l72 419h117l-126 -603h-147l-75 396l-13 81h-3l-14 -81l-76 -396h-146l-134 603h119l76 -419l13 -80h3l13 80z" />
    <glyph glyph-name="x" unicode="x" horiz-adv-x="559" 
d="M394 0l-84 176l-33 74h-3l-33 -74l-82 -176h-131l168 305l-165 298h138l80 -167l33 -73h3l32 74l77 166h133l-160 -295l165 -308h-138z" />
    <glyph glyph-name="y" unicode="y" horiz-adv-x="588" 
d="M166 -67c42 0 71.665 21.333 88.998 64l3 9l-236 597h137l132 -401l24 -77h3l18 78l103 400h127l-193 -607c-18.667 -55.333 -43.167 -95 -73.5 -119s-68.166 -36 -113.499 -36c-33.333 0 -63.333 5.66699 -90 17l11 89c18.667 -9.33301 38.334 -14 59.001 -14z" />
    <glyph glyph-name="z" unicode="z" horiz-adv-x="489" 
d="M441 515l-219 -344l-44 -64l1 -3h269l-4 -104h-399v88l217 341l44 66l-1 2h-252l4 106h384v-88z" />
    <glyph glyph-name="braceleft" unicode="{" horiz-adv-x="356" 
d="M250 437c0 -47.333 -17.667 -81.999 -53 -103.999c35.333 -22 53 -56.333 53 -103c0 -24 -2 -55.333 -6 -94s-6 -68.667 -6 -90c0 -24.667 7 -44.334 21 -59.001s35.667 -22 65 -22h28v-94h-22c-72 0 -123.5 13.667 -154.5 41s-46.5 67 -46.5 119
c0 22.667 2.5 56 7.5 100s7.5 77.333 7.5 100c0 20 -5.83301 37 -17.5 51s-27.167 23 -46.5 27v49c19.333 4.66699 34.833 14 46.5 28s17.5 31 17.5 51c0 22 -2.5 55 -7.5 99s-7.5 77.333 -7.5 100c0 52 15.5 91.667 46.5 119s82.5 41 154.5 41h22v-94h-28
c-29.333 0 -51 -7.16699 -65 -21.5s-21 -33.833 -21 -58.5c0 -21.333 2 -51.5 6 -90.5s6 -70.5 6 -94.5z" />
    <glyph glyph-name="bar" unicode="|" horiz-adv-x="270" 
d="M89 -174v986h92v-986h-92z" />
    <glyph glyph-name="braceright" unicode="}" horiz-adv-x="356" 
d="M106 230c0 47.333 18 81.666 54 102.999c-36 22 -54 56.667 -54 104c0 24 2.16699 55.5 6.5 94.5s6.5 69.167 6.5 90.5c0 24 -7.16699 43.333 -21.5 58s-36.166 22 -65.499 22h-28v94h22c72 0 123.5 -13.667 154.5 -41s46.5 -67 46.5 -119c0 -22.667 -2.5 -56 -7.5 -100
s-7.5 -77 -7.5 -99c0 -20 5.83301 -37 17.5 -51s27.5 -23.333 47.5 -28v-49c-19.333 -4 -35 -13 -47 -27s-18 -31 -18 -51c0 -22.667 2.5 -56 7.5 -100s7.5 -77.333 7.5 -100c0 -52 -15.5 -91.667 -46.5 -119s-82.5 -41 -154.5 -41h-22v94h28
c29.333 0 51.166 7.33301 65.499 22s21.5 34.334 21.5 59.001c0 21.333 -2.16699 51.333 -6.5 90s-6.5 70 -6.5 94z" />
    <glyph glyph-name="asciitilde" unicode="~" horiz-adv-x="589" 
d="M141 615l-68.998 -1c6.66699 110 49.334 165 128.001 165c25.333 0 58.666 -10.833 99.999 -32.5s70.666 -32.5 87.999 -32.5c32 0 52 17.333 60 52l69 1c-7.33301 -110 -50 -165 -128 -165c-25.333 0 -58.333 10.833 -99 32.5s-69.334 32.5 -86.001 32.5
c-33.333 0 -54.333 -17.333 -63 -52z" />
    <glyph glyph-name="uni00A0" unicode="&#xa0;" horiz-adv-x="258" 
 />
    <glyph glyph-name="exclamdown" unicode="&#xa1;" horiz-adv-x="276" 
d="M92 456h94l15 -588h-125zM66 601c0 43.333 23.667 65 71 65s71 -21.667 71 -65c0 -44.667 -23.667 -67 -71 -67s-71 22.333 -71 67z" />
    <glyph glyph-name="cent" unicode="&#xa2;" horiz-adv-x="459" 
d="M419 586l-7 -107c-32 13.333 -65 20 -99 20c-54.667 0 -93 -14.5 -115 -43.5s-33 -79.833 -33 -152.5c0 -74 12 -127.167 36 -159.5s60.333 -48.5 109 -48.5c39.333 0 74.333 8.66699 105 26l9 -98c-26 -18 -61.333 -29 -106 -33l-7 -123h-91l7 126
c-123.333 22 -185 125.333 -185 310c0 95.333 16.667 168.333 50 219s85.333 80 156 88l9 118h91l-9 -120c29.333 -4.66699 56 -12 80 -22z" />
    <glyph glyph-name="sterling" unicode="&#xa3;" horiz-adv-x="578" 
d="M58 322l-5.00195 101h50c-16.667 52.667 -25 94.667 -25 126c0 62.667 21 113.834 63 153.501s109 59.5 201 59.5c60.667 0 117.334 -11 170.001 -33l-16 -115c-43.333 18 -90 27 -140 27c-97.333 0 -146 -36.333 -146 -109c0 -26 6.33301 -62.333 19 -109h231v-101h-208
c3.33301 -22 5 -43 5 -63c0 -68 -23 -116.667 -69 -146l2 -3c48 11.333 108.333 17 181 17c57.333 0 116 -3.66699 176 -11c0 -0.666992 -0.833008 -20.834 -2.5 -60.501s-2.83398 -60.5 -3.50098 -62.5c-82.667 9.33301 -159 14 -229 14
c-85.333 0 -173.666 -4 -264.999 -12l-6 119c28.667 7.33301 51.334 24 68.001 50s25 55.667 25 89c0 24.667 -2 47.667 -6 69h-70z" />
    <glyph glyph-name="currency" unicode="&#xa4;" horiz-adv-x="546" 
d="M98 357c0 32 7.66602 61.332 22.999 87.999l-64 67l64 70l67 -69c26 14.667 54.333 22 85 22c30 0 58 -7.33301 84 -22l68 69l64 -70l-65 -67c15.333 -26.667 23 -56 23 -88c0 -30 -6.66699 -57.333 -20 -82l62 -64l-65 -70l-62 63c-27.333 -16.667 -57 -25 -89 -25
c-33.333 0 -63.666 8.33301 -90.999 25l-62 -63l-64 70l61 63c-12.667 26.667 -19 54.334 -19 83.001zM176.999 358.999c0 -25.333 9.16699 -46.833 27.5 -64.5s40.833 -26.5 67.5 -26.5s49.167 8.83301 67.5 26.5s27.5 39.167 27.5 64.5s-9.16699 46.833 -27.5 64.5
s-40.833 26.5 -67.5 26.5s-49.167 -8.83301 -67.5 -26.5s-27.5 -39.167 -27.5 -64.5z" />
    <glyph glyph-name="yen" unicode="&#xa5;" horiz-adv-x="655" 
d="M136 349h94l-187 401h146l115 -331l25 -77h3l24 77l114 331h142l-181 -401h96v-72h-126v-48h127v-72h-127v-157h-140v157h-125v72h125v48h-125v72z" />
    <glyph glyph-name="brokenbar" unicode="&#xa6;" horiz-adv-x="270" 
d="M89 378v434h92v-434h-92zM89 -160v433h92v-433h-92z" />
    <glyph glyph-name="section" unicode="&#xa7;" horiz-adv-x="515" 
d="M47 342c0 64.667 27.999 114.336 83.999 149.003c-46.667 37.333 -70 78.666 -70 123.999c0 54.667 18.333 96.667 55 126s89.334 44 158.001 44c72 0 130.667 -13.667 176 -41l-10 -95c-52 24.667 -104.667 37 -158 37c-31.333 0 -55.5 -5.83301 -72.5 -17.5
s-25.5 -27.834 -25.5 -48.501c0 -15.333 7.33301 -30 22 -44s33.167 -26.167 55.5 -36.5s46.333 -23.166 72 -38.499s49.667 -31 72 -47s40.833 -37.333 55.5 -64s22 -56 22 -88c0 -65.333 -28.333 -115.333 -85 -150c46.667 -38.667 70 -80 70 -124
c0 -54 -18.333 -95.667 -55 -125s-89.334 -44 -158.001 -44c-71.333 0 -129.666 13.667 -174.999 41l10 95c49.333 -24.667 102 -37 158 -37c31.333 0 55.5 5.66699 72.5 17s25.5 27.666 25.5 48.999c0 15.333 -7.33301 30 -22 44s-33.167 26.167 -55.5 36.5
s-46.333 23.166 -72 38.499s-49.667 31 -72 47s-40.833 37.333 -55.5 64s-22 56 -22 88zM367.999 290.002c0 14 -3.49805 27.335 -10.498 40.002s-17.5 24.5 -31.5 35.5s-28.167 21.167 -42.5 30.5s-31.5 19.666 -51.5 30.999c-4.66699 2.66699 -8.33398 4.66699 -11.001 6
c-39.333 -16.667 -59 -43 -59 -79c0 -14.667 3.5 -28.334 10.5 -41.001s19.167 -25.667 36.5 -39s31.666 -23.5 42.999 -30.5s30 -17.833 56 -32.5c40 16.667 60 43 60 79z" />
    <glyph glyph-name="dieresis" unicode="&#xa8;" 
d="M163 742c0 -37.333 -18 -56 -54 -56s-54 18.667 -54 56c0 38 18 57 54 57s54 -19 54 -57zM325 742c0 -37.333 -18 -56 -54 -56s-54 18.667 -54 56c0 38 18 57 54 57s54 -19 54 -57z" />
    <glyph glyph-name="copyright" unicode="&#xa9;" horiz-adv-x="879" 
d="M47 379c0 108 38.333 200.167 115 276.5s169.334 114.5 278.001 114.5c108 0 200.167 -38.167 276.5 -114.5s114.5 -168.5 114.5 -276.5c0 -108.667 -38.167 -201.167 -114.5 -277.5s-168.5 -114.5 -276.5 -114.5c-108.667 0 -201.334 38.167 -278.001 114.5
s-115 168.833 -115 277.5zM111 378c0 -88.667 31.833 -165.167 95.5 -229.5s141.167 -96.5 232.5 -96.5s169.166 31.833 233.499 95.5s96.5 140.5 96.5 230.5c0 88 -32.167 163.667 -96.5 227s-142.166 95 -233.499 95s-168.833 -31.5 -232.5 -94.5
s-95.5 -138.833 -95.5 -227.5zM602 584c-1.33301 -10 -3 -25.1689 -5 -45.502s-3.66699 -35.5 -5 -45.5c-32.667 18.667 -71.334 28 -116.001 28c-51.333 0 -91.333 -13.167 -120 -39.5s-43 -60.833 -43 -103.5c0 -44.667 14.667 -80.167 44 -106.5s70 -39.5 122 -39.5
c42.667 0 83.334 11 122.001 33l12 -88c-49.333 -40 -105 -60 -167 -60c-74.667 0 -136 24.833 -184 74.5s-72 111.834 -72 186.501c0 70.667 23.333 130.834 70 180.501s108.667 74.5 186 74.5c62.667 0 114.667 -16.333 156 -49z" />
    <glyph glyph-name="ordfeminine" unicode="&#xaa;" horiz-adv-x="399" 
d="M276 354l-9.00391 42.999l-3 1c-23.333 -33.333 -57.666 -50 -102.999 -50c-39.333 0 -70.166 12.5 -92.499 37.5s-33.5 62.5 -33.5 112.5c0 44 12.833 78.833 38.5 104.5s60.834 38.5 105.501 38.5c26.667 0 51.334 -4.33301 74.001 -13v31c0 24.667 -6 42 -18 52
s-32.333 15 -61 15c-37.333 0 -72.333 -7.66699 -105 -23l-8 89c44 18.667 88.333 28 133 28c58 0 99.167 -13.667 123.5 -41s36.5 -72.666 36.5 -135.999v-289h-78zM252.996 489.999v63.999c-12 6.66699 -30 10 -54 10c-44.667 0 -67 -21.333 -67 -64s19 -64 57 -64
c17.333 0 32.333 5.33301 45 16s19 23.334 19 38.001z" />
    <glyph glyph-name="guillemotleft" unicode="&#xab;" horiz-adv-x="595" 
d="M527 426l-166 -106l166 -105v-97l-285 198v9l285 198v-97zM308 426l-166 -106l166 -105v-97l-285 198v9l285 198v-97z" />
    <glyph glyph-name="logicalnot" unicode="&#xac;" horiz-adv-x="589" 
d="M399 286h-306v106h404v-249h-98v143z" />
    <glyph glyph-name="uni00AD" unicode="&#xad;" horiz-adv-x="364" 
d="M55 389h254v-92h-254v92z" />
    <glyph glyph-name="registered" unicode="&#xae;" horiz-adv-x="424" 
d="M34 651c0 50 17.5 92.667 52.5 128s77.167 53 126.5 53s91.333 -17.667 126 -53s52 -78 52 -128c0 -49.333 -17.5 -91.833 -52.5 -127.5s-76.833 -53.5 -125.5 -53.5c-49.333 0 -91.5 17.833 -126.5 53.5s-52.5 78.167 -52.5 127.5zM69 651
c0 -39.333 14.167 -73.166 42.5 -101.499s62.166 -42.5 101.499 -42.5s73 14.167 101 42.5s42 62.166 42 101.499c0 40 -14 74 -42 102s-61.667 42 -101 42s-73.166 -14 -101.499 -42s-42.5 -62 -42.5 -102zM300 690c0 -27.333 -11.333 -45.333 -34 -54l39 -81h-54l-32 74
h-33v-74h-51v199h85c53.333 0 80 -21.333 80 -64zM251 687c0 16.667 -10 25 -30 25h-35v-49h38c18 0 27 8 27 24z" />
    <glyph glyph-name="macron" unicode="&#xaf;" 
d="M332 774v-77h-282v77h282z" />
    <glyph glyph-name="degree" unicode="&#xb0;" horiz-adv-x="334" 
d="M36 684c0 37.333 12.667 68.833 38 94.5s56.333 38.5 93 38.5s67.5 -12.833 92.5 -38.5s37.5 -57.167 37.5 -94.5c0 -36.667 -12.667 -68 -38 -94s-56 -39 -92 -39c-36.667 0 -67.667 13 -93 39s-38 57.333 -38 94zM92 684c0 -20.667 7.16797 -38 21.501 -52
s32.166 -21 53.499 -21s39.166 7 53.499 21s21.5 31.333 21.5 52c0 21.333 -7.16699 39 -21.5 53s-32.166 21 -53.499 21c-22 0 -40 -7.16699 -54 -21.5s-21 -31.833 -21 -52.5z" />
    <glyph glyph-name="plusminus" unicode="&#xb1;" horiz-adv-x="589" 
d="M505 332h-159v-147h-106v147h-156v106h156v153h106v-153h159v-106zM503 56h-419v93h419v-93z" />
    <glyph glyph-name="twosuperior" unicode="&#xb2;" horiz-adv-x="335" 
d="M304 774c0 -33.333 -12.668 -65.166 -38.001 -95.499s-65 -66.833 -119 -109.5v-3h157l-1 -75h-266v57l39.5 38l38.5 37l31.5 31.5c13 13 22.5 23.5 28.5 31.5s12.5 17.167 19.5 27.5s11.833 19.666 14.5 27.999s4 16.5 4 24.5c0 32 -20.333 48 -61 48
c-31.333 0 -63.666 -11.667 -96.999 -35l-21 71c38 26.667 82.667 40 134 40c44.667 0 78.5 -10.333 101.5 -31s34.5 -49 34.5 -85z" />
    <glyph glyph-name="threesuperior" unicode="&#xb3;" horiz-adv-x="335" 
d="M307 609c0 -82 -51.334 -122.999 -154.001 -122.999c-48 0 -88.667 10 -122 30l18 68c32.667 -18 67 -27 103 -27c47.333 0 71 18.667 71 56c0 18 -7.5 31.167 -22.5 39.5s-42.833 12.5 -83.5 12.5v61c38 0 64.333 4 79 12s22 20.667 22 38c0 27.333 -21.333 41 -64 41
c-39.333 0 -73.666 -11.333 -102.999 -34l-20 66c35.333 27.333 78 41 128 41c44 0 78.333 -9.33301 103 -28s37 -45.334 37 -80.001c0 -40 -19 -68 -57 -84v-2c43.333 -14.667 65 -43.667 65 -87z" />
    <glyph glyph-name="acute" unicode="&#xb4;" 
d="M201 803h138l-108 -142h-90z" />
    <glyph glyph-name="uni00B5" unicode="&#xb5;" horiz-adv-x="570" 
d="M296 -10c-58 0 -99.999 23 -125.999 69l-2 -1c3.33301 -79.333 7.66602 -147 12.999 -203l-115 -9v757h119v-405c0 -30 9.83301 -53.833 29.5 -71.5s45.5 -26.5 77.5 -26.5c30.667 0 55.167 7.5 73.5 22.5s27.5 37.167 27.5 66.5v414h119v-600l-84 -8l-15 46h-3
c-25.333 -34 -63.333 -51 -114 -51z" />
    <glyph glyph-name="paragraph" unicode="&#xb6;" horiz-adv-x="630" 
d="M273 -152l-104 0.000976562v642c-43.333 1.33301 -77.833 13.666 -103.5 36.999s-38.5 56 -38.5 98c0 36.667 13 66.667 39 90s62 35 108 35h418l-4 -99h-70v-803h-105v803h-141z" />
    <glyph glyph-name="periodcentered" unicode="&#xb7;" horiz-adv-x="268" 
d="M207 345c0 -48 -24.334 -71.999 -73.001 -71.999c-25.333 0 -43.666 5.66699 -54.999 17s-17 29.666 -17 54.999c0 48 24 72 72 72c48.667 0 73 -24 73 -72z" />
    <glyph glyph-name="cedilla" unicode="&#xb8;" 
d="M109 -187l64 197l79 1l-33 -198h-110z" />
    <glyph glyph-name="onesuperior" unicode="&#xb9;" horiz-adv-x="256" 
d="M203 886v-395h-88v209l3 79l-3 1l-73 -44l-8 72l115 78h54z" />
    <glyph glyph-name="ordmasculine" unicode="&#xba;" horiz-adv-x="432" 
d="M395 584c0 -86 -13.835 -146.667 -41.502 -182s-73.167 -53 -136.5 -53s-109.166 17.667 -137.499 53s-42.5 96 -42.5 182c0 85.333 14.333 146 43 182s74.334 54 137.001 54s108 -17.833 136 -53.5s42 -96.5 42 -182.5zM141.998 584c0 -58 5.50098 -97 16.501 -117
s30.5 -30 58.5 -30s47.333 10 58 30s16 59 16 117s-5.33301 96.667 -16 116s-30 29 -58 29c-28.667 0 -48.334 -9.66699 -59.001 -29s-16 -58 -16 -116z" />
    <glyph glyph-name="guillemotright" unicode="&#xbb;" horiz-adv-x="595" 
d="M278 118v97l165 105l-165 106v97l285 -198v-9zM58 118v97l165 105l-165 106v97l285 -198v-9z" />
    <glyph glyph-name="onequarter" unicode="&#xbc;" horiz-adv-x="812" 
d="M267 751v-395h-88v209l3 79l-3 1l-73 -44l-8 72l115 78h54zM758 76h-38v-76h-81v76h-184l-7 52l167 266h105v-247h40zM642 147l2 87l5 80h-3l-61 -99l-43 -65l1 -3h99zM600 750h87l-466 -750h-86z" />
    <glyph glyph-name="onehalf" unicode="&#xbd;" horiz-adv-x="812" 
d="M585 750h87l-466 -750h-86zM757 283c0 -33.333 -12.668 -65.166 -38.001 -95.499s-65 -66.833 -119 -109.5v-3h157l-1 -75h-266v57l39.5 38l38.5 37l31.5 31.5c13 13 22.5 23.5 28.5 31.5s12.5 17.167 19.5 27.5s11.833 19.666 14.5 27.999s4 16.5 4 24.5
c0 32 -20.333 48 -61 48c-31.333 0 -63.666 -11.667 -96.999 -35l-21 71c38 26.667 82.667 40 134 40c44.667 0 78.5 -10.333 101.5 -31s34.5 -49 34.5 -85zM264.999 751v-395h-88v209l3 79l-3 1l-73 -44l-8 72l115 78h54z" />
    <glyph glyph-name="threequarters" unicode="&#xbe;" horiz-adv-x="812" 
d="M733 76h-38v-76h-81v76h-184l-7 52l167 266h105v-247h40zM617 147l2 87l5 80h-3l-61 -99l-43 -65l1 -3h99zM596 750h87l-466 -750h-86zM331 474c0 -82 -51.334 -122.999 -154.001 -122.999c-48 0 -88.667 10 -122 30l18 68c32.667 -18 67 -27 103 -27
c47.333 0 71 18.667 71 56c0 18 -7.5 31.167 -22.5 39.5s-42.833 12.5 -83.5 12.5v61c38 0 64.333 4 79 12s22 20.667 22 38c0 27.333 -21.333 41 -64 41c-39.333 0 -73.666 -11.333 -102.999 -34l-20 66c35.333 27.333 78 41 128 41c44 0 78.333 -9.33301 103 -28
s37 -45.334 37 -80.001c0 -40 -19 -68 -57 -84v-2c43.333 -14.667 65 -43.667 65 -87z" />
    <glyph glyph-name="questiondown" unicode="&#xbf;" horiz-adv-x="443" 
d="M32 79c0 98 52.667 179.667 158 245l6 129h92l7 -172c-48.667 -32.667 -84.5 -62.5 -107.5 -89.5s-34.5 -57.5 -34.5 -91.5c0 -56 33 -84 99 -84c54.667 0 102.667 19 144 57l42 -99c-22.667 -22 -52 -39.833 -88 -53.5s-74.333 -20.5 -115 -20.5
c-66.667 0 -117.167 15.667 -151.5 47s-51.5 75.333 -51.5 132zM171 606c0 43.333 23.667 65 71 65s71 -21.667 71 -65c0 -44.667 -23.667 -67 -71 -67s-71 22.333 -71 67z" />
    <glyph glyph-name="Agrave" unicode="&#xc0;" horiz-adv-x="654" 
d="M499 0l-44 163h-264l-44 -163h-136l236 750h157l239 -750h-144zM324 651l-20 -79l-82 -295h203l-79 295l-19 79h-3zM389 795h-97l-117 115h144z" />
    <glyph glyph-name="Aacute" unicode="&#xc1;" horiz-adv-x="654" 
d="M499 0l-44 163h-264l-44 -163h-136l236 750h157l239 -750h-144zM324 651l-20 -79l-82 -295h203l-79 295l-19 79h-3zM326 909h155l-124 -115h-97z" />
    <glyph glyph-name="Acircumflex" unicode="&#xc2;" horiz-adv-x="654" 
d="M499 0l-44 163h-264l-44 -163h-136l236 750h157l239 -750h-144zM324 651l-20 -79l-82 -295h203l-79 295l-19 79h-3zM261 909h126l103 -115h-108l-57 63l-57 -63h-106z" />
    <glyph glyph-name="Atilde" unicode="&#xc3;" horiz-adv-x="654" 
d="M499 0l-44 163h-264l-44 -163h-136l236 750h157l239 -750h-144zM324 651l-20 -79l-82 -295h203l-79 295l-19 79h-3zM232 799l-57.001 0.000976562c2 33.333 10.833 60.166 26.5 80.499s36.834 30.5 63.501 30.5c22 0 46.5 -8.16699 73.5 -24.5s44.833 -24.5 53.5 -24.5
c17.333 0 28.333 12.333 33 37l54 -1c-2 -33.333 -11.167 -60 -27.5 -80s-37.5 -30 -63.5 -30c-21.333 0 -45 8.16699 -71 24.5s-43.333 24.5 -52 24.5c-17.333 0 -28.333 -12.333 -33 -37z" />
    <glyph glyph-name="Adieresis" unicode="&#xc4;" horiz-adv-x="654" 
d="M499 0l-44 163h-264l-44 -163h-136l236 750h157l239 -750h-144zM324 651l-20 -79l-82 -295h203l-79 295l-19 79h-3zM288 849c0 -35.333 -17.667 -53 -53 -53s-53 17.667 -53 53c0 36 17.667 54 53 54s53 -18 53 -54zM469 849c0 -35.333 -18 -53 -54 -53
c-35.333 0 -53 17.667 -53 53c0 36 17.667 54 53 54c36 0 54 -18 54 -54z" />
    <glyph glyph-name="Aring" unicode="&#xc5;" horiz-adv-x="654" 
d="M213 801c0 59.333 36.667 89 110 89c74.667 0 112 -29.667 112 -89c0 -30 -8.66699 -52.333 -26 -67l234 -734h-144l-44 163h-264l-44 -163h-136l230 732c-18.667 14 -28 37 -28 69zM324 651l-20 -79l-82 -295h203l-79 295l-19 79h-3zM278 797c0 -22.667 16 -34 48 -34
c30.667 0 46 11.333 46 34c0 24 -15.333 36 -46 36c-32 0 -48 -12 -48 -36z" />
    <glyph glyph-name="AE" unicode="&#xc6;" horiz-adv-x="954" 
d="M908 630h-315l13 -187h250v-110h-243l15 -214h290l-3 -119h-408l-11 163h-248l-71 -163h-150l363 750h515zM463 661l-31 -75l-135 -310h192l-20 303l-3 81z" />
    <glyph glyph-name="Ccedilla" unicode="&#xc7;" horiz-adv-x="544" 
d="M242 -187l57.001 177c-86 8.66699 -149.5 44.5 -190.5 107.5s-61.5 157.5 -61.5 283.5c0 130.667 24.833 227 74.5 289s127.167 93 232.5 93c59.333 0 111.333 -10.333 156 -31l-13 -117c-40.667 17.333 -85.667 26 -135 26c-66 0 -112.5 -18.667 -139.5 -56
s-40.5 -105.333 -40.5 -204c0 -104.667 13.667 -176.667 41 -216s74.666 -59 141.999 -59c47.333 0 92 10 134 30l14 -111c-35.333 -18.667 -79.333 -30.667 -132 -36l-29 -176h-110z" />
    <glyph glyph-name="Egrave" unicode="&#xc8;" horiz-adv-x="560" 
d="M203 119h322l-3 -119h-447v750h433l2 -120h-307v-187h261v-110h-261v-214zM363 795h-97l-117 115h144z" />
    <glyph glyph-name="Eacute" unicode="&#xc9;" horiz-adv-x="560" 
d="M203 119h322l-3 -119h-447v750h433l2 -120h-307v-187h261v-110h-261v-214zM300 909h155l-124 -115h-97z" />
    <glyph glyph-name="Ecircumflex" unicode="&#xca;" horiz-adv-x="560" 
d="M203 119h322l-3 -119h-447v750h433l2 -120h-307v-187h261v-110h-261v-214zM235 909h126l103 -115h-108l-57 63l-57 -63h-106z" />
    <glyph glyph-name="Edieresis" unicode="&#xcb;" horiz-adv-x="560" 
d="M203 119h322l-3 -119h-447v750h433l2 -120h-307v-187h261v-110h-261v-214zM262 849c0 -35.333 -17.667 -53 -53 -53s-53 17.667 -53 53c0 36 17.667 54 53 54s53 -18 53 -54zM443 849c0 -35.333 -18 -53 -54 -53c-35.333 0 -53 17.667 -53 53c0 36 17.667 54 53 54
c36 0 54 -18 54 -54z" />
    <glyph glyph-name="Igrave" unicode="&#xcc;" horiz-adv-x="303" 
d="M86 0v750h131v-750h-131zM215 795h-97l-117 115h144z" />
    <glyph glyph-name="Iacute" unicode="&#xcd;" horiz-adv-x="303" 
d="M86 0v750h131v-750h-131zM152 909h155l-124 -115h-97z" />
    <glyph glyph-name="Icircumflex" unicode="&#xce;" horiz-adv-x="303" 
d="M86 0v750h131v-750h-131zM87 909h126l103 -115h-108l-57 63l-57 -63h-106z" />
    <glyph glyph-name="Idieresis" unicode="&#xcf;" horiz-adv-x="303" 
d="M86 0v750h131v-750h-131zM114 849c0 -35.333 -17.667 -53 -53 -53s-53 17.667 -53 53c0 36 17.667 54 53 54s53 -18 53 -54zM295 849c0 -35.333 -18 -53 -54 -53c-35.333 0 -53 17.667 -53 53c0 36 17.667 54 53 54c36 0 54 -18 54 -54z" />
    <glyph glyph-name="Eth" unicode="&#xd0;" horiz-adv-x="676" 
d="M629 379c0 -135.333 -24.333 -232.333 -73 -291s-124.667 -88 -228 -88h-244v350h-59v82h59v318h241c108 0 185.667 -28.5 233 -85.5s71 -152.167 71 -285.5zM494 380c0 98.667 -12.333 164.668 -37 198.001s-68.667 50 -132 50h-112v-196h86v-82h-86v-230h113
c42 0 74.333 6.33301 97 19s40.167 38.167 52.5 76.5s18.5 93.166 18.5 164.499z" />
    <glyph glyph-name="Ntilde" unicode="&#xd1;" horiz-adv-x="682" 
d="M607 0h-93l-283 455l-41 70l-2 -1l1 -81v-443h-114v750h113l264 -436l41 -69l2 1l-2 80v424h114v-750zM252 799l-57.001 0.000976562c2 33.333 10.833 60.166 26.5 80.499s36.834 30.5 63.501 30.5c22 0 46.5 -8.16699 73.5 -24.5s44.833 -24.5 53.5 -24.5
c17.333 0 28.333 12.333 33 37l54 -1c-2 -33.333 -11.167 -60 -27.5 -80s-37.5 -30 -63.5 -30c-21.333 0 -45 8.16699 -71 24.5s-43.333 24.5 -52 24.5c-17.333 0 -28.333 -12.333 -33 -37z" />
    <glyph glyph-name="Ograve" unicode="&#xd2;" horiz-adv-x="676" 
d="M629 375c0 -141.333 -22.3311 -241.333 -66.998 -300s-119.334 -88 -224.001 -88c-102.667 0 -176.834 30 -222.501 90s-68.5 159.333 -68.5 298c0 139.333 22.5 238.666 67.5 297.999s119.5 89 223.5 89s178.5 -29.667 223.5 -89s67.5 -158.666 67.5 -297.999z
M494.002 375c0 105.333 -11.167 175.832 -33.5 211.499s-63.166 53.5 -122.499 53.5c-40 0 -70.667 -7 -92 -21s-37.333 -40.167 -48 -78.5s-16 -93.5 -16 -165.5s5.33301 -127.167 16 -165.5s26.667 -64.666 48 -78.999s52 -21.5 92 -21.5c59.333 0 100.166 18 122.499 54
s33.5 106.667 33.5 212zM416.002 794.999h-97l-117 115h144z" />
    <glyph glyph-name="Oacute" unicode="&#xd3;" horiz-adv-x="676" 
d="M629 375c0 -141.333 -22.3311 -241.333 -66.998 -300s-119.334 -88 -224.001 -88c-102.667 0 -176.834 30 -222.501 90s-68.5 159.333 -68.5 298c0 139.333 22.5 238.666 67.5 297.999s119.5 89 223.5 89s178.5 -29.667 223.5 -89s67.5 -158.666 67.5 -297.999z
M494.002 375c0 105.333 -11.167 175.832 -33.5 211.499s-63.166 53.5 -122.499 53.5c-40 0 -70.667 -7 -92 -21s-37.333 -40.167 -48 -78.5s-16 -93.5 -16 -165.5s5.33301 -127.167 16 -165.5s26.667 -64.666 48 -78.999s52 -21.5 92 -21.5c59.333 0 100.166 18 122.499 54
s33.5 106.667 33.5 212zM339.002 908.999h155l-124 -115h-97z" />
    <glyph glyph-name="Ocircumflex" unicode="&#xd4;" horiz-adv-x="676" 
d="M629 375c0 -141.333 -22.3311 -241.333 -66.998 -300s-119.334 -88 -224.001 -88c-102.667 0 -176.834 30 -222.501 90s-68.5 159.333 -68.5 298c0 139.333 22.5 238.666 67.5 297.999s119.5 89 223.5 89s178.5 -29.667 223.5 -89s67.5 -158.666 67.5 -297.999z
M494.002 375c0 105.333 -11.167 175.832 -33.5 211.499s-63.166 53.5 -122.499 53.5c-40 0 -70.667 -7 -92 -21s-37.333 -40.167 -48 -78.5s-16 -93.5 -16 -165.5s5.33301 -127.167 16 -165.5s26.667 -64.666 48 -78.999s52 -21.5 92 -21.5c59.333 0 100.166 18 122.499 54
s33.5 106.667 33.5 212zM275.002 908.999h126l103 -115h-108l-57 63l-57 -63h-106z" />
    <glyph glyph-name="Otilde" unicode="&#xd5;" horiz-adv-x="676" 
d="M629 375c0 -141.333 -22.3311 -241.333 -66.998 -300s-119.334 -88 -224.001 -88c-102.667 0 -176.834 30 -222.501 90s-68.5 159.333 -68.5 298c0 139.333 22.5 238.666 67.5 297.999s119.5 89 223.5 89s178.5 -29.667 223.5 -89s67.5 -158.666 67.5 -297.999z
M494.002 375c0 105.333 -11.167 175.832 -33.5 211.499s-63.166 53.5 -122.499 53.5c-40 0 -70.667 -7 -92 -21s-37.333 -40.167 -48 -78.5s-16 -93.5 -16 -165.5s5.33301 -127.167 16 -165.5s26.667 -64.666 48 -78.999s52 -21.5 92 -21.5c59.333 0 100.166 18 122.499 54
s33.5 106.667 33.5 212zM246.002 798.999l-57.001 0.000976562c2 33.333 10.833 60.166 26.5 80.499s36.834 30.5 63.501 30.5c22 0 46.5 -8.16699 73.5 -24.5s44.833 -24.5 53.5 -24.5c17.333 0 28.333 12.333 33 37l54 -1c-2 -33.333 -11.167 -60 -27.5 -80
s-37.5 -30 -63.5 -30c-21.333 0 -45 8.16699 -71 24.5s-43.333 24.5 -52 24.5c-17.333 0 -28.333 -12.333 -33 -37z" />
    <glyph glyph-name="Odieresis" unicode="&#xd6;" horiz-adv-x="676" 
d="M629 375c0 -141.333 -22.3311 -241.333 -66.998 -300s-119.334 -88 -224.001 -88c-102.667 0 -176.834 30 -222.501 90s-68.5 159.333 -68.5 298c0 139.333 22.5 238.666 67.5 297.999s119.5 89 223.5 89s178.5 -29.667 223.5 -89s67.5 -158.666 67.5 -297.999z
M494.002 375c0 105.333 -11.167 175.832 -33.5 211.499s-63.166 53.5 -122.499 53.5c-40 0 -70.667 -7 -92 -21s-37.333 -40.167 -48 -78.5s-16 -93.5 -16 -165.5s5.33301 -127.167 16 -165.5s26.667 -64.666 48 -78.999s52 -21.5 92 -21.5c59.333 0 100.166 18 122.499 54
s33.5 106.667 33.5 212zM302.002 848.999c0 -35.333 -17.667 -53 -53 -53s-53 17.667 -53 53c0 36 17.667 54 53 54s53 -18 53 -54zM483.002 848.999c0 -35.333 -18 -53 -54 -53c-35.333 0 -53 17.667 -53 53c0 36 17.667 54 53 54c36 0 54 -18 54 -54z" />
    <glyph glyph-name="multiply" unicode="&#xd7;" horiz-adv-x="550" 
d="M474 204l-69 -76l-130 128l-129 -128l-69 76l129 128l-131 128l70 76l131 -128l130 129l70 -77l-131 -128z" />
    <glyph glyph-name="Oslash" unicode="&#xd8;" horiz-adv-x="676" 
d="M98 -14l-62.998 55.001l55 79c-28 58.667 -42 143.667 -42 255c0 139.333 22.5 238.666 67.5 297.999s119.5 89 223.5 89c90 0 157 -21.667 201 -65l50 65l62 -57l-61 -83c26 -58 39 -140.333 39 -247c0 -141.333 -22.333 -241.333 -67 -300s-119.334 -88 -224.001 -88
c-86.667 0 -152.334 20.333 -197.001 61zM183.002 375.001c0 -52.667 2.66699 -98.333 8 -137l2 -1l48 64l221 284c-22 36.667 -63 55 -123 55c-40 0 -70.667 -7 -92 -21s-37.333 -40.167 -48 -78.5s-16 -93.5 -16 -165.5zM495.002 375.002
c0 52.667 -1.99902 96.333 -5.99902 131l-2 1l-49 -65l-220 -282c22 -34 62.667 -51 122 -51c40 0 70.667 7.33301 92 22s37.166 41 47.499 79s15.5 93 15.5 165z" />
    <glyph glyph-name="Ugrave" unicode="&#xd9;" horiz-adv-x="662" 
d="M598 750v-496c0 -178 -88.667 -267 -266 -267c-178.667 0 -268 89 -268 267v496h129v-494c0 -50.667 11.167 -87.667 33.5 -111s57.5 -35 105.5 -35s83 11.5 105 34.5s33 60.167 33 111.5v494h128zM396 795h-97l-117 115h144z" />
    <glyph glyph-name="Uacute" unicode="&#xda;" horiz-adv-x="662" 
d="M598 750v-496c0 -178 -88.667 -267 -266 -267c-178.667 0 -268 89 -268 267v496h129v-494c0 -50.667 11.167 -87.667 33.5 -111s57.5 -35 105.5 -35s83 11.5 105 34.5s33 60.167 33 111.5v494h128zM333 909h155l-124 -115h-97z" />
    <glyph glyph-name="Ucircumflex" unicode="&#xdb;" horiz-adv-x="662" 
d="M598 750v-496c0 -178 -88.667 -267 -266 -267c-178.667 0 -268 89 -268 267v496h129v-494c0 -50.667 11.167 -87.667 33.5 -111s57.5 -35 105.5 -35s83 11.5 105 34.5s33 60.167 33 111.5v494h128zM268 909h126l103 -115h-108l-57 63l-57 -63h-106z" />
    <glyph glyph-name="Udieresis" unicode="&#xdc;" horiz-adv-x="662" 
d="M598 750v-496c0 -178 -88.667 -267 -266 -267c-178.667 0 -268 89 -268 267v496h129v-494c0 -50.667 11.167 -87.667 33.5 -111s57.5 -35 105.5 -35s83 11.5 105 34.5s33 60.167 33 111.5v494h128zM295 849c0 -35.333 -17.667 -53 -53 -53s-53 17.667 -53 53
c0 36 17.667 54 53 54s53 -18 53 -54zM476 849c0 -35.333 -18 -53 -54 -53c-35.333 0 -53 17.667 -53 53c0 36 17.667 54 53 54c36 0 54 -18 54 -54z" />
    <glyph glyph-name="Yacute" unicode="&#xdd;" horiz-adv-x="620" 
d="M12 750h145l127 -310l29 -75h3l28 75l123 310h140l-229 -507v-243h-132v243zM314 909h155l-124 -115h-97z" />
    <glyph glyph-name="Thorn" unicode="&#xde;" horiz-adv-x="600" 
d="M566 381c0 -81.333 -20.833 -141.5 -62.5 -180.5s-110.5 -58.5 -206.5 -58.5h-94v-142h-128v750h128v-125h94c96 0 164.833 -19.167 206.5 -57.5s62.5 -100.5 62.5 -186.5zM434 382c0 48.667 -10.167 82.167 -30.5 100.5s-55.833 27.5 -106.5 27.5h-94v-259h94
c50.667 0 86.167 9 106.5 27s30.5 52.667 30.5 104z" />
    <glyph glyph-name="germandbls" unicode="&#xdf;" horiz-adv-x="595" 
d="M70 0l0.00195312 502.999c0 85.333 19.167 150 57.5 194s94.833 66 169.5 66c54.667 0 99.167 -14.667 133.5 -44s51.5 -66 51.5 -110c0 -20 -5.33301 -39.833 -16 -59.5s-22.334 -35.667 -35.001 -48s-24.334 -25.166 -35.001 -38.499s-16 -24.333 -16 -33
s6.33301 -18 19 -28s27.834 -20.833 45.501 -32.5s35.5 -25 53.5 -40s33.333 -34.667 46 -59s19 -51.166 19 -80.499c0 -62 -19.333 -110.667 -58 -146s-89.667 -53 -153 -53c-58 0 -103 11.333 -135 34l8 107c26.667 -19.333 62 -29 106 -29
c33.333 0 60.166 6.83301 80.499 20.5s30.5 34.5 30.5 62.5c0 19.333 -6.5 37.666 -19.5 54.999s-28.667 32.333 -47 45l-55.5 37c-18.667 12 -34.5 25.833 -47.5 41.5s-19.5 32.167 -19.5 49.5c0 20 9.5 41.333 28.5 64l57 67.5c19 22.333 28.5 42.5 28.5 60.5
c0 16 -6.5 28.833 -19.5 38.5s-30.833 14.5 -53.5 14.5c-36 0 -62.5 -11.667 -79.5 -35s-25.5 -60.333 -25.5 -111v-513h-119z" />
    <glyph glyph-name="agrave" unicode="&#xe0;" horiz-adv-x="529" 
d="M380 0l-10 62.999l-3 1c-34.667 -48.667 -85.667 -73 -153 -73c-54 0 -96.167 16.167 -126.5 48.5s-45.5 81.5 -45.5 147.5c0 57.333 17.333 102.5 52 135.5s83.667 49.5 147 49.5c40.667 0 78 -6 112 -18v49c0 38 -9 65 -27 81s-47.333 24 -88 24
c-52 0 -102.667 -11.333 -152 -34l-10 101c52.667 25.333 113.667 38 183 38c76.667 0 131.167 -17.667 163.5 -53s48.5 -93.666 48.5 -174.999v-385h-91zM353 173.999v94c-20 11.333 -50 17 -90 17c-72 0 -108 -32.333 -108 -97s30.333 -97 91 -97
c28 0 52.833 8.33301 74.5 25s32.5 36 32.5 58zM324 660.999h-91l-106 142h138z" />
    <glyph glyph-name="aacute" unicode="&#xe1;" horiz-adv-x="529" 
d="M380 0l-10 62.999l-3 1c-34.667 -48.667 -85.667 -73 -153 -73c-54 0 -96.167 16.167 -126.5 48.5s-45.5 81.5 -45.5 147.5c0 57.333 17.333 102.5 52 135.5s83.667 49.5 147 49.5c40.667 0 78 -6 112 -18v49c0 38 -9 65 -27 81s-47.333 24 -88 24
c-52 0 -102.667 -11.333 -152 -34l-10 101c52.667 25.333 113.667 38 183 38c76.667 0 131.167 -17.667 163.5 -53s48.5 -93.666 48.5 -174.999v-385h-91zM353 173.999v94c-20 11.333 -50 17 -90 17c-72 0 -108 -32.333 -108 -97s30.333 -97 91 -97
c28 0 52.833 8.33301 74.5 25s32.5 36 32.5 58zM256 802.999h138l-108 -142h-90z" />
    <glyph glyph-name="acircumflex" unicode="&#xe2;" horiz-adv-x="529" 
d="M380 0l-10 62.999l-3 1c-34.667 -48.667 -85.667 -73 -153 -73c-54 0 -96.167 16.167 -126.5 48.5s-45.5 81.5 -45.5 147.5c0 57.333 17.333 102.5 52 135.5s83.667 49.5 147 49.5c40.667 0 78 -6 112 -18v49c0 38 -9 65 -27 81s-47.333 24 -88 24
c-52 0 -102.667 -11.333 -152 -34l-10 101c52.667 25.333 113.667 38 183 38c76.667 0 131.167 -17.667 163.5 -53s48.5 -93.666 48.5 -174.999v-385h-91zM353 173.999v94c-20 11.333 -50 17 -90 17c-72 0 -108 -32.333 -108 -97s30.333 -97 91 -97
c28 0 52.833 8.33301 74.5 25s32.5 36 32.5 58zM210 802.999h102l96 -142h-91l-55 89l-56 -89h-90z" />
    <glyph glyph-name="atilde" unicode="&#xe3;" horiz-adv-x="529" 
d="M380 0l-10 62.999l-3 1c-34.667 -48.667 -85.667 -73 -153 -73c-54 0 -96.167 16.167 -126.5 48.5s-45.5 81.5 -45.5 147.5c0 57.333 17.333 102.5 52 135.5s83.667 49.5 147 49.5c40.667 0 78 -6 112 -18v49c0 38 -9 65 -27 81s-47.333 24 -88 24
c-52 0 -102.667 -11.333 -152 -34l-10 101c52.667 25.333 113.667 38 183 38c76.667 0 131.167 -17.667 163.5 -53s48.5 -93.666 48.5 -174.999v-385h-91zM353 173.999v94c-20 11.333 -50 17 -90 17c-72 0 -108 -32.333 -108 -97s30.333 -97 91 -97
c28 0 52.833 8.33301 74.5 25s32.5 36 32.5 58zM170 676.999l-55 0.999023c2 36.667 11 66.334 27 89.001s36.667 34 62 34c21.333 0 44.333 -9.5 69 -28.5s42.667 -28.5 54 -28.5c16.667 0 28.334 15.333 35.001 46l56 -1c-2.66699 -37.333 -12.167 -67 -28.5 -89
s-37.166 -33 -62.499 -33c-20.667 0 -43.334 9.5 -68.001 28.5s-42.334 28.5 -53.001 28.5c-18.667 0 -30.667 -15.667 -36 -47z" />
    <glyph glyph-name="adieresis" unicode="&#xe4;" horiz-adv-x="529" 
d="M380 0l-10 62.999l-3 1c-34.667 -48.667 -85.667 -73 -153 -73c-54 0 -96.167 16.167 -126.5 48.5s-45.5 81.5 -45.5 147.5c0 57.333 17.333 102.5 52 135.5s83.667 49.5 147 49.5c40.667 0 78 -6 112 -18v49c0 38 -9 65 -27 81s-47.333 24 -88 24
c-52 0 -102.667 -11.333 -152 -34l-10 101c52.667 25.333 113.667 38 183 38c76.667 0 131.167 -17.667 163.5 -53s48.5 -93.666 48.5 -174.999v-385h-91zM353 173.999v94c-20 11.333 -50 17 -90 17c-72 0 -108 -32.333 -108 -97s30.333 -97 91 -97
c28 0 52.833 8.33301 74.5 25s32.5 36 32.5 58zM239 741.999c0 -37.333 -18 -56 -54 -56s-54 18.667 -54 56c0 38 18 57 54 57s54 -19 54 -57zM401 741.999c0 -37.333 -18 -56 -54 -56s-54 18.667 -54 56c0 38 18 57 54 57s54 -19 54 -57z" />
    <glyph glyph-name="aring" unicode="&#xe5;" horiz-adv-x="529" 
d="M380 0l-10 62.999l-3 1c-34.667 -48.667 -85.667 -73 -153 -73c-54 0 -96.167 16.167 -126.5 48.5s-45.5 81.5 -45.5 147.5c0 57.333 17.333 102.5 52 135.5s83.667 49.5 147 49.5c40.667 0 78 -6 112 -18v49c0 38 -9 65 -27 81s-47.333 24 -88 24
c-52 0 -102.667 -11.333 -152 -34l-10 101c52.667 25.333 113.667 38 183 38c76.667 0 131.167 -17.667 163.5 -53s48.5 -93.666 48.5 -174.999v-385h-91zM353 173.999v94c-20 11.333 -50 17 -90 17c-72 0 -108 -32.333 -108 -97s30.333 -97 91 -97
c28 0 52.833 8.33301 74.5 25s32.5 36 32.5 58zM157 742.999c0 55.333 35.668 83 107.001 83c35.333 0 62.166 -7.5 80.499 -22.5s27.5 -35.167 27.5 -60.5c0 -54.667 -36 -82 -108 -82c-71.333 0 -107 27.333 -107 82zM217.001 742.999c0 -22.667 16.333 -34 49 -34
c32 0 48 11.333 48 34s-16 34 -48 34c-32.667 0 -49 -11.333 -49 -34z" />
    <glyph glyph-name="ae" unicode="&#xe6;" horiz-adv-x="837" 
d="M259 612c81.333 0 135.998 -23.333 163.998 -70c38.667 46.667 93 70 163 70c66.667 0 119 -22.667 157 -68s57 -115 57 -209c0 -22.667 -1 -43 -3 -61h-332c2.66699 -65.333 16.334 -111 41.001 -137s64 -39 118 -39c50.667 0 99.334 11.333 146.001 34l13 -104
c-48.667 -26 -106.667 -39 -174 -39c-96.667 0 -165 30.333 -205 91c-38 -60 -97.333 -90 -178 -90c-122.667 0 -184 65.333 -184 196c0 57.333 17.333 102.5 52 135.5s83.667 49.5 147 49.5c40 0 77.333 -6.33301 112 -19v50c0 38 -9 65 -27 81s-47.333 24 -88 24
c-52 0 -102.667 -11.333 -152 -34l-10 101c56 25.333 117 38 183 38zM352.998 184v83c-20 11.333 -50 17 -90 17c-72.667 0 -109 -32.333 -109 -97s30.667 -97 92 -97c30.667 0 56.167 8.66699 76.5 26s30.5 40 30.5 68zM463.998 358h226.002
c-0.666992 100 -37.667 150 -111 150c-38.667 0 -66.834 -11.5 -84.501 -34.5s-27.834 -61.5 -30.501 -115.5z" />
    <glyph glyph-name="ccedilla" unicode="&#xe7;" horiz-adv-x="451" 
d="M175 -187l57.998 179.002c-65.333 9.33301 -114.166 39.166 -146.499 89.499s-48.5 124.166 -48.5 221.499c0 104 19.833 181.5 59.5 232.5s101.834 76.5 186.501 76.5c48 0 91.667 -8.66699 131 -26l-7 -107c-32 13.333 -65 20 -99 20c-54.667 0 -93 -14.5 -115 -43.5
s-33 -79.833 -33 -152.5c0 -74 12 -127.167 36 -159.5s60.333 -48.5 109 -48.5c39.333 0 74.333 8.66699 105 26l9 -98c-26 -18 -61.333 -29 -106 -33l-29 -177h-110z" />
    <glyph glyph-name="egrave" unicode="&#xe8;" horiz-adv-x="533" 
d="M305 -11c-92.667 0 -160.333 26.168 -203 78.501s-64 134.166 -64 245.499c0 199.333 78.667 299 236 299c148.667 0 223 -92.333 223 -277c0 -16.667 -1.33301 -37 -4 -61h-332c2.66699 -65.333 16.167 -111 40.5 -137s63.833 -39 118.5 -39c50 0 98.667 10.333 146 31
l13 -101c-48.667 -26 -106.667 -39 -174 -39zM159.001 358.001h227.001c-0.666992 100 -37.667 150 -111 150c-39.333 0 -67.833 -11.5 -85.5 -34.5s-27.834 -61.5 -30.501 -115.5zM336.002 661.001h-91l-106 142h138z" />
    <glyph glyph-name="eacute" unicode="&#xe9;" horiz-adv-x="533" 
d="M305 -11c-92.667 0 -160.333 26.168 -203 78.501s-64 134.166 -64 245.499c0 199.333 78.667 299 236 299c148.667 0 223 -92.333 223 -277c0 -16.667 -1.33301 -37 -4 -61h-332c2.66699 -65.333 16.167 -111 40.5 -137s63.833 -39 118.5 -39c50 0 98.667 10.333 146 31
l13 -101c-48.667 -26 -106.667 -39 -174 -39zM159.001 358.001h227.001c-0.666992 100 -37.667 150 -111 150c-39.333 0 -67.833 -11.5 -85.5 -34.5s-27.834 -61.5 -30.501 -115.5zM268.002 803.001h138l-108 -142h-90z" />
    <glyph glyph-name="ecircumflex" unicode="&#xea;" horiz-adv-x="533" 
d="M305 -11c-92.667 0 -160.333 26.168 -203 78.501s-64 134.166 -64 245.499c0 199.333 78.667 299 236 299c148.667 0 223 -92.333 223 -277c0 -16.667 -1.33301 -37 -4 -61h-332c2.66699 -65.333 16.167 -111 40.5 -137s63.833 -39 118.5 -39c50 0 98.667 10.333 146 31
l13 -101c-48.667 -26 -106.667 -39 -174 -39zM159.001 358.001h227.001c-0.666992 100 -37.667 150 -111 150c-39.333 0 -67.833 -11.5 -85.5 -34.5s-27.834 -61.5 -30.501 -115.5zM222.002 803.001h102l96 -142h-91l-55 89l-56 -89h-90z" />
    <glyph glyph-name="edieresis" unicode="&#xeb;" horiz-adv-x="533" 
d="M305 -11c-92.667 0 -160.333 26.168 -203 78.501s-64 134.166 -64 245.499c0 199.333 78.667 299 236 299c148.667 0 223 -92.333 223 -277c0 -16.667 -1.33301 -37 -4 -61h-332c2.66699 -65.333 16.167 -111 40.5 -137s63.833 -39 118.5 -39c50 0 98.667 10.333 146 31
l13 -101c-48.667 -26 -106.667 -39 -174 -39zM159.001 358.001h227.001c-0.666992 100 -37.667 150 -111 150c-39.333 0 -67.833 -11.5 -85.5 -34.5s-27.834 -61.5 -30.501 -115.5zM239.002 742.001c0 -37.333 -18 -56 -54 -56s-54 18.667 -54 56c0 38 18 57 54 57
s54 -19 54 -57zM401.002 742.001c0 -37.333 -18 -56 -54 -56s-54 18.667 -54 56c0 38 18 57 54 57s54 -19 54 -57z" />
    <glyph glyph-name="igrave" unicode="&#xec;" horiz-adv-x="291" 
d="M206 0h-122v599l122 6v-605zM208 661h-91l-106 142h138z" />
    <glyph glyph-name="iacute" unicode="&#xed;" horiz-adv-x="291" 
d="M206 0h-122v599l122 6v-605zM140 803h138l-108 -142h-90z" />
    <glyph glyph-name="icircumflex" unicode="&#xee;" horiz-adv-x="291" 
d="M206 0h-122v599l122 6v-605zM95 803h102l96 -142h-91l-55 89l-56 -89h-90z" />
    <glyph glyph-name="idieresis" unicode="&#xef;" horiz-adv-x="291" 
d="M206 0h-122v599l122 6v-605zM122 742c0 -37.333 -18 -56 -54 -56s-54 18.667 -54 56c0 38 18 57 54 57s54 -19 54 -57zM284 742c0 -37.333 -18 -56 -54 -56s-54 18.667 -54 56c0 38 18 57 54 57s54 -19 54 -57z" />
    <glyph glyph-name="eth" unicode="&#xf0;" horiz-adv-x="567" 
d="M438 745l-69.001 -47.999c47.333 -51.333 85.833 -108.833 115.5 -172.5s44.5 -126.5 44.5 -188.5c0 -123.333 -19.667 -212 -59 -266s-100.666 -81 -183.999 -81c-82 0 -143.833 22.167 -185.5 66.5s-62.5 122.166 -62.5 233.499c0 93.333 18 161.833 54 205.5
s90 65.5 162 65.5c48 0 87.667 -10.333 119 -31l2 2c-23.333 40 -51.333 77 -84 111l-80 -56l-44 50l72 52c-20.667 16.667 -47.667 35.667 -81 57l85 56c26 -15.333 51.333 -34 76 -56l76 55zM160.999 283.001c0 -74 9.5 -124 28.5 -150s49.5 -39 91.5 -39
c43.333 0 74.833 16.667 94.5 50s29.5 88.333 29.5 165c0 51.333 -10 88.5 -30 111.5s-51 34.5 -93 34.5c-44 0 -75.167 -12.5 -93.5 -37.5s-27.5 -69.833 -27.5 -134.5z" />
    <glyph glyph-name="ntilde" unicode="&#xf1;" horiz-adv-x="571" 
d="M512 0h-119v402c0 67.333 -34 101 -102 101c-20.667 0 -41 -4.83301 -61 -14.5s-35 -22.5 -45 -38.5v-450h-119v600l86 6l18 -54c42 40.667 93.667 61 155 61c58.667 0 104.5 -18 137.5 -54s49.5 -88 49.5 -156v-403zM197 677l-55.002 0.999023
c2 36.667 11 66.334 27 89.001s36.667 34 62 34c22 0 45 -9.5 69 -28.5s42 -28.5 54 -28.5c16.667 0 28.334 15.333 35.001 46l56 -1c-2.66699 -37.333 -12.167 -67 -28.5 -89s-37.166 -33 -62.499 -33c-21.333 0 -44 9.5 -68 28.5s-41.667 28.5 -53 28.5
c-18.667 0 -30.667 -15.667 -36 -47z" />
    <glyph glyph-name="ograve" unicode="&#xf2;" horiz-adv-x="566" 
d="M528 299c0 -113.333 -19.167 -193.668 -57.5 -241.001s-100.5 -71 -186.5 -71s-148.5 23.833 -187.5 71.5s-58.5 127.834 -58.5 240.501s19.5 193.167 58.5 241.5s101.5 72.5 187.5 72.5s148.167 -24 186.5 -72s57.5 -128.667 57.5 -242zM161 298.998
c0 -80.667 9.16699 -135.832 27.5 -165.499s50.166 -44.5 95.499 -44.5c44.667 0 75.834 14.667 93.501 44s26.5 84.666 26.5 165.999s-8.83301 136.666 -26.5 165.999s-48.834 44 -93.501 44c-45.333 0 -77.166 -14.667 -95.499 -44s-27.5 -84.666 -27.5 -165.999zM346 661
h-91l-106 142h138z" />
    <glyph glyph-name="oacute" unicode="&#xf3;" horiz-adv-x="566" 
d="M528 299c0 -113.333 -19.167 -193.668 -57.5 -241.001s-100.5 -71 -186.5 -71s-148.5 23.833 -187.5 71.5s-58.5 127.834 -58.5 240.501s19.5 193.167 58.5 241.5s101.5 72.5 187.5 72.5s148.167 -24 186.5 -72s57.5 -128.667 57.5 -242zM161 298.998
c0 -80.667 9.16699 -135.832 27.5 -165.499s50.166 -44.5 95.499 -44.5c44.667 0 75.834 14.667 93.501 44s26.5 84.666 26.5 165.999s-8.83301 136.666 -26.5 165.999s-48.834 44 -93.501 44c-45.333 0 -77.166 -14.667 -95.499 -44s-27.5 -84.666 -27.5 -165.999zM278 803
h138l-108 -142h-90z" />
    <glyph glyph-name="ocircumflex" unicode="&#xf4;" horiz-adv-x="566" 
d="M528 299c0 -113.333 -19.167 -193.668 -57.5 -241.001s-100.5 -71 -186.5 -71s-148.5 23.833 -187.5 71.5s-58.5 127.834 -58.5 240.501s19.5 193.167 58.5 241.5s101.5 72.5 187.5 72.5s148.167 -24 186.5 -72s57.5 -128.667 57.5 -242zM161 298.998
c0 -80.667 9.16699 -135.832 27.5 -165.499s50.166 -44.5 95.499 -44.5c44.667 0 75.834 14.667 93.501 44s26.5 84.666 26.5 165.999s-8.83301 136.666 -26.5 165.999s-48.834 44 -93.501 44c-45.333 0 -77.166 -14.667 -95.499 -44s-27.5 -84.666 -27.5 -165.999zM232 803
h102l96 -142h-91l-55 89l-56 -89h-90z" />
    <glyph glyph-name="otilde" unicode="&#xf5;" horiz-adv-x="566" 
d="M528 299c0 -113.333 -19.167 -193.668 -57.5 -241.001s-100.5 -71 -186.5 -71s-148.5 23.833 -187.5 71.5s-58.5 127.834 -58.5 240.501s19.5 193.167 58.5 241.5s101.5 72.5 187.5 72.5s148.167 -24 186.5 -72s57.5 -128.667 57.5 -242zM161 298.998
c0 -80.667 9.16699 -135.832 27.5 -165.499s50.166 -44.5 95.499 -44.5c44.667 0 75.834 14.667 93.501 44s26.5 84.666 26.5 165.999s-8.83301 136.666 -26.5 165.999s-48.834 44 -93.501 44c-45.333 0 -77.166 -14.667 -95.499 -44s-27.5 -84.666 -27.5 -165.999zM192 677
l-55 0.999023c2 36.667 11 66.334 27 89.001s36.667 34 62 34c21.333 0 44.333 -9.5 69 -28.5s42.667 -28.5 54 -28.5c16.667 0 28.334 15.333 35.001 46l56 -1c-2.66699 -37.333 -12.167 -67 -28.5 -89s-37.166 -33 -62.499 -33c-20.667 0 -43.334 9.5 -68.001 28.5
s-42.334 28.5 -53.001 28.5c-18.667 0 -30.667 -15.667 -36 -47z" />
    <glyph glyph-name="odieresis" unicode="&#xf6;" horiz-adv-x="566" 
d="M528 299c0 -113.333 -19.167 -193.668 -57.5 -241.001s-100.5 -71 -186.5 -71s-148.5 23.833 -187.5 71.5s-58.5 127.834 -58.5 240.501s19.5 193.167 58.5 241.5s101.5 72.5 187.5 72.5s148.167 -24 186.5 -72s57.5 -128.667 57.5 -242zM161 298.998
c0 -80.667 9.16699 -135.832 27.5 -165.499s50.166 -44.5 95.499 -44.5c44.667 0 75.834 14.667 93.501 44s26.5 84.666 26.5 165.999s-8.83301 136.666 -26.5 165.999s-48.834 44 -93.501 44c-45.333 0 -77.166 -14.667 -95.499 -44s-27.5 -84.666 -27.5 -165.999zM256 742
c0 -37.333 -18 -56 -54 -56s-54 18.667 -54 56c0 38 18 57 54 57s54 -19 54 -57zM418 742c0 -37.333 -18 -56 -54 -56s-54 18.667 -54 56c0 38 18 57 54 57s54 -19 54 -57z" />
    <glyph glyph-name="divide" unicode="&#xf7;" horiz-adv-x="550" 
d="M352 511c0 -44 -25.333 -65.999 -76 -65.999c-51.333 0 -77 22 -77 66c0 21.333 6.83301 37.666 20.5 48.999s32.5 17 56.5 17c50.667 0 76 -22 76 -66zM352 163.001c0 -43.333 -25.333 -65 -76 -65c-25.333 0 -44.5 4.83301 -57.5 14.5s-19.5 26.5 -19.5 50.5
c0 44 25.667 66 77 66c50.667 0 76 -22 76 -66zM495 280.001h-440v114h440v-114z" />
    <glyph glyph-name="oslash" unicode="&#xf8;" horiz-adv-x="566" 
d="M81 -9l-50.998 45.998l43 59c-23.333 46.667 -35 114.334 -35 203.001c0 112.667 19.667 193.167 59 241.5s101.666 72.5 186.999 72.5c67.333 0 119.666 -14.333 156.999 -43l33 45l51 -45l-39 -54c28 -50 42 -122.333 42 -217
c0 -113.333 -19.167 -193.666 -57.5 -240.999s-100.5 -71 -186.5 -71c-74 0 -130 17 -168 51zM405.002 298.998c0 22 -1.66602 56.999 -4.99902 104.999l-2 1l-51 -64l-163 -199c17.333 -35.333 50.666 -53 99.999 -53c44.667 0 76 14.833 94 44.5s27 84.834 27 165.501z
M161.003 298.997c0 -32.667 0.999023 -61.668 2.99902 -87.001l2 -1l50 63l160 194c-18 27.333 -48.667 41 -92 41c-45.333 0 -77.166 -14.667 -95.499 -44s-27.5 -84.666 -27.5 -165.999z" />
    <glyph glyph-name="ugrave" unicode="&#xf9;" horiz-adv-x="564" 
d="M505 603v-405c0 -139.333 -74.333 -209 -223 -209s-223 69.667 -223 209v405h119v-403c0 -66.667 34.667 -100 104 -100s104 33.333 104 100v403h119zM344 661h-91l-106 142h138z" />
    <glyph glyph-name="uacute" unicode="&#xfa;" horiz-adv-x="564" 
d="M505 603v-405c0 -139.333 -74.333 -209 -223 -209s-223 69.667 -223 209v405h119v-403c0 -66.667 34.667 -100 104 -100s104 33.333 104 100v403h119zM276 803h138l-108 -142h-90z" />
    <glyph glyph-name="ucircumflex" unicode="&#xfb;" horiz-adv-x="564" 
d="M505 603v-405c0 -139.333 -74.333 -209 -223 -209s-223 69.667 -223 209v405h119v-403c0 -66.667 34.667 -100 104 -100s104 33.333 104 100v403h119zM231 803h102l96 -142h-91l-55 89l-56 -89h-90z" />
    <glyph glyph-name="udieresis" unicode="&#xfc;" horiz-adv-x="564" 
d="M506 603v-405c0 -139.333 -74.333 -209 -223 -209s-223 69.667 -223 209v405h119v-403c0 -66.667 34.667 -100 104 -100s104 33.333 104 100v403h119zM255 742c0 -37.333 -18 -56 -54 -56s-54 18.667 -54 56c0 38 18 57 54 57s54 -19 54 -57zM417 742
c0 -37.333 -18 -56 -54 -56s-54 18.667 -54 56c0 38 18 57 54 57s54 -19 54 -57z" />
    <glyph glyph-name="yacute" unicode="&#xfd;" horiz-adv-x="588" 
d="M166 -67c42 0 71.665 21.333 88.998 64l3 9l-236 597h137l132 -401l24 -77h3l18 78l103 400h127l-193 -607c-18.667 -55.333 -43.167 -95 -73.5 -119s-68.166 -36 -113.499 -36c-33.333 0 -63.333 5.66699 -90 17l11 89c18.667 -9.33301 38.334 -14 59.001 -14z
M289.998 803h138l-108 -142h-90z" />
    <glyph glyph-name="thorn" unicode="&#xfe;" horiz-adv-x="577" 
d="M539 302c0 -105.333 -18.502 -183.667 -55.502 -235s-89.167 -77 -156.5 -77c-57.333 0 -102.666 16.667 -135.999 50l-3 -1l2 -81v-105h-120v933l120 7v-159l-2 -80l3 -2c40 40 89 60 147 60c66.667 0 116.834 -23.333 150.501 -70s50.5 -126.667 50.5 -240z
M413.998 304.999c0 76 -8.83301 127.833 -26.5 155.5s-47.167 41.5 -88.5 41.5c-48.667 0 -85 -19 -109 -57v-291c22 -40 57 -60 105 -60c40 0 69.833 14.833 89.5 44.5s29.5 85.167 29.5 166.5z" />
    <glyph glyph-name="ydieresis" unicode="&#xff;" horiz-adv-x="588" 
d="M166 -67c42 0 71.665 21.333 88.998 64l3 9l-236 597h137l132 -401l24 -77h3l18 78l103 400h127l-193 -607c-18.667 -55.333 -43.167 -95 -73.5 -119s-68.166 -36 -113.499 -36c-33.333 0 -63.333 5.66699 -90 17l11 89c18.667 -9.33301 38.334 -14 59.001 -14z
M267.998 742c0 -37.333 -18 -56 -54 -56s-54 18.667 -54 56c0 38 18 57 54 57s54 -19 54 -57zM429.998 742c0 -37.333 -18 -56 -54 -56s-54 18.667 -54 56c0 38 18 57 54 57s54 -19 54 -57z" />
    <glyph glyph-name="dotlessi" unicode="&#x131;" horiz-adv-x="291" 
d="M206 0h-122v599l122 6v-605z" />
    <glyph glyph-name="IJ" unicode="&#x132;" horiz-adv-x="786" 
d="M87 0v750h131v-750h-131zM711 750v-499c0 -92 -21.667 -159 -65 -201s-106.333 -63 -189 -63c-54.667 0 -100 10.667 -136 32l8 115c28.667 -18.667 64.667 -28 108 -28c47.333 0 82.833 11.833 106.5 35.5s35.5 61.167 35.5 112.5v496h132z" />
    <glyph glyph-name="ij" unicode="&#x133;" horiz-adv-x="563" 
d="M208 0h-122v599l122 6v-605zM218 740c0 -38 -23.332 -57.001 -69.999 -57.001c-24.667 0 -42.834 4.33301 -54.501 13s-17.5 23.334 -17.5 44.001c0 39.333 24 59 72 59c46.667 0 70 -19.667 70 -59zM489.001 604.999v-606c0 -104 -50 -156 -150 -156
c-26 0 -50 4.33301 -72 13l6 87c14 -4.66699 26.333 -7 37 -7c40 0 60 22 60 66v597zM498.001 741.999c0 -39.333 -23.667 -59 -71 -59c-24.667 0 -42.667 4.5 -54 13.5s-17 24.167 -17 45.5c0 39.333 23.667 59 71 59s71 -19.667 71 -59z" />
    <glyph glyph-name="Lslash" unicode="&#x141;" horiz-adv-x="543" 
d="M233 122h292l-4 -122h-418v291l-66 -31l-10 109l76 36v345h130v-289l173 82l11 -114l-184 -84v-223z" />
    <glyph glyph-name="lslash" unicode="&#x142;" horiz-adv-x="337" 
d="M33 346l-2 108l75 39v293l120 7v-248l80 43l1 -104l-81 -45v-439h-120v386z" />
    <glyph glyph-name="OE" unicode="&#x152;" horiz-adv-x="975" 
d="M937 0h-435.001v70l-3 1c-37.333 -56 -99.333 -84 -186 -84c-91.333 0 -158.5 30.333 -201.5 91s-64.5 159.667 -64.5 297c0 138 21.333 237 64 297s110.667 90 204 90c84.667 0 146.334 -24.667 185.001 -74h2v62h421l2 -120h-306v-187h259v-110h-259v-214h321z
M492.999 375c0 105.333 -10.999 175.833 -32.999 211.5s-62.667 53.5 -122 53.5c-40 0 -70.667 -7 -92 -21s-37.333 -40.167 -48 -78.5s-16 -93.5 -16 -165.5s5.33301 -127.333 16 -166s26.667 -65.167 48 -79.5s52 -21.5 92 -21.5s70.667 7.33301 92 22
s37.166 41.167 47.499 79.5s15.5 93.5 15.5 165.5z" />
    <glyph glyph-name="oe" unicode="&#x153;" horiz-adv-x="903" 
d="M678 -11c-101.333 0 -169 32.334 -203 97.001h-3c-17.333 -34.667 -41.5 -59.834 -72.5 -75.501s-71.167 -23.5 -120.5 -23.5c-82 0 -141.833 24 -179.5 72s-56.5 128 -56.5 240c0 112.667 19 193.167 57 241.5s98 72.5 180 72.5c92 0 155.333 -29.667 190 -89
c36 58.667 95 88 177 88c69.333 0 123.166 -22.5 161.499 -67.5s57.5 -114.833 57.5 -209.5c0 -22.667 -1 -43 -3 -61h-331c2.66699 -65.333 16.167 -111 40.5 -137s63.5 -39 117.5 -39c50.667 0 99.334 11.333 146.001 34l13 -104c-48.667 -26 -105.667 -39 -171 -39z
M166 299.001c0 -80.667 9.16699 -135.832 27.5 -165.499s50.166 -44.5 95.499 -44.5c44.667 0 75.834 14.667 93.501 44s26.5 84.666 26.5 165.999s-8.83301 136.666 -26.5 165.999s-49.167 44 -94.5 44s-77 -14.667 -95 -44s-27 -84.666 -27 -165.999zM529 358.003h227.002
c-0.666992 100 -38 150 -112 150c-38.667 0 -66.834 -11.5 -84.501 -34.5s-27.834 -61.5 -30.501 -115.5z" />
    <glyph glyph-name="Scaron" unicode="&#x160;" horiz-adv-x="520" 
d="M490 217c0 -72.667 -21.499 -129.166 -64.499 -169.499s-103.5 -60.5 -181.5 -60.5c-77.333 0 -145.333 17.667 -204 53l18 117c58.667 -34.667 119.667 -52 183 -52c83.333 0 125 34.667 125 104c0 19.333 -6 36.333 -18 51s-27.333 26.834 -46 36.501
s-39.5 19 -62.5 28s-46 19.5 -69 31.5s-43.833 25.5 -62.5 40.5s-34 35.167 -46 60.5s-18 54.666 -18 87.999c0 64.667 20 117 60 157s99.333 60 178 60c69.333 0 130.666 -12.333 183.999 -37l-16 -114c-58.667 20.667 -112 31 -160 31c-81.333 0 -122 -30.333 -122 -91
c0 -21.333 8 -40 24 -56s35.833 -28.333 59.5 -37s49.5 -19.5 77.5 -32.5s53.833 -27 77.5 -42s43.5 -36.833 59.5 -65.5s24 -62.334 24 -101.001zM346.001 794.001h-126l-101 115h108l57 -65l57 65h107z" />
    <glyph glyph-name="scaron" unicode="&#x161;" horiz-adv-x="451" 
d="M417 181c0 -128.667 -68 -193.002 -204 -193.002c-68 0 -124 14 -168 42l12 105c44 -28.667 95.333 -43 154 -43c64 0 96 26.333 96 79c0 20.667 -9.16699 37.834 -27.5 51.501s-40.5 25 -66.5 34s-51.833 19.333 -77.5 31s-47.667 29.834 -66 54.501s-27.5 56 -27.5 94
c0 53.333 17.333 96 52 128s85 48 151 48c54.667 0 104.667 -10.333 150 -31l-9 -103c-46 19.333 -93 29 -141 29c-28 0 -49.833 -5.83301 -65.5 -17.5s-23.5 -27.5 -23.5 -47.5s9 -36.333 27 -49s39.667 -23.167 65 -31.5s50.833 -18.333 76.5 -30s47.5 -30.167 65.5 -55.5
s27 -57 27 -95zM286 660.998h-103l-93 142h90l55 -94l55 94h91z" />
    <glyph glyph-name="Ydieresis" unicode="&#x178;" horiz-adv-x="620" 
d="M12 750h145l127 -310l29 -75h3l28 75l123 310h140l-229 -507v-243h-132v243zM276 849c0 -35.333 -17.667 -53 -53 -53s-53 17.667 -53 53c0 36 17.667 54 53 54s53 -18 53 -54zM457 849c0 -35.333 -18 -53 -54 -53c-35.333 0 -53 17.667 -53 53c0 36 17.667 54 53 54
c36 0 54 -18 54 -54z" />
    <glyph glyph-name="Zcaron" unicode="&#x17d;" horiz-adv-x="558" 
d="M514 0h-478v89l286 471l44 66l-2 2h-320l5 122h467v-99l-280 -461l-43 -65l1 -3h323zM347 794h-126l-101 115h108l57 -65l57 65h107z" />
    <glyph glyph-name="zcaron" unicode="&#x17e;" horiz-adv-x="489" 
d="M441 515l-219 -344l-44 -64l1 -3h269l-4 -104h-399v88l217 341l44 66l-1 2h-252l4 106h384v-88zM300 661h-103l-93 142h90l55 -94l55 94h91z" />
    <glyph glyph-name="florin" unicode="&#x192;" horiz-adv-x="385" 
d="M101 -147h-118l133 654h-56l19 95h56l9 47c8.66699 42.667 29 76.667 61 102s73.667 38 125 38c31.333 0 58.333 -4 81 -12l-24 -84c-14.667 5.33301 -31 8 -49 8c-42.667 0 -67.667 -18.667 -75 -56l-9 -43h120l-19 -95h-120z" />
    <glyph glyph-name="circumflex" unicode="&#x2c6;" 
d="M138 803h102l96 -142h-91l-55 89l-56 -89h-90z" />
    <glyph glyph-name="caron" unicode="&#x2c7;" 
d="M241 661h-103l-93 142h90l55 -94l55 94h91z" />
    <glyph glyph-name="breve" unicode="&#x2d8;" 
d="M247 803h81c0 -100 -46.333 -150 -139 -150s-139 50 -139 150h80c0 -56 19.667 -84 59 -84c38.667 0 58 28 58 84z" />
    <glyph glyph-name="dotaccent" unicode="&#x2d9;" 
d="M260 742c0 -39.333 -23.667 -59 -71 -59c-24 0 -41.833 4.5 -53.5 13.5s-17.5 24.167 -17.5 45.5c0 39.333 23.667 59 71 59s71 -19.667 71 -59z" />
    <glyph glyph-name="ring" unicode="&#x2da;" 
d="M83 743c0 55.333 35.668 83 107.001 83c35.333 0 62.166 -7.5 80.499 -22.5s27.5 -35.167 27.5 -60.5c0 -54.667 -36 -82 -108 -82c-71.333 0 -107 27.333 -107 82zM143.001 743c0 -22.667 16.333 -34 49 -34c32 0 48 11.333 48 34s-16 34 -48 34
c-32.667 0 -49 -11.333 -49 -34z" />
    <glyph glyph-name="ogonek" unicode="&#x2db;" 
d="M243 -179c-36.667 0 -63.833 7.66992 -81.5 23.0029s-26.5 35.666 -26.5 60.999c0 53.333 31.667 91 95 113l48 -18c-35.333 -12.667 -53 -34.334 -53 -65.001c0 -24.667 16.667 -37.334 50 -38.001c18 0 34.333 4 49 12l10 -66c-26 -14.667 -56.333 -22 -91 -22z" />
    <glyph glyph-name="tilde" unicode="&#x2dc;" 
d="M100 677l-55 0.999023c2 36.667 11 66.334 27 89.001s36.667 34 62 34c21.333 0 44.333 -9.5 69 -28.5s42.667 -28.5 54 -28.5c16.667 0 28.334 15.333 35.001 46l56 -1c-2.66699 -37.333 -12.167 -67 -28.5 -89s-37.166 -33 -62.499 -33
c-20.667 0 -43.334 9.5 -68.001 28.5s-42.334 28.5 -53.001 28.5c-18.667 0 -30.667 -15.667 -36 -47z" />
    <glyph glyph-name="hungarumlaut" unicode="&#x2dd;" 
d="M132 803h123l-100 -142h-78zM300 803h125l-111 -142h-87z" />
    <glyph glyph-name="Delta" unicode="&#x394;" horiz-adv-x="678" 
d="M381 754l262 -754h-610l263 754h85zM337 592l-24 -78l-136 -405h320l-134 405l-23 78h-3z" />
    <glyph glyph-name="Omega" unicode="&#x3a9;" horiz-adv-x="675" 
d="M337 761c93.333 0 164.333 -25.833 213 -77.5s73 -133.167 73 -244.5c0 -134.667 -50.333 -243.334 -151 -326.001v-3h154v-110h-259v162c81.333 76.667 122 167.334 122 272.001c0 75.333 -12 128.666 -36 159.999s-62.667 47 -116 47c-52.667 0 -91 -15.667 -115 -47
s-36 -84.666 -36 -159.999c0 -105.333 40.667 -196 122 -272v-162h-260v110h155l1 3c-101.333 80 -152 188.667 -152 326c0 214.667 95 322 285 322z" />
    <glyph glyph-name="mu" unicode="&#x3bc;" horiz-adv-x="570" 
d="M296 -10c-58 0 -99.999 23 -125.999 69l-2 -1c3.33301 -79.333 7.66602 -147 12.999 -203l-115 -9v757h119v-405c0 -30 9.83301 -53.833 29.5 -71.5s45.5 -26.5 77.5 -26.5c30.667 0 55.167 7.5 73.5 22.5s27.5 37.167 27.5 66.5v414h119v-600l-84 -8l-15 46h-3
c-25.333 -34 -63.333 -51 -114 -51z" />
    <glyph glyph-name="pi" unicode="&#x3c0;" horiz-adv-x="620" 
d="M388 154v341h-153v-495h-119v494c-32 -0.666992 -56.333 -7 -73 -19l-28 97c28 20.667 76.667 31 146 31h420v-107h-75v-342c0 -24.667 4.16699 -41.667 12.5 -51s23.5 -14 45.5 -14v-93c-68.667 0 -115.167 11.333 -139.5 34s-36.5 64 -36.5 124z" />
    <glyph glyph-name="endash" unicode="&#x2013;" horiz-adv-x="483" 
d="M55 389h372v-92h-372v92z" />
    <glyph glyph-name="emdash" unicode="&#x2014;" horiz-adv-x="654" 
d="M55 389h544v-92h-544v92z" />
    <glyph glyph-name="quoteleft" unicode="&#x2018;" horiz-adv-x="227" 
d="M114 549c-24 0 -42 6.83203 -54 20.499s-18 32.5 -18 56.5c0 22 8.33301 53 25 93s34.667 74 54 102l42 -11l-24 -120c12 -5.33301 22.5 -14.166 31.5 -26.499s13.5 -25.833 13.5 -40.5c0 -49.333 -23.333 -74 -70 -74z" />
    <glyph glyph-name="quoteright" unicode="&#x2019;" horiz-adv-x="227" 
d="M113 786c24 0 42 -6.83203 54 -20.499s18 -32.5 18 -56.5c0 -22 -8.33301 -53 -25 -93s-34.667 -74 -54 -102l-42 11l24 120c-12 5.33301 -22.5 14.166 -31.5 26.499s-13.5 25.833 -13.5 40.5c0 49.333 23.333 74 70 74z" />
    <glyph glyph-name="quotesinglbase" unicode="&#x201a;" horiz-adv-x="227" 
d="M113 131c24 0 42 -6.83203 54 -20.499s18 -32.5 18 -56.5c0 -22 -8.33301 -53 -25 -93s-34.667 -74 -54 -102l-42 11l24 120c-12 5.33301 -22.5 14.166 -31.5 26.499s-13.5 25.833 -13.5 40.5c0 49.333 23.333 74 70 74z" />
    <glyph glyph-name="quotedblleft" unicode="&#x201c;" horiz-adv-x="414" 
d="M301 549c-24 0 -42 6.83203 -54 20.499s-18 32.5 -18 56.5c0 22 8.33301 53 25 93s34.667 74 54 102l42 -11l-24 -120c12 -5.33301 22.5 -14.166 31.5 -26.499s13.5 -25.833 13.5 -40.5c0 -49.333 -23.333 -74 -70 -74zM114 548.999c-24 0 -42 6.83203 -54 20.499
s-18 32.5 -18 56.5c0 22 8.33301 53 25 93s34.667 74 54 102l42 -11l-24 -120c12 -5.33301 22.5 -14.166 31.5 -26.499s13.5 -25.833 13.5 -40.5c0 -49.333 -23.333 -74 -70 -74z" />
    <glyph glyph-name="quotedblright" unicode="&#x201d;" horiz-adv-x="414" 
d="M113 785c24 0 42 -6.83203 54 -20.499s18 -32.5 18 -56.5c0 -22 -8.33301 -53 -25 -93s-34.667 -74 -54 -102l-42 11l24 120c-12 5.33301 -22.5 14.166 -31.5 26.499s-13.5 25.833 -13.5 40.5c0 49.333 23.333 74 70 74zM300 785.001c24 0 42 -6.83203 54 -20.499
s18 -32.5 18 -56.5c0 -22 -8.33301 -53 -25 -93s-34.667 -74 -54 -102l-42 11l24 120c-12 5.33301 -22.5 14.166 -31.5 26.499s-13.5 25.833 -13.5 40.5c0 49.333 23.333 74 70 74z" />
    <glyph glyph-name="quotedblbase" unicode="&#x201e;" horiz-adv-x="414" 
d="M113 131c24 0 42 -6.83203 54 -20.499s18 -32.5 18 -56.5c0 -22 -8.33301 -53 -25 -93s-34.667 -74 -54 -102l-42 11l24 120c-12 5.33301 -22.5 14.166 -31.5 26.499s-13.5 25.833 -13.5 40.5c0 49.333 23.333 74 70 74zM300 131.001c24 0 42 -6.83203 54 -20.499
s18 -32.5 18 -56.5c0 -22 -8.33301 -53 -25 -93s-34.667 -74 -54 -102l-42 11l24 120c-12 5.33301 -22.5 14.166 -31.5 26.499s-13.5 25.833 -13.5 40.5c0 49.333 23.333 74 70 74z" />
    <glyph glyph-name="dagger" unicode="&#x2020;" horiz-adv-x="465" 
d="M33 609l148 -9l-11 187h121l-9 -187l150 9v-117l-150 9l9 -641h-121l11 641l-148 -9v117z" />
    <glyph glyph-name="daggerdbl" unicode="&#x2021;" horiz-adv-x="465" 
d="M432 158v-117l-151 10l10 -192h-121l11 192l-148 -10v117l149 -8l-1 351l-148 -9v117l148 -9l-11 187h121l-9 -187l150 9v-117l-150 9v-351z" />
    <glyph glyph-name="bullet" unicode="&#x2022;" horiz-adv-x="388" 
d="M51 324c0 96 47 144 141 144s141 -48 141 -144c0 -97.333 -47 -146 -141 -146s-141 48.667 -141 146z" />
    <glyph glyph-name="ellipsis" unicode="&#x2026;" horiz-adv-x="649" 
d="M601 61c0 -48 -24.334 -71.999 -73.001 -71.999c-25.333 0 -43.666 5.66699 -54.999 17s-17 29.666 -17 54.999c0 48 24 72 72 72c48.667 0 73 -24 73 -72zM400.999 61.001c0 -48 -24.334 -71.999 -73.001 -71.999c-25.333 0 -43.666 5.66699 -54.999 17
s-17 29.666 -17 54.999c0 48 24 72 72 72c48.667 0 73 -24 73 -72zM193.998 61.002c0 -48 -24.334 -71.999 -73.001 -71.999c-25.333 0 -43.666 5.66699 -54.999 17s-17 29.666 -17 54.999c0 48 24 72 72 72c48.667 0 73 -24 73 -72z" />
    <glyph glyph-name="perthousand" unicode="&#x2030;" horiz-adv-x="977" 
d="M314 588c0 -115.333 -46.667 -173 -140 -173c-47.333 0 -82.333 14 -105 42s-34 71.667 -34 131c0 60.667 11 104.667 33 132s57.667 41 107 41c46.667 0 81.5 -13.333 104.5 -40s34.5 -71 34.5 -133zM234 589c0 36 -4.66699 60.667 -14 74s-24.333 20 -45 20
s-35.667 -6.66699 -45 -20s-14 -38 -14 -74s4.66699 -60.667 14 -74s24.333 -20 45 -20s35.667 6.66699 45 20s14 38 14 74zM484 719l71 -56l-380 -636l-71 56zM636 164c0 -115.333 -46.667 -173 -140 -173c-48 0 -83.167 14 -105.5 42s-33.5 71.667 -33.5 131
c0 61.333 11 105.833 33 133.5s57.333 41.5 106 41.5c46.667 0 81.667 -13.667 105 -41s35 -72 35 -134zM555 164c0 35.333 -4.66699 59.5 -14 72.5s-24.333 19.5 -45 19.5s-35.5 -6.33301 -44.5 -19s-13.5 -37 -13.5 -73s4.5 -60.333 13.5 -73s23.833 -19 44.5 -19
c21.333 0 36.5 6.33301 45.5 19s13.5 37 13.5 73zM942 164c0 -115.333 -47 -173 -141 -173c-47.333 0 -82.333 14 -105 42s-34 71.667 -34 131c0 61.333 11.167 105.833 33.5 133.5s57.833 41.5 106.5 41.5c46.667 0 81.667 -13.667 105 -41s35 -72 35 -134zM861 164
c0 35.333 -4.66602 59.5 -13.999 72.5s-24.333 19.5 -45 19.5s-35.667 -6.33301 -45 -19s-14 -37 -14 -73s4.66699 -60.333 14 -73s24 -19 44 -19c21.333 0 36.666 6.33301 45.999 19s14 37 14 73z" />
    <glyph glyph-name="guilsinglleft" unicode="&#x2039;" horiz-adv-x="374" 
d="M320 426l-166 -106l166 -105v-97l-285 198v9l285 198v-97z" />
    <glyph glyph-name="guilsinglright" unicode="&#x203a;" horiz-adv-x="374" 
d="M54 118v97l165 105l-165 106v97l285 -198v-9z" />
    <glyph glyph-name="fraction" unicode="&#x2044;" horiz-adv-x="279" 
d="M343 750h87l-466 -750h-86z" />
    <glyph glyph-name="uni2070" unicode="&#x2070;" horiz-adv-x="346" 
d="M322 687c0 -70.667 -11.833 -121.834 -35.5 -153.501s-61.5 -47.5 -113.5 -47.5s-89.667 15.833 -113 47.5s-35 82.834 -35 153.501c0 73.333 11.667 125.5 35 156.5s61.333 46.5 114 46.5s90.5 -15.5 113.5 -46.5s34.5 -83.167 34.5 -156.5zM236 688
c0 50.667 -4.66699 84.667 -14 102s-25.333 26 -48 26c-23.333 0 -39.833 -8.5 -49.5 -25.5s-14.5 -51.167 -14.5 -102.5s4.83301 -85.666 14.5 -102.999s26.167 -26 49.5 -26c22.667 0 38.667 8.66699 48 26s14 51.666 14 102.999z" />
    <glyph glyph-name="uni2074" unicode="&#x2074;" horiz-adv-x="346" 
d="M331 566h-38v-75h-81v75h-184l-7 53l167 266h105v-247h40zM215 638l2 87l5 80h-3l-60 -99l-43 -65l1 -3h98z" />
    <glyph glyph-name="uni2075" unicode="&#x2075;" horiz-adv-x="346" 
d="M316 627c0 -94 -48.999 -141.001 -146.999 -141.001c-48.667 0 -89.667 9 -123 27l13 69c34 -16 68 -24 102 -24c25.333 0 43.166 4.83301 53.499 14.5s15.5 25.834 15.5 48.501c0 33.333 -22.333 50 -67 50c-32 0 -59 -4 -81 -12l-33 31l17 195h228l3 -76h-163l-5 -72
c20 3.33301 39 5 57 5c86.667 0 130 -38.333 130 -115z" />
    <glyph glyph-name="uni2076" unicode="&#x2076;" horiz-adv-x="346" 
d="M321 629c0 -95.333 -47.332 -142.999 -141.999 -142.999c-50 0 -87.667 15.167 -113 45.5s-38 79.166 -38 146.499c0 70 15 122.833 45 158.5s73.667 53.5 131 53.5c36.667 0 67.667 -5 93 -15l-5 -72c-23.333 8 -49 12 -77 12c-32 0 -55.833 -7 -71.5 -21
s-25.834 -36.333 -30.501 -67l2 -2c24 14.667 50.333 22 79 22c84.667 0 127 -39.333 127 -118zM235.001 629.001c0 34.667 -19 52 -57 52c-28.667 0 -49 -8.33301 -61 -25c0.666992 -36.667 5.66699 -62.167 15 -76.5s25 -21.5 47 -21.5c37.333 0 56 23.667 56 71z" />
    <glyph glyph-name="uni2077" unicode="&#x2077;" horiz-adv-x="346" 
d="M318 885v-74l-148 -320h-100l156 313h-197l4 81h285z" />
    <glyph glyph-name="uni2078" unicode="&#x2078;" horiz-adv-x="346" 
d="M25 606c0 38.667 18.667 69.001 56 91.001c-27.333 21.333 -41 50.666 -41 87.999c0 70 44.667 105 134 105c88.667 0 133 -35 133 -105c0 -34 -14.667 -62 -44 -84c38.667 -20 58 -51.667 58 -95c0 -80 -49 -120 -147 -120c-99.333 0 -149 40 -149 120zM236 599.001
c0 4 -0.500977 7.66504 -1.50098 10.998s-2 6.33301 -3 9s-3 5.33398 -6 8.00098s-5.33301 4.83398 -7 6.50098s-4.66699 3.66699 -9 6l-10 5.5c-2.33301 1.33301 -6.33301 3 -12 5s-9.66699 3.5 -12 4.5s-6.66602 2.66699 -12.999 5s-10.833 3.83301 -13.5 4.5
c-26.667 -16 -40 -35.667 -40 -59c0 -18.667 5.16699 -32 15.5 -40s27.5 -12 51.5 -12c40 0 60 15.333 60 46zM120.999 780.999c0 -14.667 6 -25.833 18 -33.5s30.667 -15.167 56 -22.5c22 16 33 33.333 33 52c0 30.667 -18 46 -54 46c-35.333 0 -53 -14 -53 -42z" />
    <glyph glyph-name="uni2079" unicode="&#x2079;" horiz-adv-x="346" 
d="M317 704c0 -76 -13.668 -131.333 -41.001 -166s-69.333 -52 -126 -52c-36 0 -69.333 6 -100 18l12 70c28.667 -10.667 56 -16 82 -16c30 0 52.833 8.5 68.5 25.5s24.834 44.5 27.501 82.5l-2 1c-20 -17.333 -46.333 -26 -79 -26c-44.667 0 -77.834 10.5 -99.501 31.5
s-32.5 50.167 -32.5 87.5c0 40.667 11.833 72.667 35.5 96s58.834 35 105.501 35c50.667 0 88.167 -15.333 112.5 -46s36.5 -77.667 36.5 -141zM230.999 731c0 33.333 -4.99805 56.333 -14.998 69s-26.667 19 -50 19c-37.333 0 -56 -18.333 -56 -55
c0 -19.333 4.66699 -33.833 14 -43.5s24.666 -14.5 45.999 -14.5c29.333 0 49.666 8.33301 60.999 25z" />
    <glyph glyph-name="uni207A" unicode="&#x207a;" horiz-adv-x="348" 
d="M311 654h-102v-103h-72v103h-100v76h100v104h72v-104h102v-76z" />
    <glyph glyph-name="uni207B" unicode="&#x207b;" horiz-adv-x="348" 
d="M305 659h-263v74h263v-74z" />
    <glyph glyph-name="uni207C" unicode="&#x207c;" horiz-adv-x="348" 
d="M303 721h-258v65h258v-65zM303 600h-258v66h258v-66z" />
    <glyph glyph-name="uni207D" unicode="&#x207d;" horiz-adv-x="200" 
d="M137 916l59 -6c-43.333 -68.667 -65 -147.667 -65 -237c0 -88.667 21.667 -168 65 -238l-59 -5c-56.667 60.667 -85 141.667 -85 243c0 98.667 28.333 179.667 85 243z" />
    <glyph glyph-name="uni207E" unicode="&#x207e;" horiz-adv-x="200" 
d="M4 910l60 6.00098c55.333 -63.333 83 -144.333 83 -243c0 -101.333 -27.667 -182.333 -83 -243l-60 5c42.667 69.333 64 148.666 64 237.999c0 90.667 -21.333 169.667 -64 237z" />
    <glyph glyph-name="uni2080" unicode="&#x2080;" horiz-adv-x="346" 
d="M322 49c0 -70.667 -11.833 -121.834 -35.5 -153.501s-61.5 -47.5 -113.5 -47.5s-89.667 15.833 -113 47.5s-35 82.834 -35 153.501c0 73.333 11.667 125.5 35 156.5s61.333 46.5 114 46.5s90.5 -15.5 113.5 -46.5s34.5 -83.167 34.5 -156.5zM236 50
c0 50.667 -4.66699 84.667 -14 102s-25.333 26 -48 26c-23.333 0 -39.833 -8.5 -49.5 -25.5s-14.5 -51.167 -14.5 -102.5s4.83301 -85.666 14.5 -102.999s26.167 -26 49.5 -26c22.667 0 38.667 8.66699 48 26s14 51.666 14 102.999z" />
    <glyph glyph-name="uni2081" unicode="&#x2081;" horiz-adv-x="256" 
d="M203 248v-395h-88v209l3 79l-3 1l-73 -44l-8 72l115 78h54z" />
    <glyph glyph-name="uni2082" unicode="&#x2082;" horiz-adv-x="335" 
d="M304 136c0 -33.333 -12.668 -65.166 -38.001 -95.499s-65 -66.833 -119 -109.5v-3h157l-1 -75h-266v57l39.5 38l38.5 37l31.5 31.5c13 13 22.5 23.5 28.5 31.5s12.5 17.167 19.5 27.5s11.833 19.666 14.5 27.999s4 16.5 4 24.5c0 32 -20.333 48 -61 48
c-31.333 0 -63.666 -11.667 -96.999 -35l-21 71c38 26.667 82.667 40 134 40c44.667 0 78.5 -10.333 101.5 -31s34.5 -49 34.5 -85z" />
    <glyph glyph-name="uni2083" unicode="&#x2083;" horiz-adv-x="335" 
d="M307 -29c0 -82 -51.334 -122.999 -154.001 -122.999c-48 0 -88.667 10 -122 30l18 68c32.667 -18 67 -27 103 -27c47.333 0 71 18.667 71 56c0 18 -7.5 31.167 -22.5 39.5s-42.833 12.5 -83.5 12.5v61c38 0 64.333 4 79 12s22 20.667 22 38c0 27.333 -21.333 41 -64 41
c-39.333 0 -73.666 -11.333 -102.999 -34l-20 66c35.333 27.333 78 41 128 41c44 0 78.333 -9.33301 103 -28s37 -45.334 37 -80.001c0 -40 -19 -68 -57 -84v-2c43.333 -14.667 65 -43.667 65 -87z" />
    <glyph glyph-name="uni2084" unicode="&#x2084;" horiz-adv-x="346" 
d="M331 -72h-38v-75h-81v75h-184l-7 53l167 266h105v-247h40zM215 0l2 87l5 80h-3l-60 -99l-43 -65l1 -3h98z" />
    <glyph glyph-name="uni2085" unicode="&#x2085;" horiz-adv-x="346" 
d="M316 -11c0 -94 -48.999 -141.001 -146.999 -141.001c-48.667 0 -89.667 9 -123 27l13 69c34 -16 68 -24 102 -24c25.333 0 43.166 4.83301 53.499 14.5s15.5 25.834 15.5 48.501c0 33.333 -22.333 50 -67 50c-32 0 -59 -4 -81 -12l-33 31l17 195h228l3 -76h-163l-5 -72
c20 3.33301 39 5 57 5c86.667 0 130 -38.333 130 -115z" />
    <glyph glyph-name="uni2086" unicode="&#x2086;" horiz-adv-x="346" 
d="M321 -9c0 -95.333 -47.332 -142.999 -141.999 -142.999c-50 0 -87.667 15.167 -113 45.5s-38 79.166 -38 146.499c0 70 15 122.833 45 158.5s73.667 53.5 131 53.5c36.667 0 67.667 -5 93 -15l-5 -72c-23.333 8 -49 12 -77 12c-32 0 -55.833 -7 -71.5 -21
s-25.834 -36.333 -30.501 -67l2 -2c24 14.667 50.333 22 79 22c84.667 0 127 -39.333 127 -118zM235.001 -8.99902c0 34.667 -19 52 -57 52c-28.667 0 -49 -8.33301 -61 -25c0.666992 -36.667 5.66699 -62.167 15 -76.5s25 -21.5 47 -21.5c37.333 0 56 23.667 56 71z" />
    <glyph glyph-name="uni2087" unicode="&#x2087;" horiz-adv-x="346" 
d="M318 247v-74l-148 -320h-100l156 313h-197l4 81h285z" />
    <glyph glyph-name="uni2088" unicode="&#x2088;" horiz-adv-x="346" 
d="M25 -32c0 38.667 18.667 69.001 56 91.001c-27.333 21.333 -41 50.666 -41 87.999c0 70 44.667 105 134 105c88.667 0 133 -35 133 -105c0 -34 -14.667 -62 -44 -84c38.667 -20 58 -51.667 58 -95c0 -80 -49 -120 -147 -120c-99.333 0 -149 40 -149 120zM236 -38.999
c0 4 -0.500977 7.66504 -1.50098 10.998s-2 6.33301 -3 9s-3 5.33398 -6 8.00098s-5.33301 4.83398 -7 6.50098s-4.66699 3.66699 -9 6l-10 5.5c-2.33301 1.33301 -6.33301 3 -12 5s-9.66699 3.5 -12 4.5s-6.66602 2.66699 -12.999 5s-10.833 3.83301 -13.5 4.5
c-26.667 -16 -40 -35.667 -40 -59c0 -18.667 5.16699 -32 15.5 -40s27.5 -12 51.5 -12c40 0 60 15.333 60 46zM120.999 142.999c0 -14.667 6 -25.833 18 -33.5s30.667 -15.167 56 -22.5c22 16 33 33.333 33 52c0 30.667 -18 46 -54 46c-35.333 0 -53 -14 -53 -42z" />
    <glyph glyph-name="uni2089" unicode="&#x2089;" horiz-adv-x="346" 
d="M317 66c0 -76 -13.668 -131.333 -41.001 -166s-69.333 -52 -126 -52c-36 0 -69.333 6 -100 18l12 70c28.667 -10.667 56 -16 82 -16c30 0 52.833 8.5 68.5 25.5s24.834 44.5 27.501 82.5l-2 1c-20 -17.333 -46.333 -26 -79 -26c-44.667 0 -77.834 10.5 -99.501 31.5
s-32.5 50.167 -32.5 87.5c0 40.667 11.833 72.667 35.5 96s58.834 35 105.501 35c50.667 0 88.167 -15.333 112.5 -46s36.5 -77.667 36.5 -141zM230.999 93c0 33.333 -4.99805 56.333 -14.998 69s-26.667 19 -50 19c-37.333 0 -56 -18.333 -56 -55
c0 -19.333 4.66699 -33.833 14 -43.5s24.666 -14.5 45.999 -14.5c29.333 0 49.666 8.33301 60.999 25z" />
    <glyph glyph-name="uni208A" unicode="&#x208a;" horiz-adv-x="348" 
d="M311 16h-102v-103h-72v103h-100v76h100v104h72v-104h102v-76z" />
    <glyph glyph-name="uni208B" unicode="&#x208b;" horiz-adv-x="348" 
d="M305 21h-263v74h263v-74z" />
    <glyph glyph-name="uni208C" unicode="&#x208c;" horiz-adv-x="348" 
d="M303 83h-258v65h258v-65zM303 -38h-258v66h258v-66z" />
    <glyph glyph-name="uni208D" unicode="&#x208d;" horiz-adv-x="200" 
d="M137 280l59 -5.00098c-43.333 -69.333 -65 -148.666 -65 -237.999c0 -88 21.667 -167 65 -237l-59 -6c-56.667 62 -85 143 -85 243c0 99.333 28.333 180.333 85 243z" />
    <glyph glyph-name="uni208E" unicode="&#x208e;" horiz-adv-x="200" 
d="M4 275l60 5c55.333 -62 83 -143 83 -243c0 -100.667 -27.667 -181.667 -83 -243l-60 6c42.667 69.333 64 148.333 64 237c0 90 -21.333 169.333 -64 238z" />
    <glyph glyph-name="franc" unicode="&#x20a3;" horiz-adv-x="558" 
d="M15 189h70v561h431l3 -123h-306v-190h233v-117h-233v-131h75v-92h-75v-97h-128v97h-70v92z" />
    <glyph glyph-name="lira" unicode="&#x20a4;" horiz-adv-x="595" 
d="M64 397l-5.00098 72h31c-7.33301 26 -11 52.667 -11 80c0 62.667 21.167 113.834 63.5 153.501s109.5 59.5 201.5 59.5c60.667 0 117.334 -11 170.001 -33l-16 -115c-43.333 18 -90 27 -140 27s-86.833 -10.5 -110.5 -31.5s-35.5 -48.833 -35.5 -83.5c0 -20 2 -39 6 -57
h253v-72h-233c5.33301 -16 9.33301 -33 12 -51h221v-71h-213c0 -2 0.166992 -4.66699 0.5 -8s0.5 -6 0.5 -8c0 -68 -23 -116.667 -69 -146l2 -3c48 11.333 108.333 17 181 17c57.333 0 116 -3.66699 176 -11c0 -0.666992 -0.833008 -20.834 -2.5 -60.501
s-2.83398 -60.5 -3.50098 -62.5c-82.667 9.33301 -159 14 -229 14c-86 0 -174.333 -4 -265 -12l-6 119c28.667 7.33301 51.334 24 68.001 50s25 55.667 25 89c0 10 -0.333008 17.333 -1 22h-67l-3 71h61c-4.66699 22 -9 39 -13 51h-49z" />
    <glyph glyph-name="peseta" unicode="&#x20a7;" horiz-adv-x="762" 
d="M357 522c0 -82.667 -12.999 -141.167 -38.999 -175.5s-70 -51.5 -132 -51.5h-41v-295h-89v750h130c61.333 0 105.166 -16.5 131.499 -49.5s39.5 -92.5 39.5 -178.5zM530.001 382h-50v-273c0 -23.333 9 -35 27 -35c2.66699 0 8 1.33301 16 4l2 -77
c-8 -6.66699 -21.333 -10 -40 -10c-56.667 0 -85 38.667 -85 116v275h-25v75h28l14 102l63 8v-110h50v-75zM732.001 132c0 -96 -35.6641 -143.998 -106.997 -143.998c-28 0 -50.333 7.33301 -67 22l2 84c16.667 -12.667 36.334 -19 59.001 -19c27.333 0 41 18 41 54
c0 14.667 -3.66699 27.167 -11 37.5s-16.333 19.5 -27 27.5s-21.5 16.667 -32.5 26s-20.167 23.333 -27.5 42s-11 41 -11 67c0 38 9.16699 69.833 27.5 95.5s44.166 38.5 77.499 38.5c24.667 0 46 -6.66699 64 -20l-6 -82c-18 10 -35.333 15 -52 15c-24 0 -36 -15 -36 -45
c0 -13.333 3.66699 -24.833 11 -34.5s16.166 -18.334 26.499 -26.001s20.666 -16.334 30.999 -26.001s19.166 -24 26.499 -43s11 -42.167 11 -69.5zM263.004 522.002c0 50.667 -5.33301 84.667 -16 102s-31 26 -61 26h-41v-260h41c28.667 0 48.667 8.5 60 25.5
s17 52.5 17 106.5z" />
    <glyph glyph-name="Euro" unicode="&#x20ac;" horiz-adv-x="587" 
d="M447 347l-13.999 -70.001h-209c9.33301 -64.667 29.166 -110.667 59.499 -138s72.5 -41 126.5 -41c45.333 0 89 11.333 131 34l10 -98c-45.333 -28 -101.666 -42 -168.999 -42c-85.333 0 -150.833 23 -196.5 69s-74.167 118 -85.5 216h-77l1 70h71v52h-71l-1 74h77
c12 90.667 42.667 160.334 92 209.001s114.333 73 195 73c62 0 114.333 -10.333 157 -31l-23 -105c-30.667 14 -66.667 21 -108 21c-54.667 0 -97.334 -13.5 -128.001 -40.5s-50.667 -69.167 -60 -126.5h254l-15 -73l-246 -1v-52h229z" />
    <glyph glyph-name="trademark" unicode="&#x2122;" horiz-adv-x="634" 
d="M597 489h-63l-1 112l2 81l-3 1l-26 -77l-43 -117h-51l-44 116l-27 77l-2 -1l1 -81v-111h-63v277h91l43 -113l27 -76h3l26 76l42 113h88v-277zM245 699h-74v-210h-73v210h-76v67h223v-67z" />
    <glyph glyph-name="uni2126" unicode="&#x2126;" horiz-adv-x="675" 
d="M337 761c93.333 0 164.333 -25.833 213 -77.5s73 -133.167 73 -244.5c0 -134.667 -50.333 -243.334 -151 -326.001v-3h154v-110h-259v162c81.333 76.667 122 167.334 122 272.001c0 75.333 -12 128.666 -36 159.999s-62.667 47 -116 47c-52.667 0 -91 -15.667 -115 -47
s-36 -84.666 -36 -159.999c0 -105.333 40.667 -196 122 -272v-162h-260v110h155l1 3c-101.333 80 -152 188.667 -152 326c0 214.667 95 322 285 322z" />
    <glyph glyph-name="onethird" unicode="&#x2153;" horiz-adv-x="812" 
d="M581 750h87l-466 -750h-86zM757 118c0 -82 -51.335 -122.999 -154.002 -122.999c-48 0 -88.667 10 -122 30l18 68c32.667 -18 67 -27 103 -27c47.333 0 71 18.667 71 56c0 18 -7.5 31.167 -22.5 39.5s-42.833 12.5 -83.5 12.5v61c38 0 64.167 4 78.5 12
s21.5 20.667 21.5 38c0 27.333 -21 41 -63 41c-39.333 0 -73.666 -11.333 -102.999 -34l-20 67c34.667 26.667 77.334 40 128.001 40c44 0 78.333 -9.33301 103 -28s37 -45.334 37 -80.001c0 -40 -19 -68 -57 -84v-2c43.333 -14.667 65 -43.667 65 -87zM257.998 751.001
v-395h-88v209l3 79l-3 1l-73 -44l-8 72l115 78h54z" />
    <glyph glyph-name="twothirds" unicode="&#x2154;" horiz-adv-x="812" 
d="M314 639c0 -33.333 -12.668 -65.166 -38.001 -95.499s-65 -66.833 -119 -109.5v-3h157l-1 -75h-266v57l39.5 38l38.5 37l31.5 31.5c13 13 22.5 23.5 28.5 31.5s12.5 17.167 19.5 27.5s11.833 19.666 14.5 27.999s4 16.5 4 24.5c0 32 -20.333 48 -61 48
c-31.333 0 -63.666 -11.667 -96.999 -35l-21 71c38 26.667 82.667 40 134 40c44 0 77.667 -10.5 101 -31.5s35 -49.167 35 -84.5zM596.999 750h87l-466 -750h-86zM764.999 118c0 -82 -51.335 -122.999 -154.002 -122.999c-48 0 -88.667 10 -122 30l18 68
c32.667 -18 67 -27 103 -27c47.333 0 71 18.667 71 56c0 18 -7.5 31.167 -22.5 39.5s-42.833 12.5 -83.5 12.5v61c38 0 64.167 4 78.5 12s21.5 20.667 21.5 38c0 27.333 -21 41 -63 41c-39.333 0 -73.666 -11.333 -102.999 -34l-20 67c34.667 26.667 77.334 40 128.001 40
c44 0 78.333 -9.33301 103 -28s37 -45.334 37 -80.001c0 -40 -19 -68 -57 -84v-2c43.333 -14.667 65 -43.667 65 -87z" />
    <glyph glyph-name="oneeighth" unicode="&#x215b;" horiz-adv-x="812" 
d="M261 751v-395h-88v209l3 79l-3 1l-73 -44l-8 72l115 78h54zM578 750h87l-466 -750h-86zM455 115c0 38.667 18.667 69.001 56 91.001c-27.333 21.333 -41 50.666 -41 87.999c0 70.667 44.667 106 134 106c88.667 0 133 -35.333 133 -106c0 -34 -14.667 -62 -44 -84
c38.667 -20 58 -51.667 58 -95c0 -80 -49 -120 -147 -120c-99.333 0 -149 40 -149 120zM666 108.001c0 10.667 -4.16602 20.1689 -12.499 28.502s-16.333 14.166 -24 17.499s-21.167 8.33301 -40.5 15c-4.66699 2 -8.33398 3.33301 -11.001 4
c-26 -16.667 -39 -36.334 -39 -59.001c0 -18.667 5.16699 -32 15.5 -40s27.5 -12 51.5 -12c40 0 60 15.333 60 46zM551.001 290.003c0 -10 3.83398 -18.833 11.501 -26.5s15.667 -13 24 -16s21.166 -7.16699 38.499 -12.5c22 14.667 33 31.667 33 51c0 30.667 -18 46 -54 46
c-35.333 0 -53 -14 -53 -42z" />
    <glyph glyph-name="threeeighths" unicode="&#x215c;" horiz-adv-x="812" 
d="M329 474c0 -82 -51.334 -122.999 -154.001 -122.999c-48 0 -88.667 10 -122 30l18 68c32.667 -18 67 -27 103 -27c47.333 0 71 18.667 71 56c0 18 -7.5 31.167 -22.5 39.5s-42.833 12.5 -83.5 12.5v61c38 0 64.333 4 79 12s22 20.667 22 38c0 27.333 -21.333 41 -64 41
c-39.333 0 -73.666 -11.333 -102.999 -34l-20 66c35.333 27.333 78 41 128 41c44 0 78.333 -9.33301 103 -28s37 -45.334 37 -80.001c0 -40 -19 -68 -57 -84v-2c43.333 -14.667 65 -43.667 65 -87zM592.999 750.001h87l-466 -750h-86zM465.999 115.001
c0 38.667 18.667 69.001 56 91.001c-27.333 21.333 -41 50.666 -41 87.999c0 70.667 44.667 106 134 106c88.667 0 133 -35.333 133 -106c0 -34 -14.667 -62 -44 -84c38.667 -20 58 -51.667 58 -95c0 -80 -49 -120 -147 -120c-99.333 0 -149 40 -149 120zM676.999 108.002
c0 10.667 -4.16602 20.1689 -12.499 28.502s-16.333 14.166 -24 17.499s-21.167 8.33301 -40.5 15c-4.66699 2 -8.33398 3.33301 -11.001 4c-26 -16.667 -39 -36.334 -39 -59.001c0 -18.667 5.16699 -32 15.5 -40s27.5 -12 51.5 -12c40 0 60 15.333 60 46zM562 290.004
c0 -10 3.83398 -18.833 11.501 -26.5s15.667 -13 24 -16s21.166 -7.16699 38.499 -12.5c22 14.667 33 31.667 33 51c0 30.667 -18 46 -54 46c-35.333 0 -53 -14 -53 -42z" />
    <glyph glyph-name="fiveeighths" unicode="&#x215d;" horiz-adv-x="812" 
d="M348 492c0 -94 -48.999 -141 -146.999 -141c-48.667 0 -89.667 9 -123 27l13 69c34 -16 68 -24 102 -24c25.333 0 43.166 4.83301 53.499 14.5s15.5 25.5 15.5 47.5c0 34 -22.333 51 -67 51c-32 0 -59 -4 -81 -12l-33 31l17 195h228l3 -76h-163l-5 -72
c20 3.33301 39 5 57 5c86.667 0 130 -38.333 130 -115zM588.001 750h87l-466 -750h-86zM463.001 115c0 38.667 18.667 69.001 56 91.001c-27.333 21.333 -41 50.666 -41 87.999c0 70.667 44.667 106 134 106c88.667 0 133 -35.333 133 -106c0 -34 -14.667 -62 -44 -84
c38.667 -20 58 -51.667 58 -95c0 -80 -49 -120 -147 -120c-99.333 0 -149 40 -149 120zM674.001 108.001c0 10.667 -4.16602 20.1689 -12.499 28.502s-16.333 14.166 -24 17.499s-21.167 8.33301 -40.5 15c-4.66699 2 -8.33398 3.33301 -11.001 4
c-26 -16.667 -39 -36.334 -39 -59.001c0 -18.667 5.16699 -32 15.5 -40s27.5 -12 51.5 -12c40 0 60 15.333 60 46zM559.002 290.003c0 -10 3.83398 -18.833 11.501 -26.5s15.667 -13 24 -16s21.166 -7.16699 38.499 -12.5c22 14.667 33 31.667 33 51c0 30.667 -18 46 -54 46
c-35.333 0 -53 -14 -53 -42z" />
    <glyph glyph-name="seveneighths" unicode="&#x215e;" horiz-adv-x="812" 
d="M381 750v-74l-148 -320h-100l156 313h-197l4 81h285zM579 750h87l-466 -750h-86zM456 115c0 38.667 18.667 69.001 56 91.001c-27.333 21.333 -41 50.666 -41 87.999c0 70.667 44.667 106 134 106c88.667 0 133 -35.333 133 -106c0 -34 -14.667 -62 -44 -84
c38.667 -20 58 -51.667 58 -95c0 -80 -49 -120 -147 -120c-99.333 0 -149 40 -149 120zM667 108.001c0 10.667 -4.16602 20.1689 -12.499 28.502s-16.333 14.166 -24 17.499s-21.167 8.33301 -40.5 15c-4.66699 2 -8.33398 3.33301 -11.001 4
c-26 -16.667 -39 -36.334 -39 -59.001c0 -18.667 5.16699 -32 15.5 -40s27.5 -12 51.5 -12c40 0 60 15.333 60 46zM552.001 290.003c0 -10 3.83398 -18.833 11.501 -26.5s15.667 -13 24 -16s21.166 -7.16699 38.499 -12.5c22 14.667 33 31.667 33 51c0 30.667 -18 46 -54 46
c-35.333 0 -53 -14 -53 -42z" />
    <glyph glyph-name="partialdiff" unicode="&#x2202;" horiz-adv-x="583" 
d="M296 556c50 0 92.667 -15.001 128 -45.001l2 2c-8.66699 46.667 -26 81.167 -52 103.5s-62 33.5 -108 33.5c-64 0 -119.667 -18 -167 -54l-31 87c62.667 49.333 135.667 74 219 74c74 0 135.5 -28.167 184.5 -84.5s73.5 -142.166 73.5 -257.499
c0 -127.333 -25.833 -230.5 -77.5 -309.5s-125.167 -118.5 -220.5 -118.5c-139.333 0 -209 79 -209 237c0 106 23 187.833 69 245.5s109 86.5 189 86.5zM418 366.999c0 25.333 -9.33301 47.167 -28 65.5s-44.667 27.5 -78 27.5c-47.333 0 -84.333 -20.667 -111 -62
s-40 -103.333 -40 -186c0 -83.333 34.667 -125 104 -125c48 0 85.5 26.167 112.5 78.5s40.5 119.5 40.5 201.5z" />
    <glyph glyph-name="uni2206" unicode="&#x2206;" horiz-adv-x="678" 
d="M381 754l262 -754h-610l263 754h85zM337 592l-24 -78l-136 -405h320l-134 405l-23 78h-3z" />
    <glyph glyph-name="product" unicode="&#x220f;" horiz-adv-x="682" 
d="M242 -151h-113v807l-80 8l-3 86h592l-3 -85l-79 -8v-808h-113v799h-201v-799z" />
    <glyph glyph-name="summation" unicode="&#x2211;" horiz-adv-x="626" 
d="M468 296l-202 -278l-49 -64l2 -3l80 2l289 1l-3 -105h-514v70l273 390l-273 363v78h499l3 -107h-347l-1 -2l49 -62l194 -258v-25z" />
    <glyph glyph-name="minus" unicode="&#x2212;" horiz-adv-x="550" 
d="M483 280h-415v114h415v-114z" />
    <glyph glyph-name="uni2219" unicode="&#x2219;" horiz-adv-x="268" 
d="M207 345c0 -48 -24.334 -71.999 -73.001 -71.999c-25.333 0 -43.666 5.66699 -54.999 17s-17 29.666 -17 54.999c0 48 24 72 72 72c48.667 0 73 -24 73 -72z" />
    <glyph glyph-name="radical" unicode="&#x221a;" horiz-adv-x="553" 
d="M6 386v114h161l81 -285l21 -78h3l17 79l140 575h126l-209 -791h-145l-121 386h-74z" />
    <glyph glyph-name="infinity" unicode="&#x221e;" horiz-adv-x="690" 
d="M490 165c-60 0 -108.666 24.333 -145.999 73c-33.333 -48.667 -81 -73 -143 -73c-48 0 -87.167 16.167 -117.5 48.5s-45.5 76.5 -45.5 132.5c0 54.667 14 98.334 42 131.001s68 49 120 49c60.667 0 109 -24.667 145 -74c34 49.333 82.333 74 145 74
c47.333 0 86.166 -16.167 116.499 -48.5s45.5 -76.5 45.5 -132.5c0 -54.667 -14 -98.334 -42 -131.001s-68 -49 -120 -49zM205.001 268c12.667 0 23.834 2.5 33.501 7.5s18.5 13.333 26.5 25s14.333 22 19 31s11 22.5 19 40.5c-26.667 38.667 -58.334 58 -95.001 58
c-22.667 0 -40.167 -7.66699 -52.5 -23s-18.5 -35 -18.5 -59c0 -25.333 6.33301 -45 19 -59s29 -21 49 -21zM485.001 423c-12.667 0 -23.834 -2.49902 -33.501 -7.49902s-18.667 -13.5 -27 -25.5s-14.666 -22.333 -18.999 -31s-10.5 -22.334 -18.5 -41.001
c25.333 -38 57.333 -57 96 -57c22 0 39.167 7.5 51.5 22.5s18.5 34.833 18.5 59.5c0 25.333 -6.33301 45 -19 59s-29 21 -49 21z" />
    <glyph glyph-name="uni2224" unicode="&#x2224;" horiz-adv-x="268" 
d="M207 345c0 -48 -24.334 -71.999 -73.001 -71.999c-25.333 0 -43.666 5.66699 -54.999 17s-17 29.666 -17 54.999c0 48 24 72 72 72c48.667 0 73 -24 73 -72z" />
    <glyph glyph-name="logicaland" unicode="&#x2227;" horiz-adv-x="268" 
d="M207 345c0 -48 -24.334 -71.999 -73.001 -71.999c-25.333 0 -43.666 5.66699 -54.999 17s-17 29.666 -17 54.999c0 48 24 72 72 72c48.667 0 73 -24 73 -72z" />
    <glyph glyph-name="integral" unicode="&#x222b;" horiz-adv-x="298" 
d="M210 610v-572c0 -68 -16.5 -117.667 -49.5 -149s-84.5 -47 -154.5 -47l-3 80c28.667 0.666992 50 9.66699 64 27s21 45.333 21 84v577c0 125.333 68 188.333 204 189l3 -81c-56.667 0 -85 -36 -85 -108z" />
    <glyph glyph-name="approxequal" unicode="&#x2248;" horiz-adv-x="589" 
d="M395 351c-26 0 -61.001 7.66699 -105.001 23s-76 23 -96 23c-36 0 -70.667 -10.333 -104 -31v98c34.667 20 69.334 30 104.001 30c25.333 0 60.166 -7.83301 104.499 -23.5s76.5 -23.5 96.5 -23.5c34.667 0 69.334 10.333 104.001 31v-97c-33.333 -20 -68 -30 -104 -30z
M394.999 168c-26 0 -60.999 7.66699 -104.999 23s-76 23 -96 23c-35.333 0 -70 -10 -104 -30v97c34.667 20 69.334 30 104.001 30c25.333 0 60.166 -7.66699 104.499 -23s76.5 -23 96.5 -23c36 0 70.667 10.333 104 31v-97c-32.667 -20.667 -67.334 -31 -104.001 -31z" />
    <glyph glyph-name="notequal" unicode="&#x2260;" horiz-adv-x="589" 
d="M368 587l77 -38l-36 -77h90v-97h-136l-41 -89h177v-97h-223l-55 -119l-78 38l38 81h-91v97h136l42 89h-178v97h224z" />
    <glyph glyph-name="lessequal" unicode="&#x2264;" horiz-adv-x="589" 
d="M499 505l-253 -79l-77 -22v-3l78 -22l253 -74v-119l-418 159v118l417 164v-122zM500 49h-414v101h414v-101z" />
    <glyph glyph-name="greaterequal" unicode="&#x2265;" horiz-adv-x="589" 
d="M82 186v119l252 74l79 22v3l-78 22l-252 79v122l417 -164v-118zM496 49h-414v101h414v-101z" />
    <glyph glyph-name="dotmath" unicode="&#x22c5;" horiz-adv-x="268" 
d="M207 345c0 -48 -24.334 -71.999 -73.001 -71.999c-25.333 0 -43.666 5.66699 -54.999 17s-17 29.666 -17 54.999c0 48 24 72 72 72c48.667 0 73 -24 73 -72z" />
    <glyph glyph-name="lozenge" unicode="&#x25ca;" horiz-adv-x="564" 
d="M25 336l257 330l257 -330l-257 -331zM147 336l134 -171l134 171l-134 172z" />
    <glyph glyph-name="fi" unicode="&#xfb01;" horiz-adv-x="644" 
d="M217 509v-509h-119v509h-74v94h74v30c0 49.333 15.5 89 46.5 119s77.167 45 138.5 45c30.667 0 56.667 -3 78 -9l-4 -85c-17.333 4 -33.333 6 -48 6c-61.333 0 -92 -26.667 -92 -80v-26h341v-603h-122v509h-219zM569 742c0 -39.333 -23.667 -59 -71 -59
c-24 0 -41.833 4.5 -53.5 13.5s-17.5 24.167 -17.5 45.5c0 39.333 23.667 59 71 59s71 -19.667 71 -59z" />
    <glyph glyph-name="fl" unicode="&#xfb02;" horiz-adv-x="616" 
d="M537 0h-120v708c-32.667 4.66699 -59.667 7 -81 7c-42.667 0 -73.167 -7.5 -91.5 -22.5s-27.5 -37.5 -27.5 -67.5v-22h100v-94h-100v-509h-119v509h-74v94h73v28c0 113.333 80.333 170 241 170c28 0 63.667 -2.33301 107 -7s74 -7.66699 92 -9v-785z" />
    <glyph glyph-name="nonmarkingreturn" horiz-adv-x="333" 
 />
    <glyph glyph-name="CR" horiz-adv-x="258" 
 />
    <glyph glyph-name="parenleft.case" horiz-adv-x="324" 
d="M226 838l94 -7c-83.333 -132 -125 -284 -125 -456c0 -170 41.333 -322 124 -456l-93 -8c-46.667 58 -82.667 127.5 -108 208.5s-38 166.167 -38 255.5c0 182.667 48.667 337 146 463z" />
    <glyph glyph-name="parenright.case" horiz-adv-x="323" 
d="M4 831l94 6.99902c97.333 -127.333 146 -281.666 146 -462.999c0 -89.333 -12.667 -174.5 -38 -255.5s-61.333 -150.5 -108 -208.5l-93 8c82 134 123 286 123 456c0 171.333 -41.333 323.333 -124 456z" />
    <glyph glyph-name="hyphen.case" horiz-adv-x="364" 
d="M55 421h254v-92h-254v92z" />
    <glyph glyph-name="bracketleft.case" horiz-adv-x="316" 
d="M80 -85v920h232v-90h-124v-742h124v-88h-232z" />
    <glyph glyph-name="bracketright.case" horiz-adv-x="316" 
d="M237 835v-920h-233v88h124v742h-124v90h233z" />
    <glyph glyph-name="grave.case" 
d="M275 795h-97l-117 115h144z" />
    <glyph glyph-name="braceleft.case" horiz-adv-x="356" 
d="M250 478c0 -47.333 -17.667 -81.999 -53 -103.999c35.333 -22 53 -56.333 53 -103c0 -24 -2 -55.333 -6 -94s-6 -68.667 -6 -90c0 -24.667 7 -44.334 21 -59.001s35.667 -22 65 -22h28v-94h-22c-72 0 -123.5 13.667 -154.5 41s-46.5 67 -46.5 119
c0 22.667 2.5 56 7.5 100s7.5 77.333 7.5 100c0 20 -5.83301 37 -17.5 51s-27.167 23 -46.5 27v49c19.333 4.66699 34.833 14 46.5 28s17.5 31 17.5 51c0 22 -2.5 55 -7.5 99s-7.5 77.333 -7.5 100c0 52 15.5 91.667 46.5 119s82.5 41 154.5 41h22v-94h-28
c-29.333 0 -51 -7.16699 -65 -21.5s-21 -33.833 -21 -58.5c0 -21.333 2 -51.5 6 -90.5s6 -70.5 6 -94.5z" />
    <glyph glyph-name="braceright.case" horiz-adv-x="356" 
d="M106 271c0 47.333 18 81.666 54 102.999c-36 22 -54 56.667 -54 104c0 24 2.16699 55.5 6.5 94.5s6.5 69.167 6.5 90.5c0 24 -7.16699 43.333 -21.5 58s-36.166 22 -65.499 22h-28v94h22c72 0 123.5 -13.667 154.5 -41s46.5 -67 46.5 -119c0 -22.667 -2.5 -56 -7.5 -100
s-7.5 -77 -7.5 -99c0 -20 5.83301 -37 17.5 -51s27.5 -23.333 47.5 -28v-49c-19.333 -4 -35 -13 -47 -27s-18 -31 -18 -51c0 -22.667 2.5 -56 7.5 -100s7.5 -77.333 7.5 -100c0 -52 -15.5 -91.667 -46.5 -119s-82.5 -41 -154.5 -41h-22v94h28
c29.333 0 51.166 7.33301 65.499 22s21.5 34.334 21.5 59.001c0 21.333 -2.16699 51.333 -6.5 90s-6.5 70 -6.5 94z" />
    <glyph glyph-name="dieresis.case" 
d="M153 849c0 -35.333 -17.667 -53 -53 -53s-53 17.667 -53 53c0 36 17.667 54 53 54s53 -18 53 -54zM334 849c0 -35.333 -18 -53 -54 -53c-35.333 0 -53 17.667 -53 53c0 36 17.667 54 53 54c36 0 54 -18 54 -54z" />
    <glyph glyph-name="guillemotleft.case" horiz-adv-x="595" 
d="M527 480l-166 -106l166 -105v-97l-285 198v9l285 198v-97zM308 480l-166 -106l166 -105v-97l-285 198v9l285 198v-97z" />
    <glyph glyph-name="uni00AD.case" horiz-adv-x="364" 
d="M55 421h254v-92h-254v92z" />
    <glyph glyph-name="macron.case" 
d="M330 872v-64h-282v64h282z" />
    <glyph glyph-name="acute.case" 
d="M178 909h155l-124 -115h-97z" />
    <glyph glyph-name="guillemotright.case" horiz-adv-x="595" 
d="M278 172v97l165 105l-165 106v97l285 -198v-9zM58 172v97l165 105l-165 106v97l285 -198v-9z" />
    <glyph glyph-name="circumflex.case" 
d="M124 909h126l103 -115h-108l-57 63l-57 -63h-106z" />
    <glyph glyph-name="caron.case" 
d="M251 794h-126l-101 115h108l57 -65l57 65h107z" />
    <glyph glyph-name="breve.case" 
d="M253 909h89c0 -80.667 -50.667 -121 -152 -121s-152 40.333 -152 121h89c0 -36.667 21 -55 63 -55s63 18.333 63 55z" />
    <glyph glyph-name="dotaccent.case" 
d="M263 846c0 -35.333 -24.667 -53 -74 -53c-26.667 0 -45.667 4.16699 -57 12.5s-17 21.833 -17 40.5c0 35.333 24.667 53 74 53s74 -17.667 74 -53z" />
    <glyph glyph-name="ring.case" 
d="M76 811c0 59.333 36.667 89 110 89c74.667 0 112 -29.667 112 -89c0 -30.667 -8.83301 -53.167 -26.5 -67.5s-46.167 -21.5 -85.5 -21.5c-38 0 -65.833 7 -83.5 21s-26.5 36.667 -26.5 68zM141 807c0 -22.667 16 -34 48 -34c30.667 0 46 11.333 46 34
c0 24 -15.333 36 -46 36c-32 0 -48 -12 -48 -36z" />
    <glyph glyph-name="ogonek.case" 
d="M231 21l52.001 -21.001c-16.667 0 -30.834 -6.33301 -42.501 -19s-17.5 -26.667 -17.5 -42c0 -27.333 17 -41.333 51 -42c17.333 0 33.666 4 48.999 12l10 -67c-26 -14.667 -56.667 -22 -92 -22s-62.333 7.83301 -81 23.5s-28 36.834 -28 63.501
c0 29.333 8.83301 53.833 26.5 73.5s41.834 33.167 72.501 40.5z" />
    <glyph glyph-name="tilde.case" 
d="M96 799l-57.001 0.000976562c2 33.333 10.833 60.166 26.5 80.499s36.834 30.5 63.501 30.5c22 0 46.5 -8.16699 73.5 -24.5s44.833 -24.5 53.5 -24.5c17.333 0 28.333 12.333 33 37l54 -1c-2 -33.333 -11.167 -60 -27.5 -80s-37.5 -30 -63.5 -30
c-21.333 0 -45 8.16699 -71 24.5s-43.333 24.5 -52 24.5c-17.333 0 -28.333 -12.333 -33 -37z" />
    <glyph glyph-name="hungarumlaut.case" 
d="M87 909h123l-87 -116h-77zM255 909h126l-109 -116h-87z" />
    <glyph glyph-name="endash.case" horiz-adv-x="483" 
d="M55 421h372v-92h-372v92z" />
    <glyph glyph-name="emdash.case" horiz-adv-x="654" 
d="M55 421h544v-92h-544v92z" />
    <glyph glyph-name="guilsinglleft.case" horiz-adv-x="374" 
d="M320 480l-166 -106l166 -105v-97l-285 198v9l285 198v-97z" />
    <glyph glyph-name="guilsinglright.case" horiz-adv-x="374" 
d="M54 172v97l165 105l-165 106v97l285 -198v-9z" />
    <glyph glyph-name="dollar.dnom" horiz-adv-x="300" 
d="M148 459l65.999 0.000976562l-6 -72c17.333 -2 39.666 -7.66699 66.999 -17l-11 -72c-31.333 10.667 -60 16 -86 16c-40 0 -60 -11.667 -60 -35c0 -10 5.83301 -18.333 17.5 -25s25.667 -12.5 42 -17.5s32.833 -11.167 49.5 -18.5s30.834 -18.833 42.501 -34.5
s17.5 -35.5 17.5 -59.5c0 -64.667 -32.667 -102.667 -98 -114l-3 -69h-66l4 67c-33.333 3.33301 -62.333 12 -87 26l11 74c32.667 -18.667 65.667 -28 99 -28c40 0 60 13 60 39c0 10.667 -5.83301 19.334 -17.5 26.001s-25.667 12.667 -42 18s-32.666 11.666 -48.999 18.999
s-30.333 18.833 -42 34.5s-17.5 35.167 -17.5 58.5c0 29.333 8.5 54.166 25.5 74.499s42.833 32.833 77.5 37.5z" />
    <glyph glyph-name="parenleft.dnom" horiz-adv-x="200" 
d="M137 425l59 -6c-43.333 -68.667 -65 -147.667 -65 -237c0 -88.667 21.667 -168 65 -238l-59 -5c-56.667 60.667 -85 141.667 -85 243c0 98.667 28.333 179.667 85 243z" />
    <glyph glyph-name="parenright.dnom" horiz-adv-x="200" 
d="M4 419l60 6.00098c55.333 -63.333 83 -144.333 83 -243c0 -101.333 -27.667 -182.333 -83 -243l-60 5c42.667 69.333 64 148.666 64 237.999c0 90.667 -21.333 169.667 -64 237z" />
    <glyph glyph-name="plus.dnom" horiz-adv-x="348" 
d="M311 163h-102v-103h-72v103h-100v76h100v104h72v-104h102v-76z" />
    <glyph glyph-name="comma.dnom" horiz-adv-x="154" 
d="M75 83c32.667 0 49.001 -17.333 49.001 -52c0 -14 -5.33301 -32.5 -16 -55.5s-22.334 -42.5 -35.001 -58.5l-30 7l15 67c-20.667 10 -31 24.333 -31 43c0 32.667 16 49 48 49z" />
    <glyph glyph-name="period.dnom" horiz-adv-x="154" 
d="M126 37c0 -30 -16.333 -45 -49 -45c-17.333 0 -30 3.5 -38 10.5s-12 18.5 -12 34.5c0 32 16.667 48 50 48c32.667 0 49 -16 49 -48z" />
    <glyph glyph-name="zero.dnom" horiz-adv-x="346" 
d="M322 196c0 -70.667 -11.833 -121.834 -35.5 -153.501s-61.5 -47.5 -113.5 -47.5s-89.667 15.833 -113 47.5s-35 82.834 -35 153.501c0 73.333 11.667 125.5 35 156.5s61.333 46.5 114 46.5s90.5 -15.5 113.5 -46.5s34.5 -83.167 34.5 -156.5zM236 197
c0 51.333 -4.66699 85.5 -14 102.5s-25.333 25.5 -48 25.5c-23.333 0 -39.833 -8.5 -49.5 -25.5s-14.5 -51.167 -14.5 -102.5s4.83301 -85.666 14.5 -102.999s26.167 -26 49.5 -26c22.667 0 38.667 8.66699 48 26s14 51.666 14 102.999z" />
    <glyph glyph-name="one.dnom" horiz-adv-x="256" 
d="M203 395v-395h-88v209l3 79l-3 1l-73 -44l-8 72l115 78h54z" />
    <glyph glyph-name="two.dnom" horiz-adv-x="335" 
d="M304 283c0 -33.333 -12.668 -65.166 -38.001 -95.499s-65 -66.833 -119 -109.5v-3h157l-1 -75h-266v57l39.5 38l38.5 37l31.5 31.5c13 13 22.5 23.5 28.5 31.5s12.5 17.167 19.5 27.5s11.833 19.666 14.5 27.999s4 16.5 4 24.5c0 32 -20.333 48 -61 48
c-31.333 0 -63.666 -11.667 -96.999 -35l-21 71c38 26.667 82.667 40 134 40c44.667 0 78.5 -10.333 101.5 -31s34.5 -49 34.5 -85z" />
    <glyph glyph-name="three.dnom" horiz-adv-x="335" 
d="M313 118c0 -82 -51.335 -122.999 -154.002 -122.999c-48 0 -88.667 10 -122 30l18 68c32.667 -18 67 -27 103 -27c47.333 0 71 18.667 71 56c0 18 -7.5 31.167 -22.5 39.5s-42.833 12.5 -83.5 12.5v61c38 0 64.167 4 78.5 12s21.5 20.667 21.5 38c0 27.333 -21 41 -63 41
c-39.333 0 -73.666 -11.333 -102.999 -34l-20 67c34.667 26.667 77.334 40 128.001 40c44 0 78.333 -9.33301 103 -28s37 -45.334 37 -80.001c0 -40 -19 -68 -57 -84v-2c43.333 -14.667 65 -43.667 65 -87z" />
    <glyph glyph-name="four.dnom" horiz-adv-x="346" 
d="M331 76h-38v-76h-81v76h-184l-7 52l167 266h105v-247h40zM215 147l2 87l5 80h-3l-61 -99l-43 -65l1 -3h99z" />
    <glyph glyph-name="five.dnom" horiz-adv-x="346" 
d="M316 136c0 -94 -48.999 -141 -146.999 -141c-48.667 0 -89.667 9 -123 27l13 69c34 -16 68 -24 102 -24c25.333 0 43.166 5 53.499 15s15.5 26 15.5 48c0 34 -22.333 51 -67 51c-30 0 -57 -4.33301 -81 -13l-33 31l17 195h228l3 -76h-163l-5 -72c20 3.33301 39 5 57 5
c86.667 0 130 -38.333 130 -115z" />
    <glyph glyph-name="six.dnom" horiz-adv-x="346" 
d="M321 138c0 -95.333 -47.332 -142.999 -141.999 -142.999c-50 0 -87.667 15.167 -113 45.5s-38 79.166 -38 146.499c0 70 15 123 45 159s73.667 54 131 54c34.667 0 65.667 -5.33301 93 -16l-5 -72c-23.333 8 -49 12 -77 12c-32 0 -55.833 -7 -71.5 -21
s-25.834 -36.333 -30.501 -67l2 -2c24 14.667 50.333 22 79 22c84.667 0 127 -39.333 127 -118zM235.001 138.001c0 35.333 -19 52.999 -57 52.999c-28 0 -48.333 -8.33301 -61 -25c0.666992 -37.333 5.66699 -63.166 15 -77.499s25 -21.5 47 -21.5
c37.333 0 56 23.667 56 71z" />
    <glyph glyph-name="seven.dnom" horiz-adv-x="346" 
d="M318 394v-74l-148 -320h-100l155 313h-196l4 81h285z" />
    <glyph glyph-name="eight.dnom" horiz-adv-x="346" 
d="M25 115c0 38.667 18.667 69.001 56 91.001c-27.333 21.333 -41 50.666 -41 87.999c0 70.667 44.667 106 134 106c88.667 0 133 -35.333 133 -106c0 -34 -14.667 -62 -44 -84c38.667 -20 58 -51.667 58 -95c0 -80 -49 -120 -147 -120c-99.333 0 -149 40 -149 120z
M236 108.001c0 10.667 -4.16602 20.1689 -12.499 28.502s-16.333 14.166 -24 17.499s-21.167 8.33301 -40.5 15c-4.66699 2 -8.33398 3.33301 -11.001 4c-26 -16.667 -39 -36.334 -39 -59.001c0 -18.667 5.16699 -32 15.5 -40s27.5 -12 51.5 -12c40 0 60 15.333 60 46z
M121.001 290.003c0 -10 3.83398 -18.833 11.501 -26.5s15.667 -13 24 -16s21.166 -7.16699 38.499 -12.5c22 14.667 33 31.667 33 51c0 30.667 -18 46 -54 46c-35.333 0 -53 -14 -53 -42z" />
    <glyph glyph-name="nine.dnom" horiz-adv-x="346" 
d="M317 213c0 -76 -13.668 -131.333 -41.001 -166s-69.333 -52 -126 -52c-36 0 -69.333 6 -100 18l12 70c28.667 -10.667 56 -16 82 -16c30 0 52.833 8.5 68.5 25.5s24.834 44.5 27.501 82.5l-2 1c-20 -17.333 -46.333 -26 -79 -26c-44.667 0 -77.834 10.5 -99.501 31.5
s-32.5 50.167 -32.5 87.5c0 40.667 11.833 72.667 35.5 96s58.834 35 105.501 35c50.667 0 88.167 -15.333 112.5 -46s36.5 -77.667 36.5 -141zM230.999 240c0 33.333 -4.99805 56.333 -14.998 69s-26.667 19 -50 19c-37.333 0 -56 -18.333 -56 -55
c0 -19.333 4.66699 -33.833 14 -43.5s24.666 -14.5 45.999 -14.5c29.333 0 49.666 8.33301 60.999 25z" />
    <glyph glyph-name="equal.dnom" horiz-adv-x="348" 
d="M303 230h-258v65h258v-65zM303 109h-258v66h258v-66z" />
    <glyph glyph-name="cent.dnom" horiz-adv-x="300" 
d="M278 371l-5.00098 -71.001c-22 8 -43.667 12 -65 12c-34.667 0 -58.5 -8 -71.5 -24s-19.5 -44.667 -19.5 -86c0 -40.667 7.5 -70.167 22.5 -88.5s37.5 -27.5 67.5 -27.5c23.333 0 46 5 68 15l7 -64c-17.333 -12 -40.333 -19.667 -69 -23l-4 -73h-67l4 75
c-79.333 15.333 -119 77.333 -119 186c0 112.667 45 173.667 135 183l6 74h67l-7 -75c20.667 -3.33301 37.334 -7.66602 50.001 -12.999z" />
    <glyph glyph-name="minus.dnom" horiz-adv-x="348" 
d="M305 168h-263v74h263v-74z" />
    <glyph glyph-name="zero.lf" horiz-adv-x="574" 
d="M536 373c0 -137.333 -19.667 -235.5 -59 -294.5s-103 -88.5 -191 -88.5c-88.667 0 -152.167 29.333 -190.5 88s-57.5 157 -57.5 295c0 142.667 19.167 242.5 57.5 299.5s102.5 85.5 192.5 85.5c88.667 0 152.167 -28.667 190.5 -86s57.5 -157 57.5 -299zM413 375
c0 74.667 -4.83203 131.668 -14.499 171.001s-22.834 65.166 -39.501 77.499s-40.334 18.5 -71.001 18.5c-31.333 0 -55.666 -6.5 -72.999 -19.5s-30.833 -39 -40.5 -78s-14.5 -95.5 -14.5 -169.5c0 -76 4.83301 -134 14.5 -174s23 -66.333 40 -79s41.5 -19 73.5 -19
c30.667 0 54.5 6.5 71.5 19.5s30.167 39.5 39.5 79.5s14 97.667 14 173z" />
    <glyph glyph-name="one.lf" horiz-adv-x="430" 
d="M334 751v-751h-128v505l2 81l-2 1l-66 -45l-66 -42l-14 108l200 143h74z" />
    <glyph glyph-name="two.lf" horiz-adv-x="565" 
d="M509 550c0 -64 -23.6689 -128.499 -71.002 -193.499s-119.666 -143.5 -216.999 -235.5l1 -3h289l-3 -118h-450v86l68.5 73.5l69 73.5l57.5 64.5c24.667 28.333 42.5 50.833 53.5 67.5l37 58c13.667 22 23.167 42.167 28.5 60.5s8 36.166 8 53.499
c0 32 -10.167 57.167 -30.5 75.5s-51.833 27.5 -94.5 27.5c-57.333 0 -113 -22.333 -167 -67l-32 107c62.667 52 136.667 78 222 78c74.667 0 131.834 -18.333 171.501 -55s59.5 -87.667 59.5 -153z" />
    <glyph glyph-name="three.lf" horiz-adv-x="565" 
d="M520 225c0 -73.333 -21.832 -130.667 -65.499 -172s-109.5 -62 -197.5 -62c-77.333 0 -145 17.667 -203 53l23 105c55.333 -31.333 113.666 -47 174.999 -47c48.667 0 85 11.167 109 33.5s36 53.5 36 93.5s-14.833 69.333 -44.5 88s-81.167 28 -154.5 28v95
c68.667 0 117 9.16699 145 27.5s42 46.5 42 84.5c0 60.667 -41.667 91 -125 91c-64.667 0 -123 -21.667 -175 -65l-30 103c58.667 51.333 130 77 214 77c73.333 0 130.5 -17.167 171.5 -51.5s61.5 -82.833 61.5 -145.5c0 -77.333 -34.667 -132 -104 -164v-2
c81.333 -27.333 122 -84 122 -170z" />
    <glyph glyph-name="four.lf" horiz-adv-x="585" 
d="M549 153h-74v-153h-116v153h-308l-11 85l283 512h152v-486h77zM362 264l6 285l4 81l-2 1l-38 -72l-158 -295h188z" />
    <glyph glyph-name="five.lf" horiz-adv-x="546" 
d="M508 258c0 -178 -83.333 -267 -250 -267c-79.333 0 -146.666 17.667 -201.999 53l22 106c54 -32 109.667 -48 167 -48c49.333 0 84.666 11.667 105.999 35s32 60 32 110c0 42.667 -10.667 73.167 -32 91.5s-55.333 27.5 -102 27.5c-55.333 0 -103.333 -9.66699 -144 -29
l-44 50l27 363h383l5 -117h-288l-12 -173c38 10 75 15 111 15c147.333 0 221 -72.333 221 -217z" />
    <glyph glyph-name="six.lf" horiz-adv-x="564" 
d="M527 262c0 -180.667 -79 -271 -237 -271c-56 0 -102 11 -138 33s-64 60.167 -84 114.5s-30 126.5 -30 216.5c0 269.333 98.667 404 296 404c56.667 0 107.667 -9 153 -27l-10 -113c-40 15.333 -83 23 -129 23c-60.667 0 -106 -16.5 -136 -49.5
s-47.333 -85.833 -52 -158.5l3 -2c43.333 34.667 93.333 52 150 52c142.667 0 214 -74 214 -222zM404 264c0 41.333 -9.16797 71.5 -27.501 90.5s-47.833 28.5 -88.5 28.5c-21.333 0 -44.166 -5.5 -68.499 -16.5s-42.5 -24.833 -54.5 -41.5
c0.666992 -84.667 10.5 -143 29.5 -175s50.5 -48 94.5 -48c76.667 0 115 54 115 162z" />
    <glyph glyph-name="seven.lf" horiz-adv-x="563" 
d="M523 750v-109l-265 -641h-140l284 628h-360l6 122h475z" />
    <glyph glyph-name="eight.lf" horiz-adv-x="568" 
d="M38 213c0 37.333 9.5 71.832 28.5 103.499s45.5 57.834 79.5 78.501c-55.333 38 -83 94.333 -83 169c0 130 74 195 222 195c147.333 0 221 -65 221 -195c0 -72 -29.333 -128.333 -88 -169c74.667 -37.333 112 -98.333 112 -183c0 -147.333 -81.667 -221 -245 -221
c-164.667 0 -247 74 -247 222zM410 201.999c0 19.333 -3.16602 35.834 -9.49902 49.501s-18.833 26.5 -37.5 38.5s-32.334 20 -41.001 24s-28 11.667 -58 23c-7.33301 3.33301 -13 5.66602 -17 6.99902c-59.333 -36 -89 -80 -89 -132c0 -42 10.167 -72.167 30.5 -90.5
s53.5 -27.5 99.5 -27.5c81.333 0 122 36 122 108zM178.001 559c0 -18 3.33301 -33.832 10 -47.499s17.667 -25.334 33 -35.001s29.333 -17.167 42 -22.5s30.667 -12 54 -20c52.667 32 79 72 79 120c0 34 -9 59 -27 75s-46.333 24 -85 24c-70.667 0 -106 -31.333 -106 -94z
" />
    <glyph glyph-name="nine.lf" horiz-adv-x="566" 
d="M527 408c0 -148 -23.167 -254.5 -69.5 -319.5s-117.5 -97.5 -213.5 -97.5c-63.333 0 -118.333 11 -165 33l17 108c43.333 -18.667 88.333 -28 135 -28c59.333 0 102.5 17.667 129.5 53s42.5 95 46.5 179l-2 1c-38.667 -30 -87.667 -45 -147 -45
c-72 0 -126.667 19.667 -164 59s-56 94.333 -56 165c0 78 19.833 138 59.5 180s99.167 63 178.5 63c167.333 0 251 -117 251 -351zM404 453c-0.666992 70.667 -11.999 120.667 -33.999 150s-54 44 -96 44c-77.333 0 -116 -41.667 -116 -125c0 -84 40.667 -126 122 -126
c57.333 0 98.666 19 123.999 57z" />
    <glyph glyph-name="dollar.numr" horiz-adv-x="300" 
d="M148 815l65.999 0.00195312l-6 -72c19.333 -2.66699 41.666 -8.66699 66.999 -18l-11 -71c-31.333 10.667 -60 16 -86 16c-40 0 -60 -11.667 -60 -35c0 -10 5.83301 -18.333 17.5 -25s25.667 -12.5 42 -17.5s32.833 -11.167 49.5 -18.5s30.834 -18.833 42.501 -34.5
s17.5 -35.5 17.5 -59.5c0 -64.667 -32.667 -102.667 -98 -114l-3 -69h-66l4 67c-33.333 3.33301 -62.333 12 -87 26l11 74c32 -19.333 65 -29 99 -29c40 0 60 13 60 39c0 10.667 -5.83301 19.5 -17.5 26.5s-25.667 13.167 -42 18.5s-32.666 11.666 -48.999 18.999
s-30.333 18.833 -42 34.5s-17.5 35.167 -17.5 58.5c0 29.333 8.5 54.166 25.5 74.499s42.833 32.833 77.5 37.5z" />
    <glyph glyph-name="parenleft.numr" horiz-adv-x="200" 
d="M137 781l59 -5.99902c-43.333 -68.667 -65 -148 -65 -238c0 -88 21.667 -167 65 -237l-59 -6c-56.667 62 -85 143 -85 243c0 99.333 28.333 180.666 85 243.999z" />
    <glyph glyph-name="parenright.numr" horiz-adv-x="200" 
d="M4 775l60 6c55.333 -63.333 83 -144.666 83 -243.999c0 -100.667 -27.667 -181.667 -83 -243l-60 6c42.667 69.333 64 148.333 64 237c0 91.333 -21.333 170.666 -64 237.999z" />
    <glyph glyph-name="plus.numr" horiz-adv-x="348" 
d="M311 519h-102v-103h-72v103h-100v76h100v104h72v-104h102v-76z" />
    <glyph glyph-name="comma.numr" horiz-adv-x="154" 
d="M75 438c32.667 0 49.001 -17 49.001 -51c0 -14 -5.33301 -32.5 -16 -55.5s-22.334 -42.5 -35.001 -58.5l-30 7l15 67c-8 3.33301 -15.167 9 -21.5 17s-9.5 16.667 -9.5 26c0 32 16 48 48 48z" />
    <glyph glyph-name="period.numr" horiz-adv-x="154" 
d="M126 393c0 -30 -16.333 -45 -49 -45c-17.333 0 -30 3.5 -38 10.5s-12 18.5 -12 34.5c0 31.333 16.667 47 50 47c32.667 0 49 -15.667 49 -47z" />
    <glyph glyph-name="zero.numr" horiz-adv-x="346" 
d="M322 552c0 -70.667 -11.833 -121.834 -35.5 -153.501s-61.5 -47.5 -113.5 -47.5s-89.667 15.833 -113 47.5s-35 82.834 -35 153.501c0 73.333 11.667 125.5 35 156.5s61.333 46.5 114 46.5s90.5 -15.5 113.5 -46.5s34.5 -83.167 34.5 -156.5zM236 553
c0 50.667 -4.66699 84.667 -14 102s-25.333 26 -48 26c-23.333 0 -39.833 -8.66699 -49.5 -26s-14.5 -51.666 -14.5 -102.999s4.83301 -85.5 14.5 -102.5s26.167 -25.5 49.5 -25.5c22.667 0 38.667 8.66699 48 26s14 51.666 14 102.999z" />
    <glyph glyph-name="one.numr" horiz-adv-x="256" 
d="M203 751v-395h-88v209l3 79l-3 1l-73 -44l-8 72l115 78h54z" />
    <glyph glyph-name="two.numr" horiz-adv-x="335" 
d="M304 639c0 -33.333 -12.668 -65.166 -38.001 -95.499s-65 -66.833 -119 -109.5v-3h157l-1 -75h-266v57l39.5 38l38.5 37l31.5 31.5c13 13 22.5 23.5 28.5 31.5s12.5 17.167 19.5 27.5s11.833 19.666 14.5 27.999s4 16.5 4 24.5c0 32 -20.333 48 -61 48
c-31.333 0 -63.666 -11.667 -96.999 -35l-21 71c38 26.667 82.667 40 134 40c44 0 77.667 -10.5 101 -31.5s35 -49.167 35 -84.5z" />
    <glyph glyph-name="three.numr" horiz-adv-x="335" 
d="M307 474c0 -82 -51.334 -122.999 -154.001 -122.999c-48 0 -88.667 10 -122 30l18 68c32.667 -18 67 -27 103 -27c47.333 0 71 18.667 71 56c0 18 -7.5 31.167 -22.5 39.5s-42.833 12.5 -83.5 12.5v61c38 0 64.333 4 79 12s22 20.667 22 38c0 27.333 -21.333 41 -64 41
c-39.333 0 -73.666 -11.333 -102.999 -34l-20 66c35.333 27.333 78 41 128 41c44 0 78.333 -9.33301 103 -28s37 -45.334 37 -80.001c0 -40 -19 -68 -57 -84v-2c43.333 -14.667 65 -43.667 65 -87z" />
    <glyph glyph-name="four.numr" horiz-adv-x="346" 
d="M331 431h-38v-75h-81v75h-184l-7 53l167 266h105v-247h40zM215 503l2 87l5 80h-3l-60 -99l-43 -65l1 -3h98z" />
    <glyph glyph-name="five.numr" horiz-adv-x="346" 
d="M316 492c0 -94 -48.999 -141 -146.999 -141c-48.667 0 -89.667 9 -123 27l13 69c34 -16 68 -24 102 -24c25.333 0 43.166 4.83301 53.499 14.5s15.5 25.5 15.5 47.5c0 34 -22.333 51 -67 51c-32 0 -59 -4 -81 -12l-33 31l17 195h228l3 -76h-163l-5 -72
c20 3.33301 39 5 57 5c86.667 0 130 -38.333 130 -115z" />
    <glyph glyph-name="six.numr" horiz-adv-x="346" 
d="M321 494c0 -95.333 -47.332 -142.999 -141.999 -142.999c-50 0 -87.667 15.167 -113 45.5s-38 79.166 -38 146.499c0 70 15 122.833 45 158.5s73.667 53.5 131 53.5c34 0 65 -5 93 -15l-5 -72c-23.333 8 -49 12 -77 12c-32 0 -55.833 -7 -71.5 -21
s-25.834 -36.333 -30.501 -67l2 -2c24 14.667 50.333 22 79 22c84.667 0 127 -39.333 127 -118zM235.001 494.001c0 34.667 -19 52 -57 52c-28.667 0 -49 -8.33301 -61 -25c0.666992 -36.667 5.66699 -62.167 15 -76.5s25 -21.5 47 -21.5c37.333 0 56 23.667 56 71z" />
    <glyph glyph-name="seven.numr" horiz-adv-x="346" 
d="M318 750v-74l-148 -320h-100l156 313h-197l4 81h285z" />
    <glyph glyph-name="eight.numr" horiz-adv-x="346" 
d="M25 471c0 38.667 18.667 69.001 56 91.001c-27.333 21.333 -41 50.666 -41 87.999c0 70 44.667 105 134 105c88.667 0 133 -35 133 -105c0 -34 -14.667 -62 -44 -84c38.667 -20 58 -51.667 58 -95c0 -80.667 -49 -121 -147 -121c-99.333 0 -149 40.333 -149 121z
M236 464.001c0 4 -0.500977 7.66602 -1.50098 10.999s-2 6.33301 -3 9s-3 5.33398 -6 8.00098s-5.33301 4.83398 -7 6.50098s-4.66699 3.66699 -9 6l-10 5.5c-2.33301 1.33301 -6.33301 3 -12 5s-9.66699 3.5 -12 4.5s-6.66602 2.66699 -12.999 5s-10.833 3.83301 -13.5 4.5
c-26.667 -16 -40 -36 -40 -60c0 -18.667 5.16699 -31.834 15.5 -39.501s27.5 -11.5 51.5 -11.5c40 0 60 15.333 60 46zM120.999 646c0 -14.667 6 -25.833 18 -33.5s30.667 -15.167 56 -22.5c22 14.667 33 32 33 52c0 30.667 -18 46 -54 46c-35.333 0 -53 -14 -53 -42z" />
    <glyph glyph-name="nine.numr" horiz-adv-x="346" 
d="M317 569c0 -76 -13.668 -131.333 -41.001 -166s-69.333 -52 -126 -52c-36 0 -69.333 6 -100 18l12 70c26 -10.667 53.333 -16 82 -16c30 0 52.833 8.5 68.5 25.5s24.834 44.5 27.501 82.5l-2 1c-20 -17.333 -46.333 -26 -79 -26c-44.667 0 -77.834 10.5 -99.501 31.5
s-32.5 50.167 -32.5 87.5c0 40.667 11.833 72.667 35.5 96s58.834 35 105.501 35c50.667 0 88.167 -15.333 112.5 -46s36.5 -77.667 36.5 -141zM230.999 596c0 33.333 -4.99805 56.333 -14.998 69s-26.667 19 -50 19c-37.333 0 -56 -18.333 -56 -55
c0 -19.333 4.66699 -33.833 14 -43.5s24.666 -14.5 45.999 -14.5c29.333 0 49.666 8.33301 60.999 25z" />
    <glyph glyph-name="equal.numr" horiz-adv-x="348" 
d="M303 586h-258v65h258v-65zM303 465h-258v66h258v-66z" />
    <glyph glyph-name="cent.numr" horiz-adv-x="300" 
d="M278 727l-5.00098 -71.001c-22 8 -43.667 12 -65 12c-34 0 -57.667 -8.16699 -71 -24.5s-20 -44.833 -20 -85.5c0 -41.333 7.5 -71 22.5 -89s37.5 -27 67.5 -27c23.333 0 46 5 68 15l7 -65c-18 -12 -41 -19.333 -69 -22l-4 -73h-67l4 75
c-79.333 15.333 -119 77.333 -119 186c0 112.667 45 173.667 135 183l6 74h67l-7 -75c20.667 -3.33301 37.334 -7.66602 50.001 -12.999z" />
    <glyph glyph-name="minus.numr" horiz-adv-x="348" 
d="M305 524h-263v74h263v-74z" />
    <glyph glyph-name="numbersign.osf" horiz-adv-x="550" 
d="M36 263h85l19 125h-103v89h114l22 172h92l-23 -172h105l23 172h90l-23 -172h77v-89h-87l-18 -125h105v-89h-115l-23 -174h-90l23 174h-106l-23 -174h-92l22 174h-74v89zM232 388l-18 -125h105l18 125h-105z" />
    <glyph glyph-name="dollar.osf" horiz-adv-x="450" 
d="M417 181c0 -110 -50.333 -173.003 -151 -189.003l-6 -125h-92l7 123c-52.667 4 -96 17.333 -130 40l12 105c44 -28.667 95.333 -43 154 -43c64 0 96 26.333 96 79c0 20.667 -9.16699 37.834 -27.5 51.501s-40.5 25 -66.5 34s-51.833 19.333 -77.5 31
s-47.667 29.834 -66 54.501s-27.5 56 -27.5 94c0 48 14 87.333 42 118s68.667 49.334 122 56.001l8 118h92l-9 -120c32 -4 64.667 -13 98 -27l-9 -103c-46 19.333 -93 29 -141 29c-28 0 -49.833 -5.83301 -65.5 -17.5s-23.5 -27.5 -23.5 -47.5s9 -36.333 27 -49
s39.667 -23.167 65 -31.5s50.833 -18.333 76.5 -30s47.5 -30.167 65.5 -55.5s27 -57 27 -95z" />
    <glyph glyph-name="zero.osf" horiz-adv-x="568" 
d="M526 317c0 -114 -19.334 -197.001 -58.001 -249.001s-100 -78 -184 -78c-86 0 -147.833 25.833 -185.5 77.5s-56.5 134.834 -56.5 249.501c0 118.667 18.833 203.334 56.5 254.001s99.834 76 186.501 76c84.667 0 146 -25.333 184 -76s57 -135.334 57 -254.001z
M405.999 317.999c0 86 -9.33398 143.833 -28.001 173.5s-49.667 44.5 -93 44.5c-44.667 0 -76.5 -15 -95.5 -45s-28.5 -87.667 -28.5 -173c0 -60 4.83301 -106.167 14.5 -138.5s22.834 -53.833 39.501 -64.5s40 -16 70 -16c43.333 0 74.333 15 93 45s28 88 28 174z" />
    <glyph glyph-name="one.osf" horiz-adv-x="421" 
d="M324 639v-639h-122v406l2 80l-2 2l-62 -40l-62 -38l-13 102l187 127h72z" />
    <glyph glyph-name="two.osf" horiz-adv-x="528" 
d="M480 462c0 -56.667 -21.501 -110.998 -64.501 -162.998s-110.5 -115 -202.5 -189v-3h269l-3 -107h-427v81l66.5 62.5l65 61l55 53.5c21.667 21.333 38.167 39.166 49.5 53.499s23 30.166 35 47.499s20.5 33.5 25.5 48.5s7.5 29.5 7.5 43.5c0 56.667 -38.667 85 -116 85
c-55.333 0 -109 -19.333 -161 -58l-31 99c60.667 46 131.334 69 212.001 69c71.333 0 125.833 -16.5 163.5 -49.5s56.5 -77.833 56.5 -134.5z" />
    <glyph glyph-name="three.osf" horiz-adv-x="523" 
d="M478 172c0 -87.333 -32.6689 -155.001 -98.002 -203.001s-157 -73.667 -275 -77l-11 101c91.333 2.66699 158.833 19.834 202.5 51.501s65.5 73.167 65.5 124.5c0 66.667 -41.667 100.334 -125 101.001c-14 0 -33.667 -2 -59 -6l-7 87c66 8 111.333 20 136 36
s37 39.333 37 70c0 54 -38.333 81 -115 81c-62 0 -116.333 -18 -163 -54l-27 99c22.667 19.333 51.834 34.833 87.501 46.5s72.834 17.5 111.501 17.5c70 0 123.5 -15.667 160.5 -47s55.5 -73.333 55.5 -126c0 -66.667 -26.333 -115 -79 -145v-2
c68.667 -24.667 103 -76.334 103 -155.001z" />
    <glyph glyph-name="four.osf" horiz-adv-x="559" 
d="M535 63h-70v-164l-111 -6v170h-317l-10 84l301 499l137 -9v-472h73zM358 165l7 293l4 81l-2 1l-40 -71l-137 -235l-41 -66l1 -3h208z" />
    <glyph glyph-name="five.osf" horiz-adv-x="516" 
d="M478 183c0 -90 -32.3301 -160.5 -96.9971 -211.5s-157.334 -77.5 -278.001 -79.5l-12 106c87.333 2 153.666 18.167 198.999 48.5s68 71.5 68 123.5c0 65.333 -42.667 98 -128 98c-49.333 0 -95.333 -10.333 -138 -31l-40 50l27 351h365l5 -117h-274l-12 -162
c35.333 10.667 70.666 16 105.999 16c66.667 0 118.167 -16.5 154.5 -49.5s54.5 -80.5 54.5 -142.5z" />
    <glyph glyph-name="six.osf" horiz-adv-x="543" 
d="M505 258c0 -178 -75.666 -266.999 -226.999 -266.999c-78.667 0 -138.334 26.167 -179.001 78.5s-61 136.833 -61 253.5c0 136 35.167 240.167 105.5 312.5s158.5 109.833 264.5 112.5l18 -107c-78.667 -2.66699 -140.5 -22.834 -185.5 -60.501
s-72.167 -90.167 -81.5 -157.5l2 -2c41.333 32.667 88 49 140 49c136 0 204 -70.667 204 -212zM388.001 257.001c0 39.333 -8.83594 67.999 -26.5029 85.999s-45.5 27 -83.5 27c-21.333 0 -43.166 -5 -65.499 -15s-39.5 -23 -51.5 -39
c0.666992 -81.333 10.334 -137.166 29.001 -167.499s48.334 -45.5 89.001 -45.5c72.667 0 109 51.333 109 154z" />
    <glyph glyph-name="seven.osf" horiz-adv-x="525" 
d="M486 637v-103l-258 -631h-133l264 616h-323l8 118h442z" />
    <glyph glyph-name="eight.osf" horiz-adv-x="555" 
d="M38 182c0 31.333 8.66699 60.5 26 87.5s41.333 49.167 72 66.5c-48.667 32.667 -73 80 -73 142c0 112 72 168 216 168c142.667 0 214 -56.333 214 -169c0 -59.333 -26 -106 -78 -140v-2c68 -30.667 102 -81.667 102 -153c0 -128 -79.333 -192 -238 -192
c-160.667 0 -241 64 -241 192zM397 174c0 8 -0.832031 15.333 -2.49902 22s-4.66699 12.834 -9 18.501s-8.33301 10.667 -12 15s-9.33398 8.83301 -17.001 13.5s-14 8.33398 -19 11.001s-12.833 6 -23.5 10s-18.5 6.83301 -23.5 8.5l-27 9
c-13 4.33301 -21.833 7.16602 -26.5 8.49902c-54 -28.667 -81 -64.334 -81 -107.001c0 -33.333 9.66699 -57.5 29 -72.5s51.333 -22.5 96 -22.5c77.333 0 116 28.667 116 86zM176.001 472c0 -14.667 3.33301 -27.333 10 -38s18 -20.167 34 -28.5s29.833 -14.333 41.5 -18
l54.5 -16.5c46 25.333 69 57 69 95c0 28 -8.5 48.833 -25.5 62.5s-44.5 20.5 -82.5 20.5c-67.333 0 -101 -25.667 -101 -77z" />
    <glyph glyph-name="nine.osf" horiz-adv-x="537" 
d="M499 337c0 -76 -9.33301 -142.832 -28 -200.499s-45.167 -103.667 -79.5 -138s-73.333 -60 -117 -77s-92.5 -26.167 -146.5 -27.5l-13 104c72.667 3.33301 132 24.666 178 63.999s73.667 96 83 170l-2 1c-34 -30 -78.333 -45 -133 -45c-63.333 0 -113 18.667 -149 56
s-54 93 -54 167c0 76 19.167 134.333 57.5 175s94.5 61 168.5 61c156.667 0 235 -103.333 235 -310zM378 355.001c-0.666992 66 -10 112.333 -28 139s-47.333 40 -88 40c-69.333 0 -104 -40 -104 -120c0 -40.667 8.66699 -70.667 26 -90s45 -29 83 -29
c55.333 0 92.333 20 111 60z" />
    <glyph glyph-name="cent.osf" horiz-adv-x="454" 
d="M415 586l-6.99902 -107.001c-32 13.333 -65 20 -99 20c-54.667 0 -93 -14.5 -115 -43.5s-33 -79.833 -33 -152.5c0 -74 12 -127.167 36 -159.5s60.333 -48.5 109 -48.5c39.333 0 74.333 8.66699 105 26l9 -98c-26.667 -18.667 -62.667 -30 -108 -34l-7 -122h-91l7 127
c-122 22 -183 125 -183 309c0 188.667 68 290.667 204 306l9 119h91l-9 -120c27.333 -3.33301 54.666 -10.666 81.999 -21.999z" />
    <glyph glyph-name="sterling.osf" horiz-adv-x="518" 
d="M49 277l-4.00098 90.001h42c-12.667 42 -19 76.333 -19 103c0 55.333 19 100.5 57 135.5s99 52.5 183 52.5c54.667 0 106 -9 154 -27l-15 -103c-40.667 16 -83 24 -127 24c-86.667 0 -130 -31.667 -130 -95c0 -23.333 5.33301 -53.333 16 -90h208v-90h-188
c2.66699 -15.333 4 -33 4 -53c0 -58.667 -19.667 -100.334 -59 -125.001l2 -3c44.667 10.667 98.667 16 162 16c52.667 0 105.334 -3.66699 158.001 -11l-6 -107c-72 8 -141.333 12 -208 12c-82 0 -161.667 -3.33301 -239 -10l-4 105c24.667 6 44 19.833 58 41.5
s21 46.5 21 74.5c0 18.667 -1.66699 38.667 -5 60h-61z" />
    <glyph glyph-name="currency.osf" horiz-adv-x="550" 
d="M105 326c0 31.333 7.66699 60.333 23 87l-62 64l62 68l65 -68c25.333 14.667 52.666 22 81.999 22c28 0 55 -7 81 -21l67 67l62 -68l-63 -65c14.667 -26 22 -54.667 22 -86c0 -28 -6.33301 -54.667 -19 -80l60 -61l-63 -68l-59 61
c-27.333 -16.667 -56.666 -25 -87.999 -25c-32.667 0 -62 8.33301 -88 25l-60 -61l-62 68l59 60c-12.667 25.333 -19 52.333 -19 81zM184 328c0 -24.667 8.66895 -45.5 26.002 -62.5s38.666 -25.5 63.999 -25.5s46.833 8.5 64.5 25.5s26.5 37.833 26.5 62.5
c0 24 -8.83301 44.5 -26.5 61.5s-39.167 25.5 -64.5 25.5c-24.667 0 -45.834 -8.5 -63.501 -25.5s-26.5 -37.5 -26.5 -61.5z" />
    <glyph glyph-name="yen.osf" horiz-adv-x="550" 
d="M99 298h85l-167 351h130l100 -262l27 -76h3l26 76l99 262h128l-163 -351h87v-64h-115v-45h115v-63h-115v-126h-126v126h-114v63h114v45h-114v64z" />
    <glyph glyph-name="franc.osf" horiz-adv-x="550" 
d="M31 166h65v483h411l2 -110h-294v-159h224v-105h-224v-109h71v-82h-71v-84h-118l-1 84h-65v82z" />
    <glyph glyph-name="lira.osf" horiz-adv-x="550" 
d="M58 343l-5 62h28c-5.33301 21.333 -8 42.333 -8 63c0 56 19.333 101.667 58 137s101.334 53 188.001 53c57.333 0 111 -9.33301 161 -28l-16 -103c-38.667 16 -83 24 -133 24c-90.667 0 -136 -31.667 -136 -95c0 -18 2 -35 6 -51h235v-62h-219
c4.66699 -17.333 8.33398 -32 11.001 -44h208v-62h-200v-14c0 -56 -19.667 -97 -59 -123l2 -3c46 10.667 102 16 168 16c55.333 0 109.666 -3.66699 162.999 -11l-6 -108c-74 8 -145.333 12 -214 12c-85.333 0 -167 -3.33301 -245 -10l-5 105
c25.333 6 45.166 19.833 59.499 41.5s21.5 46.5 21.5 74.5c0 2 -0.166992 5.16699 -0.5 9.5s-0.5 7.83301 -0.5 10.5h-58l-4 62h54l-12 44h-42z" />
    <glyph glyph-name="peseta.osf" horiz-adv-x="550" 
d="M248 455c0 -77.333 -8 -128.833 -24 -154.5s-47 -38.5 -93 -38.5h-32v-262h-68v649h99c45.333 0 76.333 -13 93 -39s25 -77.667 25 -155zM382 337h-41v-249c0 -18.667 7.33301 -28 22 -28c4 0 8 1.33301 12 4l2 -63c-8 -5.33301 -18.667 -8 -32 -8
c-42.667 0 -64 31.333 -64 94v250h-19v63h22l10 90l46 8v-98h42v-63zM529 115c0 -82 -27.334 -123.003 -82.001 -123.003c-19.333 0 -35.666 5 -48.999 15l1 67c12.667 -8.66699 26.334 -13 41.001 -13c22 0 33 17.667 33 53c0 15.333 -4.16699 28.833 -12.5 40.5
s-17.333 21.334 -27 29.001s-18.667 20.667 -27 39s-12.5 40.833 -12.5 67.5c0 31.333 7.16699 58.333 21.5 81s34.166 34 59.499 34c18 0 33.333 -4.66699 46 -14l-3 -70c-12.667 7.33301 -25 11 -37 11c-19.333 0 -29 -14 -29 -42c0 -14.667 4 -27.667 12 -39
s16.833 -20.666 26.5 -27.999s18.5 -20.166 26.5 -38.499s12 -41.5 12 -69.5zM179.999 454.997c0 47.333 -3.33301 77.667 -10 91s-19.667 20 -39 20h-32v-226h32c18.667 0 31.5 7 38.5 21s10.5 45.333 10.5 94z" />
    <glyph glyph-name="Euro.osf" horiz-adv-x="550" 
d="M519 625l-30 -99c-33.333 14 -69.666 21 -108.999 21c-51.333 0 -90.5 -9.66699 -117.5 -29s-44.833 -51 -53.5 -95h252l-20 -67h-240v-56h223l-20 -64h-195c10 -49.333 28.833 -85 56.5 -107s64.834 -33 111.501 -33c48 0 90.333 11 127 33l6 -99
c-42.667 -28.667 -97.334 -43 -164.001 -43c-160.667 0 -252.334 83 -275.001 249h-43v64h37v56h-37v67h44c23.333 157.333 116 236 278 236c66 0 122.333 -11.333 169 -34z" />
    <glyph glyph-name="exclam.sc" horiz-adv-x="267" 
d="M177 183h-87l-18 466h122zM201 50c0 -40 -21.666 -59.999 -64.999 -59.999c-22.667 0 -39.334 4.66699 -50.001 14s-16 24.666 -16 45.999c0 40.667 22 61 66 61c43.333 0 65 -20.333 65 -61z" />
    <glyph glyph-name="ampersand.sc" horiz-adv-x="614" 
d="M606 97l-40.999 -105c-41.333 20 -86 47.667 -134 83c-59.333 -58 -126.666 -87 -201.999 -87c-62.667 0 -109.167 17.167 -139.5 51.5s-45.5 76.833 -45.5 127.5c0 69.333 37.667 133.666 113 192.999c-34.667 56 -52 104.333 -52 145c0 46.667 13.667 84 41 112
s70.333 42 129 42c49.333 0 89.666 -11.5 120.999 -34.5s47 -53.5 47 -91.5c0 -16 -3.33301 -31.667 -10 -47s-13.5 -28.166 -20.5 -38.499s-19.167 -23.166 -36.5 -38.499s-30 -26.166 -38 -32.499s-23 -17.5 -45 -33.5c36 -42 78.333 -83.333 127 -124
c22 39.333 37.333 79.666 46 120.999h96c-6 -58.667 -27.667 -118.334 -65 -179.001c37.333 -26 73.666 -47.333 108.999 -64zM247.001 96c38.667 0 74 14 106 42c-52 44.667 -98.333 92 -139 142c-35.333 -34 -53 -68.667 -53 -104c0 -25.333 7.5 -45 22.5 -59
s36.167 -21 63.5 -21zM209.001 505c0 -24 9.99902 -53.334 29.999 -88.001c30.667 20.667 53.5 38.834 68.5 54.501s22.5 32.5 22.5 50.5c0 32 -19.333 48 -58 48c-19.333 0 -34.666 -5.5 -45.999 -16.5s-17 -27.167 -17 -48.5z" />
    <glyph glyph-name="question.sc" horiz-adv-x="441" 
d="M405 498c0 -86.667 -49 -156.999 -147 -210.999l-5 -104h-86l-7 147c44 26 76.5 50.167 97.5 72.5s31.5 48.166 31.5 77.499c0 47.333 -30 71 -90 71c-49.333 0 -93 -17 -131 -51l-41 92c47.333 44 110.333 66 189 66c62 0 109 -14 141 -42s48 -67.333 48 -118z
M275 50.001c0 -40 -21.667 -59.999 -65 -59.999c-22.667 0 -39.167 4.66699 -49.5 14s-15.5 24.666 -15.5 45.999c0 40.667 21.667 61 65 61s65 -20.333 65 -61z" />
    <glyph glyph-name="grave.sc" 
d="M267 689h-89l-112 127h136z" />
    <glyph glyph-name="a.sc" horiz-adv-x="611" 
d="M464 0l-41 138h-243l-41 -138h-128l221 649h145l223 -649h-136zM302 552l-22 -79l-69 -231h182l-68 231l-20 79h-3z" />
    <glyph glyph-name="b.sc" horiz-adv-x="571" 
d="M537 188c0 -125.333 -72.667 -188.002 -218 -188.002h-250v649h245c66 0 115.667 -14.167 149 -42.5s50 -69.166 50 -122.499c0 -69.333 -28.667 -115.666 -86 -138.999v-2c73.333 -19.333 110 -71 110 -155zM416 196.998c0 31.333 -7.83203 54.167 -23.499 68.5
s-40.834 21.5 -75.501 21.5h-132v-184h136c33.333 0 57.5 7 72.5 21s22.5 38.333 22.5 73zM398.001 461.999c0 29.333 -6.83203 50.167 -20.499 62.5s-36.167 18.5 -67.5 18.5h-125v-164h129c29.333 0 50.666 6.66699 63.999 20s20 34.333 20 63z" />
    <glyph glyph-name="c.sc" horiz-adv-x="501" 
d="M466 632l-14 -108c-36.667 16 -78.334 24 -125.001 24c-60.667 0 -103.5 -15.833 -128.5 -47.5s-37.5 -88.834 -37.5 -171.501c0 -87.333 12.667 -147.666 38 -180.999s69 -50 131 -50c44 0 85.667 9 125 27l13 -102c-45.333 -22.667 -97 -34 -155 -34
c-94.667 0 -164.667 27.5 -210 82.5s-68 140.833 -68 257.5c0 112 23 195.167 69 249.5s118 81.5 216 81.5c52.667 0 101.334 -9.33301 146.001 -28z" />
    <glyph glyph-name="d.sc" horiz-adv-x="609" 
d="M574 327c0 -115.333 -22.668 -198.667 -68.001 -250s-115 -77 -209 -77h-228v649h226c98.667 0 169.834 -25.333 213.501 -76s65.5 -132.667 65.5 -246zM447.999 327.999c0 82 -11.333 137.333 -34 166s-62.334 43 -119.001 43h-106v-426h106
c56.667 0 96.334 14.5 119.001 43.5s34 86.833 34 173.5z" />
    <glyph glyph-name="e.sc" horiz-adv-x="520" 
d="M189 109h299l-3 -109h-416v649h403l3 -111h-286v-153h242v-100h-242v-176z" />
    <glyph glyph-name="f.sc" horiz-adv-x="502" 
d="M474 536h-284v-162h246l-1 -108h-245v-266h-121v649h402z" />
    <glyph glyph-name="g.sc" horiz-adv-x="563" 
d="M514 347v-323c-48.667 -23.333 -110.667 -35 -186 -35c-103.333 0 -178 26.833 -224 80.5s-69 138.167 -69 253.5c0 116 23.667 201.167 71 255.5s122.333 81.5 225 81.5c65.333 0 122.333 -10.333 171 -31l-12 -107c-48 18.667 -98.667 28 -152 28
c-66 0 -111.833 -16 -137.5 -48s-38.5 -91 -38.5 -177s11.833 -145 35.5 -177s65.834 -48 126.501 -48c29.333 0 56.666 3.66699 81.999 11v236h108z" />
    <glyph glyph-name="h.sc" horiz-adv-x="627" 
d="M558 0h-122v277h-246v-277h-121v649h121v-259h246v259h122v-649z" />
    <glyph glyph-name="i.sc" horiz-adv-x="281" 
d="M78 0v649h124v-649h-124z" />
    <glyph glyph-name="j.sc" horiz-adv-x="414" 
d="M353 649l-0.000976562 -434.999c0 -150 -67.667 -225 -203 -225c-51.333 0 -92.333 9.66699 -123 29l8 105c24.667 -17.333 55.334 -26 92.001 -26s63 9.16699 79 27.5s24 48.166 24 89.499v435h123z" />
    <glyph glyph-name="k.sc" horiz-adv-x="598" 
d="M583 0h-147l-173 284h-74v-284h-120v649h120v-264h79l166 264h139l-199 -308z" />
    <glyph glyph-name="l.sc" horiz-adv-x="480" 
d="M190 112h271l-4 -112h-388v649h121v-537z" />
    <glyph glyph-name="m.sc" horiz-adv-x="772" 
d="M69 649h134l154 -396l28 -76h3l27 76l155 396h133v-649h-110v378l2 81l-3 1l-27 -77l-141 -383h-80l-140 373l-27 77l-2 -1l1 -81v-368h-107v649z" />
    <glyph glyph-name="n.sc" horiz-adv-x="631" 
d="M562 0h-96l-247 392l-42 70l-2 -1l1 -81v-380h-107v649h104l239 -376l43 -68l2 1l-2 80v363h107v-649z" />
    <glyph glyph-name="o.sc" horiz-adv-x="611" 
d="M575 324c0 -120 -20.833 -205.833 -62.5 -257.5s-110.5 -77.5 -206.5 -77.5c-95.333 0 -164.333 26.5 -207 79.5s-64 138.167 -64 255.5c0 118.667 21 204.167 63 256.5s111.333 78.5 208 78.5c96 0 164.833 -26.167 206.5 -78.5s62.5 -137.833 62.5 -256.5zM449 324
c0 88 -10.333 147.333 -31 178s-58 46 -112 46c-54.667 0 -92.5 -15.5 -113.5 -46.5s-31.5 -90.167 -31.5 -177.5s10.667 -146.5 32 -177.5s59 -46.5 113 -46.5s91.333 15.5 112 46.5s31 90.167 31 177.5z" />
    <glyph glyph-name="p.sc" horiz-adv-x="557" 
d="M524 435c0 -70.667 -18.667 -123.333 -56 -158s-97.666 -52 -180.999 -52h-97v-225h-121v649h218c83.333 0 143.666 -17 180.999 -51s56 -88.333 56 -163zM399 435.001c0 41.333 -8.33301 69.833 -25 85.5s-45.667 23.5 -87 23.5h-98v-219h98
c41.333 0 70.333 7.5 87 22.5s25 44.167 25 87.5z" />
    <glyph glyph-name="q.sc" horiz-adv-x="620" 
d="M580 324c0 -95.333 -12.832 -168.5 -38.499 -219.5s-67.167 -84.5 -124.5 -100.5v-3l61 -50l60 -51l-135 -25l-111 115c-88.667 2.66699 -152.834 30.5 -192.501 83.5s-59.5 136.5 -59.5 250.5c0 118.667 21 204.167 63 256.5s111.333 78.5 208 78.5
c96 0 164.833 -26.167 206.5 -78.5s62.5 -137.833 62.5 -256.5zM454.001 324c0 88 -10.333 147.333 -31 178s-58 46 -112 46c-54.667 0 -92.5 -15.5 -113.5 -46.5s-31.5 -90.167 -31.5 -177.5s10.667 -146.5 32 -177.5s59 -46.5 113 -46.5s91.333 15.5 112 46.5
s31 90.167 31 177.5z" />
    <glyph glyph-name="r.sc" horiz-adv-x="574" 
d="M514 453c0 -46.667 -9.5 -85 -28.5 -115s-46.5 -50 -82.5 -60l152 -278h-142l-123 255h-100v-255h-121v649h221c76 0 132.333 -15.833 169 -47.5s55 -81.167 55 -148.5zM388 449c0 36 -7.16699 61 -21.5 75s-39.5 21 -75.5 21h-101v-196h99c36 0 61.5 7.16699 76.5 21.5
s22.5 40.5 22.5 78.5z" />
    <glyph glyph-name="s.sc" horiz-adv-x="487" 
d="M456 190c0 -62.667 -19.8301 -111.834 -59.4971 -147.501s-95.167 -53.5 -166.5 -53.5c-74.667 0 -138.334 15.667 -191.001 47l18 107c54 -31.333 111 -47 171 -47c74.667 0 112 28.667 112 86c0 18.667 -7.33301 34.667 -22 48s-33 23.833 -55 31.5
s-45.833 17 -71.5 28s-49.5 22.667 -71.5 35s-40.333 30.833 -55 55.5s-22 54 -22 88c0 56.667 18.333 102.667 55 138s91.667 53 165 53c67.333 0 124.666 -11 171.999 -33l-15 -105c-54 18.667 -104.333 28 -151 28c-73.333 0 -110 -25 -110 -75
c0 -15.333 5.5 -28.833 16.5 -40.5s25.167 -21.167 42.5 -28.5s36.5 -14.666 57.5 -21.999s42.167 -16 63.5 -26s40.666 -21.5 57.999 -34.5s31.5 -30.833 42.5 -53.5s16.5 -49 16.5 -79z" />
    <glyph glyph-name="t.sc" horiz-adv-x="497" 
d="M485 538h-175v-538h-123v538h-175l2 111h469z" />
    <glyph glyph-name="u.sc" horiz-adv-x="618" 
d="M557 649v-420.998c0 -159.333 -82.333 -239 -247 -239c-166 0 -249 79.667 -249 239v421h121v-419c0 -44.667 10.333 -77.334 31 -98.001s53 -31 97 -31s76 10.167 96 30.5s30 53.166 30 98.499v419h121z" />
    <glyph glyph-name="v.sc" horiz-adv-x="596" 
d="M456 649h126l-215 -649h-138l-216 649h134l132 -457l21 -78h3l20 78z" />
    <glyph glyph-name="w.sc" horiz-adv-x="867" 
d="M370 649h131l98 -458l16 -79h3l12 80l84 457h120l-148 -649h-146l-91 450l-14 80h-3l-15 -80l-91 -450h-145l-149 649h127l82 -459l13 -80h3l15 79z" />
    <glyph glyph-name="x.sc" horiz-adv-x="598" 
d="M564 649l-178 -310l187 -339h-139l-99 191l-35 73h-3l-35 -73l-96 -191h-141l184 337l-178 312h144l88 -166l36 -72h3l35 72l88 166h139z" />
    <glyph glyph-name="y.sc" horiz-adv-x="582" 
d="M13 649h138l111 -259l31 -75h3l29 75l111 259h133l-214 -438v-211h-124v211z" />
    <glyph glyph-name="z.sc" horiz-adv-x="524" 
d="M482 0h-445v81l255 388l45 65l-1 2h-291l4 113h433v-91l-250 -379l-45 -64l1 -3h296z" />
    <glyph glyph-name="exclamdown.sc" horiz-adv-x="276" 
d="M92 448h94l15 -540h-125zM66 601c0 43.333 23.667 65 71 65s71 -21.667 71 -65c0 -44.667 -23.667 -67 -71 -67s-71 22.333 -71 67z" />
    <glyph glyph-name="dieresis.sc" 
d="M160 757c0 -32.667 -17 -49 -51 -49c-18 0 -31.167 3.83301 -39.5 11.5s-12.5 20.167 -12.5 37.5c0 33.333 17.333 50 52 50c34 0 51 -16.667 51 -50zM325 757c0 -32.667 -17.333 -49 -52 -49c-18 0 -31.167 3.83301 -39.5 11.5s-12.5 20.167 -12.5 37.5
c0 33.333 17.333 50 52 50s52 -16.667 52 -50z" />
    <glyph glyph-name="macron.sc" 
d="M331 781v-70h-281v70h281z" />
    <glyph glyph-name="acute.sc" 
d="M210 816h145l-130 -127h-98z" />
    <glyph glyph-name="cedilla.sc" 
d="M109 -187l64 197l79 1l-33 -198h-110z" />
    <glyph glyph-name="questiondown.sc" horiz-adv-x="470" 
d="M36 79c0 53.333 13.5 99.502 40.5 138.502s66.5 74.833 118.5 107.5l5 123h92l7 -167c-48 -32.667 -83.5 -62.334 -106.5 -89.001s-34.5 -57.334 -34.5 -92.001c0 -56 33 -84 99 -84c55.333 0 103 19 143 57l43 -99c-51.333 -49.333 -119.333 -74 -204 -74
c-66.667 0 -117.167 15.667 -151.5 47s-51.5 75.333 -51.5 132zM175 601.002c0 43.333 23.667 65 71 65c24.667 0 42.667 -5.16699 54 -15.5s17 -26.833 17 -49.5c0 -44.667 -23.667 -67 -71 -67s-71 22.333 -71 67z" />
    <glyph glyph-name="germandbls.sc" horiz-adv-x="700" 
d="M563 395l-216 -215l-215 215l215 216zM552 395l-205 205l-51 -51l51 -51l-102 -103l51 -51l103 103l51 -52l-103 -102l52 -51z" />
    <glyph glyph-name="agrave.sc" horiz-adv-x="611" 
d="M464 0l-41 138h-243l-41 -138h-128l221 649h145l223 -649h-136zM302 552l-22 -79l-69 -231h182l-68 231l-20 79h-3zM375 689h-89l-112 127h136z" />
    <glyph glyph-name="aacute.sc" horiz-adv-x="611" 
d="M464 0l-41 138h-243l-41 -138h-128l221 649h145l223 -649h-136zM302 552l-22 -79l-69 -231h182l-68 231l-20 79h-3zM322 816h145l-130 -127h-98z" />
    <glyph glyph-name="acircumflex.sc" horiz-adv-x="611" 
d="M464 0l-41 138h-243l-41 -138h-128l221 649h145l223 -649h-136zM302 552l-22 -79l-69 -231h182l-68 231l-20 79h-3zM251 817h102l95 -128h-90l-55 82l-54 -82h-91z" />
    <glyph glyph-name="atilde.sc" horiz-adv-x="611" 
d="M464 0l-41 138h-243l-41 -138h-128l221 649h145l223 -649h-136zM302 552l-22 -79l-69 -231h182l-68 231l-20 79h-3zM213 717l-54 0.000976562c2 30.667 10.833 55.667 26.5 75s36.167 29 61.5 29c20.667 0 42.834 -8 66.501 -24s41.167 -24 52.5 -24
c17.333 0 29 12.333 35 37l55 -1c-2 -30.667 -11 -55.334 -27 -74.001s-36.667 -28 -62 -28c-20 0 -42 7.83301 -66 23.5s-41.667 23.5 -53 23.5c-16.667 0 -28.334 -12.333 -35.001 -37z" />
    <glyph glyph-name="adieresis.sc" horiz-adv-x="611" 
d="M464 0l-41 138h-243l-41 -138h-128l221 649h145l223 -649h-136zM302 552l-22 -79l-69 -231h182l-68 231l-20 79h-3zM273 757c0 -32.667 -17 -49 -51 -49c-18 0 -31.167 3.83301 -39.5 11.5s-12.5 20.167 -12.5 37.5c0 33.333 17.333 50 52 50c34 0 51 -16.667 51 -50z
M438 757c0 -32.667 -17.333 -49 -52 -49c-18 0 -31.167 3.83301 -39.5 11.5s-12.5 20.167 -12.5 37.5c0 33.333 17.333 50 52 50s52 -16.667 52 -50z" />
    <glyph glyph-name="aring.sc" horiz-adv-x="611" 
d="M191 710c0 27.333 9.33203 48.834 27.999 64.501s47 23.5 85 23.5c36.667 0 64.834 -8 84.501 -24s29.5 -37.333 29.5 -64c0 -34 -12.333 -58.333 -37 -73l219 -637h-136l-41 138h-243l-41 -138h-128l217 637c-24.667 15.333 -37 39.666 -37 72.999zM301.999 552.001
l-22 -79l-69 -231h182l-68 231l-20 79h-3zM254.999 709.001c0 -24 17 -36 51 -36c33.333 0 50 12 50 36c0 24.667 -16.667 37 -50 37c-34 0 -51 -12.333 -51 -37z" />
    <glyph glyph-name="ae.sc" horiz-adv-x="870" 
d="M829 538h-290l11 -153h231v-100h-223l13 -176h266l-2 -109h-380l-10 138h-229l-65 -138h-143l338 649h479zM414 558l-33 -74l-116 -243h172l-16 235l-4 81z" />
    <glyph glyph-name="ccedilla.sc" horiz-adv-x="501" 
d="M196 -187l58 179.999c-74 10.667 -129 43.334 -165 98.001s-54 134 -54 238c0 112 23 195.167 69 249.5s118 81.5 216 81.5c52.667 0 101.334 -9.33301 146.001 -28l-14 -108c-36.667 16 -78.334 24 -125.001 24c-60.667 0 -103.5 -15.833 -128.5 -47.5
s-37.5 -88.834 -37.5 -171.501c0 -87.333 12.667 -147.666 38 -180.999s69 -50 131 -50c44 0 85.667 9 125 27l13 -102c-36.667 -18.667 -81 -29.667 -133 -33l-29 -177h-110z" />
    <glyph glyph-name="egrave.sc" horiz-adv-x="520" 
d="M189 109h299l-3 -109h-416v649h403l3 -111h-286v-153h242v-100h-242v-176zM353 689h-89l-112 127h136z" />
    <glyph glyph-name="eacute.sc" horiz-adv-x="520" 
d="M189 109h299l-3 -109h-416v649h403l3 -111h-286v-153h242v-100h-242v-176zM300 816h145l-130 -127h-98z" />
    <glyph glyph-name="ecircumflex.sc" horiz-adv-x="520" 
d="M189 109h299l-3 -109h-416v649h403l3 -111h-286v-153h242v-100h-242v-176zM229 817h102l95 -128h-90l-55 82l-54 -82h-91z" />
    <glyph glyph-name="edieresis.sc" horiz-adv-x="520" 
d="M189 109h299l-3 -109h-416v649h403l3 -111h-286v-153h242v-100h-242v-176zM251 757c0 -32.667 -17 -49 -51 -49c-18 0 -31.167 3.83301 -39.5 11.5s-12.5 20.167 -12.5 37.5c0 33.333 17.333 50 52 50c34 0 51 -16.667 51 -50zM416 757c0 -32.667 -17.333 -49 -52 -49
c-18 0 -31.167 3.83301 -39.5 11.5s-12.5 20.167 -12.5 37.5c0 33.333 17.333 50 52 50s52 -16.667 52 -50z" />
    <glyph glyph-name="igrave.sc" horiz-adv-x="281" 
d="M78 0v649h124v-649h-124zM211 689h-89l-112 127h136z" />
    <glyph glyph-name="iacute.sc" horiz-adv-x="281" 
d="M78 0v649h124v-649h-124zM157 816h145l-130 -127h-98z" />
    <glyph glyph-name="icircumflex.sc" horiz-adv-x="281" 
d="M78 0v649h124v-649h-124zM86 817h102l95 -128h-90l-55 82l-54 -82h-91z" />
    <glyph glyph-name="idieresis.sc" horiz-adv-x="281" 
d="M78 0v649h124v-649h-124zM108 757c0 -32.667 -17 -49 -51 -49c-18 0 -31.167 3.83301 -39.5 11.5s-12.5 20.167 -12.5 37.5c0 33.333 17.333 50 52 50c34 0 51 -16.667 51 -50zM273 757c0 -32.667 -17.333 -49 -52 -49c-18 0 -31.167 3.83301 -39.5 11.5
s-12.5 20.167 -12.5 37.5c0 33.333 17.333 50 52 50s52 -16.667 52 -50z" />
    <glyph glyph-name="eth.sc" horiz-adv-x="618" 
d="M583 327c0 -115.333 -22.668 -198.667 -68.001 -250s-115 -77 -209 -77h-228v296h-65v87h65v266h226c98.667 0 169.834 -25.333 213.501 -76s65.5 -132.667 65.5 -246zM456.999 327.999c0 82 -11.333 137.333 -34 166s-62.334 43 -119.001 43h-106v-154h103v-87h-103
v-185h106c56.667 0 96.334 14.5 119.001 43.5s34 86.833 34 173.5z" />
    <glyph glyph-name="ntilde.sc" horiz-adv-x="631" 
d="M562 0h-96l-247 392l-42 70l-2 -1l1 -81v-380h-107v649h104l239 -376l43 -68l2 1l-2 80v363h107v-649zM223 717l-54 0.000976562c2 30.667 10.833 55.667 26.5 75s36.167 29 61.5 29c20.667 0 42.834 -8 66.501 -24s41.167 -24 52.5 -24c17.333 0 29 12.333 35 37l55 -1
c-2 -30.667 -11 -55.334 -27 -74.001s-36.667 -28 -62 -28c-20 0 -42 7.83301 -66 23.5s-41.667 23.5 -53 23.5c-16.667 0 -28.334 -12.333 -35.001 -37z" />
    <glyph glyph-name="ograve.sc" horiz-adv-x="611" 
d="M575 324c0 -120 -20.833 -205.833 -62.5 -257.5s-110.5 -77.5 -206.5 -77.5c-95.333 0 -164.333 26.5 -207 79.5s-64 138.167 -64 255.5c0 118.667 21 204.167 63 256.5s111.333 78.5 208 78.5c96 0 164.833 -26.167 206.5 -78.5s62.5 -137.833 62.5 -256.5zM449 324
c0 88 -10.333 147.333 -31 178s-58 46 -112 46c-54.667 0 -92.5 -15.5 -113.5 -46.5s-31.5 -90.167 -31.5 -177.5s10.667 -146.5 32 -177.5s59 -46.5 113 -46.5s91.333 15.5 112 46.5s31 90.167 31 177.5zM378 689h-89l-112 127h136z" />
    <glyph glyph-name="oacute.sc" horiz-adv-x="611" 
d="M575 324c0 -120 -20.833 -205.833 -62.5 -257.5s-110.5 -77.5 -206.5 -77.5c-95.333 0 -164.333 26.5 -207 79.5s-64 138.167 -64 255.5c0 118.667 21 204.167 63 256.5s111.333 78.5 208 78.5c96 0 164.833 -26.167 206.5 -78.5s62.5 -137.833 62.5 -256.5zM449 324
c0 88 -10.333 147.333 -31 178s-58 46 -112 46c-54.667 0 -92.5 -15.5 -113.5 -46.5s-31.5 -90.167 -31.5 -177.5s10.667 -146.5 32 -177.5s59 -46.5 113 -46.5s91.333 15.5 112 46.5s31 90.167 31 177.5zM324 816h145l-130 -127h-98z" />
    <glyph glyph-name="ocircumflex.sc" horiz-adv-x="611" 
d="M575 324c0 -120 -20.833 -205.833 -62.5 -257.5s-110.5 -77.5 -206.5 -77.5c-95.333 0 -164.333 26.5 -207 79.5s-64 138.167 -64 255.5c0 118.667 21 204.167 63 256.5s111.333 78.5 208 78.5c96 0 164.833 -26.167 206.5 -78.5s62.5 -137.833 62.5 -256.5zM449 324
c0 88 -10.333 147.333 -31 178s-58 46 -112 46c-54.667 0 -92.5 -15.5 -113.5 -46.5s-31.5 -90.167 -31.5 -177.5s10.667 -146.5 32 -177.5s59 -46.5 113 -46.5s91.333 15.5 112 46.5s31 90.167 31 177.5zM253 817h102l95 -128h-90l-55 82l-54 -82h-91z" />
    <glyph glyph-name="otilde.sc" horiz-adv-x="611" 
d="M575 324c0 -120 -20.833 -205.833 -62.5 -257.5s-110.5 -77.5 -206.5 -77.5c-95.333 0 -164.333 26.5 -207 79.5s-64 138.167 -64 255.5c0 118.667 21 204.167 63 256.5s111.333 78.5 208 78.5c96 0 164.833 -26.167 206.5 -78.5s62.5 -137.833 62.5 -256.5zM449 324
c0 88 -10.333 147.333 -31 178s-58 46 -112 46c-54.667 0 -92.5 -15.5 -113.5 -46.5s-31.5 -90.167 -31.5 -177.5s10.667 -146.5 32 -177.5s59 -46.5 113 -46.5s91.333 15.5 112 46.5s31 90.167 31 177.5zM215 717l-54 0.000976562c2 30.667 10.833 55.667 26.5 75
s36.167 29 61.5 29c20.667 0 42.834 -8 66.501 -24s41.167 -24 52.5 -24c17.333 0 29 12.333 35 37l55 -1c-2 -30.667 -11 -55.334 -27 -74.001s-36.667 -28 -62 -28c-20 0 -42 7.83301 -66 23.5s-41.667 23.5 -53 23.5c-16.667 0 -28.334 -12.333 -35.001 -37z" />
    <glyph glyph-name="odieresis.sc" horiz-adv-x="611" 
d="M575 324c0 -120 -20.833 -205.833 -62.5 -257.5s-110.5 -77.5 -206.5 -77.5c-95.333 0 -164.333 26.5 -207 79.5s-64 138.167 -64 255.5c0 118.667 21 204.167 63 256.5s111.333 78.5 208 78.5c96 0 164.833 -26.167 206.5 -78.5s62.5 -137.833 62.5 -256.5zM449 324
c0 88 -10.333 147.333 -31 178s-58 46 -112 46c-54.667 0 -92.5 -15.5 -113.5 -46.5s-31.5 -90.167 -31.5 -177.5s10.667 -146.5 32 -177.5s59 -46.5 113 -46.5s91.333 15.5 112 46.5s31 90.167 31 177.5zM275 757c0 -32.667 -17 -49 -51 -49
c-18 0 -31.167 3.83301 -39.5 11.5s-12.5 20.167 -12.5 37.5c0 33.333 17.333 50 52 50c34 0 51 -16.667 51 -50zM440 757c0 -32.667 -17.333 -49 -52 -49c-18 0 -31.167 3.83301 -39.5 11.5s-12.5 20.167 -12.5 37.5c0 33.333 17.333 50 52 50s52 -16.667 52 -50z" />
    <glyph glyph-name="oslash.sc" horiz-adv-x="611" 
d="M90 -14l-55 48l45 63c-29.333 52.667 -44 128.334 -44 227.001c0 118.667 21.167 204.167 63.5 256.5s111.5 78.5 207.5 78.5c76.667 0 136 -16.667 178 -50l43 56l54 -49l-49 -65c29.333 -52.667 44 -128.334 44 -227.001c0 -120 -21 -205.833 -63 -257.5
s-111 -77.5 -207 -77.5c-76.667 0 -136 16.667 -178 50zM450 324c0 52 -3.00098 94.333 -9.00098 127l-3 1l-49 -65l-192 -244c20.667 -28.667 57.334 -43 110.001 -43c54 0 91.333 15.5 112 46.5s31 90.167 31 177.5zM161.999 324c0 -53.333 3.33301 -95.667 10 -127h2
l48 64l194 246c-20.667 27.333 -57 41 -109 41c-54.667 0 -92.5 -15.5 -113.5 -46.5s-31.5 -90.167 -31.5 -177.5z" />
    <glyph glyph-name="ugrave.sc" horiz-adv-x="618" 
d="M557 649v-420.998c0 -159.333 -82.333 -239 -247 -239c-166 0 -249 79.667 -249 239v421h121v-419c0 -44.667 10.333 -77.334 31 -98.001s53 -31 97 -31s76 10.167 96 30.5s30 53.166 30 98.499v419h121zM382 689.002h-89l-112 127h136z" />
    <glyph glyph-name="uacute.sc" horiz-adv-x="618" 
d="M557 649v-420.998c0 -159.333 -82.333 -239 -247 -239c-166 0 -249 79.667 -249 239v421h121v-419c0 -44.667 10.333 -77.334 31 -98.001s53 -31 97 -31s76 10.167 96 30.5s30 53.166 30 98.499v419h121zM328 816.002h145l-130 -127h-98z" />
    <glyph glyph-name="ucircumflex.sc" horiz-adv-x="618" 
d="M557 649v-420.998c0 -159.333 -82.333 -239 -247 -239c-166 0 -249 79.667 -249 239v421h121v-419c0 -44.667 10.333 -77.334 31 -98.001s53 -31 97 -31s76 10.167 96 30.5s30 53.166 30 98.499v419h121zM257 817.002h102l95 -128h-90l-55 82l-54 -82h-91z" />
    <glyph glyph-name="udieresis.sc" horiz-adv-x="618" 
d="M557 649v-420.998c0 -159.333 -82.333 -239 -247 -239c-166 0 -249 79.667 -249 239v421h121v-419c0 -44.667 10.333 -77.334 31 -98.001s53 -31 97 -31s76 10.167 96 30.5s30 53.166 30 98.499v419h121zM279 757.002c0 -32.667 -17 -49 -51 -49
c-18 0 -31.167 3.83301 -39.5 11.5s-12.5 20.167 -12.5 37.5c0 33.333 17.333 50 52 50c34 0 51 -16.667 51 -50zM444 757.002c0 -32.667 -17.333 -49 -52 -49c-18 0 -31.167 3.83301 -39.5 11.5s-12.5 20.167 -12.5 37.5c0 33.333 17.333 50 52 50s52 -16.667 52 -50z" />
    <glyph glyph-name="yacute.sc" horiz-adv-x="582" 
d="M13 649h138l111 -259l31 -75h3l29 75l111 259h133l-214 -438v-211h-124v211zM312 816h145l-130 -127h-98z" />
    <glyph glyph-name="thorn.sc" horiz-adv-x="562" 
d="M524 329c0 -70.667 -19.333 -123.333 -58 -158s-102 -52 -190 -52h-86v-119h-121v649h121v-106h86c88 0 151.333 -17 190 -51s58 -88.333 58 -163zM399 330.001c0 41.333 -8.99902 69.834 -26.999 85.501s-50 23.5 -96 23.5h-87v-220h87
c45.333 0 77.166 7.66699 95.499 23s27.5 44.666 27.5 87.999z" />
    <glyph glyph-name="ydieresis.sc" horiz-adv-x="582" 
d="M13 649h138l111 -259l31 -75h3l29 75l111 259h133l-214 -438v-211h-124v211zM263 757c0 -32.667 -17 -49 -51 -49c-18 0 -31.167 3.83301 -39.5 11.5s-12.5 20.167 -12.5 37.5c0 33.333 17.333 50 52 50c34 0 51 -16.667 51 -50zM428 757c0 -32.667 -17.333 -49 -52 -49
c-18 0 -31.167 3.83301 -39.5 11.5s-12.5 20.167 -12.5 37.5c0 33.333 17.333 50 52 50s52 -16.667 52 -50z" />
    <glyph glyph-name="dotlessi.sc" horiz-adv-x="281" 
d="M78 0v649h124v-649h-124z" />
    <glyph glyph-name="ij.sc" horiz-adv-x="694" 
d="M633 649l-0.000976562 -434.999c0 -150 -67.667 -225 -203 -225c-51.333 0 -92.333 9.66699 -123 29l8 105c24.667 -17.333 55.334 -26 92.001 -26s63 9.16699 79 27.5s24 48.166 24 89.499v435h123zM77.999 0.000976562v649h124v-649h-124z" />
    <glyph glyph-name="lslash.sc" horiz-adv-x="500" 
d="M211 112h271l-4 -112h-388v262l-64 -28l-6 102l70 31v282h121v-232l168 77l8 -105l-176 -79v-198z" />
    <glyph glyph-name="oe.sc" horiz-adv-x="882" 
d="M848 0h-398v62l-3 1c-35.333 -49.333 -91.666 -74 -168.999 -74c-82.667 0 -143.834 26.5 -183.501 79.5s-59.5 138.167 -59.5 255.5c0 118 19.667 203.333 59 256s101.333 79 186 79c75.333 0 131.333 -21.333 168 -64h2v54h385l2 -112h-278v-151h235v-102h-235v-174
h291zM441 324c0 88 -9.99902 146.999 -29.999 176.999s-56.667 45 -110 45c-52.667 0 -89.334 -15.167 -110.001 -45.5s-31 -89.166 -31 -176.499s10.333 -146.333 31 -177s57.667 -46 111 -46c52.667 0 89 15.333 109 46s30 89.667 30 177z" />
    <glyph glyph-name="scaron.sc" horiz-adv-x="487" 
d="M456 190c0 -62.667 -19.8301 -111.834 -59.4971 -147.501s-95.167 -53.5 -166.5 -53.5c-74.667 0 -138.334 15.667 -191.001 47l18 107c54 -31.333 111 -47 171 -47c74.667 0 112 28.667 112 86c0 18.667 -7.33301 34.667 -22 48s-33 23.833 -55 31.5
s-45.833 17 -71.5 28s-49.5 22.667 -71.5 35s-40.333 30.833 -55 55.5s-22 54 -22 88c0 56.667 18.333 102.667 55 138s91.667 53 165 53c67.333 0 124.666 -11 171.999 -33l-15 -105c-54 18.667 -104.333 28 -151 28c-73.333 0 -110 -25 -110 -75
c0 -15.333 5.5 -28.833 16.5 -40.5s25.167 -21.167 42.5 -28.5s36.5 -14.666 57.5 -21.999s42.167 -16 63.5 -26s40.666 -21.5 57.999 -34.5s31.5 -30.833 42.5 -53.5s16.5 -49 16.5 -79zM307.003 689h-102l-94 128h91l54 -85l54 85h92z" />
    <glyph glyph-name="zcaron.sc" horiz-adv-x="524" 
d="M482 0h-445v81l255 388l45 65l-1 2h-291l4 113h433v-91l-250 -379l-45 -64l1 -3h296zM316 689h-102l-94 128h91l54 -85l54 85h92z" />
    <glyph glyph-name="circumflex.sc" 
d="M137 817h102l95 -128h-90l-55 82l-54 -82h-91z" />
    <glyph glyph-name="caron.sc" 
d="M241 689h-102l-94 128h91l54 -85l54 85h92z" />
    <glyph glyph-name="breve.sc" 
d="M246 817h81c0 -88.667 -46.333 -133 -139 -133c-92 0 -138 44.333 -138 133h79c0.666992 -49.333 20.667 -74 60 -74c38 0 57 24.667 57 74z" />
    <glyph glyph-name="dotaccent.sc" 
d="M255 754c0 -34 -21.667 -51 -65 -51s-65 17 -65 51c0 34.667 21.667 52 65 52s65 -17.333 65 -52z" />
    <glyph glyph-name="ring.sc" 
d="M77 740c0 27.333 9.33203 48.833 27.999 64.5s47 23.5 85 23.5c36.667 0 64.834 -8 84.501 -24s29.5 -37.333 29.5 -64c0 -59.333 -38 -89 -114 -89c-75.333 0 -113 29.667 -113 89zM140.999 739c0 -24 17 -36 51 -36c33.333 0 50 12 50 36c0 24.667 -16.667 37 -50 37
c-34 0 -51 -12.333 -51 -37z" />
    <glyph glyph-name="ogonek.sc" 
d="M238 19l45.002 -18.999c-16.667 0 -30.834 -6.33301 -42.501 -19s-17.5 -26.667 -17.5 -42c0 -27.333 17 -41.333 51 -42c17.333 0 33.666 4 48.999 12l10 -67c-26 -14.667 -56.667 -22 -92 -22s-62.333 7.66699 -81 23s-28 35.666 -28 60.999
c0 30 9.83301 54.833 29.5 74.5s45.167 33.167 76.5 40.5z" />
    <glyph glyph-name="tilde.sc" 
d="M99 717l-54 0.000976562c2 30.667 10.833 55.667 26.5 75s36.167 29 61.5 29c20.667 0 42.834 -8 66.501 -24s41.167 -24 52.5 -24c17.333 0 29 12.333 35 37l55 -1c-2 -30.667 -11 -55.334 -27 -74.001s-36.667 -28 -62 -28c-20 0 -42 7.83301 -66 23.5
s-41.667 23.5 -53 23.5c-16.667 0 -28.334 -12.333 -35.001 -37z" />
    <glyph glyph-name="hungarumlaut.sc" 
d="M138 816h120l-103 -127h-76zM304 816h122l-113 -127h-85z" />
    <glyph glyph-name="fi.sc" horiz-adv-x="700" 
d="M563 395l-216 -215l-215 215l215 216zM552 395l-205 205l-51 -51l51 -51l-102 -103l51 -51l103 103l51 -52l-103 -102l52 -51z" />
    <glyph glyph-name="fl.sc" horiz-adv-x="700" 
d="M563 395l-216 -215l-215 215l215 216zM552 395l-205 205l-51 -51l51 -51l-102 -103l51 -51l103 103l51 -52l-103 -102l52 -51z" />
    <glyph glyph-name="dollar.subs" horiz-adv-x="300" 
d="M148 312l66.002 0.00292969l-6 -73c22 -2.66699 44.333 -8.33398 67 -17.001l-11 -71c-32 10 -60.667 15 -86 15c-40 0 -60 -11.333 -60 -34c0 -12.667 8.83301 -23 26.5 -31s37 -14.667 58 -20s40.333 -16.833 58 -34.5s26.5 -40.834 26.5 -69.501
c0 -30.667 -8.33301 -56 -25 -76s-41 -32.667 -73 -38l-3 -69h-66l4 68c-34.667 3.33301 -63.667 11.666 -87 24.999l11 73c32.667 -18.667 65.667 -28 99 -28c40 0 60 13 60 39c0 12.667 -8.83301 23.334 -26.5 32.001s-36.834 15.667 -57.501 21
s-39.834 16.833 -57.501 34.5s-26.5 40.5 -26.5 68.5c0 29.333 8.5 54.166 25.5 74.499s42.833 32.833 77.5 37.5z" />
    <glyph glyph-name="comma.subs" horiz-adv-x="154" 
d="M75 -64c32.667 0 49.001 -17.333 49.001 -52c0 -14 -5.33301 -32.5 -16 -55.5s-22.334 -42.5 -35.001 -58.5l-30 7l15 67c-20.667 10.667 -31 25 -31 43c0 32.667 16 49 48 49z" />
    <glyph glyph-name="period.subs" horiz-adv-x="154" 
d="M126 -110c0 -30 -16.333 -45 -49 -45c-17.333 0 -30 3.5 -38 10.5s-12 18.5 -12 34.5c0 32 16.667 48 50 48c32.667 0 49 -16 49 -48z" />
    <glyph glyph-name="cent.subs" horiz-adv-x="300" 
d="M277 224l-4 -71c-22 8 -43.667 12 -65 12c-34 0 -57.667 -8.16699 -71 -24.5s-20 -44.833 -20 -85.5c0 -41.333 7.33301 -71 22 -89s37.334 -27 68.001 -27c23.333 0 46 5 68 15l6 -64c-19.333 -12.667 -42.333 -20.334 -69 -23.001l-4 -73h-67l5 76
c-79.333 14 -119 75.667 -119 185c0 112.667 44.667 173.667 134 183l6 74h67l-6 -75c21.333 -3.33301 37.666 -7.66602 48.999 -12.999z" />
    <glyph glyph-name="dollar.sups" horiz-adv-x="300" 
d="M148 950l66.002 0.00195312l-6 -73c22 -2.66699 44.333 -8.33398 67 -17.001l-11 -71c-32 10 -60.667 15 -86 15c-40 0 -60 -11.333 -60 -34c0 -12.667 8.83301 -23 26.5 -31s37 -14.667 58 -20s40.333 -16.833 58 -34.5s26.5 -40.834 26.5 -69.501
c0 -64.667 -32.667 -102.667 -98 -114l-3 -69h-66l4 67c-33.333 3.33301 -62.333 12 -87 26l11 73c32.667 -18.667 65.667 -28 99 -28c40 0 60 13 60 39c0 12.667 -8.83301 23.334 -26.5 32.001s-36.834 15.667 -57.501 21s-39.834 16.833 -57.501 34.5
s-26.5 40.5 -26.5 68.5c0 29.333 8.5 54.166 25.5 74.499s42.833 32.833 77.5 37.5z" />
    <glyph glyph-name="comma.sups" horiz-adv-x="154" 
d="M75 574c32.667 0 49.001 -17.333 49.001 -52c0 -14 -5.33301 -32.5 -16 -55.5s-22.334 -42.5 -35.001 -58.5l-30 7l15 67c-20.667 10.667 -31 25 -31 43c0 32.667 16 49 48 49z" />
    <glyph glyph-name="period.sups" horiz-adv-x="154" 
d="M126 528c0 -30 -16.333 -45 -49 -45c-17.333 0 -30 3.5 -38 10.5s-12 18.5 -12 34.5c0 32 16.667 48 50 48c32.667 0 49 -16 49 -48z" />
    <glyph glyph-name="cent.sups" horiz-adv-x="300" 
d="M277 862l-4 -71c-22 8 -43.667 12 -65 12c-34 0 -57.667 -8.16699 -71 -24.5s-20 -44.833 -20 -85.5c0 -41.333 7.33301 -71 22 -89s37.334 -27 68.001 -27c23.333 0 46 5 68 15l6 -64c-17.333 -12.667 -40.333 -20.334 -69 -23.001l-4 -73h-67l5 75
c-79.333 15.333 -119 77.333 -119 186c0 112.667 44.667 173.667 134 183l6 74h67l-6 -75c21.333 -3.33301 37.666 -7.66602 48.999 -12.999z" />
    <glyph glyph-name="numbersign.tf" horiz-adv-x="589" 
d="M53 299h96l19 151h-114v95h124l24 205h94l-23 -205h89l24 205h92l-24 -205h84v-95h-94l-19 -151h112v-97h-122l-23 -202h-92l23 202h-91l-23 -202h-94l24 202h-86v97zM262 450l-20 -151h91l19 151h-90z" />
    <glyph glyph-name="dollar.tf" horiz-adv-x="589" 
d="M281 -82l-65.999 6.00195l7 66c-65.333 8 -116 23.333 -152 46l6.5 54.5c3 25 5.83301 45.5 8.5 61.5c46.667 -27.333 96.667 -45.333 150 -54l26 232c-28.667 12 -52.334 23.167 -71.001 33.5s-38.334 24 -59.001 41s-36.167 37.667 -46.5 62s-15.5 52.5 -15.5 84.5
c0 66.667 20.667 118 62 154s101.333 54.667 180 56l8 64l72 -6l-8 -62c48 -6.66699 84.667 -16 110 -28l-8 -112c-33.333 11.333 -72 19.666 -116 24.999l-25 -204c26.667 -10.667 49.334 -21.334 68.001 -32.001s37.667 -24.667 57 -42s34 -38.833 44 -64.5
s15 -54.834 15 -87.501c0 -76 -19.333 -132.167 -58 -168.5s-99 -55.166 -181 -56.499zM431.001 195.002c0 24.667 -8.83301 45.167 -26.5 61.5s-43.167 31.5 -76.5 45.5l-26 -208c86 2 129 35.667 129 101zM177.001 557.002c0 -22 8.5 -39.999 25.5 -53.999
s41.833 -27.333 74.5 -40l21 183c-80.667 -2.66699 -121 -32.334 -121 -89.001z" />
    <glyph glyph-name="cent.tf" horiz-adv-x="589" 
d="M466 586l-7.00098 -107c-32 13.333 -65 20 -99 20c-54.667 0 -93 -14.5 -115 -43.5s-33 -79.833 -33 -152.5c0 -74 12 -127.167 36 -159.5s60.333 -48.5 109 -48.5c39.333 0 74.333 8.66699 105 26l9 -98c-28 -18.667 -64.333 -30 -109 -34l-7 -122h-92l7 127
c-60.667 11.333 -106 42.166 -136 92.499s-45 122.5 -45 216.5c0 94.667 16.5 167.334 49.5 218.001s84.167 80 153.5 88l8 119h92l-9 -120c30.667 -4 58.334 -11.333 83.001 -22z" />
    <glyph glyph-name="sterling.tf" horiz-adv-x="589" 
d="M72 323l-4.99805 97.998h49c-18 54 -27 97.667 -27 131c0 62 20.833 112.5 62.5 151.5s106.5 58.5 194.5 58.5c60 0 115 -10.667 165 -32l-15 -114c-40.667 18 -85.667 27 -135 27s-85.666 -9.83301 -108.999 -29.5s-35 -46.5 -35 -80.5c0 -26 7 -63.333 21 -112h224v-98
h-202c3.33301 -22 5 -43.333 5 -64c0 -67.333 -23.667 -116.666 -71 -147.999l2 -3c45.333 12 104.666 18 177.999 18c55.333 0 113 -3.66699 173 -11c-0.666992 -1.33301 -1.83398 -21.666 -3.50098 -60.999s-2.83398 -59.666 -3.50098 -60.999
c-80 9.33301 -153.667 14 -221 14c-84 0 -170 -4 -258 -12l-7 117c28 8 50.5 25.167 67.5 51.5s25.5 56.166 25.5 89.499c0 26 -2 49.333 -6 70h-69z" />
    <glyph glyph-name="currency.tf" horiz-adv-x="589" 
d="M122 355c0 32 7.66699 61.332 23 87.999l-63 65l62 68l66 -68c25.333 14.667 53.333 22 84 22c30 0 58 -7.33301 84 -22l67 68l62 -68l-64 -66c15.333 -28.667 23 -57.667 23 -87s-6.66699 -56.666 -20 -81.999l61 -62l-63 -68l-61 62c-27.333 -16.667 -57 -25 -89 -25
c-32.667 0 -62.667 8.33301 -90 25l-61 -62l-62 68l60 62c-12.667 26.667 -19 54 -19 82zM199 356.999c0 -25.333 9.16699 -46.833 27.5 -64.5s40.5 -26.5 66.5 -26.5c26.667 0 49.167 8.83301 67.5 26.5s27.5 39.167 27.5 64.5c0 24.667 -9.16699 45.834 -27.5 63.501
s-40.833 26.5 -67.5 26.5c-26 0 -48.167 -8.83301 -66.5 -26.5s-27.5 -38.834 -27.5 -63.501z" />
    <glyph glyph-name="yen.tf" horiz-adv-x="589" 
d="M110 346h88l-173 404h141l106 -335l23 -77h3l22 77l105 335h138l-168 -404h91v-79h-121v-45h121v-78h-121v-144h-135v144h-120v78h120v45h-120v79z" />
    <glyph glyph-name="franc.tf" horiz-adv-x="589" 
d="M25 189h70v561h434l3 -123h-309v-190h240l-1 -117h-239v-131h75v-92h-75v-97h-128v97h-70v92z" />
    <glyph glyph-name="lira.tf" horiz-adv-x="589" 
d="M76 397l-4.99902 72.999h31c-7.33301 26 -11 53.333 -11 82c0 62 20.667 112.5 62 151.5s106.333 58.5 195 58.5c58.667 0 113.667 -10.667 165 -32l-15 -114c-42 18 -87.333 27 -136 27s-84.834 -10.667 -108.501 -32s-35.5 -49.333 -35.5 -84c0 -20 2 -39 6 -57h248
v-73h-227c6.66699 -20.667 11 -37.667 13 -51h214v-71h-206c0 -2 0.166992 -4.66699 0.5 -8s0.5 -6 0.5 -8c0 -67.333 -23.667 -116.666 -71 -147.999l2 -3c45.333 12 104.333 18 177 18c55.333 0 113 -3.66699 173 -11c0 -0.666992 -0.833008 -20.667 -2.5 -60
s-2.83398 -60 -3.50098 -62c-80.667 9.33301 -154.667 14 -222 14c-84 0 -170 -4 -258 -12l-7 117c28.667 8 51.334 25 68.001 51s25 56 25 90c0 10 -0.333008 17.333 -1 22h-67l-3 71h61c-4.66699 22 -9 39 -13 51h-49z" />
    <glyph glyph-name="peseta.tf" horiz-adv-x="600" 
d="M572 472h-47c-4.66699 -70.667 -26 -122.667 -64 -156s-96.667 -50 -176 -50h-95v-266h-119v472h-48v66h48v212h214c80.667 0 139.667 -16.5 177 -49.5s58.333 -87.167 63 -162.5h48zM190 640v-102h212c-3.33301 38 -14 64.5 -32 79.5s-46.333 22.5 -85 22.5h-95z
M285 371c38 0 66 7.16699 84 21.5s28.667 40.833 32 79.5h-211v-101h95z" />
    <glyph glyph-name="Euro.tf" horiz-adv-x="589" 
d="M462 347l-14 -70.001h-210c9.33301 -63.333 29.166 -108.666 59.499 -135.999s72.833 -41 127.5 -41c46 0 90.667 11.333 134 34l10 -100c-45.333 -28 -103.666 -42 -174.999 -42c-86 0 -152.167 23 -198.5 69s-75.166 118 -86.499 216h-79l1 70h72v52h-72l-1 73h78
c12.667 90.667 44.167 160.5 94.5 209.5s116.5 73.5 198.5 73.5c64 0 117.667 -10.333 161 -31l-24 -107c-34 14 -70.667 21 -110 21c-54.667 0 -97.334 -13.5 -128.001 -40.5s-51 -68.833 -61 -125.5h257l-16 -72l-248 -1v-52h230z" />
    <glyph glyph-name="numbersign.tosf" horiz-adv-x="550" 
d="M36 263h85l19 125h-103v89h114l22 172h92l-23 -172h105l23 172h90l-23 -172h77v-89h-87l-18 -125h105v-89h-115l-23 -174h-90l23 174h-106l-23 -174h-92l22 174h-74v89zM232 388l-18 -125h105l18 125h-105z" />
    <glyph glyph-name="dollar.tosf" horiz-adv-x="550" 
d="M490 184c0 -54 -14.498 -97.833 -43.498 -131.5s-73.833 -54.167 -134.5 -61.5l-9 -128h-100l8 128c-58 5.33301 -107 19.666 -147 42.999l16 110c51.333 -32.667 112 -49 182 -49c68.667 0 103 25.667 103 77c0 20.667 -10.333 37.167 -31 49.5
s-45.834 22.666 -75.501 30.999s-59.334 18 -89.001 29s-54.834 29.167 -75.501 54.5s-31 57.666 -31 96.999c0 50 15.167 90.333 45.5 121s75.5 49.334 135.5 56.001l9 124h100l-9 -125c40.667 -4.66699 81.667 -15 123 -31l-12 -109c-53.333 22 -107.666 33 -162.999 33
c-32.667 0 -57.667 -5.5 -75 -16.5s-26 -26.5 -26 -46.5c0 -16.667 7.33301 -30.667 22 -42s33.167 -19.666 55.5 -24.999s46.333 -12.5 72 -21.5s49.667 -19 72 -30s40.833 -28.167 55.5 -51.5s22 -51.666 22 -84.999z" />
    <glyph glyph-name="zero.tosf" horiz-adv-x="550" 
d="M517 317c0 -114 -19.332 -197.001 -57.999 -249.001s-100.334 -78 -185.001 -78c-85.333 0 -146.833 25.833 -184.5 77.5s-56.5 134.834 -56.5 249.501c0 118.667 18.833 203.334 56.5 254.001s99.5 76 185.5 76s147.833 -25.333 185.5 -76s56.5 -135.334 56.5 -254.001z
M397.001 317.999c0 86 -9.33301 143.833 -28 173.5s-50 44.5 -94 44.5s-75.5 -15 -94.5 -45s-28.5 -87.667 -28.5 -173c0 -60 4.66699 -106.167 14 -138.5s22.333 -53.833 39 -64.5s40 -16 70 -16c44 0 75.333 15 94 45s28 88 28 174z" />
    <glyph glyph-name="one.tosf" horiz-adv-x="550" 
d="M106 0v77h139v414l-158 -91l-13 102l221 137h72v-562h131v-77h-392z" />
    <glyph glyph-name="two.tosf" horiz-adv-x="550" 
d="M491 462c0 -56.667 -21.335 -110.832 -64.002 -162.499s-110 -114.834 -202 -189.501v-3h268l-3 -107h-426v81l66.5 62.5l65 61l54.5 53.5c22 22 38.5 40 49.5 54s22.5 29.667 34.5 47s20.5 33.5 25.5 48.5s7.5 29.5 7.5 43.5c0 56.667 -38.667 85 -116 85
c-55.333 0 -109 -19.333 -161 -58l-30 99c60.667 46 131.334 69 212.001 69c70.667 0 124.834 -16.5 162.501 -49.5s56.5 -77.833 56.5 -134.5z" />
    <glyph glyph-name="three.tosf" horiz-adv-x="550" 
d="M494 172c0 -87.333 -32.6689 -155.001 -98.002 -203.001s-156.666 -73.667 -273.999 -77l-11 101c91.333 2.66699 158.833 19.834 202.5 51.501s65.5 73.167 65.5 124.5c0 66.667 -41.667 100.334 -125 101.001c-15.333 0 -35 -2 -59 -6l-7 87c66 8 111.333 20 136 36
s37 39.333 37 70c0 54 -38.333 81 -115 81c-61.333 0 -115.666 -18 -162.999 -54l-28 99c51.333 42.667 118 64 200 64c70 0 123.5 -15.667 160.5 -47s55.5 -73.333 55.5 -126c0 -66.667 -26.333 -115 -79 -145v-2c68 -24.667 102 -76.334 102 -155.001z" />
    <glyph glyph-name="four.tosf" horiz-adv-x="550" 
d="M529 63h-70v-164l-110 -6v170h-318l-10 84l302 499l136 -9v-472h73zM352 165l7 293l4 81l-2 1l-40 -71l-136 -235l-41 -66l1 -3h207z" />
    <glyph glyph-name="five.tosf" horiz-adv-x="550" 
d="M495 183c0 -90 -32.499 -160.5 -97.499 -211.5s-157.5 -77.5 -277.5 -79.5l-12 106c88 2 154.667 18.167 200 48.5s68 71.5 68 123.5c0 65.333 -43.333 98 -130 98c-48.667 0 -94.334 -10.333 -137.001 -31l-40 50l27 351h365l5 -117h-274l-12 -162
c32 10.667 67.333 16 106 16c66.667 0 118.167 -16.5 154.5 -49.5s54.5 -80.5 54.5 -142.5z" />
    <glyph glyph-name="six.tosf" horiz-adv-x="550" 
d="M511 258c0 -178 -75.667 -267 -227 -267c-78.667 0 -138.334 26.167 -179.001 78.5s-61 136.833 -61 253.5c0 136 35.167 240.167 105.5 312.5s158.5 109.833 264.5 112.5l17 -107c-78 -2.66699 -139.667 -23 -185 -61s-72.666 -90.333 -81.999 -157l2 -2
c41.333 32.667 88.333 49 141 49c136 0 204 -70.667 204 -212zM393 257c0 39.333 -8.83496 67.999 -26.502 85.999s-45.5 27 -83.5 27c-21.333 0 -43.166 -5 -65.499 -15s-39.166 -23 -50.499 -39c0.666992 -81.333 10.167 -137.166 28.5 -167.499s47.833 -45.5 88.5 -45.5
c72.667 0 109 51.333 109 154z" />
    <glyph glyph-name="seven.tosf" horiz-adv-x="550" 
d="M501 637v-103l-259 -631h-133l264 616h-323l8 118h443z" />
    <glyph glyph-name="eight.tosf" horiz-adv-x="550" 
d="M37 182c0 30.667 8.5 59.6689 25.5 87.002s40.833 49.666 71.5 66.999c-48.667 33.333 -73 80.666 -73 141.999c0 112 72 168 216 168c143.333 0 215 -56.333 215 -169c0 -58.667 -25.667 -105.667 -77 -141c67.333 -32.667 101 -84 101 -154
c0 -128 -79.667 -192 -239 -192c-160 0 -240 64 -240 192zM396 174.002c0 8 -0.833008 15.332 -2.5 21.999s-4.66699 12.834 -9 18.501s-8.33301 10.667 -12 15s-9.33398 8.83301 -17.001 13.5s-14 8.33398 -19 11.001s-12.833 6 -23.5 10s-18.5 6.83301 -23.5 8.5l-27 9
c-13 4.33301 -21.833 7.16602 -26.5 8.49902c-54.667 -29.333 -82 -65 -82 -107c0 -33.333 9.83301 -57.5 29.5 -72.5s51.834 -22.5 96.501 -22.5c77.333 0 116 28.667 116 86zM175 472.001c0 -12 2.83105 -22.833 8.49805 -32.5s11.834 -17.5 18.501 -23.5
s17.334 -12.167 32.001 -18.5s26.667 -11 36 -14s24 -7.16699 44 -12.5c46 25.333 69 57 69 95c0 28 -8.33301 48.833 -25 62.5s-44 20.5 -82 20.5c-67.333 0 -101 -25.667 -101 -77z" />
    <glyph glyph-name="nine.tosf" horiz-adv-x="550" 
d="M504 337c0 -76 -9.33398 -142.833 -28.001 -200.5s-45.167 -103.667 -79.5 -138s-73.333 -60 -117 -77s-92.5 -26.167 -146.5 -27.5l-13 104c72.667 3.33301 131.834 24.5 177.501 63.5s73.5 95.167 83.5 168.5l-2 2c-34.667 -29.333 -79 -44 -133 -44
c-63.333 0 -113 18.667 -149 56s-54 93 -54 167c0 76 19.167 134.333 57.5 175s94.5 61 168.5 61c156.667 0 235 -103.333 235 -310zM382.999 355c-0.666992 66 -10 112.333 -28 139s-47.333 40 -88 40c-69.333 0 -104 -40 -104 -120c0 -40.667 8.66699 -70.667 26 -90
s45 -29 83 -29c55.333 0 92.333 20 111 60z" />
    <glyph glyph-name="cent.tosf" horiz-adv-x="550" 
d="M492 583l-8.00098 -111c-41.333 16 -81.666 24 -120.999 24c-62.667 0 -107 -14.5 -133 -43.5s-39 -78.5 -39 -148.5c0 -73.333 14.5 -125.833 43.5 -157.5s71.833 -47.5 128.5 -47.5c45.333 0 87 10 125 30l9 -102c-32 -21.333 -75.333 -34 -130 -38l-8 -128h-97l8 131
c-138.667 22 -208 125.667 -208 311c0 94 18.833 166.5 56.5 217.5s96.5 80.5 176.5 88.5l10 125h97l-10 -127c36 -4 69.333 -12 100 -24z" />
    <glyph glyph-name="sterling.tosf" horiz-adv-x="550" 
d="M53 277l-4.00195 91h43c-12.667 40.667 -19 74 -19 100c0 56 19.333 101.667 58 137s101 53 187 53c58.667 0 112.334 -9.33301 161.001 -28l-15 -103c-40 16 -84.667 24 -134 24c-90.667 0 -136 -31.667 -136 -95c0 -22.667 5 -52 15 -88h219v-91h-197
c2.66699 -22.667 4 -40.667 4 -54c0 -56 -19.667 -97 -59 -123l2 -3c46 10.667 102 16 168 16c54.667 0 109.334 -3.66699 164.001 -11l-6 -108c-74.667 8 -146 12 -214 12c-84.667 0 -166.667 -3.33301 -246 -10l-5 105c26 6 46.167 19.833 60.5 41.5s21.5 46.5 21.5 74.5
c0 18.667 -1.66699 38.667 -5 60h-63z" />
    <glyph glyph-name="currency.tosf" horiz-adv-x="550" 
d="M105 326c0 31.333 7.66699 60.333 23 87l-62 64l62 68l65 -68c25.333 14.667 52.666 22 81.999 22c28 0 55 -7 81 -21l67 67l62 -68l-63 -65c14.667 -26 22 -54.667 22 -86c0 -28 -6.33301 -54.667 -19 -80l60 -61l-63 -68l-59 61
c-27.333 -16.667 -56.666 -25 -87.999 -25c-32.667 0 -62 8.33301 -88 25l-60 -61l-62 68l59 60c-12.667 25.333 -19 52.333 -19 81zM184 328c0 -24.667 8.66895 -45.5 26.002 -62.5s38.666 -25.5 63.999 -25.5s46.833 8.5 64.5 25.5s26.5 37.833 26.5 62.5
c0 24 -8.83301 44.5 -26.5 61.5s-39.167 25.5 -64.5 25.5c-24.667 0 -45.834 -8.5 -63.501 -25.5s-26.5 -37.5 -26.5 -61.5z" />
    <glyph glyph-name="yen.tosf" horiz-adv-x="550" 
d="M99 298h85l-167 351h130l100 -262l27 -76h3l26 76l99 262h128l-163 -351h87v-64h-115v-45h115v-63h-115v-126h-126v126h-114v63h114v45h-114v64z" />
    <glyph glyph-name="franc.tosf" horiz-adv-x="550" 
d="M31 166h65v483h411l2 -110h-294v-159h224v-105h-224v-109h71v-82h-71v-84h-118l-1 84h-65v82z" />
    <glyph glyph-name="lira.tosf" horiz-adv-x="550" 
d="M58 343l-5 62h28c-5.33301 21.333 -8 42.333 -8 63c0 56 19.333 101.667 58 137s101.334 53 188.001 53c57.333 0 111 -9.33301 161 -28l-16 -103c-38.667 16 -83 24 -133 24c-90.667 0 -136 -31.667 -136 -95c0 -18 2 -35 6 -51h235v-62h-219
c4.66699 -17.333 8.33398 -32 11.001 -44h208v-62h-200v-14c0 -56 -19.667 -97 -59 -123l2 -3c46 10.667 102 16 168 16c55.333 0 109.666 -3.66699 162.999 -11l-6 -108c-74 8 -145.333 12 -214 12c-85.333 0 -167 -3.33301 -245 -10l-5 105
c25.333 6 45.166 19.833 59.499 41.5s21.5 46.5 21.5 74.5c0 2 -0.166992 5.16699 -0.5 9.5s-0.5 7.83301 -0.5 10.5h-58l-4 62h54l-12 44h-42z" />
    <glyph glyph-name="peseta.tosf" horiz-adv-x="550" 
d="M538 406h-48.998c-4.66699 -60 -24.5 -104.333 -59.5 -133s-88.833 -43 -161.5 -43h-90v-230h-113v406h-45v58h45v185h203c73.333 0 127.666 -14.667 162.999 -44s54.666 -76.333 57.999 -141h49v-58zM178.002 547v-83h194c-2.66699 30.667 -12.167 52.167 -28.5 64.5
s-41.833 18.5 -76.5 18.5h-89zM268.002 327c33.333 0 58 5.5 74 16.5s25.667 31.833 29 62.5h-193v-79h90z" />
    <glyph glyph-name="Euro.tosf" horiz-adv-x="550" 
d="M519 625l-30 -99c-33.333 14 -69.666 21 -108.999 21c-51.333 0 -90.5 -9.66699 -117.5 -29s-44.833 -51 -53.5 -95h252l-20 -67h-240v-56h223l-20 -64h-195c10 -49.333 28.833 -85 56.5 -107s64.834 -33 111.501 -33c48 0 90.333 11 127 33l6 -99
c-42.667 -28.667 -97.334 -43 -164.001 -43c-160.667 0 -252.334 83 -275.001 249h-43v64h37v56h-37v67h44c23.333 157.333 116 236 278 236c66 0 122.333 -11.333 169 -34z" />
    <glyph glyph-name="zero.zero" horiz-adv-x="568" 
d="M526 317c0 -114 -19.334 -197.001 -58.001 -249.001s-100 -78 -184 -78c-86 0 -147.833 25.833 -185.5 77.5s-56.5 134.834 -56.5 249.501c0 118.667 18.833 203.334 56.5 254.001s99.834 76 186.501 76c84.667 0 146 -25.333 184 -76s57 -135.334 57 -254.001z
M409.999 318.999c0 57.333 -4.83203 101.666 -14.499 132.999s-23 52.333 -40 63s-40.833 16 -71.5 16c-45.333 0 -77.833 -14.667 -97.5 -44s-29.5 -85.666 -29.5 -168.999c0 -57.333 4.83301 -101.833 14.5 -133.5s23.167 -53 40.5 -64s41.333 -16.5 72 -16.5
c45.333 0 77.666 14.833 96.999 44.5s29 86.5 29 170.5zM330 318.999c0 -36.667 -15.333 -55 -46 -55c-16 0 -27.667 4 -35 12s-11 22.333 -11 43c0 37.333 15.333 56 46 56s46 -18.667 46 -56z" />
    <glyph glyph-name="commaaccent" 
d="M192 792c38 0 57 -17.667 57 -53c0 -29.333 -24 -67.333 -72 -114l-29 13l22 65c-22.667 6 -34 20.667 -34 44c0 30 18.667 45 56 45z" />
    <glyph glyph-name="commaccentturn" 
d="M192 667c-38 0 -57 18 -57 54c0 27.333 24 65 72 113l30 -13l-23 -64c22.667 -6 34 -20.667 34 -44c0 -30.667 -18.667 -46 -56 -46z" />
    <glyph glyph-name="f_j" horiz-adv-x="644" 
d="M217 0h-119v509h-74v94h74v30c0 49.333 15.5 89 46.5 119s77.167 45 138.5 45c30.667 0 56.667 -3 78 -9l-4 -85c-17.333 4 -33.333 6 -48 6c-61.333 0 -92 -26.667 -92 -80v-26h340v-604c0 -104 -50 -156 -150 -156c-26 0 -50 4.33301 -72 13l6 87
c14 -4.66699 26.333 -7 37 -7c40 0 60 22 60 66v507h-221v-509zM569 742c0 -39.333 -23.667 -59 -71 -59c-24 0 -41.833 4.5 -53.5 13.5s-17.5 24.167 -17.5 45.5c0 39.333 23.667 59 71 59s71 -19.667 71 -59z" />
    <glyph glyph-name="orn001" horiz-adv-x="653" 
d="M327 -13c-16 0 -33.167 6.83496 -51.5 20.502s-33.5 28.167 -45.5 43.5s-25.5 33.666 -40.5 54.999s-24.833 34.666 -29.5 39.999c-30 35.333 -56.5 85.333 -79.5 150s-34.5 129.667 -34.5 195c0 82.667 22.333 149.167 67 199.5s116 75.5 214 75.5
c50.667 0 94.5 -7.16699 131.5 -21.5s66 -34.333 87 -60s36.5 -54.5 46.5 -86.5s15 -67.667 15 -107c0 -65.333 -11.5 -130.333 -34.5 -195s-49.5 -114.667 -79.5 -150c-2 -2.66699 -14.667 -20.5 -38 -53.5s-45.5 -58.833 -66.5 -77.5s-41.5 -28 -61.5 -28zM327 45.002
c14 0 29.168 7.83301 45.501 23.5s33 35.834 50 60.501s27.167 39 30.5 43c23.333 25.333 44.833 64.333 64.5 117s29.5 105 29.5 157c0 42 -15.333 70.833 -46 86.5s-88.334 23.5 -173.001 23.5c-86.667 0 -145.167 -7.66699 -175.5 -23s-45.5 -44.333 -45.5 -87
c0 -52 10 -104.333 30 -157s41.667 -91.667 65 -117c3.33301 -4 13.5 -18.333 30.5 -43s33.5 -44.834 49.5 -60.501s31 -23.5 45 -23.5zM418.001 199.002c-30 6.66699 -59.335 10 -88.002 10c-29.333 0 -59.666 -3.33301 -90.999 -10c-24 27.333 -39 61.333 -45 102
c44 -15.333 88.333 -23 133 -23c46.667 0 91.334 7.66699 134.001 23c-6.66699 -44 -21 -78 -43 -102zM367.999 339.002l-23.999 40.001c54 27.333 94.333 57.666 121 90.999c17.333 -15.333 26.666 -47 27.999 -95c-33.333 -16.667 -75 -28.667 -125 -36zM312 379.003
l-24.001 -40.001c-49.333 7.33301 -90.666 19.333 -123.999 36c0 46.667 9.33301 78.334 28 95.001c27.333 -34 67.333 -64.333 120 -91z" />
    <glyph glyph-name="undercommaaccent" 
d="M191 -36c46.667 0 70 -17.333 70 -52c0 -28.667 -29 -65.667 -87 -111l-37 13l25 63c-27.333 6 -41 20.333 -41 43c0 29.333 23.333 44 70 44z" />
  </font>
</defs>
</svg>
